<svg width="48" height="48" viewBox="0 0 48 48" fill="none" xmlns="http://www.w3.org/2000/svg">
<path fill-rule="evenodd" clip-rule="evenodd" d="M24 45C29.5695 45 34.911 42.7875 38.8492 38.8492C42.7875 34.911 45 29.5695 45 24C45 18.4305 42.7875 13.089 38.8492 9.15076C34.911 5.2125 29.5695 3 24 3C18.4305 3 13.089 5.21249 9.15076 9.15076C5.21249 13.089 3 18.4305 3 24C3 29.5695 5.21249 34.911 9.15076 38.8492C13.089 42.7875 18.4305 45 24 45ZM24 7.88231e-07C30.3652 9.97283e-07 36.4697 2.52857 40.9706 7.02944C45.4714 11.5303 48 17.6348 48 24C48 30.3652 45.4714 36.4697 40.9706 40.9706C36.4697 45.4714 30.3652 48 24 48C17.6348 48 11.5303 45.4714 7.02944 40.9706C2.52857 36.4697 1.02593e-06 30.3652 1.39623e-06 24C1.76654e-06 17.6348 2.52857 11.5303 7.02944 7.02943C11.5303 2.52856 17.6348 5.79179e-07 24 7.88231e-07ZM13.5 22.5C13.1022 22.5 12.7206 22.658 12.4393 22.9393C12.158 23.2206 12 23.6022 12 24C12 24.3978 12.158 24.7794 12.4393 25.0607C12.7206 25.342 13.1022 25.5 13.5 25.5L30.879 25.5L24.438 31.938C24.1563 32.2197 23.9981 32.6017 23.9981 33C23.9981 33.3983 24.1563 33.7803 24.438 34.062C24.7197 34.3437 25.1017 34.5019 25.5 34.5019C25.8983 34.5019 26.2803 34.3437 26.562 34.062L35.562 25.062C35.7017 24.9227 35.8125 24.7571 35.8881 24.5749C35.9638 24.3927 36.0027 24.1973 36.0027 24C36.0027 23.8027 35.9638 23.6073 35.8881 23.4251C35.8125 23.2429 35.7017 23.0773 35.562 22.938L26.562 13.938C26.2803 13.6563 25.8983 13.4981 25.5 13.4981C25.1017 13.4981 24.7197 13.6563 24.438 13.938C24.1563 14.2197 23.9981 14.6017 23.9981 15C23.9981 15.3983 24.1563 15.7803 24.438 16.062L30.879 22.5L13.5 22.5Z" fill="#ABA7C7"/>
</svg>
