<svg width="48" height="48" viewBox="0 0 48 48" fill="none" xmlns="http://www.w3.org/2000/svg">
<path fill-rule="evenodd" clip-rule="evenodd" d="M24 3C18.4305 3 13.089 5.21249 9.15076 9.15076C5.2125 13.089 3 18.4305 3 24C3 29.5695 5.2125 34.911 9.15076 38.8492C13.089 42.7875 18.4305 45 24 45C29.5695 45 34.911 42.7875 38.8492 38.8492C42.7875 34.911 45 29.5695 45 24C45 18.4305 42.7875 13.089 38.8492 9.15076C34.911 5.21249 29.5695 3 24 3ZM24 48C17.6348 48 11.5303 45.4714 7.02944 40.9706C2.52857 36.4697 2.04816e-06 30.3652 2.41846e-06 24C2.78877e-06 17.6348 2.52857 11.5303 7.02944 7.02944C11.5303 2.52856 17.6348 -9.97283e-07 24 -7.88231e-07C30.3652 -5.79179e-07 36.4697 2.52856 40.9706 7.02944C45.4714 11.5303 48 17.6348 48 24C48 30.3652 45.4714 36.4697 40.9706 40.9706C36.4697 45.4714 30.3652 48 24 48ZM34.5 25.5C34.8978 25.5 35.2794 25.342 35.5607 25.0607C35.842 24.7794 36 24.3978 36 24C36 23.6022 35.842 23.2206 35.5607 22.9393C35.2794 22.658 34.8978 22.5 34.5 22.5L17.121 22.5L23.562 16.062C23.8437 15.7803 24.0019 15.3983 24.0019 15C24.0019 14.6017 23.8437 14.2197 23.562 13.938C23.2803 13.6563 22.8983 13.4981 22.5 13.4981C22.1017 13.4981 21.7197 13.6563 21.438 13.938L12.438 22.938C12.2983 23.0773 12.1875 23.2429 12.1119 23.4251C12.0362 23.6073 11.9973 23.8027 11.9973 24C11.9973 24.1973 12.0362 24.3927 12.1119 24.5749C12.1875 24.7571 12.2983 24.9227 12.438 25.062L21.438 34.062C21.7197 34.3437 22.1017 34.5019 22.5 34.5019C22.8983 34.5019 23.2803 34.3437 23.562 34.062C23.8437 33.7803 24.0019 33.3983 24.0019 33C24.0019 32.6017 23.8437 32.2197 23.562 31.938L17.121 25.5L34.5 25.5Z" fill="#ABA7C7"/>
</svg>
