<svg width="23" height="23" viewBox="0 0 23 23" fill="none" xmlns="http://www.w3.org/2000/svg">
<path d="M8.53289 22.7844L8.54172 22.7822L8.55 22.7784C8.63044 22.7419 8.69144 22.6603 8.69144 22.5611V20.8799H13.1629C14.7346 20.8799 16.0127 19.6028 16.0127 18.032V15.0272C16.0127 14.8978 15.9069 14.7922 15.7776 14.7922C15.6484 14.7922 15.5425 14.8978 15.5425 15.0272V18.032C15.5425 19.3442 14.4761 20.4099 13.1629 20.4099H8.45635C8.3271 20.4099 8.22126 20.5156 8.22126 20.6449V21.9936L6.81092 20.5881L6.79797 20.5571C6.76331 20.4593 6.66842 20.4099 6.58246 20.4099H3.74983C2.43661 20.4099 1.37019 19.3442 1.37019 18.032V11.3255C1.37019 10.0134 2.43661 8.94764 3.74983 8.94764H8.1513C8.28055 8.94764 8.38639 8.84196 8.38639 8.71264C8.38639 8.58331 8.28055 8.47764 8.1513 8.47764H3.74983C2.17812 8.47764 0.9 9.75477 0.9 11.3255V18.032C0.9 19.6028 2.17812 20.8799 3.74983 20.8799H6.44083L8.28979 22.7276C8.33592 22.7737 8.39677 22.7961 8.45635 22.7961C8.48643 22.7961 8.51445 22.789 8.53019 22.7851L8.53289 22.7844Z" fill="white" stroke="white" stroke-width="0.2"/>
<path d="M6.79681 20.554L6.79686 20.554L6.79554 20.5511C6.75737 20.4672 6.67364 20.4141 6.58249 20.4141H3.74987C2.43665 20.4141 1.36587 19.3439 1.36587 18.0318V11.3253C1.36587 10.0132 2.43665 8.94308 3.74987 8.94308H8.15134C8.28058 8.94308 8.38207 8.84176 8.38207 8.71243C8.38207 8.58311 8.28058 8.48179 8.15134 8.48179H3.74987C2.18251 8.48179 0.904395 9.75892 0.904395 11.3253V18.0318C0.904395 19.5982 2.18251 20.8754 3.74987 20.8754H6.44522L8.29419 22.7231C8.33783 22.7667 8.39329 22.7915 8.45639 22.7915C8.48574 22.7915 8.51981 22.7851 8.55068 22.7673C8.63552 22.7284 8.68712 22.6464 8.68712 22.5565V20.871H13.1629C14.7303 20.871 16.0084 19.5939 16.0084 18.0275V15.0226C16.0084 14.8933 15.9069 14.792 15.7776 14.792C15.6484 14.792 15.5469 14.8933 15.5469 15.0226V18.0275C15.5469 19.3396 14.4761 20.4097 13.1629 20.4097H8.45639C8.32714 20.4097 8.22565 20.5111 8.22565 20.6404V22.0017L6.81099 20.588L6.79681 20.554Z" fill="white" stroke="white" stroke-width="0.2"/>
<path d="M20.0839 11.5459L20.084 11.546C21.5191 10.463 22.3452 8.8159 22.3453 7.0229C22.341 3.90778 19.8015 1.37 16.6798 1.37H15.5772C12.4555 1.37 9.91609 3.90772 9.91609 7.02712C9.91609 10.1465 12.4555 12.6842 15.5772 12.6842H16.6798C17.2492 12.6842 17.806 12.5987 18.3461 12.4359L18.3602 12.4317H18.371L18.3778 12.4306C18.3815 12.4301 18.3868 12.4293 18.3925 12.4286C18.3982 12.428 18.4058 12.4273 18.4142 12.4273C18.4737 12.4273 18.5345 12.4496 18.5807 12.4957C18.5807 12.4957 18.5807 12.4957 18.5808 12.4958M20.0839 11.5459L18.5101 12.5665L18.5808 12.4958M20.0839 11.5459L20.0792 11.5499C20.0303 11.5918 19.992 11.6573 19.992 11.7347V13.9021M20.0839 11.5459L19.992 13.9021M18.5808 12.4958L19.992 13.9021M18.5808 12.4958L19.992 13.9021M22.1421 9.80754L22.1422 9.80726C22.5808 8.94403 22.8067 8.00528 22.8067 7.02712C22.8067 3.64907 20.0556 0.9 16.6754 0.9H15.5729C12.1924 0.9 9.4459 3.65361 9.4459 7.03147C9.4459 10.4095 12.197 13.1586 15.5772 13.1586H16.6798C17.2067 13.1586 17.7295 13.0922 18.2348 12.9593L18.3449 12.9304L20.0562 14.6405C20.1023 14.6866 20.1632 14.7089 20.2227 14.7089C20.2526 14.7089 20.2873 14.7023 20.3186 14.6838C20.3958 14.6459 20.4535 14.5661 20.4535 14.4696V11.8565L20.5296 11.7951L20.5296 11.7951C21.1987 11.2549 21.7523 10.5689 22.1421 9.80754Z" fill="white" stroke="white" stroke-width="0.2"/>
<path d="M22.1421 9.81127L22.142 9.81153C21.7565 10.5686 21.1985 11.2591 20.5294 11.7949L22.1421 9.81127ZM22.1421 9.81127C22.5805 8.94389 22.8065 8.00958 22.8065 7.03131C22.8065 3.65766 20.0598 0.908545 16.6796 0.908545H15.577C12.2012 0.908545 9.45005 3.65321 9.45005 7.03131C9.45005 10.405 12.1967 13.1541 15.577 13.1541H16.6796C17.2065 13.1541 17.7292 13.0877 18.2344 12.9549C18.2344 12.9549 18.2345 12.9548 18.2346 12.9548L18.3488 12.9256L20.0577 14.6333C20.1024 14.6842 20.1665 14.7044 20.2225 14.7044C20.2551 14.7044 20.284 14.6966 20.3021 14.6906L20.3021 14.6908L20.3089 14.688C20.3984 14.6507 20.4533 14.5664 20.4533 14.4738V11.8564L20.5291 11.7952L22.1421 9.81127ZM18.3728 12.4358H18.3599L18.3457 12.4402C17.8102 12.6028 17.2491 12.6884 16.6796 12.6884H15.577C12.4552 12.6884 9.91152 10.1507 9.91152 7.02695C9.91152 3.90751 12.451 1.36548 15.577 1.36548H16.6796C19.8013 1.36548 22.345 3.90325 22.345 7.02695C22.345 8.82447 21.5232 10.4715 20.0841 11.5544C20.0226 11.6005 19.9918 11.6701 19.9918 11.7389V13.9145L18.5762 12.4999C18.5326 12.4563 18.4771 12.4315 18.414 12.4315C18.3989 12.4315 18.385 12.4338 18.3791 12.4348L18.378 12.435C18.3752 12.4355 18.3736 12.4357 18.3728 12.4358Z" fill="white" stroke="white" stroke-width="0.2"/>
<path d="M16.3354 4.32713C16.3201 4.32713 16.3049 4.32604 16.2896 4.32495C16.2744 4.32386 16.2591 4.32278 16.2439 4.32278C15.9214 4.32278 15.612 4.44471 15.3766 4.66681C15.1152 4.91068 14.9714 5.24165 14.9714 5.59875C14.9714 5.67278 14.9104 5.73375 14.8363 5.73375C14.7622 5.73375 14.7012 5.67278 14.7012 5.59875C14.7012 5.17197 14.8798 4.76262 15.1936 4.47084C15.4812 4.20519 15.856 4.05713 16.2439 4.05713C16.2787 4.05713 16.3179 4.05713 16.3528 4.06148M16.3354 4.32713L16.3285 4.42689C16.3295 4.42697 16.3306 4.42704 16.3316 4.42711M16.3354 4.32713V4.42713C16.3341 4.42713 16.3329 4.42712 16.3316 4.42711M16.3354 4.32713C16.9673 4.37068 17.4728 4.8802 17.5164 5.5073L16.5057 6.74221M16.3316 4.42711C16.3141 4.42696 16.2973 4.42575 16.2838 4.42479L16.2825 4.4247C16.2666 4.42357 16.255 4.42278 16.2439 4.42278C15.9467 4.42278 15.6619 4.53507 15.4453 4.73953L15.4449 4.73994L15.4449 4.73994C15.2037 4.9649 15.0714 5.26938 15.0714 5.59875C15.0714 5.72807 14.9655 5.83375 14.8363 5.83375C14.707 5.83375 14.6012 5.72807 14.6012 5.59875C14.6012 5.14408 14.7915 4.70823 15.1255 4.39761L15.1258 4.39738L15.1258 4.39738C15.4316 4.11493 15.8305 3.95713 16.2439 3.95713L16.2464 3.95713C16.2789 3.95713 16.322 3.95712 16.3623 3.9619M16.3316 4.42711C16.9121 4.46868 17.3765 4.93773 17.4166 5.51423L17.4167 5.51481C17.4608 6.10044 17.0764 6.61344 16.5057 6.74221M16.3623 3.9619C16.3614 3.96184 16.3605 3.96178 16.3596 3.96172L16.3528 4.06148M16.3623 3.9619C16.3633 3.96202 16.3642 3.96213 16.3652 3.96226L16.3528 4.06148M16.3623 3.9619C17.1735 4.01882 17.8263 4.67189 17.882 5.48295M16.3528 4.06148C17.1154 4.11374 17.7299 4.72778 17.7822 5.48988M17.7822 5.48988L17.882 5.48295M17.7822 5.48988C17.8345 6.24327 17.3421 6.92262 16.6056 7.09682M17.7822 5.48988L17.882 5.48303C17.882 5.483 17.882 5.48298 17.882 5.48295M17.882 5.48295C17.9376 6.28436 17.4136 7.00827 16.629 7.19404L16.6294 7.19394L16.6056 7.09682M16.6056 7.09682L16.6286 7.19413M16.6056 7.09682L16.3746 7.15343V8.40327C16.3746 8.43811 16.3615 8.47295 16.3354 8.49908C16.3179 8.52085 16.2831 8.53392 16.2482 8.53392C16.1741 8.53392 16.1131 8.47295 16.1131 8.39892V7.35375C16.1131 7.10553 16.2831 6.89214 16.5271 6.83988L16.6286 7.19413M16.6286 7.19413L16.4746 7.23188V8.40327C16.4746 8.46133 16.4533 8.52057 16.4096 8.56621C16.3667 8.61602 16.3001 8.63392 16.2482 8.63392C16.119 8.63392 16.0131 8.52824 16.0131 8.39892V7.35375C16.0131 7.05913 16.2152 6.80466 16.5057 6.74221M16.6286 7.19413L16.5057 6.74221" fill="white" stroke="white" stroke-width="0.2"/>
<path d="M16.3354 4.32281C16.3202 4.32281 16.3049 4.32173 16.2897 4.32064C16.2744 4.31955 16.2592 4.31846 16.2439 4.31846C15.9171 4.31846 15.6076 4.4404 15.3723 4.66249C15.1108 4.90636 14.967 5.23733 14.967 5.59879C14.967 5.67282 14.9104 5.72943 14.8363 5.72943C14.7622 5.72943 14.7056 5.67282 14.7056 5.59879C14.7056 5.17201 14.8842 4.76265 15.1937 4.47523C15.4813 4.20959 15.8517 4.06152 16.2439 4.06152C16.2788 4.06152 16.318 4.06152 16.3528 4.06588M16.3354 4.32281L16.3285 4.42258C16.3296 4.42265 16.3306 4.42272 16.3317 4.4228M16.3354 4.32281V4.42281C16.3342 4.42281 16.3329 4.42281 16.3317 4.4228M16.3354 4.32281C16.9673 4.36636 17.4772 4.87588 17.5208 5.50733L16.5055 6.74664M16.3317 4.4228C16.3141 4.42264 16.2973 4.42144 16.2838 4.42047L16.2825 4.42038C16.2667 4.41925 16.255 4.41846 16.2439 4.41846C15.9422 4.41846 15.6575 4.53088 15.441 4.73522L15.4405 4.73562L15.4405 4.73562C15.1995 4.96046 15.067 5.26488 15.067 5.59879C15.067 5.72811 14.9656 5.82943 14.8363 5.82943C14.7071 5.82943 14.6056 5.72811 14.6056 5.59879C14.6056 5.14433 14.7957 4.70839 15.1256 4.40197L15.1258 4.40177L15.1258 4.40177C15.4315 4.11943 15.826 3.96152 16.2439 3.96152L16.2465 3.96152C16.2789 3.96152 16.3221 3.96152 16.3623 3.9663M16.3317 4.4228C16.9124 4.46438 17.3809 4.93364 17.421 5.51417C17.4612 6.10082 17.0758 6.61805 16.5055 6.74664M16.3623 3.9663C16.3615 3.96623 16.3606 3.96617 16.3597 3.96611L16.3528 4.06588M16.3623 3.9663C16.3633 3.96641 16.3643 3.96653 16.3652 3.96665L16.3528 4.06588M16.3623 3.9663C17.174 4.02324 17.8217 4.67668 17.882 5.48686L17.882 5.48735C17.9376 6.289 17.4134 7.00843 16.6332 7.19411L16.6334 7.19408L16.61 7.09686M16.3528 4.06588C17.1155 4.11814 17.7256 4.73217 17.7822 5.49427C17.8345 6.24766 17.3421 6.92266 16.61 7.09686M16.61 7.09686L16.6331 7.19414M16.61 7.09686L16.3746 7.15347V8.40331C16.3746 8.43815 16.3616 8.46864 16.3354 8.49476C16.318 8.51654 16.2831 8.5296 16.2483 8.5296C16.1742 8.5296 16.1175 8.47299 16.1175 8.39896V7.35379C16.1175 7.10557 16.2875 6.89653 16.5272 6.84427L16.6331 7.19414M16.6331 7.19414L16.4746 7.23226V8.40331C16.4746 8.46474 16.4511 8.51891 16.4096 8.56198C16.3666 8.61172 16.3001 8.6296 16.2483 8.6296C16.119 8.6296 16.0175 8.52828 16.0175 8.39896V7.35379C16.0175 7.05854 16.2202 6.80902 16.5055 6.74664M16.6331 7.19414L16.5055 6.74664" fill="white" stroke="white" stroke-width="0.2"/>
<path d="M16.0816 10.2857C16.1277 10.3318 16.1886 10.3541 16.2481 10.3541C16.3077 10.3541 16.3686 10.3318 16.4147 10.2857C16.4608 10.2396 16.4832 10.1787 16.4832 10.1191C16.4832 10.0595 16.4608 9.99869 16.4147 9.95259C16.3686 9.90649 16.3077 9.88413 16.2481 9.88413C16.1886 9.88413 16.1277 9.90649 16.0816 9.95259C16.0354 9.99869 16.013 10.0595 16.013 10.1191C16.013 10.1787 16.0354 10.2396 16.0816 10.2857Z" fill="white" stroke="white" stroke-width="0.2"/>
<path d="M16.0174 10.1189C16.0174 10.1739 16.037 10.2366 16.0858 10.2813C16.1305 10.3301 16.1932 10.3496 16.2482 10.3496C16.3031 10.3496 16.3659 10.3301 16.4105 10.2813C16.4594 10.2366 16.4789 10.1739 16.4789 10.1189C16.4789 10.0573 16.4552 10.0029 16.4134 9.95979C16.3686 9.90864 16.3043 9.88828 16.2482 9.88828C16.1865 9.88828 16.1322 9.91199 16.089 9.95374C16.0378 9.9985 16.0174 10.0628 16.0174 10.1189Z" fill="white" stroke="white" stroke-width="0.2"/>
<path d="M3.25327 14.635C3.25327 14.7643 3.35912 14.87 3.48837 14.87H12.6835C12.8128 14.87 12.9186 14.7643 12.9186 14.635C12.9186 14.5057 12.8128 14.4 12.6835 14.4H3.48837C3.35912 14.4 3.25327 14.5057 3.25327 14.635Z" fill="white" stroke="white" stroke-width="0.2"/>
<path d="M3.25767 14.635C3.25767 14.7644 3.35916 14.8657 3.4884 14.8657H12.6836C12.8128 14.8657 12.9143 14.7644 12.9143 14.635C12.9143 14.5057 12.8128 14.4044 12.6836 14.4044H3.4884C3.35916 14.4044 3.25767 14.5057 3.25767 14.635Z" fill="white" stroke="white" stroke-width="0.2"/>
<path d="M12.5169 17.24C12.563 17.2861 12.6239 17.3085 12.6834 17.3085C12.743 17.3085 12.8039 17.2861 12.85 17.24C12.8961 17.1939 12.9185 17.1331 12.9185 17.0735C12.9185 17.0139 12.8961 16.953 12.85 16.9069C12.8039 16.8608 12.743 16.8385 12.6834 16.8385C12.6239 16.8385 12.563 16.8608 12.5169 16.9069C12.4707 16.953 12.4483 17.0139 12.4483 17.0735C12.4483 17.1331 12.4707 17.1939 12.5169 17.24Z" fill="white" stroke="white" stroke-width="0.2"/>
<path d="M12.4527 17.0742C12.4527 17.1359 12.4765 17.1902 12.5183 17.2334C12.5631 17.2845 12.6273 17.3049 12.6835 17.3049C12.7384 17.3049 12.8012 17.2854 12.8458 17.2366C12.8947 17.192 12.9142 17.1292 12.9142 17.0742C12.9142 17.0126 12.8905 16.9583 12.8487 16.9151C12.8039 16.864 12.7396 16.8436 12.6835 16.8436C12.6218 16.8436 12.5675 16.8673 12.5243 16.9091C12.4731 16.9538 12.4527 17.0181 12.4527 17.0742Z" fill="white" stroke="white" stroke-width="0.2"/>
<path d="M3.25327 17.0735C3.25327 17.2028 3.35912 17.3085 3.48837 17.3085H10.9709C11.1001 17.3085 11.206 17.2028 11.206 17.0735C11.206 16.9442 11.1001 16.8385 10.9709 16.8385H3.48837C3.35912 16.8385 3.25327 16.9442 3.25327 17.0735Z" fill="white" stroke="white" stroke-width="0.2"/>
<path d="M3.25767 17.0742C3.25767 17.2036 3.35916 17.3049 3.4884 17.3049H10.9709C11.1001 17.3049 11.2016 17.2036 11.2016 17.0742C11.2016 16.9449 11.1001 16.8436 10.9709 16.8436H3.4884C3.35916 16.8436 3.25767 16.9449 3.25767 17.0742Z" fill="white" stroke="white" stroke-width="0.2"/>
<path d="M3.25327 12.1958C3.25327 12.3251 3.35912 12.4308 3.48837 12.4308H9.85089C9.98013 12.4308 10.086 12.3251 10.086 12.1958C10.086 12.0665 9.98013 11.9608 9.85089 11.9608H3.48837C3.35912 11.9608 3.25327 12.0665 3.25327 12.1958Z" fill="white" stroke="white" stroke-width="0.2"/>
<path d="M3.25767 12.1958C3.25767 12.3252 3.35916 12.4265 3.4884 12.4265H9.85092C9.98017 12.4265 10.0817 12.3252 10.0817 12.1958C10.0817 12.0665 9.98017 11.9652 9.85092 11.9652H3.4884C3.35916 11.9652 3.25767 12.0665 3.25767 12.1958Z" fill="white" stroke="white" stroke-width="0.2"/>
</svg>
