<svg width="50" height="41" viewBox="0 0 50 41" fill="none" xmlns="http://www.w3.org/2000/svg">
<path d="M16.5982 36.2385V38.2457L13.8313 35.9822L13.8276 35.9749C13.7002 35.6892 13.4003 35.5963 13.1986 35.5963H7.00883C4.16187 35.5963 1.99041 33.713 1.99041 31.5515V19.5216C1.99041 17.3601 4.16187 15.4767 7.00883 15.4767H16.6268C16.9318 15.4767 17.322 15.2587 17.322 14.8346C17.322 14.4104 16.9318 14.1924 16.6268 14.1924H7.00883C3.55175 14.1924 0.6 16.5117 0.6 19.5216V31.5515C0.6 34.5613 3.55175 36.8807 7.00883 36.8807H12.8365L16.8302 40.1567C16.97 40.2714 17.1402 40.3178 17.2934 40.3178C17.3735 40.3178 17.4473 40.3025 17.4815 40.2954C17.4839 40.2949 17.486 40.2944 17.488 40.294L17.5183 40.2878L17.5474 40.277C17.7561 40.1991 17.9886 39.994 17.9886 39.6756V36.8807H27.5779C31.035 36.8807 33.9867 34.5613 33.9867 31.5515V26.1615C33.9867 25.7373 33.5966 25.5193 33.2915 25.5193C32.9864 25.5193 32.5963 25.7373 32.5963 26.1615V31.5515C32.5963 33.713 30.4248 35.5963 27.5779 35.5963H17.2934C16.9883 35.5963 16.5982 35.8143 16.5982 36.2385Z" fill="#4F4494" stroke="#4F4494" stroke-width="0.8"/>
<path d="M17.2926 40.31C17.368 40.31 17.4625 40.2972 17.555 40.2547C17.7799 40.1671 17.9783 39.9591 17.9783 39.6678V36.865H27.5771C31.0247 36.865 33.9765 34.5457 33.9765 31.5437V26.1537C33.9765 25.7295 33.5958 25.5193 33.2908 25.5193C32.9857 25.5193 32.6051 25.7295 32.6051 26.1537V31.5437C32.6051 33.7052 30.4241 35.5963 27.5771 35.5963H17.2926C16.9876 35.5963 16.6069 35.8065 16.6069 36.2307V38.2599L13.8307 35.9825L13.8211 35.9636L13.8179 35.9572L13.8144 35.9509C13.6824 35.7127 13.4264 35.6042 13.1979 35.6042H7.0081C4.16114 35.6042 1.98015 33.713 1.98015 31.5515V19.5216C1.98015 17.3601 4.16114 15.4689 7.0081 15.4689H16.626C16.9311 15.4689 17.3117 15.2587 17.3117 14.8346C17.3117 14.4104 16.9311 14.2002 16.626 14.2002H7.0081C3.56054 14.2002 0.608789 16.5196 0.608789 19.5216V31.5515C0.608789 34.5535 3.56054 36.8729 7.0081 36.8729H12.8453L16.839 40.1489C16.97 40.2564 17.127 40.31 17.2926 40.31Z" fill="#4F4494" stroke="#4F4494" stroke-width="0.8"/>
<path d="M42.3198 23.7316V20.2557C42.3198 20.009 42.4666 19.8298 42.604 19.7332L42.6135 19.7265L42.6234 19.7204C45.7167 17.804 47.4618 14.9154 47.462 11.8042C47.453 6.40811 42.0623 1.88432 35.2635 1.88432H32.8542C26.0554 1.88432 20.6652 6.40799 20.6652 11.8113C20.6652 17.2147 26.0554 21.7383 32.8542 21.7383H35.2635C36.4969 21.7383 37.7026 21.5862 38.8717 21.297L38.9191 21.2853H38.9509L38.957 21.2845C38.9654 21.2834 38.9789 21.2818 38.9938 21.2804C39.0083 21.279 39.0294 21.2775 39.0535 21.2775C39.2065 21.2775 39.3765 21.3237 39.5163 21.4382L42.3198 23.7316ZM42.3198 23.7316L39.5167 21.4385L42.3198 23.7316ZM43.0054 25.8114C43.0824 25.8114 43.1794 25.7981 43.2738 25.7533C43.476 25.6692 43.6911 25.4677 43.6911 25.1614V20.6033L43.7596 20.5579L43.7597 20.5579C45.242 19.5755 46.474 18.3242 47.3444 16.9287L47.3451 16.9276C48.325 15.3443 48.8334 13.6158 48.8334 11.8113C48.8334 5.55968 42.663 0.6 35.254 0.6H32.8447C25.4349 0.6 19.2748 5.56815 19.2748 11.8191C19.2748 18.0708 25.4452 23.0305 32.8542 23.0305H35.2635C36.4241 23.0305 37.5761 22.9105 38.6904 22.6699L38.8634 22.6326L42.5422 25.6504C42.6821 25.7651 42.8523 25.8114 43.0054 25.8114ZM38.9417 21.2864C38.9416 21.2864 38.9417 21.2864 38.9418 21.2864L38.9417 21.2864Z" fill="#4F4494" stroke="#4F4494" stroke-width="0.8"/>
<path d="M42.3181 23.7534L39.5055 21.4462C39.3745 21.3387 39.2174 21.2851 39.0518 21.2851C39.0268 21.2851 39.0053 21.2868 38.9896 21.2885C38.9755 21.2899 38.9624 21.2917 38.9559 21.2926L38.9548 21.2927C38.9542 21.2928 38.9537 21.2929 38.9532 21.293H38.917L38.8693 21.3048C37.7105 21.5938 36.4955 21.746 35.2618 21.746H32.8525C26.0534 21.746 20.654 17.2222 20.654 11.8112C20.654 6.4077 26.0443 1.87639 32.8525 1.87639H35.2618C42.0609 1.87639 47.4603 6.40023 47.4603 11.8112C47.4603 14.9312 45.724 17.8196 42.6221 19.7356C42.4408 19.8474 42.3181 20.04 42.3181 20.2634V23.7534ZM47.3432 16.9356L47.3439 16.9345C48.323 15.3442 48.8317 13.6239 48.8317 11.819C48.8317 5.57535 42.671 0.615503 35.2618 0.615503H32.8525C25.4532 0.615503 19.2826 5.56721 19.2826 11.819C19.2826 18.0627 25.4433 23.0225 32.8525 23.0225H35.2618C36.4221 23.0225 37.5737 22.9026 38.6877 22.6622C38.688 22.6621 38.6883 22.6621 38.6886 22.662L38.8702 22.6238L42.5398 25.6341C42.6833 25.7649 42.866 25.8035 43.0037 25.8035C43.0914 25.8035 43.1678 25.7863 43.214 25.7737L43.226 25.7704L43.2379 25.7664C43.4741 25.6856 43.6894 25.4726 43.6894 25.1691V20.6032L43.7567 20.5586C43.7569 20.5585 43.7571 20.5584 43.7572 20.5583C45.24 19.5835 46.482 18.3241 47.3432 16.9356Z" fill="#4F4494" stroke="#4F4494" stroke-width="0.8"/>
<path d="M34.9962 12.3656L35.1785 12.3289C36.9293 11.9884 38.2066 10.6292 38.0706 9.02034C37.935 7.40063 36.3788 6.1977 34.5796 6.09295C34.4857 6.08398 34.387 6.084 34.318 6.08401L34.3105 6.08401C33.3822 6.08401 32.4769 6.37434 31.7739 6.90737L31.7739 6.90737L31.7728 6.90817C31.0024 7.4963 30.5395 8.34213 30.5395 9.24933C30.5395 9.67349 30.9296 9.8915 31.2347 9.8915C31.5397 9.8915 31.9299 9.67349 31.9299 9.24933C31.9299 8.74969 32.1723 8.26757 32.6586 7.89524L32.6586 7.89525L32.6605 7.89385C33.0979 7.55492 33.6857 7.36052 34.3105 7.36052C34.3302 7.36052 34.3518 7.36167 34.3871 7.36374L34.3907 7.36395C34.4189 7.36561 34.4572 7.36786 34.4977 7.36827C35.7358 7.44231 36.619 8.2506 36.6925 9.11903L36.6925 9.11903L36.6928 9.12187C36.773 9.99554 36.0721 10.857 34.8583 11.082C34.189 11.2005 33.6248 11.7082 33.6248 12.3974V14.2722C33.6248 14.6964 34.015 14.9144 34.32 14.9144C34.4432 14.9144 34.6357 14.8825 34.7791 14.7485C34.9145 14.6306 34.9962 14.4626 34.9962 14.28V12.3656Z" fill="#4F4494" stroke="#4F4494" stroke-width="0.8"/>
<path d="M34.9954 14.2799V12.3667L35.1863 12.329C35.1865 12.329 35.1866 12.329 35.1867 12.3289C36.9275 11.9888 38.206 10.6377 38.0699 9.02803L38.0699 9.02803L38.0696 9.02566C37.9233 7.40998 36.3807 6.20554 34.5789 6.10064C34.4849 6.09167 34.3863 6.09169 34.3172 6.0917L34.3098 6.0917C33.3714 6.0917 32.4758 6.38232 31.7731 6.91506L31.7731 6.91506L31.7722 6.91573C31.0103 7.49673 30.5482 8.34293 30.5482 9.24921C30.5482 9.67337 30.9289 9.88356 31.2339 9.88356C31.539 9.88356 31.9196 9.67337 31.9196 9.24921C31.9196 8.74096 32.1628 8.25909 32.6484 7.88731L32.6484 7.88731L32.6502 7.88591C33.0872 7.54734 33.6748 7.35259 34.3098 7.35259C34.3294 7.35259 34.351 7.35374 34.3863 7.35581L34.39 7.35602C34.4182 7.35768 34.4564 7.35992 34.497 7.36033C35.7363 7.43444 36.6277 8.24355 36.7013 9.11868C36.7745 9.99687 36.0683 10.8655 34.857 11.0898C34.2003 11.2079 33.6336 11.706 33.6336 12.3973V14.2721C33.6336 14.6963 34.0142 14.9065 34.3193 14.9065C34.4424 14.9065 34.6346 14.8746 34.778 14.7409C34.9018 14.6336 34.9954 14.4769 34.9954 14.2799Z" fill="#4F4494" stroke="#4F4494" stroke-width="0.8"/>
<path d="M33.8564 17.8388C33.9962 17.9534 34.1665 17.9998 34.3196 17.9998C34.4728 17.9998 34.643 17.9534 34.7828 17.8388C34.9271 17.7204 35.0148 17.5468 35.0148 17.3576C35.0148 17.1685 34.9271 16.9949 34.7828 16.8765C34.643 16.7618 34.4728 16.7155 34.3196 16.7155C34.1665 16.7155 33.9962 16.7618 33.8564 16.8765C33.7121 16.9949 33.6244 17.1685 33.6244 17.3576C33.6244 17.5468 33.7121 17.7204 33.8564 17.8388Z" fill="#4F4494" stroke="#4F4494" stroke-width="0.8"/>
<path d="M33.6332 17.3575C33.6332 17.5306 33.7088 17.7107 33.8647 17.8311C34.0066 17.9549 34.1843 17.9919 34.3189 17.9919C34.4535 17.9919 34.6311 17.9549 34.7731 17.8311C34.929 17.7107 35.0046 17.5306 35.0046 17.3575C35.0046 17.1597 34.9101 17.0024 34.7855 16.8951C34.6416 16.7623 34.4574 16.7232 34.3189 16.7232C34.1586 16.7232 34.0063 16.7734 33.8779 16.874C33.7131 16.9943 33.6332 17.1796 33.6332 17.3575Z" fill="#4F4494" stroke="#4F4494" stroke-width="0.8"/>
<path d="M5.74355 25.4583C5.74355 25.8825 6.1337 26.1005 6.43876 26.1005H26.5317C26.8367 26.1005 27.2269 25.8825 27.2269 25.4583C27.2269 25.0342 26.8367 24.8162 26.5317 24.8162H6.43876C6.1337 24.8162 5.74355 25.0342 5.74355 25.4583Z" fill="#4F4494" stroke="#4F4494" stroke-width="0.8"/>
<path d="M5.75137 25.4582C5.75137 25.8824 6.13199 26.0926 6.43705 26.0926H26.53C26.835 26.0926 27.2156 25.8824 27.2156 25.4582C27.2156 25.0341 26.835 24.8239 26.53 24.8239H6.43705C6.13199 24.8239 5.75137 25.0341 5.75137 25.4582Z" fill="#4F4494" stroke="#4F4494" stroke-width="0.8"/>
<path d="M26.0683 30.3136C26.2082 30.4283 26.3784 30.4747 26.5315 30.4747C26.6847 30.4747 26.8549 30.4283 26.9947 30.3136C27.139 30.1952 27.2267 30.0217 27.2267 29.8325C27.2267 29.6433 27.139 29.4698 26.9947 29.3514C26.8549 29.2367 26.6847 29.1903 26.5315 29.1903C26.3784 29.1903 26.2082 29.2367 26.0683 29.3514C25.924 29.4698 25.8363 29.6433 25.8363 29.8325C25.8363 30.0217 25.924 30.1952 26.0683 30.3136Z" fill="#4F4494" stroke="#4F4494" stroke-width="0.8"/>
<path d="M25.8441 29.8336C25.8441 30.0314 25.9386 30.1887 26.0632 30.296C26.2071 30.4288 26.3913 30.4679 26.5298 30.4679C26.6644 30.4679 26.8421 30.431 26.9841 30.3071C27.1399 30.1868 27.2155 30.0066 27.2155 29.8336C27.2155 29.6357 27.121 29.4785 26.9964 29.3711C26.8525 29.2384 26.6684 29.1992 26.5298 29.1992C26.3695 29.1992 26.2173 29.2494 26.0888 29.3501C25.924 29.4704 25.8441 29.6557 25.8441 29.8336Z" fill="#4F4494" stroke="#4F4494" stroke-width="0.8"/>
<path d="M5.74355 29.8325C5.74355 30.2566 6.1337 30.4747 6.43876 30.4747H22.7892C23.0943 30.4747 23.4845 30.2566 23.4845 29.8325C23.4845 29.4083 23.0943 29.1903 22.7892 29.1903H6.43876C6.1337 29.1903 5.74355 29.4083 5.74355 29.8325Z" fill="#4F4494" stroke="#4F4494" stroke-width="0.8"/>
<path d="M5.75137 29.8336C5.75137 30.2577 6.13199 30.4679 6.43705 30.4679H22.7875C23.0926 30.4679 23.4732 30.2577 23.4732 29.8336C23.4732 29.4094 23.0926 29.1992 22.7875 29.1992H6.43705C6.13199 29.1992 5.75137 29.4094 5.75137 29.8336Z" fill="#4F4494" stroke="#4F4494" stroke-width="0.8"/>
<path d="M5.74355 21.083C5.74355 21.5071 6.1337 21.7251 6.43876 21.7251H20.3419C20.647 21.7251 21.0371 21.5071 21.0371 21.083C21.0371 20.6588 20.647 20.4408 20.3419 20.4408H6.43876C6.1337 20.4408 5.74355 20.6588 5.74355 21.083Z" fill="#4F4494" stroke="#4F4494" stroke-width="0.8"/>
<path d="M5.75137 21.0829C5.75137 21.507 6.13199 21.7172 6.43705 21.7172H20.3402C20.6453 21.7172 21.0259 21.507 21.0259 21.0829C21.0259 20.6587 20.6453 20.4485 20.3402 20.4485H6.43705C6.13199 20.4485 5.75137 20.6587 5.75137 21.0829Z" fill="#4F4494" stroke="#4F4494" stroke-width="0.8"/>
</svg>
