<svg width="28" height="25" viewBox="0 0 28 25" fill="none" xmlns="http://www.w3.org/2000/svg">
<path d="M17.0504 18.6041L15.2369 20.3484V12.5405C15.2369 12.1733 15.091 11.8212 14.8314 11.5616C14.5718 11.302 14.2197 11.1561 13.8525 11.1561C13.4853 11.1561 13.1332 11.302 12.8736 11.5616C12.614 11.8212 12.4681 12.1733 12.4681 12.5405V20.2792L10.6823 18.4795C10.5532 18.3504 10.4 18.248 10.2313 18.1782C10.0627 18.1083 9.88191 18.0724 9.69937 18.0724C9.51683 18.0724 9.33607 18.1083 9.16742 18.1782C8.99877 18.248 8.84554 18.3504 8.71646 18.4795C8.58738 18.6086 8.48499 18.7618 8.41514 18.9305C8.34528 19.0991 8.30933 19.2799 8.30933 19.4624C8.30933 19.6449 8.34528 19.8257 8.41514 19.9944C8.48499 20.163 8.58738 20.3162 8.71646 20.4453L12.8696 24.5985C12.999 24.7268 13.1524 24.8283 13.321 24.8972C13.4897 24.9661 13.6703 25.001 13.8525 24.9999C14.2089 24.9985 14.5511 24.8597 14.8077 24.6123L18.9609 20.5976C19.1078 20.4764 19.2281 20.3262 19.3143 20.1563C19.4005 19.9865 19.4507 19.8007 19.4618 19.6106C19.4729 19.4205 19.4447 19.2301 19.3789 19.0514C19.313 18.8727 19.2111 18.7094 19.0793 18.5719C18.9475 18.4344 18.7888 18.3256 18.613 18.2523C18.4373 18.1789 18.2483 18.1426 18.0578 18.1456C17.8674 18.1486 17.6797 18.1909 17.5063 18.2698C17.333 18.3487 17.1778 18.4625 17.0504 18.6041Z" fill="black"/>
<path d="M21.7019 5.61859C21.137 3.98648 20.0774 2.57105 18.6705 1.56923C17.2637 0.567416 15.5795 0.0290527 13.8524 0.0290527C12.1253 0.0290527 10.4412 0.567416 9.03433 1.56923C7.62748 2.57105 6.56789 3.98648 6.00301 5.61859C4.75921 5.78518 3.5841 6.28677 2.60339 7.06969C1.62267 7.85261 0.873236 8.88742 0.435261 10.0634C-0.00271344 11.2394 -0.112754 12.5123 0.116911 13.746C0.346576 14.9797 0.907306 16.1278 1.73912 17.0674C1.83959 17.2444 1.97786 17.397 2.14406 17.5145C2.31026 17.632 2.50032 17.7113 2.70069 17.7469C2.90106 17.7826 3.10683 17.7736 3.30333 17.7206C3.49983 17.6676 3.68224 17.572 3.83756 17.4405C3.99288 17.309 4.1173 17.1448 4.20195 16.9598C4.2866 16.7747 4.32941 16.5732 4.32732 16.3697C4.32523 16.1662 4.2783 15.9657 4.18987 15.7824C4.10143 15.5991 3.97367 15.4375 3.81569 15.3092C3.28009 14.7105 2.92966 13.9692 2.80687 13.1752C2.68408 12.3813 2.7942 11.5688 3.12388 10.8361C3.45356 10.1035 3.98865 9.48225 4.6643 9.0476C5.33995 8.61296 6.12717 8.38361 6.93054 8.38735H7.06898C7.39285 8.39388 7.70876 8.28663 7.96171 8.08427C8.21466 7.88191 8.38864 7.59725 8.45336 7.27985C8.70755 6.02805 9.38668 4.90262 10.3757 4.09425C11.3647 3.28588 12.6028 2.84428 13.8801 2.84428C15.1575 2.84428 16.3955 3.28588 17.3846 4.09425C18.3736 4.90262 19.0527 6.02805 19.3069 7.27985C19.3716 7.59725 19.5456 7.88191 19.7985 8.08427C20.0515 8.28663 20.3674 8.39388 20.6913 8.38735H20.7743C21.5777 8.38361 22.3649 8.61296 23.0406 9.0476C23.7162 9.48225 24.2513 10.1035 24.581 10.8361C24.9107 11.5688 25.0208 12.3813 24.898 13.1752C24.7752 13.9692 24.4248 14.7105 23.8892 15.3092C23.7672 15.446 23.6737 15.6056 23.6139 15.7788C23.5541 15.952 23.5292 16.1353 23.5408 16.3182C23.5524 16.501 23.6002 16.6798 23.6814 16.844C23.7626 17.0083 23.8755 17.1548 24.0138 17.2751C24.2662 17.4976 24.591 17.6207 24.9275 17.6212C25.124 17.6209 25.3183 17.5788 25.4973 17.4977C25.6763 17.4165 25.836 17.2981 25.9658 17.1505C26.8206 16.2125 27.4012 15.0575 27.6439 13.8118C27.8867 12.5661 27.7823 11.2777 27.3422 10.0873C26.902 8.89698 26.1431 7.85054 25.1484 7.06241C24.1536 6.27428 22.9613 5.77481 21.7019 5.61859Z" fill="black"/>
</svg>
