<svg width="14" height="21" viewBox="0 0 14 21" fill="none" xmlns="http://www.w3.org/2000/svg">
<path d="M7 15.0889C8.79753 13.637 10.1543 12.2414 11.0704 10.9019C11.9864 9.56235 12.4444 8.31358 12.4444 7.15555C12.4444 6.1358 12.2586 5.27161 11.887 4.56296C11.5154 3.85432 11.0574 3.27531 10.513 2.82593C9.96852 2.37654 9.37654 2.05247 8.73704 1.8537C8.09753 1.65494 7.51852 1.55556 7 1.55556C6.48148 1.55556 5.90247 1.65494 5.26296 1.8537C4.62346 2.05247 4.03148 2.37654 3.48704 2.82593C2.94259 3.27531 2.48457 3.85432 2.11296 4.56296C1.74136 5.27161 1.55556 6.1358 1.55556 7.15555C1.55556 8.31358 2.01358 9.56235 2.92963 10.9019C3.84568 12.2414 5.20247 13.637 7 15.0889ZM7 17.0593C4.6321 15.279 2.87346 13.5765 1.72407 11.9519C0.574691 10.3272 0 8.72839 0 7.15555C0 5.98025 0.211729 4.94753 0.635185 4.05741C1.05864 3.16728 1.60741 2.41975 2.28148 1.81481C2.95556 1.20988 3.70741 0.756173 4.53704 0.453704C5.36667 0.151235 6.18765 0 7 0C7.81235 0 8.63333 0.151235 9.46296 0.453704C10.2926 0.756173 11.0444 1.20988 11.7185 1.81481C12.3926 2.41975 12.9414 3.16728 13.3648 4.05741C13.7883 4.94753 14 5.98025 14 7.15555C14 8.72839 13.4253 10.3272 12.2759 11.9519C11.1265 13.5765 9.3679 15.279 7 17.0593ZM7 8.81481C7.50123 8.81481 7.92901 8.63765 8.28333 8.28333C8.63765 7.92901 8.81481 7.50123 8.81481 7C8.81481 6.49877 8.63765 6.07099 8.28333 5.71667C7.92901 5.36235 7.50123 5.18518 7 5.18518C6.49877 5.18518 6.07099 5.36235 5.71667 5.71667C5.36235 6.07099 5.18518 6.49877 5.18518 7C5.18518 7.50123 5.36235 7.92901 5.71667 8.28333C6.07099 8.63765 6.49877 8.81481 7 8.81481ZM0 20.7407V19.1852H14V20.7407H0Z" fill="black"/>
</svg>
