<svg width="25" height="31" viewBox="0 0 25 31" fill="none" xmlns="http://www.w3.org/2000/svg">
<path d="M12.5 31C10.2445 29.1449 8.1539 27.1111 6.24999 24.92C3.39285 21.6295 1.56945e-06 16.729 1.56945e-06 12.0592C-0.00123753 9.67437 0.731264 7.34274 2.10481 5.35943C3.47835 3.37613 5.43118 1.83031 7.71617 0.917606C10.0012 0.00490177 12.5156 -0.23366 14.9412 0.232113C17.3669 0.697886 19.5947 1.84706 21.3428 3.53419C22.5066 4.65145 23.4291 5.98019 24.0569 7.44351C24.6846 8.90684 25.0052 10.4757 24.9999 12.0592C24.9999 16.729 21.6071 21.6295 18.75 24.92C16.846 27.1111 14.7554 29.1449 12.5 31ZM12.5 3.44982C10.1328 3.45255 7.86348 4.36049 6.18966 5.97448C4.51585 7.58847 3.57426 9.77673 3.57142 12.0592C3.57142 14.067 4.51249 17.5435 8.99105 22.7108C10.0948 23.9817 11.2661 25.1967 12.5 26.3509C13.7339 25.198 14.9057 23.9848 16.0107 22.716C20.4874 17.5417 21.4285 14.0652 21.4285 12.0592C21.4257 9.77673 20.4841 7.58847 18.8103 5.97448C17.1365 4.36049 14.8671 3.45255 12.5 3.44982ZM12.5 17.2249C11.0792 17.2249 9.71656 16.6807 8.71191 15.7119C7.70725 14.7432 7.14284 13.4293 7.14284 12.0592C7.14284 10.6892 7.70725 9.37533 8.71191 8.40658C9.71656 7.43783 11.0792 6.89359 12.5 6.89359C13.9208 6.89359 15.2834 7.43783 16.288 8.40658C17.2927 9.37533 17.8571 10.6892 17.8571 12.0592C17.8571 13.4293 17.2927 14.7432 16.288 15.7119C15.2834 16.6807 13.9208 17.2249 12.5 17.2249Z" fill="#4F4494"/>
</svg>
