<svg width="47" height="47" viewBox="0 0 47 47" fill="none" xmlns="http://www.w3.org/2000/svg">
<g clip-path="url(#clip0_2_273)">
<path d="M23.4999 32.1456C19.2254 32.136 15.5408 29.1415 14.7188 24.9893C13.8871 20.8372 16.1404 16.685 20.0958 15.0682C24.0511 13.4513 28.6061 14.829 30.9851 18.3497C33.3641 21.8704 32.8902 26.5583 29.8633 29.5529C28.1806 31.2175 25.8886 32.1551 23.4999 32.1456ZM28.4997 18.3019C26.111 15.9292 22.3684 15.5561 19.5446 17.4026C16.7304 19.2586 15.6279 22.8176 16.9141 25.9173C18.2003 29.0171 21.5271 30.7775 24.8441 30.1269C28.1612 29.4763 30.5596 26.5966 30.5596 23.2481C30.5692 21.3921 29.8246 19.6126 28.4997 18.3019Z" fill="#233673"/>
<path d="M46.0329 24.2049H43.3154C42.8319 34.2982 34.6698 42.3729 24.4671 42.8513V45.5396C24.4671 46.0658 24.0319 46.4963 23.5 46.4963C22.9681 46.4963 22.5329 46.0658 22.5329 45.5396V42.8513C12.3302 42.3729 4.16811 34.2982 3.68457 24.2049H0.967078C0.435185 24.2049 0 23.7743 0 23.2481C0 22.722 0.435185 22.2914 0.967078 22.2914H3.68457C4.16811 12.1981 12.3302 4.1234 22.5329 3.64504V0.956669C22.5329 0.430477 22.9681 -4.57764e-05 23.5 -4.57764e-05C24.0319 -4.57764e-05 24.4671 0.430477 24.4671 0.956669V3.64504C34.6698 4.1234 42.8319 12.1981 43.3154 22.2914H46.0329C46.5648 22.2914 47 22.722 47 23.2481C47 23.7743 46.5648 24.2049 46.0329 24.2049ZM36.1687 10.7152C33.0547 7.61541 28.877 5.77852 24.4671 5.55847V9.68192C24.4671 10.2081 24.0319 10.6386 23.5 10.6386C22.9681 10.6386 22.5329 10.2081 22.5329 9.68192V5.55847C13.394 6.03683 6.10226 13.2505 5.61872 22.2914H9.78683C10.3187 22.2914 10.7539 22.722 10.7539 23.2481C10.7539 23.7743 10.3187 24.2049 9.78683 24.2049H5.61872C6.10226 33.2458 13.394 40.4595 22.5329 40.9378V36.8144C22.5329 36.2882 22.9681 35.8577 23.5 35.8577C24.0319 35.8577 24.4671 36.2882 24.4671 36.8144V40.9378C33.606 40.4595 40.8977 33.2458 41.3813 24.2049H37.2132C36.6813 24.2049 36.2461 23.7743 36.2461 23.2481C36.2461 22.722 36.6813 22.2914 37.2132 22.2914H41.3813C41.1588 17.9288 39.3021 13.7958 36.1687 10.7152Z" fill="#F6A217"/>
</g>
<defs>
<clipPath id="clip0_2_273">
<rect width="47" height="46.4964" fill="white" transform="matrix(1 0 0 -1 0 46.4963)"/>
</clipPath>
</defs>
</svg>
