<svg width="16" height="18" viewBox="0 0 16 18" fill="none" xmlns="http://www.w3.org/2000/svg">
<path d="M11.799 18C10.4338 18 9.14389 17.402 8.17787 16.3164L1.49675 8.80173C-0.498915 6.55905 -0.498915 2.90574 1.49675 0.663056C1.87274 0.240521 2.38178 0 2.91395 0C3.45192 0 3.95517 0.23402 4.33116 0.656555L6.45409 3.04225C7.11352 3.78332 7.235 4.92741 6.74331 5.81798L6.01446 7.1506L9.63557 11.2199L10.8214 10.4009C11.1396 10.1798 11.504 10.0628 11.8742 10.0628C12.4064 10.0628 12.9096 10.2969 13.2914 10.7259L15.4143 13.1116C16.1952 13.9892 16.1952 15.4258 15.4143 16.3034C14.4541 17.402 13.1699 18 11.799 18ZM1.03398 3.25677C0.542299 4.99242 0.941432 6.86457 2.08098 8.14518L8.76211 15.6533C9.57195 16.5634 10.6479 17.0639 11.799 17.0639C12.2502 17.0639 12.6898 16.9859 13.1179 16.8299L13.3724 16.7389L11.4056 14.5287C11.2437 14.3467 11.2437 14.0542 11.4056 13.8722C11.4866 13.7811 11.5907 13.7356 11.7007 13.7356C11.8106 13.7356 11.9147 13.7811 11.9957 13.8722L14.1417 16.2839L14.2516 16.1929C14.4599 16.0303 14.6565 15.8418 14.8301 15.6468C15.2871 15.1333 15.2871 14.2882 14.8301 13.7746L12.7072 11.389C12.4816 11.1354 12.1866 10.9989 11.8742 10.9989C11.6544 10.9989 11.4403 11.0704 11.2552 11.1939L9.79176 12.208C9.72813 12.2535 9.65293 12.2795 9.57195 12.2795C9.46204 12.2795 9.35792 12.234 9.27693 12.143L5.19884 7.55363C5.06001 7.39762 5.03688 7.1636 5.141 6.98158L6.04338 5.33695C6.33261 4.8104 6.2632 4.14084 5.87563 3.70531L3.75271 1.32611C3.5329 1.07909 3.2321 0.936079 2.91974 0.936079C2.60159 0.936079 2.30658 1.07259 2.08677 1.32611C1.91323 1.52113 1.74548 1.74215 1.60087 1.97617L1.51988 2.09968L3.8684 4.7389C3.94939 4.8299 3.98988 4.94691 3.98988 5.07042C3.98988 5.19393 3.94939 5.31094 3.8684 5.40195C3.78742 5.49296 3.6833 5.53846 3.57339 5.53846C3.46348 5.53846 3.35936 5.49296 3.27838 5.40195L1.11497 2.96425L1.03398 3.25677Z" fill="black"/>
</svg>
