<svg width="40" height="33" viewBox="0 0 40 33" fill="none" xmlns="http://www.w3.org/2000/svg">
<path d="M29.0056 32.2881C25.6496 32.2881 22.4785 31.2153 20.1038 29.268L3.67947 15.7884C-1.22649 11.7655 -1.22649 5.21227 3.67947 1.18938C4.60378 0.431442 5.85515 0 7.16341 0C8.48588 0 9.72304 0.419781 10.6473 1.17772L15.8661 5.45714C17.4872 6.78644 17.7859 8.8387 16.5772 10.4362L14.7854 12.8266L23.6872 20.1261L26.6024 18.6569C27.3845 18.2604 28.2803 18.0505 29.1904 18.0505C30.4987 18.0505 31.7358 18.4703 32.6744 19.2399L37.8932 23.5193C39.8129 25.0935 39.8129 27.6705 37.8932 29.2447C35.5326 31.2153 32.3758 32.2881 29.0056 32.2881ZM2.54185 5.84194C1.33314 8.9553 2.31433 12.3135 5.1157 14.6107L21.54 28.0786C23.5308 29.7111 26.1758 30.6089 29.0056 30.6089C30.1147 30.6089 31.1955 30.469 32.2478 30.1892L32.8735 30.0259L28.0386 26.0613C27.6404 25.7348 27.6404 25.2101 28.0386 24.8836C28.2377 24.7204 28.4936 24.6387 28.7638 24.6387C29.034 24.6387 29.29 24.7204 29.4891 24.8836L34.7647 29.2097L35.0349 29.0464C35.5468 28.7549 36.0303 28.4168 36.4569 28.0669C37.5803 27.1458 37.5803 25.6299 36.4569 24.7087L31.2381 20.4293C30.6835 19.9745 29.9583 19.7297 29.1904 19.7297C28.6501 19.7297 28.1239 19.8579 27.6689 20.0795L24.0712 21.8985C23.9148 21.9801 23.7299 22.0268 23.5308 22.0268C23.2606 22.0268 23.0047 21.9452 22.8056 21.7819L12.7804 13.5496C12.4391 13.2697 12.3822 12.8499 12.6382 12.5234L14.8565 9.57331C15.5675 8.62881 15.3969 7.42777 14.4441 6.64651L9.22533 2.37875C8.68496 1.93565 7.94552 1.67912 7.17763 1.67912C6.39552 1.67912 5.67029 1.92399 5.12992 2.37875C4.70332 2.72857 4.29093 3.12503 3.93543 3.54481L3.73635 3.76636L9.50973 8.50054C9.70881 8.66379 9.80836 8.87368 9.80836 9.09523C9.80836 9.31678 9.70881 9.52667 9.50973 9.68992C9.31065 9.85317 9.05469 9.93479 8.7845 9.93479C8.51432 9.93479 8.25836 9.85317 8.05928 9.68992L2.74094 5.31721L2.54185 5.84194Z" fill="#4F4494"/>
</svg>
