<svg width="18" height="18" viewBox="0 0 18 18" fill="none" xmlns="http://www.w3.org/2000/svg">
<path d="M13.2739 18C11.7381 18 10.2869 17.402 9.20011 16.3164L1.68384 8.80173C-0.56128 6.55905 -0.56128 2.90574 1.68384 0.663056C2.10683 0.240521 2.6795 0 3.2782 0C3.88341 0 4.44957 0.23402 4.87256 0.656555L7.26085 3.04225C8.00271 3.78332 8.13937 4.92741 7.58623 5.81798L6.76627 7.1506L10.84 11.2199L12.1741 10.4009C12.532 10.1798 12.942 10.0628 13.3585 10.0628C13.9572 10.0628 14.5233 10.2969 14.9528 10.7259L17.3411 13.1116C18.2196 13.9892 18.2196 15.4258 17.3411 16.3034C16.2608 17.402 14.8162 18 13.2739 18ZM1.16323 3.25677C0.610087 4.99242 1.05911 6.86457 2.34111 8.14518L9.85738 15.6533C10.7684 16.5634 11.9789 17.0639 13.2739 17.0639C13.7815 17.0639 14.276 16.9859 14.7576 16.8299L15.0439 16.7389L12.8313 14.5287C12.6491 14.3467 12.6491 14.0542 12.8313 13.8722C12.9225 13.7811 13.0396 13.7356 13.1632 13.7356C13.2869 13.7356 13.404 13.7811 13.4951 13.8722L15.9094 16.2839L16.0331 16.1929C16.2674 16.0303 16.4886 15.8418 16.6838 15.6468C17.1979 15.1333 17.1979 14.2882 16.6838 13.7746L14.2956 11.389C14.0418 11.1354 13.7099 10.9989 13.3585 10.9989C13.1112 10.9989 12.8704 11.0704 12.6621 11.1939L11.0157 12.208C10.9441 12.2535 10.8595 12.2795 10.7684 12.2795C10.6448 12.2795 10.5277 12.234 10.4366 12.143L5.8487 7.55363C5.69252 7.39762 5.66649 7.1636 5.78362 6.98158L6.79881 5.33695C7.12419 4.8104 7.0461 4.14084 6.61009 3.70531L4.2218 1.32611C3.97451 1.07909 3.63612 0.936079 3.28471 0.936079C2.92679 0.936079 2.5949 1.07259 2.34761 1.32611C2.15239 1.52113 1.96367 1.74215 1.80098 1.97617L1.70987 2.09968L4.35195 4.7389C4.44306 4.8299 4.48861 4.94691 4.48861 5.07042C4.48861 5.19393 4.44306 5.31094 4.35195 5.40195C4.26085 5.49296 4.14371 5.53846 4.02006 5.53846C3.89642 5.53846 3.77928 5.49296 3.68818 5.40195L1.25434 2.96425L1.16323 3.25677Z" fill="white"/>
</svg>
