<svg width="50" height="46" viewBox="0 0 50 46" fill="none" xmlns="http://www.w3.org/2000/svg">
<g clip-path="url(#clip0_2_284)">
<path d="M24.6179 45.2608C25.1526 45.2595 25.6673 45.0309 26.0162 44.6416L43.3395 25.6059C43.9017 24.9888 43.9674 24.0793 43.5086 23.3889L38.0523 15.2561C37.7009 14.7359 37.1168 14.4248 36.4751 14.4264L12.578 14.4858C11.9363 14.4874 11.3538 14.8015 11.0052 15.3233L5.61149 23.4832C5.15638 24.1758 5.22685 25.085 5.79237 25.6993L23.2163 44.6486C23.5673 45.0456 24.0832 45.2622 24.6179 45.2608ZM24.6108 42.5801L19.0521 25.1548L30.077 25.1274L24.6108 42.5801ZM23.1309 41.7786L22.4707 42.1402L6.88962 25.1851L17.8271 25.1579L23.1309 41.7786ZM26.7485 42.1296L26.0864 41.7712L31.302 25.1244L42.2395 25.0972L26.7485 42.1296ZM17.1824 24.0228L6.62411 24.049L11.8822 16.0884L17.1824 24.0228ZM29.7921 23.9914L19.331 24.0174L24.5407 16.1232L29.7921 23.9914ZM42.499 23.9598L31.9115 23.9861L37.1696 16.0161L42.499 23.9598ZM18.2603 23.5464L12.9698 15.6216L23.5087 15.5953L18.2603 23.5464ZM30.8505 23.4962L25.5698 15.5902L36.0892 15.5641L30.8505 23.4962Z" fill="#324395"/>
<path d="M48.4812 25.0816C48.802 25.0808 49.0639 24.8244 49.063 24.5118C49.0622 24.1992 48.799 23.9441 48.4782 23.9449L46.5046 23.9498C46.1838 23.9506 45.9219 24.207 45.9228 24.5196C45.9236 24.8322 46.1868 25.0873 46.5076 25.0865L48.4812 25.0816Z" fill="#FFA400"/>
<path d="M2.62158 25.1956C2.94242 25.1949 3.20424 24.9384 3.20341 24.6258C3.20258 24.3133 2.9394 24.0581 2.61857 24.0589L0.644966 24.0639C0.324133 24.0647 0.0623111 24.3211 0.0631396 24.6337C0.063968 24.9462 0.327145 25.2014 0.647978 25.2006L2.62158 25.1956Z" fill="#FFA400"/>
<path d="M10.8308 11.8473C10.9864 11.8469 11.1321 11.7897 11.2387 11.6758C11.4618 11.4574 11.4608 11.0974 11.2366 10.8706L8.00049 7.73376C7.89327 7.62983 7.74726 7.56388 7.5917 7.56427C7.43615 7.56466 7.29047 7.62185 7.18383 7.73579C6.96079 7.95422 6.96175 8.31417 7.18596 8.54096L10.4221 11.6778C10.5293 11.7912 10.6753 11.8477 10.8308 11.8473Z" fill="#FFA400"/>
<path d="M38.1791 11.7604C38.3347 11.76 38.4804 11.7028 38.587 11.5889L41.8162 8.44539C41.9229 8.34093 41.9906 8.19867 41.9902 8.04711C41.9898 7.89555 41.931 7.75361 41.8141 7.6497C41.7069 7.54577 41.5609 7.47982 41.4053 7.48021C41.2498 7.4806 41.1041 7.5378 40.9974 7.65173L37.778 10.8046C37.555 11.0231 37.5559 11.383 37.7801 11.6098C37.8776 11.7043 38.0236 11.7608 38.1791 11.7604Z" fill="#FFA400"/>
<path d="M24.49 8.01482C24.8108 8.01402 25.0727 7.75761 25.0718 7.44502L25.0555 1.26891C25.0546 0.95632 24.7915 0.701214 24.4706 0.702012C24.1498 0.70281 23.888 0.959222 23.8888 1.27182L23.9052 7.44792C23.906 7.76051 24.1692 8.01562 24.49 8.01482Z" fill="#FFA400"/>
<path d="M24.4985 11.2165C24.6541 11.2161 24.7998 11.1589 24.9064 11.045C25.0131 10.9405 25.0807 10.7888 25.0804 10.6467C25.08 10.4952 25.0213 10.3532 24.9043 10.2493C24.7971 10.1454 24.6414 10.0795 24.4955 10.0798C24.34 10.0802 24.1943 10.1374 24.0876 10.2513C23.981 10.3558 23.9133 10.5075 23.9137 10.6496C23.9141 10.8012 23.9728 10.9431 24.0898 11.047C24.197 11.1604 24.3527 11.2169 24.4985 11.2165Z" fill="#FFA400"/>
</g>
<defs>
<clipPath id="clip0_2_284">
<rect width="49" height="44.559" fill="white" transform="matrix(-0.999997 0.00248685 0.00265029 0.999996 48.9998 0.640991)"/>
</clipPath>
</defs>
</svg>
