<svg width="39" height="39" viewBox="0 0 39 39" fill="none" xmlns="http://www.w3.org/2000/svg">
<g clip-path="url(#clip0_2_277)">
<path d="M19.5388 9.51813C14.8677 9.51813 10.3715 11.1361 6.54528 14.2122C3.66107 16.5263 2.17526 18.8122 2.11699 18.9157L1.8645 19.3108L2.11699 19.7059C2.17526 19.7999 3.66107 22.0952 6.54528 24.4093C10.3715 27.476 14.8677 29.1034 19.5388 29.1034C24.2099 29.1034 28.6964 27.4854 32.5032 24.4093C35.3583 22.1046 36.8344 19.7999 36.9023 19.7059L37.1548 19.3108L36.9023 18.9157C36.8441 18.8216 35.3583 16.5169 32.5032 14.2122C28.6867 11.1455 24.2099 9.51813 19.5388 9.51813ZM19.5388 27.5889C15.1979 27.5889 11.1775 26.1402 7.6038 23.2899C5.73925 21.8036 4.4768 20.2891 3.88442 19.5271L3.70962 19.3014L3.88442 19.0756C4.46709 18.3042 5.72954 16.7991 7.6038 15.3128C11.1872 12.4625 15.2076 11.0138 19.5388 11.0138C23.8797 11.0138 27.8807 12.4625 31.4447 15.3034C33.2995 16.7897 34.5522 18.3042 35.1349 19.0662L35.3 19.2919L35.1349 19.5177C34.5522 20.2891 33.3092 21.7942 31.4447 23.2899C27.8807 26.1496 23.87 27.5889 19.5388 27.5889Z" fill="#F6A21A"/>
<path d="M19.4999 12.9047C15.8485 12.9047 12.8866 15.7832 12.8866 19.3108C12.8866 22.8384 15.8582 25.7169 19.4999 25.7169C23.1416 25.7169 26.1132 22.8384 26.1132 19.3108C26.1132 15.7832 23.1513 12.9047 19.4999 12.9047ZM19.4999 24.2118C16.7128 24.2118 14.4404 22.0106 14.4404 19.3108C14.4404 16.611 16.7128 14.4098 19.4999 14.4098C22.287 14.4098 24.5594 16.611 24.5594 19.3108C24.5594 22.0106 22.287 24.2118 19.4999 24.2118Z" fill="#233672"/>
<path d="M0 32.0666V38.2H6.41907V36.6948H1.55378V32.0666H0Z" fill="#233672"/>
<path d="M37.4462 32.0666V36.6948H32.5809V38.2H39V32.0666H37.4462Z" fill="#233672"/>
<path d="M0 0.421601V6.55493H1.55378V1.92671H6.41907V0.421601H0Z" fill="#233672"/>
<path d="M32.5809 0.421601V1.92671H37.4462V6.55493H39V0.421601H32.5809Z" fill="#233672"/>
</g>
<defs>
<clipPath id="clip0_2_277">
<rect width="39" height="37.7783" rx="18.8892" transform="matrix(1 0 0 -1 0 38.2)" fill="white"/>
</clipPath>
</defs>
</svg>
