<svg width="518" height="327" viewBox="0 0 518 327" fill="none" xmlns="http://www.w3.org/2000/svg">
<path d="M376.91 256.024L386.7 325.894H421.76C419.24 280.744 414.65 208.914 409.54 178.374L384.26 222.584L376.91 256.024Z" fill="#6C47D4"/>
<path d="M345.08 179.424C336.41 218.384 328.22 283.404 323.37 325.904H362.61L377.96 256.034L384.25 222.584L409.53 178.374L345.08 179.424Z" fill="#6C47D4"/>
<path d="M377.46 258.694L383.57 220.724L393.11 214.434" stroke="#20181F" stroke-width="1.0532" stroke-miterlimit="10" stroke-linecap="round" stroke-linejoin="round"/>
<path d="M357.96 99.5241C353.11 93.4641 344.42 92.1641 338 96.5241L275.52 134.364C268.4 139.214 266.39 148.834 271 156.124C275.98 164.024 282.27 165.634 289.74 160.034C296.37 155.064 354.68 124.564 359.47 120.954C366.17 115.914 363.2 106.054 357.96 99.5241Z" fill="white"/>
<path d="M335.89 194.124L291.35 139.174C286.24 133.544 277.47 133.314 272.08 138.684C266.63 144.114 268.02 154.654 273.78 159.744L324.78 203.804L335.89 194.124Z" fill="white"/>
<path d="M362.47 198.034L349.26 190.684L350.69 187.774C351.21 186.714 350.96 185.444 350.08 184.654C349.17 183.844 347.82 183.774 346.83 184.484L333.73 193.784L324.8 203.804C331.84 210.304 336.6 210.404 339.38 209.304C339.7 209.424 340.01 209.554 340.33 209.654L351.4 213.284C352.42 213.774 353.64 213.374 354.18 212.394C354.58 211.674 354.75 210.514 352.64 209.334L354.75 210.504C355.83 211.014 357.12 210.584 357.67 209.524C358.19 208.594 357.64 207.314 356.41 206.444L358.03 207.154C359.2 207.714 360.63 207.184 361.13 205.934C361.56 204.854 361.02 203.624 360.01 203.054L357.68 201.764L360.48 202.554C361.76 203.064 363.24 202.424 363.72 201.074C364.12 199.914 363.54 198.634 362.47 198.034Z" fill="#F9A9A3"/>
<path d="M398.43 99.4341C402.63 93.3841 410.13 92.1041 415.66 96.4741L469.5 134.444C475.64 139.304 477.34 148.934 473.35 156.214C469.03 164.104 463.6 165.704 457.17 160.094C451.46 155.114 401.2 124.494 397.08 120.874C391.31 115.814 393.89 105.964 398.43 99.4341Z" fill="white"/>
<path d="M417.25 194.084L455.81 139.224C460.23 133.604 467.81 133.394 472.44 138.774C477.13 144.214 475.9 154.744 470.92 159.834L426.8 203.794L417.25 194.084Z" fill="white"/>
<path d="M394.31 197.944L405.73 190.624L404.5 187.714C404.05 186.654 404.27 185.384 405.04 184.604C405.83 183.794 406.99 183.724 407.85 184.434L419.13 193.754L426.82 203.784C420.73 210.274 416.62 210.364 414.22 209.254C413.95 209.374 413.68 209.504 413.4 209.604L403.84 213.204C402.96 213.684 401.91 213.294 401.44 212.304C401.1 211.584 400.95 210.424 402.78 209.254L400.95 210.424C400.02 210.934 398.91 210.504 398.43 209.444C397.99 208.504 398.46 207.234 399.53 206.364L398.13 207.074C397.11 207.634 395.88 207.094 395.46 205.844C395.09 204.764 395.56 203.534 396.44 202.974L398.46 201.684L396.04 202.464C394.93 202.974 393.66 202.324 393.25 200.974C392.88 199.814 393.38 198.534 394.31 197.944Z" fill="#F9A9A3"/>
<path d="M341.91 94.6341C341.91 94.6341 357.5 88.4341 380.98 88.4341C404.46 88.4341 418.44 98.7341 418.44 98.7341L409.53 178.374L345.08 179.424L334.43 122.134L341.91 94.6341Z" fill="white"/>
<path d="M414.66 132.464L416.11 119.534" stroke="#20181F" stroke-width="1.0532" stroke-miterlimit="10" stroke-linecap="round" stroke-linejoin="round"/>
<path d="M354.08 47.5642C354.08 47.5642 339.34 25.0542 357.09 22.4542C367.69 20.9042 370.75 17.5842 383.71 13.0442C398.71 7.7942 419.34 24.5842 397.09 41.2242L362.33 33.6642L354.08 47.5642Z" fill="#4D2E3C"/>
<path d="M399.081 58.2122C402.236 55.0568 402.236 49.9408 399.081 46.7854C395.926 43.63 390.81 43.63 387.654 46.7854C384.499 49.9408 384.499 55.0567 387.654 58.2121C390.81 61.3676 395.926 61.3676 399.081 58.2122Z" fill="#E88585"/>
<path d="M385.55 62.4741L385.95 90.2441C386.01 98.0541 380.66 98.6341 372.97 98.6341C366.41 98.6341 363.08 96.2641 362.26 89.7541L363.34 60.2341L385.55 62.4741Z" fill="#FCA0A0"/>
<path d="M385.92 87.3743L367.67 74.2843L385.67 69.1143L385.92 87.3743Z" fill="#20181F"/>
<path d="M377.2 76.6142H378.77C389.46 76.6142 398.03 67.7642 397.67 57.0742L397.03 37.6642C396.68 27.0342 387.96 18.5942 377.32 18.5942C366.43 18.5942 355.69 27.4242 355.69 38.3142L356.62 57.0442C357.17 68.0042 366.22 76.6142 377.2 76.6142Z" fill="#FCA0A0"/>
<path d="M386.52 50.7241L387.82 58.0941H385.22" stroke="#20181F" stroke-width="1.2253" stroke-miterlimit="10" stroke-linecap="round" stroke-linejoin="round"/>
<path d="M376.34 42.1041C376.34 42.1041 380.7 41.5941 380.8 43.4041C380.8 43.4041 380.84 44.6341 377.03 45.0041C373.22 45.3741 372.22 45.1241 371.84 43.9841C371.46 42.8441 374.29 42.1841 376.34 42.1041Z" fill="#20181F"/>
<path d="M393.05 42.0041C393.05 42.0041 389.43 41.7441 389.19 43.4541C389.19 43.4541 389.06 44.6141 392.22 44.7641C395.39 44.9141 396.4 44.4741 396.67 43.5341C396.98 42.4741 394.77 41.9741 393.05 42.0041Z" fill="#20181F"/>
<path d="M388.28 61.4941H376.07C376.07 61.4941 376.04 65.7641 383.14 65.7741C387.84 65.7841 388.28 61.4941 388.28 61.4941Z" fill="white"/>
<path d="M380.11 50.7241C380.11 50.7241 377.97 49.1641 375.09 50.7241" stroke="#20181F" stroke-width="1.2253" stroke-miterlimit="10" stroke-linecap="round" stroke-linejoin="round"/>
<path d="M394.75 50.7241C394.75 50.7241 393.31 49.1641 390.43 50.7241" stroke="#20181F" stroke-width="1.2253" stroke-miterlimit="10" stroke-linecap="round" stroke-linejoin="round"/>
<path d="M359.22 52.5643C359.22 52.5643 371.63 44.6743 367.19 33.5643C367.19 33.5643 387.31 23.8543 396.56 33.9743L399.04 21.0443L383.15 14.6143L358.27 24.4343L351.85 34.0243L354.01 46.4043L359.22 52.5643Z" fill="#4D2E3C"/>
<path d="M361.558 55.599C363.275 51.4797 361.327 46.7491 357.207 45.0328C353.088 43.3165 348.357 45.2646 346.641 49.3839C344.925 53.5032 346.873 58.2338 350.992 59.9501C355.112 61.6664 359.842 59.7183 361.558 55.599Z" fill="#FCA0A0"/>
<path d="M356.91 54.8942C356.91 54.8942 356.91 49.0342 351.31 49.9542" stroke="#20181F" stroke-width="1.2253" stroke-miterlimit="10" stroke-linecap="round" stroke-linejoin="round"/>
<path d="M367.28 99.1942L373.76 105.174L380.95 96.9642L373.76 95.8342L367.28 99.1942Z" fill="#6C47D4"/>
<path d="M372.46 103.944L365.39 162.954L373.95 172.684L381.71 162.844L374.84 103.704L372.46 103.944Z" fill="#6C47D4"/>
<path d="M362.36 87.0242L373.76 95.8342L366.15 105.174L354.94 91.0342L362.36 87.0242Z" fill="#F4EDED"/>
<path d="M385.92 87.3743L373.76 95.8343L381.36 105.174L392.93 91.0343L385.92 87.3743Z" fill="#F4EDED"/>
<path d="M146.8 104.444C145.77 98.9942 149.1 93.6642 154.46 92.2142C160.24 90.6442 166.17 94.1642 167.57 99.9842C168.57 104.154 169.27 111.484 169.94 119.294L148.08 125.964L146.8 104.444Z" fill="white"/>
<path d="M148.07 125.964L169.93 119.294L172.82 149.394C173.35 154.924 169.31 159.684 163.81 160.444C163.74 160.454 163.68 160.464 163.61 160.474C157.52 161.414 151.78 157.354 150.63 151.304L148.07 125.964Z" fill="#F9A9A3"/>
<path d="M180.4 234.014L171.89 139.704C171.89 139.704 167.91 140.654 162.54 141.504C157.11 142.374 153.54 147.644 154.75 153.004L168.76 234.204L180.4 234.014Z" fill="#F9A9A3"/>
<path d="M165.75 232.434C168.06 226.564 174.69 223.674 180.57 225.984C186.44 228.294 189.33 234.924 187.02 240.804C184.71 246.674 178.08 249.564 172.2 247.254C166.33 244.944 163.44 238.314 165.75 232.434Z" fill="#F9A9A3"/>
<path d="M182.73 245.364C182.73 245.364 185.78 248.684 188.39 243.294C191.01 237.894 190.91 231.024 180.57 225.984L182.73 245.364Z" fill="#F9A9A3"/>
<path d="M111.44 41.7644L156.37 51.9444C156.37 51.9444 173.07 75.6144 164.43 109.474H89.95C89.95 109.474 83.87 95.8444 97.33 76.9744C105.6 65.3844 111.44 41.7644 111.44 41.7644Z" fill="#EE75AE"/>
<path d="M137.22 270.484L148.53 325.894H187.37C185.13 307.604 181.79 283.734 176.83 254.174C163.66 175.614 155.27 156.734 155.27 156.734L126.04 151.484L122.81 156.194L148.09 156.984L137.22 270.484Z" fill="#4684E6"/>
<path d="M122.81 156.194L111.52 155.844C111.52 155.844 92.26 176.394 91.25 214.404C90.58 239.764 91.27 288.934 91.98 325.894H131.91L137.22 270.484L148.09 156.984L122.81 156.194Z" fill="#4684E6"/>
<path d="M137.22 270.484L142.36 195.494" stroke="#20181F" stroke-width="1.0532" stroke-miterlimit="10" stroke-linecap="round" stroke-linejoin="round"/>
<path d="M142.36 195.494L151.46 188.354" stroke="#20181F" stroke-width="1.0532" stroke-miterlimit="10" stroke-linecap="round" stroke-linejoin="round"/>
<path d="M133.55 89.5344L105.75 93.4244C102.53 93.8744 100.33 96.9044 100.89 100.104L110.52 156.734H155.27L166.94 102.344C167.81 97.4744 164.38 92.8944 159.46 92.3544L133.55 89.5344Z" fill="white"/>
<path d="M162.84 121.454L166.09 107.404" stroke="#20181F" stroke-width="1.0532" stroke-miterlimit="10" stroke-linecap="round" stroke-linejoin="round"/>
<path d="M81.6 103.264L91.69 131.204C91.69 131.204 60.47 141.714 53.61 145.904C45.87 150.634 39.94 148.484 35.85 140.394C32.07 132.924 34.89 123.804 42.23 119.774L81.6 103.264Z" fill="#F9A9A3"/>
<path d="M101.12 95.0744C107.72 91.4444 116.01 93.5044 120.14 99.8044C124.6 106.604 126.56 116.414 119.63 120.664C114.67 123.714 91.7 131.184 91.7 131.184L81.61 103.244L101.12 95.0744Z" fill="white"/>
<path d="M104.93 126.674L114.82 122.644" stroke="#20181F" stroke-width="1.0532" stroke-miterlimit="10" stroke-linecap="round" stroke-linejoin="round"/>
<path d="M95.08 183.094L57.09 125.874C52.67 119.954 44.21 118.934 38.51 123.624C32.74 128.364 33.12 138.684 38.22 144.134L83.47 191.424L95.08 183.094Z" fill="#F9A9A3"/>
<path d="M120.41 189.324L108.32 181.004L109.97 178.324C110.57 177.354 110.45 176.094 109.67 175.254C108.86 174.394 107.57 174.194 106.54 174.784L93.02 182.564L83.46 191.424C89.67 198.354 94.26 198.894 97.05 198.084C97.34 198.224 97.63 198.384 97.93 198.514L108.3 203.044C109.24 203.604 110.46 203.344 111.07 202.434C111.52 201.774 111.79 200.664 109.86 199.334L111.79 200.664C112.78 201.264 114.07 200.964 114.7 199.994C115.29 199.134 114.88 197.854 113.77 196.894L115.28 197.724C116.36 198.374 117.79 197.984 118.39 196.824C118.9 195.814 118.5 194.574 117.57 193.944L115.43 192.484L118.06 193.504C119.25 194.114 120.74 193.634 121.33 192.374C121.84 191.284 121.39 189.994 120.41 189.324Z" fill="#F9A9A3"/>
<path d="M149.77 52.5642C149.47 56.9042 152.74 60.6642 157.08 60.9642C161.42 61.2642 165.18 57.9942 165.48 53.6542C165.78 49.3142 162.51 45.5542 158.17 45.2542C153.83 44.9542 150.07 48.2242 149.77 52.5642Z" fill="#ED908E"/>
<path d="M137.94 23.8542C138.94 22.1042 137.66 18.8342 137.66 18.8342C127.81 18.8342 119.31 21.9942 114.42 30.9942C107.22 44.2342 112.45 64.7142 129.4 70.9442C145.66 76.9242 137 25.5242 137 25.5242L137.94 23.8542Z" fill="#EE75AE"/>
<path d="M147.23 74.2043L146.14 91.3344C145.77 97.3544 141.87 100.334 135.95 99.9243C130.9 99.5743 126.33 96.6343 126.06 91.5743L129.07 64.7043L147.23 74.2043Z" fill="#F9A9A3"/>
<path d="M146.48 88.4843L126.46 68.8843L147.38 72.4543L146.48 88.4843Z" fill="#20181F"/>
<path d="M142.02 76.9743C152.14 77.0043 160.5 69.0343 160.8 60.7743L161.4 41.2743C161.78 30.9143 153.87 22.1243 143.54 21.4043C135.77 20.8643 121.65 32.4143 121.19 39.1043L120.88 54.7943C120.63 66.9343 129.91 76.1343 142.02 76.9743Z" fill="#F9A9A3"/>
<path d="M137.61 18.8542C137.66 18.8442 137.7 18.8342 137.75 18.8342C137.76 18.8342 137.7 18.8442 137.61 18.8542Z" fill="#F7DE9E"/>
<path d="M161 36.6143C161.42 26.4343 152.51 20.0743 145.82 18.4443C140.27 17.0943 134.43 17.2743 129.01 19.0843C122.54 21.2543 115.55 26.0743 120.32 36.6743C117.2 38.2143 114.42 39.9743 114.42 39.9743L126.06 53.9143C126.06 53.9143 126.9 50.0743 128.12 41.8843C134.19 39.4843 133.97 35.9343 134.59 32.1143C148.09 36.4043 161 36.6143 161 36.6143Z" fill="#EE75AE"/>
<path d="M111.42 52.5642C111.12 56.9042 114.39 60.6642 118.73 60.9642C123.07 61.2642 126.83 57.9942 127.13 53.6542C127.43 49.3142 124.16 45.5542 119.82 45.2542C115.49 44.9542 111.72 48.2242 111.42 52.5642Z" fill="#F9A9A3"/>
<path d="M121.86 55.6342C121.86 55.6342 122.26 49.9342 116.75 50.4542" stroke="#20181F" stroke-width="1.1845" stroke-miterlimit="10" stroke-linecap="round" stroke-linejoin="round"/>
<path d="M149.79 53.7642L150.41 58.9142L147.75 59.0142" stroke="#20181F" stroke-width="1.1845" stroke-miterlimit="10" stroke-linecap="round" stroke-linejoin="round"/>
<path d="M138.09 43.1843C138.09 43.1843 142.63 42.8143 142.68 44.6643C142.68 44.6643 142.68 45.9143 138.71 46.1643C134.75 46.4143 133.72 46.1243 133.36 44.9443C132.99 43.7643 135.96 43.1943 138.09 43.1843Z" fill="#20181F"/>
<path d="M156.38 43.6843C156.38 43.6843 152.63 43.2943 152.33 45.0343C152.33 45.0343 152.15 46.2143 155.43 46.4743C158.71 46.7443 159.78 46.3243 160.09 45.3743C160.44 44.2943 158.16 43.7143 156.38 43.6843Z" fill="#20181F"/>
<path d="M137.79 51.0642C137.76 52.0042 138.5 52.7942 139.44 52.8242C140.38 52.8542 141.17 52.1142 141.2 51.1742C141.23 50.2342 140.49 49.4442 139.55 49.4142C138.61 49.3842 137.82 50.1242 137.79 51.0642Z" fill="#20181F"/>
<path d="M153.53 51.0642C153.5 52.0042 154.24 52.7942 155.18 52.8242C156.12 52.8542 156.91 52.1142 156.94 51.1742C156.97 50.2342 156.23 49.4442 155.29 49.4142C154.35 49.3842 153.56 50.1242 153.53 51.0642Z" fill="#20181F"/>
<path d="M149.2 63.5642C149.2 63.5642 143.55 65.1442 140.61 61.0542" stroke="#20181F" stroke-width="1.1845" stroke-miterlimit="10" stroke-linecap="round" stroke-linejoin="round"/>
<path d="M150.84 50.1042H147.03" stroke="white" stroke-width="1.3399" stroke-miterlimit="10"/>
<path d="M131.24 50.1042H126.46" stroke="white" stroke-width="1.3399" stroke-miterlimit="10"/>
<path d="M139.09 57.8042C143.426 57.8042 146.94 54.2897 146.94 49.9542C146.94 45.6188 143.426 42.1042 139.09 42.1042C134.755 42.1042 131.24 45.6188 131.24 49.9542C131.24 54.2897 134.755 57.8042 139.09 57.8042Z" stroke="white" stroke-width="1.3399" stroke-miterlimit="10"/>
<path d="M158.19 56.8542C162.266 56.8542 165.57 53.5501 165.57 49.4742C165.57 45.3984 162.266 42.0942 158.19 42.0942C154.114 42.0942 150.81 45.3984 150.81 49.4742C150.81 53.5501 154.114 56.8542 158.19 56.8542Z" stroke="white" stroke-width="1.3208" stroke-miterlimit="10"/>
<path d="M284.41 183.274L215.24 186.144C207.9 215.224 204.04 280.334 202.15 325.904H247.32L254.91 266.764L265.15 325.904H307.46C299.98 274.994 288.25 197.184 284.41 183.274Z" fill="#4D2E3C"/>
<path d="M254.92 266.764L260.59 223.144L274.09 216.674" stroke="#20181F" stroke-width="1.0532" stroke-miterlimit="10" stroke-linecap="round" stroke-linejoin="round"/>
<path d="M194.36 96.8444C194.36 96.8444 225.84 85.2144 253.65 84.2644C253.65 84.2644 268.45 83.3244 293.57 90.0244C294.48 90.2644 295.09 91.1544 294.98 92.0944L284.41 183.264L214.95 186.134L194.36 96.8444Z" fill="#6C47D4"/>
<path d="M225.75 180.314L297.82 148.844L251.84 141.714L224.74 152.094L225.75 180.314Z" fill="#6C47D4"/>
<path d="M184.16 118.644C187.97 134.964 203.8 170.614 203.8 170.614C207.13 179.414 217.01 183.784 225.76 180.324C234.32 176.934 238.57 167.294 235.3 158.684L215.58 106.744C212.09 97.5543 201.5 93.3143 192.63 97.5443C184.75 101.314 182.17 110.144 184.16 118.644Z" fill="#6C47D4"/>
<path d="M225.32 132.394L216.62 109.474" stroke="#20181F" stroke-width="1.0532" stroke-miterlimit="10" stroke-linecap="round" stroke-linejoin="round"/>
<path d="M277.26 118.124C287.28 131.554 313.97 153.774 313.97 153.774C320.54 160.514 331.35 160.564 337.98 153.894C344.47 147.364 344.51 138.894 338.08 132.314L301.3 94.6645C294.43 87.6345 283.02 87.9845 276.59 95.4145C270.88 102.004 272.04 111.134 277.26 118.124Z" fill="#6C47D4"/>
<path d="M289.54 127.944C289.54 127.944 291.12 119.384 303.69 116.344L317.12 125.774L312.35 129.974L289.54 127.944Z" fill="#FCA0A0"/>
<path d="M241.84 125.784L225.32 132.394L231.78 149.404L240.77 145.964L241.84 125.784Z" fill="#FCA0A0"/>
<path d="M241.84 125.784L333.36 131.244L327.75 158.774L240.77 145.964L241.84 125.784Z" fill="#6C47D4"/>
<path d="M241.84 125.784L289.54 127.944L292.83 104.754" stroke="#20181F" stroke-width="1.0532" stroke-miterlimit="10" stroke-linecap="round" stroke-linejoin="round"/>
<path d="M241.84 173.294L287.72 153.214L240.77 145.964" stroke="#20181F" stroke-width="1.0532" stroke-miterlimit="10" stroke-linecap="round" stroke-linejoin="round"/>
<path d="M239.2 13.1443C234.43 13.4643 218.26 17.2743 223.67 33.2543C230.21 52.5843 233.45 55.0543 233.45 55.0543L232.9 26.3143L239.2 13.1443Z" fill="#4D2E3C"/>
<path d="M270.75 14.5044C270.75 14.5044 289.65 20.0344 275.73 40.8244L256.56 19.1544L270.75 14.5044Z" fill="#4D2E3C"/>
<path d="M265.13 47.3642C265.06 51.8642 268.53 55.5942 272.9 55.6842C277.26 55.7742 280.86 52.1942 280.93 47.6942C281 43.1942 277.53 39.4642 273.17 39.3742C268.8 39.2842 265.2 42.8642 265.13 47.3642Z" fill="#E88585"/>
<path d="M263.5 64.0243L264.57 85.2543C264.94 92.4243 260.82 95.6543 253.98 95.9243C248.14 96.1543 241.59 93.6443 241.53 87.3143L241.42 55.1143L263.5 64.0243Z" fill="#FCA0A0"/>
<path d="M264.45 81.9443L239.74 65.8943C239.03 59.8143 263.44 61.9343 263.44 61.9343L264.45 81.9443Z" fill="#20181F"/>
<path d="M256.31 72.7343C267.42 72.2043 276.14 62.6943 275.99 53.3143L275.58 33.6743C275.41 21.9143 266.22 12.3843 254.82 12.1543C243.15 11.9143 231.49 21.4344 231.3 33.4743L231.8 48.7743C232.24 62.5443 242.97 72.4543 256.31 72.7343Z" fill="#FCA0A0"/>
<path d="M252.25 33.3742C252.25 33.3742 258.25 32.1742 258.48 33.9242C258.48 33.9242 258.61 35.1142 255 35.7442C251.39 36.3842 248.54 36.5942 248.09 35.5142C247.64 34.4442 250.3 33.6042 252.25 33.3742Z" fill="#20181F"/>
<path d="M269.59 35.7042C269.59 35.7042 274.89 35.8642 274.73 37.6142C274.73 37.6142 275.4 38.8142 271.74 38.6342C268.08 38.4542 266.27 38.0942 266.07 36.9442C265.87 35.7842 267.63 35.4942 269.59 35.7042Z" fill="#20181F"/>
<path d="M255.2 55.0942C255.19 55.4142 258.49 58.2842 263.05 56.8742" stroke="#20181F" stroke-width="1.2504" stroke-miterlimit="10" stroke-linecap="round" stroke-linejoin="round"/>
<path d="M268.72 43.9941C268.74 45.0041 269.58 45.8041 270.6 45.7841C271.61 45.7641 272.41 44.9241 272.39 43.9041C272.37 42.8941 271.53 42.0941 270.51 42.1141C269.5 42.1441 268.7 42.9841 268.72 43.9941Z" fill="#20181F"/>
<path d="M251.6 44.9342C251.54 45.9442 252.31 46.8142 253.32 46.8742C254.33 46.9342 255.2 46.1642 255.26 45.1542C255.32 44.1442 254.55 43.2742 253.54 43.2142C252.54 43.1542 251.67 43.9242 251.6 44.9342Z" fill="#20181F"/>
<path d="M264.12 46.5642L266.66 51.0542C266.86 51.3642 266.8 51.7842 266.52 52.0242L264.95 52.8842" stroke="#20181F" stroke-width="1.2504" stroke-miterlimit="10" stroke-linecap="round" stroke-linejoin="round"/>
<path d="M237.05 47.4443C237.05 47.4443 233.58 31.2843 241.08 23.0843C241.08 23.0843 272.04 32.4743 276.83 19.8743C283.62 2.0043 264.01 -3.36569 252.8 1.96431C243.81 6.24431 239.21 13.1243 239.21 13.1243C239.21 13.1243 218.1 17.7043 229.53 40.9643L237.05 47.4443Z" fill="#4D2E3C"/>
<path d="M221.57 48.8943C221.5 53.3543 224.94 57.0443 229.26 57.1343C233.58 57.2243 237.14 53.6844 237.21 49.2243C237.28 44.7643 233.84 41.0743 229.52 40.9843C225.2 40.8943 221.64 44.4343 221.57 48.8943Z" fill="#FCA0A0"/>
<path d="M232.03 51.0543C232.03 51.0543 231.3 45.7843 226.69 46.0043" stroke="#20181F" stroke-width="1.2504" stroke-miterlimit="10" stroke-linecap="round" stroke-linejoin="round"/>
<path d="M241.84 85.2344L233.58 86.4644C233.58 86.4644 243.55 94.7444 263 100.504L269.68 85.2344L258.16 83.7544L241.84 85.2344Z" fill="#FCA0A0"/>
<path d="M1 325.904H517.36" stroke="#20181F" stroke-width="1.204" stroke-miterlimit="10" stroke-linecap="round" stroke-linejoin="round"/>
</svg>
