<svg width="108" height="134" viewBox="0 0 108 134" fill="none" xmlns="http://www.w3.org/2000/svg">
<g clip-path="url(#clip0_184_592)">
<path d="M86.6265 91.9458L77.0162 89.9345L89.2176 31.2905C89.765 28.6331 88.9013 24.6715 87.3199 22.4652C72.0043 1.23096 47.0905 9.86118 43.2708 28.2187L32.371 80.6217L22.7607 78.6104L35.0351 19.5885C36.3246 13.4083 40.2904 8.10588 45.8862 5.21695C76.8459 -10.7636 102.818 14.0788 97.5141 39.5428L86.6265 91.9458Z" fill="#E0E0E0"/>
<path d="M86.6264 91.9459C86.6264 91.9459 86.6873 91.5802 86.8332 90.8975C86.9792 90.2027 87.1739 89.1788 87.4537 87.8502C88.0011 85.1684 88.804 81.2434 89.838 76.1847C90.872 71.1261 92.1493 64.9459 93.6213 57.7663C94.3633 54.1826 95.154 50.3428 95.9934 46.2837C96.7476 42.2124 98.0128 37.9582 98.0493 33.3384C98.1466 28.7429 97.1612 23.9158 95.0567 19.3691C94.7891 18.8084 94.5336 18.2233 94.2417 17.6626C93.9254 17.1141 93.5969 16.5655 93.2685 16.017C92.6724 14.8834 91.8208 13.896 91.091 12.8233C90.7138 12.2992 90.2394 11.836 89.8136 11.3362C89.3635 10.8608 88.9743 10.3123 88.4755 9.88564C87.5023 8.9958 86.5656 8.02063 85.4586 7.25269C83.3784 5.53396 80.9333 4.24187 78.4273 3.04729C77.7704 2.8035 77.1257 2.55971 76.4687 2.31591L75.4834 1.95023C75.1428 1.85271 74.8022 1.76738 74.4615 1.66987C73.7803 1.48702 73.0869 1.31637 72.4057 1.13353C71.7123 0.98725 70.9945 0.901923 70.289 0.780027C64.6201 -0.134191 58.5498 0.670321 52.9783 2.99853C50.1804 4.18092 47.5771 5.82651 45.132 7.74027C42.7355 9.71499 40.6188 12.0676 38.794 14.6518C37.018 17.2847 35.6555 20.2102 34.658 23.2942C33.7699 26.4025 33.2104 29.6571 32.5048 32.8996C29.8042 45.9058 27.0063 59.3631 24.1353 73.1617C23.7582 75.0023 23.369 76.843 22.9918 78.6592L22.8094 78.391C26.0817 79.0737 29.2933 79.7441 32.4196 80.4023L32.152 80.5852C34.3174 70.1631 36.4462 59.9726 38.5021 50.0625C39.5361 45.1135 40.5458 40.2255 41.5555 35.4228C42.0542 33.0215 42.553 30.6445 43.0396 28.2797C43.5627 25.9027 44.4142 23.6233 45.5699 21.5389C47.9542 17.3944 51.5429 14.0667 55.6911 12.1285C56.2142 11.8969 56.7129 11.6166 57.2604 11.4337L58.8661 10.8608C59.961 10.5804 61.0436 10.2513 62.1628 10.1294C63.2698 9.92221 64.3768 9.89783 65.4838 9.84907C66.0313 9.84907 66.5909 9.89783 67.1383 9.92221L67.9655 9.97097L68.7805 10.0929C70.958 10.3367 73.0261 11.0436 74.9846 11.8603C76.931 12.738 78.7071 13.896 80.325 15.2003C83.4757 17.9064 85.8844 21.3195 87.1739 25.0251C87.8916 26.8535 88.22 28.7795 88.4755 30.6567C88.5972 32.5461 88.6215 34.4354 88.3052 36.2395C88.2322 36.6905 88.1592 37.1415 88.0862 37.5925C87.9889 38.0314 87.9038 38.4702 87.8064 38.909C87.624 39.7867 87.4415 40.6521 87.259 41.5176C86.8941 43.2363 86.5413 44.9185 86.2007 46.5763C84.8139 53.183 83.5366 59.2656 82.3931 64.7509C80.0939 75.6972 78.2813 84.2664 77.0892 89.959L77.0405 89.8736C80.3007 90.5684 82.6972 91.0804 84.2786 91.4217C85.0693 91.5924 85.6533 91.7264 86.0425 91.8118C86.4318 91.8971 86.6264 91.9459 86.6264 91.9459C86.6264 91.9459 86.444 91.9215 86.0547 91.8361C85.6532 91.763 85.0815 91.6411 84.2908 91.4827C82.6972 91.1535 80.2885 90.6659 77.004 89.9955L76.9432 89.9833L76.9553 89.9224C78.1232 84.2177 79.8871 75.6484 82.1376 64.6778C83.2689 59.1925 84.5219 53.1099 85.8965 46.5031C86.2372 44.8453 86.5899 43.1632 86.9427 41.4445C87.1252 40.579 87.2955 39.7135 87.478 38.8359C87.5631 38.3971 87.6605 37.9582 87.7456 37.5194C87.8186 37.0806 87.8794 36.6296 87.9524 36.1907C88.2565 34.4111 88.2322 32.5582 88.1106 30.6932C87.8551 28.8404 87.5388 26.951 86.8211 25.1592C85.5438 21.5145 83.1594 18.1502 80.0696 15.4928C78.4881 14.2007 76.7364 13.0793 74.8143 12.2138C72.8801 11.4093 70.8486 10.7145 68.7075 10.4829L67.9047 10.361L67.1018 10.3245C66.5665 10.3001 66.0191 10.2513 65.4717 10.2513C64.389 10.3001 63.2942 10.3245 62.2115 10.5317C61.1166 10.6536 60.0583 10.9827 58.9756 11.2509L57.3942 11.8116C56.8589 11.9822 56.3723 12.2748 55.8614 12.4942C51.7862 14.408 48.2705 17.687 45.9348 21.7461C44.8035 23.7939 43.9763 26.0368 43.4532 28.365C42.9666 30.7298 42.4678 33.1068 41.9691 35.5081C40.9716 40.3108 39.9619 45.1988 38.9279 50.1478C36.872 60.0579 34.7553 70.2484 32.5778 80.6705L32.5291 80.8899L32.3102 80.8411C29.1838 80.1951 25.9722 79.5125 22.6999 78.8299L22.4688 78.7811L22.5174 78.5617C22.8945 76.7454 23.2716 74.9048 23.6609 73.0642C26.5318 59.2778 29.3298 45.8083 32.0425 32.802C32.7481 29.5596 33.3077 26.3172 34.2079 23.1479C35.2297 20.0274 36.6044 17.0653 38.4169 14.3958C40.266 11.7628 42.407 9.38587 44.84 7.38678C47.3095 5.44863 49.9614 3.79085 52.7837 2.59627C58.4404 0.243686 64.5836 -0.573015 70.3255 0.365582C71.0432 0.487478 71.7609 0.572805 72.4665 0.719079L74.8508 1.35294C75.2887 1.48702 75.7145 1.6333 76.1525 1.76738L78.111 2.49876C78.403 2.62065 78.7071 2.75474 78.9991 2.87663C81.3834 4.02245 83.6947 5.29017 85.6776 6.93576C86.7967 7.72809 87.7334 8.70325 88.7188 9.60528C89.2297 10.0441 89.619 10.5926 90.0691 11.0802C90.4949 11.5922 90.9693 12.0554 91.3464 12.5917C92.0885 13.6766 92.94 14.6761 93.5483 15.822C93.8767 16.3827 94.2052 16.9312 94.5215 17.4797C94.8134 18.0527 95.0689 18.6378 95.3365 19.2107C97.4532 23.8061 98.4386 28.6942 98.3291 33.3384C98.2804 38.007 97.0031 42.2855 96.2245 46.3568C95.373 50.4282 94.558 54.2801 93.8037 57.876C92.2953 65.0557 90.9936 71.2358 89.9231 76.2944C88.8526 81.3287 88.0254 85.2416 87.4658 87.9111C87.186 89.2276 86.9671 90.2393 86.8211 90.9219C86.7116 91.6045 86.6264 91.9459 86.6264 91.9459Z" fill="#263238"/>
<path d="M89.4478 133.903L3.18652 115.899L18.5265 42.1516L104.374 60.0703C106.831 60.5822 108.413 63.008 107.902 65.4703L94.3381 130.697C93.8759 132.94 91.6862 134.378 89.4478 133.903Z" fill="#455A64"/>
<g opacity="0.3">
<g opacity="0.3">
<g opacity="0.3">
<g opacity="0.3">
<path opacity="0.3" d="M89.0466 133.878L3.23535 115.959L18.5753 42.2124L103.973 60.0457C106.686 60.6065 108.425 63.276 107.866 65.9943L94.4843 130.306C93.9612 132.805 91.5282 134.402 89.0466 133.878Z" fill="black"/>
</g>
</g>
</g>
</g>
<path d="M76.9305 131.294L4.06275 116.081C1.30132 115.509 -0.474759 112.79 0.109157 110.023L13.3932 46.1376C13.9528 43.4559 16.5683 41.7372 19.2445 42.2979L93.3531 57.7787C96.0294 58.3394 97.7447 60.9602 97.1851 63.6419L84.0835 126.613C83.4022 129.88 80.2029 131.977 76.9305 131.294Z" fill="#455A64"/>
<g opacity="0.3">
<path opacity="0.3" d="M61.627 82.8403C62.8314 77.0503 59.0359 71.3821 53.1724 70.3338C47.7104 69.3587 42.2605 73.0277 41.0927 78.4521C40.0708 83.1938 42.4187 87.8259 46.4939 89.9591L36.835 102.77L54.4862 106.793L52.1019 91.1293C56.6516 90.8123 60.6417 87.5455 61.627 82.8403Z" fill="black"/>
</g>
<path d="M84.339 125.614C84.2174 125.589 86.845 112.729 90.2025 96.9071C93.56 81.0728 96.3944 68.2738 96.5161 68.2981C96.6377 68.3225 94.0101 81.1703 90.6526 97.0046C87.2951 112.827 84.4607 125.638 84.339 125.614Z" fill="#263238"/>
<path d="M78.3539 56.9741C78.3296 57.096 67.004 54.9994 53.0509 52.2811C39.0977 49.5628 27.8087 47.259 27.833 47.1249C27.8574 47.003 39.1829 49.0996 53.136 51.8179C67.0892 54.5362 78.3782 56.84 78.3539 56.9741Z" fill="white"/>
<path d="M39.5843 84.0228C39.5599 84.035 39.4383 83.779 39.2923 83.2914C39.1463 82.8038 38.9882 82.0846 38.903 81.1826C38.7327 79.3907 39.0247 76.7578 40.4236 74.3199C41.8226 71.882 43.9393 70.3095 45.5816 69.5416C46.3966 69.1515 47.1022 68.9321 47.6009 68.8102C48.0875 68.7005 48.3673 68.6639 48.3795 68.7005C48.4038 68.7858 47.2968 69.0052 45.7397 69.8341C44.1826 70.6508 42.1875 72.1989 40.8372 74.5515C39.4991 76.8919 39.1585 79.4151 39.2436 81.1704C39.3045 82.9379 39.6694 83.9984 39.5843 84.0228Z" fill="white"/>
<path d="M42.6257 89.7519C42.5405 89.8495 41.9809 89.4716 41.3849 88.9109C40.7888 88.3501 40.3752 87.826 40.4603 87.7285C40.5455 87.631 41.1051 88.0088 41.7011 88.5696C42.2972 89.1303 42.7108 89.6544 42.6257 89.7519Z" fill="white"/>
<path d="M68.5979 2.85233C68.5979 2.8889 67.9653 2.81576 66.8218 2.74263C65.6783 2.6573 64.0239 2.63292 61.9923 2.82795C57.9536 3.16926 52.2969 4.72953 47.3336 8.53267C42.3704 12.348 39.4021 17.4189 38.0153 21.2342C37.2976 23.148 36.8961 24.7692 36.6772 25.8906C36.4582 27.0121 36.3609 27.6459 36.3244 27.6459C36.3122 27.6459 36.3122 27.4875 36.3366 27.1827C36.3731 26.878 36.3974 26.427 36.4947 25.8662C36.665 24.7204 37.0178 23.087 37.699 21.1245C39.025 17.236 41.9932 12.0555 47.0417 8.17918C52.0901 4.30289 57.8563 2.7792 61.9437 2.49883C63.9995 2.34037 65.6783 2.4257 66.8218 2.55978C67.3936 2.60854 67.8315 2.70606 68.1356 2.75482C68.4519 2.79138 68.5979 2.82795 68.5979 2.85233Z" fill="white"/>
<path d="M34.3047 35.5203C34.183 35.4959 34.3412 34.277 34.6575 32.802C34.9738 31.3271 35.3387 30.1569 35.4604 30.1813C35.582 30.2057 35.4239 31.4246 35.1076 32.8996C34.7913 34.3623 34.4263 35.5447 34.3047 35.5203Z" fill="white"/>
</g>
<defs>
<clipPath id="clip0_184_592">
<rect width="108" height="134" fill="white"/>
</clipPath>
</defs>
</svg>
