<svg width="634" height="680" viewBox="0 0 634 680" fill="none" xmlns="http://www.w3.org/2000/svg">
<path d="M328.405 611.065L311.345 618.387L312.491 517.376C313.032 505.285 307.459 500.13 304.441 496.694C277.04 465.531 236.14 488.133 235.784 519.744L234.762 610.012L218.183 609.826L219.839 515.363C219.963 504.728 228.23 486.26 236.574 479.65C282.706 443.115 329.906 480.873 329.457 520.797L328.405 611.065Z" fill="#F5F5F5"/>
<path d="M328.405 611.065C328.405 611.065 328.389 610.446 328.389 609.253C328.389 608.061 328.405 606.312 328.42 604.006C328.451 599.392 328.513 592.627 328.575 583.927C328.653 575.227 328.745 564.576 328.854 552.223C328.916 546.046 328.978 539.451 329.04 532.439C328.978 525.457 329.674 517.995 328.235 510.348C326.903 502.716 323.699 495.037 318.729 488.195C318.095 487.343 317.491 486.477 316.825 485.641C316.113 484.851 315.401 484.046 314.689 483.241C313.327 481.569 311.608 480.207 310.029 478.674C309.224 477.916 308.296 477.312 307.429 476.615C306.531 475.965 305.71 475.207 304.735 474.649C302.831 473.488 300.973 472.188 298.883 471.259C294.874 469.092 290.4 467.745 285.849 466.584C284.688 466.398 283.527 466.197 282.35 466.011L280.601 465.717C280.012 465.655 279.409 465.64 278.82 465.593C277.628 465.516 276.436 465.454 275.229 465.376C274.021 465.361 272.814 465.454 271.606 465.485C261.916 465.825 252.101 469.138 243.617 474.804C239.376 477.668 235.568 481.244 232.162 485.207C228.818 489.248 226.093 493.83 223.911 498.722C221.821 503.66 220.52 508.954 219.855 514.357C219.39 519.791 219.514 525.364 219.406 530.968C219.158 553.368 218.895 576.558 218.632 600.321C218.601 603.495 218.554 606.653 218.523 609.795L218.136 609.408C223.771 609.47 229.329 609.532 234.716 609.594L234.329 609.981C234.53 592.024 234.732 574.469 234.933 557.393C235.026 548.864 235.134 540.442 235.227 532.175C235.273 528.042 235.32 523.94 235.366 519.868C235.475 515.766 236.125 511.725 237.363 507.886C239.964 500.254 244.825 493.582 251.079 489.015C251.869 488.474 252.612 487.823 253.448 487.359L255.925 485.888C257.643 485.068 259.33 484.155 261.142 483.597C262.906 482.885 264.749 482.498 266.56 482.049C267.473 481.863 268.402 481.77 269.331 481.631L270.709 481.43L272.102 481.368C275.802 481.074 279.455 481.569 282.969 482.281C286.483 483.102 289.812 484.433 292.908 486.074C299.007 489.526 304.116 494.387 307.46 500.115C309.255 502.902 310.416 505.982 311.438 509.001C312.259 512.097 312.893 515.193 312.971 518.305C313.002 519.079 313.033 519.853 313.064 520.611C313.048 521.37 313.048 522.128 313.033 522.887C313.017 524.389 313.002 525.89 312.971 527.376C312.94 530.333 312.893 533.244 312.862 536.092C312.723 547.486 312.584 557.951 312.46 567.394C312.197 586.265 311.995 601.033 311.856 610.848L311.748 610.74C317.383 610.833 321.516 610.894 324.256 610.941C325.618 610.972 326.625 610.987 327.321 611.003C328.064 611.049 328.405 611.065 328.405 611.065C328.405 611.065 328.095 611.08 327.43 611.08C326.748 611.08 325.742 611.08 324.395 611.065C321.64 611.049 317.491 611.018 311.825 610.987H311.717V610.879C311.81 601.064 311.933 586.296 312.104 567.425C312.197 557.982 312.305 547.517 312.413 536.123C312.444 533.275 312.475 530.364 312.506 527.407C312.522 525.921 312.537 524.435 312.553 522.918C312.568 522.159 312.568 521.401 312.568 520.642C312.537 519.884 312.506 519.125 312.475 518.367C312.398 515.317 311.763 512.252 310.958 509.202C309.936 506.23 308.791 503.196 307.011 500.456C303.713 494.836 298.667 490.053 292.66 486.662C289.61 485.052 286.344 483.752 282.876 482.947C279.409 482.25 275.817 481.77 272.179 482.065L270.817 482.127L269.455 482.312C268.557 482.452 267.643 482.544 266.745 482.73C264.965 483.179 263.154 483.551 261.42 484.247C259.64 484.805 257.983 485.687 256.296 486.492L253.866 487.932C253.03 488.396 252.318 489.015 251.544 489.557C245.413 494.062 240.645 500.61 238.091 508.103C236.883 511.865 236.233 515.843 236.14 519.868C236.094 523.94 236.047 528.042 236.001 532.175C235.908 540.442 235.815 548.864 235.722 557.393C235.537 574.469 235.335 592.024 235.134 609.981V610.368H234.747C229.36 610.306 223.802 610.244 218.167 610.182H217.78V609.795C217.811 606.653 217.858 603.495 217.889 600.321C218.167 576.558 218.43 553.368 218.678 530.968C218.787 525.364 218.663 519.837 219.143 514.295C219.824 508.8 221.14 503.443 223.26 498.443C225.474 493.489 228.245 488.845 231.635 484.758C235.103 480.749 238.958 477.126 243.261 474.231C251.869 468.488 261.807 465.144 271.622 464.819C272.845 464.788 274.068 464.695 275.291 464.711L279.455 464.974C280.214 465.067 280.988 465.144 281.746 465.237L285.229 465.81C285.771 465.918 286.298 466.042 286.839 466.151C291.174 467.281 295.4 468.612 299.239 470.686C301.345 471.631 303.218 472.947 305.153 474.123C306.144 474.68 306.964 475.454 307.878 476.12C308.744 476.817 309.689 477.436 310.494 478.194C312.088 479.743 313.822 481.12 315.2 482.823C315.927 483.644 316.64 484.449 317.352 485.254C318.017 486.105 318.621 486.987 319.271 487.839C324.272 494.759 327.507 502.53 328.823 510.239C330.247 517.98 329.535 525.472 329.566 532.47C329.473 539.498 329.38 546.123 329.303 552.316C329.132 564.685 328.978 575.351 328.854 584.067C328.73 592.751 328.622 599.501 328.56 604.098C328.513 606.374 328.498 608.108 328.467 609.284C328.436 610.476 328.405 611.065 328.405 611.065Z" fill="#E0E0E0"/>
<path d="M348.453 679.597L197.826 677.895L199.266 550.845L349.351 552.548C352.555 552.579 355.125 555.211 355.078 558.415L353.763 674.396C353.747 677.306 351.363 679.644 348.453 679.597Z" fill="#E0E0E0"/>
<path d="M327.647 679.365L197.222 677.879C193.631 677.833 190.751 674.891 190.798 671.3L192.098 557.053C192.145 553.585 194.993 550.799 198.461 550.83L330.495 552.331C333.963 552.378 336.749 555.226 336.718 558.694L335.433 671.749C335.387 676.006 331.904 679.412 327.647 679.365Z" fill="#EBEBEB"/>
<path d="M283.976 604.145C284.084 594.16 275.941 586.017 265.894 586.203C256.513 586.373 248.68 594.206 248.494 603.588C248.339 611.761 253.742 618.65 261.204 620.879L249.345 645.215L279.92 646.128L270.879 620.988C278.341 618.96 283.883 612.257 283.976 604.145Z" fill="#E0E0E0"/>
<path d="M335.572 667.523C335.356 667.523 335.526 645.401 335.959 618.108C336.393 590.816 336.904 568.694 337.121 568.71C337.337 568.71 337.167 590.831 336.734 618.124C336.3 645.416 335.789 667.523 335.572 667.523Z" fill="#FAFAFA"/>
<path d="M303.311 555.876C303.311 556.093 283.836 556.31 259.826 556.356C235.8 556.403 216.341 556.263 216.341 556.047C216.341 555.83 235.8 555.613 259.826 555.567C283.852 555.536 303.311 555.66 303.311 555.876Z" fill="white"/>
<path d="M247.813 613.294C247.767 613.309 247.488 612.938 247.085 612.179C246.683 611.421 246.187 610.291 245.754 608.804C244.887 605.879 244.516 601.451 246.033 596.946C247.565 592.441 250.569 589.16 253.03 587.364C254.268 586.45 255.352 585.847 256.126 585.506C256.9 585.15 257.365 585.026 257.38 585.057C257.442 585.181 255.693 585.909 253.371 587.797C251.064 589.655 248.246 592.875 246.776 597.194C245.321 601.513 245.584 605.786 246.28 608.665C246.992 611.576 247.952 613.216 247.813 613.294Z" fill="white"/>
<path d="M254.732 621.777C254.624 621.963 253.571 621.514 252.41 620.787C251.234 620.059 250.382 619.316 250.491 619.13C250.599 618.944 251.652 619.393 252.813 620.121C253.989 620.848 254.841 621.592 254.732 621.777Z" fill="white"/>
<path d="M269.533 469.494C269.533 469.556 268.465 469.634 266.545 469.881C264.625 470.114 261.854 470.609 258.557 471.6C251.978 473.504 243.123 477.916 236.126 485.842C229.144 493.783 225.862 503.118 224.794 509.883C224.236 513.289 224.097 516.091 224.097 518.026C224.097 519.961 224.159 521.029 224.082 521.045C224.051 521.045 224.02 520.782 223.958 520.271C223.911 519.76 223.803 519.017 223.788 518.042C223.695 516.091 223.741 513.258 224.252 509.806C225.196 502.948 228.432 493.412 235.537 485.331C242.658 477.266 251.715 472.869 258.402 471.073C261.762 470.144 264.579 469.742 266.514 469.587C267.489 469.479 268.248 469.494 268.759 469.479C269.254 469.463 269.533 469.463 269.533 469.494Z" fill="white"/>
<path d="M223.276 534.73C223.059 534.73 222.935 532.655 222.982 530.117C223.028 527.562 223.261 525.503 223.462 525.519C223.678 525.519 223.802 527.593 223.756 530.147C223.709 532.686 223.493 534.745 223.276 534.73Z" fill="white"/>
<path d="M27.8807 594.005L0.0620117 631.793L46.9064 666.656C49.9561 661.98 32.4165 634.951 32.4165 634.951L51.241 611.467L27.8807 594.005Z" fill="#455A64"/>
<path d="M19.4276 622.149C18.344 621.715 16.9507 622.273 16.4863 623.341C16.0219 624.409 16.5637 625.833 17.6474 626.267C18.731 626.716 20.4184 626.096 20.759 624.982C21.0995 623.867 20.372 622.242 19.2109 622.071" fill="white"/>
<path d="M0 631.871L2.9568 627.815L46.7206 663.049C46.7206 663.049 48.1138 665.51 46.7825 666.795L0 631.871Z" fill="#263238"/>
<path d="M33.3449 635.276C33.1746 635.493 31.9517 634.75 30.2798 634.657C28.6079 634.518 27.292 635.075 27.1527 634.827C26.9824 634.626 28.3292 633.512 30.3572 633.666C32.3696 633.806 33.5462 635.106 33.3449 635.276Z" fill="#263238"/>
<path d="M36.751 640.973C36.6426 641.236 35.3577 640.88 33.8561 641.267C32.3545 641.608 31.3792 642.506 31.147 642.336C30.8993 642.212 31.7507 640.757 33.6084 640.308C35.4816 639.843 36.9058 640.741 36.751 640.973Z" fill="#263238"/>
<path d="M35.1562 648.93C34.9085 648.822 35.4503 647.444 36.9674 646.624C38.4846 645.803 39.9242 646.113 39.8778 646.376C39.8623 646.655 38.6703 646.81 37.4319 647.506C36.1779 648.156 35.4039 649.07 35.1562 648.93Z" fill="#263238"/>
<path d="M37.0451 629.455C36.7974 629.595 35.9769 628.496 34.6146 627.629C33.2678 626.731 31.9519 626.406 31.9674 626.127C31.9519 625.864 33.5774 625.74 35.1564 626.793C36.7509 627.83 37.2773 629.363 37.0451 629.455Z" fill="#263238"/>
<path d="M141.122 435.871C141.973 440.608 143.289 480.904 144.14 502.159C144.992 523.414 142.871 533.878 140.441 538.631C138.01 543.384 46.3493 610.941 39.3675 627.118L16.2085 608.402C16.2085 608.402 50.204 547.254 64.7867 536.154C79.3695 525.055 107.235 514.837 107.235 514.837L99.3085 398.438L137.375 396.364L141.122 435.871Z" fill="#263238"/>
<path d="M55.9469 631.36L55.5444 678.297L113.937 679.102C113.674 673.514 83.6263 661.903 83.6263 661.903L85.1124 631.84L55.9469 631.36Z" fill="#455A64"/>
<path d="M65.5917 659.117C64.4617 659.411 63.6567 660.665 63.9043 661.81C64.152 662.956 65.4215 663.776 66.567 663.498C67.7126 663.219 68.7033 661.748 68.3318 660.634C67.9603 659.519 66.4122 658.637 65.375 659.179" fill="white"/>
<path d="M55.5293 678.375L55.5448 673.344L111.662 676.254C111.662 676.254 114.232 677.43 113.907 679.257L55.5293 678.375Z" fill="#263238"/>
<path d="M84.5553 661.609C84.5398 661.888 83.1156 661.996 81.6914 662.894C80.2517 663.761 79.5086 664.984 79.2455 664.86C78.9823 664.798 79.4312 663.095 81.1651 662.043C82.8989 660.99 84.6172 661.346 84.5553 661.609Z" fill="#263238"/>
<path d="M90.6389 664.225C90.7009 664.504 89.4624 664.968 88.4717 666.16C87.4499 667.321 87.1868 668.622 86.9081 668.606C86.6449 668.653 86.4592 666.981 87.7131 665.51C88.967 664.055 90.6389 663.947 90.6389 664.225Z" fill="#263238"/>
<path d="M94.0297 671.61C93.7666 671.672 93.395 670.232 94.1536 668.684C94.8966 667.12 96.2435 666.532 96.3673 666.764C96.5221 666.996 95.6552 667.832 95.0514 669.117C94.4013 670.371 94.3084 671.579 94.0297 671.61Z" fill="#263238"/>
<path d="M84.1377 654.72C84.0139 654.983 82.7135 654.565 81.1035 654.658C79.4935 654.72 78.2241 655.231 78.0848 654.983C77.93 654.782 79.1685 653.729 81.0571 653.667C82.9612 653.575 84.2771 654.503 84.1377 654.72Z" fill="#263238"/>
<path d="M145.348 391.549C145.348 394.305 149.791 463.658 127.112 513.8C127.112 513.8 119.263 529.497 117.885 536.355C116.508 543.229 87.1099 656.949 87.1099 656.949L53.2073 655.711C53.2073 655.711 47.7736 598.727 53.2692 565.753C58.7648 532.779 68.7963 536.618 68.7963 515.333C68.7963 494.047 63.7341 449.865 63.7341 449.865C63.7341 449.865 56.3344 437.79 53.811 414.414C51.7676 395.42 60.6999 375.063 60.6999 375.063L69.5548 359.412L144.342 355.495L145.348 391.549Z" fill="#263238"/>
<path d="M145.347 391.549C145.347 391.549 145.363 390.744 145.332 389.196C145.301 387.617 145.254 385.295 145.177 382.261C145.022 376.146 144.805 367.137 144.511 355.495V355.309L144.326 355.325C125.95 356.254 100.422 357.554 69.5386 359.133L69.3683 359.149L69.2909 359.288C66.5354 364.149 63.5321 369.459 60.4205 374.939L60.4051 374.954V374.97C58.1759 380.357 56.3801 386.1 55.0797 392.122C53.7484 398.144 53.0053 404.491 53.2066 410.993C53.6245 417.495 54.6772 424.043 56.2563 430.638C57.8972 437.217 59.9871 443.843 63.4238 450.097L63.3773 449.942C64.6622 461.491 65.8388 473.457 66.8605 485.78C67.3559 491.941 67.8048 498.196 68.0989 504.527C68.2537 507.685 68.3621 510.874 68.3931 514.079C68.455 515.689 68.3311 517.268 68.3002 518.878C68.1299 520.472 68.0525 522.082 67.7119 523.646C67.1546 526.804 66.009 529.853 64.5074 532.733C63.0058 535.628 61.3184 538.492 59.9097 541.51C57.0303 547.548 55.1726 554.065 53.8258 560.706C51.1322 574.02 50.5749 587.859 50.4355 601.792C50.3736 620.214 51.3024 638.28 52.8196 655.773L52.8505 656.129L53.2066 656.144C64.7551 656.562 76.0715 656.98 87.1092 657.367L87.4342 657.383L87.5116 657.073C97.3264 618.975 106.506 583.37 114.572 551.356C115.563 547.347 116.538 543.399 117.513 539.513C118.008 537.547 118.334 535.597 118.937 533.739C119.526 531.866 120.222 530.039 120.934 528.243C122.39 524.652 123.953 521.169 125.548 517.779C125.95 516.927 126.353 516.091 126.755 515.255C127.173 514.435 127.576 513.583 127.901 512.716C128.597 510.998 129.294 509.311 129.975 507.623C135.316 494.109 138.474 480.997 140.688 469.03C145.022 445.02 145.595 425.483 145.796 412.17C145.889 398.81 145.347 391.549 145.347 391.549C145.347 391.549 145.332 391.998 145.363 392.896C145.378 393.81 145.425 395.126 145.471 396.844C145.564 400.327 145.626 405.482 145.533 412.139C145.254 425.452 144.589 444.973 140.192 468.922C137.948 480.857 134.774 493.938 129.418 507.391C128.737 509.063 128.04 510.75 127.343 512.453C127.018 513.32 126.631 514.141 126.198 514.977C125.795 515.813 125.393 516.664 124.975 517.5C123.365 520.906 121.786 524.389 120.315 527.996C119.588 529.807 118.891 531.649 118.287 533.538C117.668 535.442 117.327 537.423 116.832 539.343C115.857 543.229 114.881 547.176 113.875 551.186C105.655 583.169 96.5059 618.774 86.7067 656.872L87.1092 656.578C76.0715 656.175 64.7551 655.757 53.2066 655.339L53.5936 655.711C52.092 638.264 51.1631 620.198 51.225 601.823C51.3799 587.921 51.9217 574.113 54.5998 560.892C55.9312 554.297 57.7888 547.842 60.6218 541.882C62.015 538.894 63.687 536.061 65.2041 533.12C66.7366 530.194 67.9132 527.051 68.4859 523.801C68.842 522.191 68.9194 520.55 69.0897 518.94C69.1207 517.314 69.2445 515.689 69.1826 514.079C69.1516 510.859 69.0433 507.67 68.8884 504.496C68.5788 498.149 68.1299 491.895 67.6345 485.734C66.6128 473.411 65.4208 461.429 64.1204 449.865L64.1049 449.788L64.0585 449.71C60.7147 443.626 58.5938 436.985 56.9529 430.483C55.3893 423.95 54.3212 417.387 53.9032 410.978C53.7019 404.553 54.4141 398.253 55.7299 392.277C57.0148 386.286 58.7951 380.558 60.9933 375.233L60.9778 375.264C64.074 369.784 67.0617 364.458 69.8018 359.597L69.5541 359.752C100.438 358.08 125.966 356.703 144.326 355.712L144.14 355.542C144.496 367.167 144.775 376.177 144.976 382.292C145.084 385.326 145.162 387.648 145.208 389.227C145.285 390.76 145.347 391.549 145.347 391.549Z" fill="#455A64"/>
<path d="M121.027 249.515C121.027 249.515 100.825 245.954 102.776 271.853C103.937 287.365 108.504 313.899 111.027 330.85C111.894 336.717 113.813 347.213 121.569 353.374L177.145 391.844L194.684 370.867L145.053 323.59L137.251 276.838L121.027 249.515Z" fill="#455A64"/>
<path d="M123.381 156.166C129.79 161.213 133.458 169.572 132.824 177.715C132.514 181.663 131.43 186.183 134 189.202C136.539 192.19 141.555 192.097 143.985 195.177C146.865 198.8 144.45 204.187 145.487 208.692C146.447 212.918 150.921 216.045 155.224 215.488C150.178 219.606 143.97 222.3 137.514 223.166C135.858 221.046 134.217 218.925 132.561 216.804C134.434 219.033 133.938 222.578 132.127 224.854C130.316 227.129 127.498 228.368 124.727 229.25C111.46 233.461 96.2585 230.984 85.0195 222.795" fill="#263238"/>
<path d="M49.0429 191.106C50.0337 188.072 51.6901 185.27 52.3558 182.143C53.7955 175.44 50.529 167.901 53.78 161.863C56.1021 157.575 61.0249 155.47 65.6846 154.03C70.3443 152.59 75.3445 151.383 78.8276 147.962C81.3819 145.454 82.8216 142.002 85.3759 139.478C88.9984 135.887 94.3392 134.679 99.4324 134.354C104.665 134.029 110.068 134.54 114.758 136.846C119.464 139.153 123.365 143.488 124.201 148.658C124.604 151.182 124.294 153.813 125.099 156.244C125.966 158.906 128.072 160.981 129.356 163.473C132.081 168.737 130.61 175.827 125.997 179.573L90.113 225.922C82.574 228.77 64.3068 225.318 58.4861 219.761C52.6654 214.188 46.535 198.769 49.0429 191.106Z" fill="#263238"/>
<path d="M125.052 173.675C123.566 163.148 115.563 150.717 105.113 152.637L72.8518 163.489C69.6782 164.077 71.9539 169.247 72.2635 172.467L79.2762 245.226C79.2298 245.242 74.9262 248.338 73.3626 247.734C72.9601 247.579 72.6041 248.028 72.8363 248.384C76.7065 254.004 95.0046 278.603 113.844 271.095C118.055 269.423 113.411 256.156 113.891 251.233L113.334 238.678C112.916 232.269 112.714 229.637 112.73 229.699C112.73 229.699 126.074 226.417 127.514 208.584C128.241 199.713 126.709 185.378 125.052 173.675Z" fill="#FFBF9D"/>
<path d="M122.807 189.883C122.947 191.075 122.049 192.174 120.81 192.329C119.572 192.484 118.457 191.664 118.318 190.472C118.179 189.28 119.077 188.18 120.315 188.026C121.569 187.855 122.684 188.691 122.807 189.883Z" fill="#263238"/>
<path d="M100.841 191.261C100.98 192.453 100.082 193.552 98.8436 193.707C97.6051 193.862 96.4905 193.041 96.3512 191.849C96.2118 190.657 97.1097 189.558 98.3482 189.403C99.6021 189.233 100.717 190.069 100.841 191.261Z" fill="#263238"/>
<path d="M123.628 182.421C123.381 182.839 121.275 181.508 118.644 181.895C116.012 182.236 114.324 184.078 113.984 183.753C113.814 183.613 114.015 182.886 114.758 182.065C115.47 181.245 116.786 180.347 118.427 180.115C120.068 179.898 121.554 180.393 122.467 180.997C123.365 181.601 123.752 182.236 123.628 182.421Z" fill="#263238"/>
<path d="M99.9737 184.372C99.6641 184.759 97.5897 183.258 94.7568 183.366C91.9238 183.444 89.9113 185.085 89.5862 184.728C89.4314 184.574 89.7255 183.892 90.6079 183.149C91.4594 182.406 92.961 181.663 94.7258 181.601C96.4906 181.539 98.0077 182.174 98.8901 182.855C99.8034 183.552 100.129 184.202 99.9737 184.372Z" fill="#263238"/>
<path d="M108.86 201.045C108.844 200.906 110.33 200.534 112.761 200.023C113.38 199.915 113.953 199.744 114.03 199.311C114.139 198.847 113.829 198.196 113.473 197.5C112.776 196.045 112.049 194.512 111.275 192.918C108.209 186.385 105.934 180.982 106.197 180.858C106.46 180.734 109.169 185.936 112.234 192.469C112.977 194.079 113.69 195.627 114.355 197.097C114.649 197.778 115.114 198.552 114.866 199.512C114.742 199.992 114.309 200.364 113.922 200.503C113.535 200.658 113.179 200.689 112.885 200.735C110.408 201.06 108.875 201.184 108.86 201.045Z" fill="#263238"/>
<path d="M112.745 229.699C112.745 229.699 100.948 231.371 88.6567 225.21C88.6567 225.21 95.5456 237.13 113.054 234.127L112.745 229.699Z" fill="#FF9A6C"/>
<path d="M101.429 208.15C101.754 207.593 102.11 206.989 102.683 206.664C103.302 206.308 104.076 206.324 104.788 206.448C105.826 206.633 106.832 207.082 107.544 207.856C108.256 208.63 108.597 209.776 108.241 210.767C107.962 211.788 106.445 212.346 105.408 212.516C104.37 212.702 103.287 212.392 102.373 211.881C101.599 211.448 100.856 210.751 100.825 209.869C100.794 209.265 101.119 208.692 101.429 208.15Z" fill="#FF9A6C"/>
<path d="M101.94 204.729C102.327 204.683 102.544 207.314 104.943 209.017C107.343 210.72 110.129 210.209 110.191 210.581C110.238 210.751 109.603 211.138 108.411 211.262C107.25 211.386 105.516 211.154 104.045 210.101C102.575 209.064 101.863 207.562 101.692 206.494C101.506 205.395 101.754 204.729 101.94 204.729Z" fill="#263238"/>
<path d="M99.7567 174.851C99.571 175.533 97.1096 175.409 94.2921 175.966C91.4591 176.477 89.2144 177.483 88.7965 176.926C88.6107 176.663 88.9667 175.997 89.8337 175.285C90.7006 174.573 92.1248 173.861 93.8277 173.536C95.5305 173.21 97.1096 173.365 98.1932 173.706C99.2768 174.062 99.8342 174.526 99.7567 174.851Z" fill="#263238"/>
<path d="M122.126 173.521C121.677 174.109 119.727 173.691 117.42 173.83C115.114 173.908 113.194 174.527 112.699 173.985C112.482 173.722 112.745 173.149 113.55 172.561C114.355 171.972 115.717 171.446 117.312 171.369C118.891 171.291 120.3 171.694 121.151 172.189C122.003 172.685 122.312 173.242 122.126 173.521Z" fill="#263238"/>
<path d="M65.7305 166.028C67.3559 163.52 70.2818 162.235 73.0683 161.151C85.0813 156.507 97.667 153.303 110.439 151.631C112.033 154.247 110.562 157.823 108.163 159.727C105.763 161.631 102.683 162.39 99.8033 163.458C96.9239 164.526 93.9826 166.182 92.8061 169.015C91.5522 172.019 92.6048 175.595 91.5057 178.66C89.6016 183.939 82.2328 185.642 80.3597 190.936C78.9509 194.93 81.2575 199.203 81.8458 203.398C82.496 208.166 80.7312 213.197 77.2481 216.51C74.4925 219.126 70.7307 220.581 66.9534 220.659C66.0865 205.503 65.2041 190.363 64.3372 175.208C64.136 172.081 64.0121 168.675 65.7305 166.028Z" fill="#263238"/>
<path d="M35.2022 204.296C37.6017 202.144 40.5894 200.302 41.5492 197.221C42.9425 192.747 39.351 187.499 41.6576 183.428C43.7629 179.713 49.9707 179.898 51.9367 176.106C53.4693 173.149 51.7045 170.517 52.2928 167.916C52.881 165.316 56.5654 163.04 59.2126 163.35L79.9102 193.336C81.8298 203.398 83.7649 208.754 81.5976 214.637C80.4056 217.872 78.873 221.015 78.4086 224.421C77.9442 227.826 78.8111 231.681 81.5976 233.709C69.2286 234.684 57.6336 228.198 46.921 221.944C43.1437 219.73 39.3664 217.532 35.5737 215.318C34.3972 214.621 33.1587 213.894 32.4621 212.717C30.8057 209.993 32.8181 206.448 35.2022 204.296Z" fill="#263238"/>
<path d="M46.6118 218.925C46.6118 218.925 47.0453 219.095 47.9277 219.173C48.8101 219.265 50.1414 219.296 51.7823 218.894C53.4078 218.491 55.3893 217.671 57.1541 215.999C58.9189 214.358 60.3431 211.804 60.6992 208.77C60.8695 207.253 60.7611 205.627 60.2967 204.017C59.8168 202.407 58.9189 200.905 58.0056 199.419C57.0922 197.933 56.1014 196.401 55.637 194.651C55.1881 192.933 55.1726 190.889 56.3027 189.403C57.4328 187.902 59.5227 187.53 61.4577 186.741C62.433 186.354 63.4393 185.75 64.0894 184.79C64.7396 183.83 64.9564 182.654 64.9409 181.539C64.9099 179.279 63.9501 177.205 63.5321 175.099C63.3154 174.047 63.238 172.947 63.5167 171.941C63.7798 170.935 64.4145 170.037 65.2969 169.433C67.0772 168.164 69.3683 167.947 71.5511 167.761C73.7648 167.607 76.0715 167.111 77.9291 165.888C79.8178 164.727 81.3194 163.055 82.2947 161.151C83.2545 159.232 83.595 157.173 83.9047 155.222C84.1988 153.272 84.4774 151.367 85.1121 149.665C85.7623 147.962 86.7995 146.476 88.0225 145.284C90.5149 142.915 93.6729 141.646 96.5833 141.413C99.5091 141.166 102.172 141.94 104.246 143.008C106.336 144.076 107.9 145.423 109.014 146.63C111.243 149.107 111.863 150.903 111.956 150.857C111.971 150.857 111.925 150.748 111.832 150.531C111.739 150.33 111.615 150.005 111.398 149.618C110.996 148.829 110.315 147.714 109.2 146.445C108.101 145.175 106.537 143.782 104.416 142.652C102.311 141.522 99.5865 140.686 96.5214 140.903C93.5027 141.119 90.2208 142.389 87.589 144.85C86.3042 146.104 85.1896 147.652 84.5084 149.448C83.8118 151.244 83.5331 153.194 83.239 155.129C82.9294 157.064 82.5733 159.061 81.6754 160.857C80.7621 162.637 79.3379 164.201 77.5576 165.3C75.7928 166.446 73.6874 166.894 71.4892 167.065C69.3219 167.266 66.876 167.452 64.879 168.861C63.8882 169.542 63.1142 170.594 62.82 171.771C62.5104 172.947 62.6033 174.139 62.8355 175.254C63.2845 177.483 64.2288 179.496 64.2443 181.57C64.2597 182.592 64.0585 183.614 63.5167 184.403C62.9748 185.208 62.1234 185.734 61.1946 186.121C60.2657 186.508 59.275 186.772 58.3152 187.19C57.3554 187.577 56.4111 188.149 55.7763 189.016C54.476 190.766 54.5379 193.01 55.0333 194.822C55.5441 196.71 56.5968 198.258 57.5102 199.744C58.439 201.231 59.3214 202.67 59.7858 204.187C60.2503 205.704 60.3586 207.268 60.2193 208.723C59.9252 211.649 58.5783 214.11 56.9064 215.72C55.2345 217.346 53.3304 218.197 51.7359 218.631C48.485 219.451 46.6118 218.801 46.6118 218.925Z" fill="#455A64"/>
<path d="M30.1096 197.608C30.1096 197.608 29.8619 197.918 29.7071 198.614C29.5523 199.311 29.5677 200.457 30.2334 201.68C30.574 202.268 31.0848 202.887 31.8124 203.352C32.54 203.8 33.4534 204.079 34.4596 204.048C36.4257 204.064 38.7478 202.887 39.8778 200.611C40.4506 199.497 40.7602 198.196 40.7602 196.834C40.7602 195.472 40.4042 194.079 39.8933 192.747C38.918 190.069 37.1223 187.468 37.0913 184.326C37.0604 182.809 37.4164 181.168 38.531 180.069C39.6302 178.954 41.333 178.675 43.0204 178.66C44.7233 178.598 46.5655 178.815 48.3767 178.103C49.2591 177.747 50.0641 177.081 50.575 176.245C51.1013 175.409 51.3645 174.465 51.4728 173.52C51.705 171.585 51.2561 169.759 51.0239 168.025C50.7452 166.275 50.8536 164.557 51.3026 162.932C52.2159 159.681 54.3987 156.941 57.0613 155.377C59.7395 153.767 62.8511 153.581 65.6376 153.411C68.4551 153.256 71.1642 153.086 73.4708 152.173C75.7774 151.321 77.6196 150.021 79.0129 148.689C80.4216 147.358 81.3814 145.965 82.0471 144.788C83.3629 142.389 83.5178 140.856 83.5178 140.856C83.4249 140.825 83.1617 142.327 81.7994 144.649C81.1028 145.795 80.143 147.126 78.7342 148.395C77.341 149.665 75.5297 150.903 73.2851 151.693C71.0558 152.544 68.4241 152.683 65.5912 152.807C62.8047 152.947 59.5847 153.086 56.7053 154.789C53.8723 156.43 51.5812 159.294 50.6059 162.73C50.126 164.433 50.0022 166.322 50.2963 168.118C50.5285 169.913 50.9465 171.694 50.7452 173.443C50.575 175.192 49.6616 176.849 48.0826 177.452C46.519 178.087 44.7233 177.917 42.9895 177.963C41.2711 177.979 39.3205 178.257 38.0202 179.589C36.7198 180.889 36.3637 182.731 36.4102 184.341C36.4411 185.998 36.9365 187.561 37.5403 188.955C38.144 190.363 38.8097 191.664 39.3205 192.964C39.8314 194.264 40.172 195.565 40.1875 196.834C40.2029 198.104 39.9243 199.327 39.4134 200.364C38.3917 202.485 36.2863 203.615 34.4441 203.63C33.5153 203.661 32.6639 203.429 31.9827 203.042C31.3016 202.639 30.8062 202.082 30.4656 201.525C29.8 200.395 29.7225 199.296 29.8309 198.63C29.9548 197.949 30.1405 197.624 30.1096 197.608Z" fill="#263238"/>
<path d="M160.503 204.992C160.394 204.977 161.168 206.184 160.456 208.228C160.1 209.187 159.295 210.364 157.886 210.828C156.509 211.293 154.605 210.937 153.351 209.59C152.716 208.924 152.344 208.011 152.282 207.005C152.221 205.998 152.422 204.93 152.762 203.878C153.413 201.788 154.759 199.497 154.558 196.772C154.403 194.125 153.072 191.416 150.796 189.62C149.666 188.722 148.35 188.025 146.942 187.592C145.517 187.127 144 187.035 142.53 186.957C141.059 186.88 139.604 186.849 138.257 186.508C136.91 186.183 135.703 185.502 134.929 184.434C134.155 183.381 133.814 182.065 133.721 180.78C133.628 179.48 133.783 178.211 134.046 176.972C134.557 174.495 135.3 172.096 135.161 169.727C135.037 167.374 134.139 165.284 132.947 163.721C131.755 162.111 130.207 161.136 128.922 160.315C127.622 159.495 126.507 158.798 125.702 158.086C124.046 156.693 123.767 155.423 123.674 155.485C123.659 155.485 123.674 155.562 123.721 155.702C123.767 155.841 123.829 156.058 123.968 156.306C124.216 156.832 124.696 157.559 125.501 158.303C126.306 159.061 127.405 159.82 128.69 160.656C129.959 161.507 131.43 162.482 132.529 164.03C133.644 165.547 134.464 167.545 134.557 169.758C134.666 171.987 133.938 174.31 133.396 176.833C133.133 178.087 132.947 179.449 133.04 180.827C133.133 182.205 133.489 183.644 134.356 184.852C135.238 186.075 136.632 186.849 138.087 187.205C139.542 187.561 141.028 187.592 142.499 187.669C143.969 187.747 145.394 187.84 146.725 188.273C148.056 188.676 149.295 189.326 150.347 190.162C152.468 191.834 153.738 194.341 153.892 196.803C154.109 199.295 152.871 201.494 152.19 203.692C151.849 204.806 151.648 205.936 151.725 207.051C151.803 208.15 152.252 209.218 152.979 209.946C154.419 211.432 156.509 211.773 158.026 211.215C159.574 210.643 160.394 209.358 160.735 208.32C161.091 207.252 160.998 206.354 160.859 205.797C160.688 205.24 160.503 204.992 160.503 204.992Z" fill="#263238"/>
<path d="M145.703 326.252V309.115C147.623 299.517 146.709 288.123 142.251 279.33C139.65 274.206 133.675 266.048 131.507 262.998L114.448 240.892C105.067 247.719 90.3909 242.781 77.7897 238.198C77.7897 238.198 65.3432 245.087 59.5535 251.558C53.4696 258.37 74.2756 343.591 74.2756 343.591C64.8479 362.446 52.6956 379.15 50.8379 396.379L149.295 400.172L145.115 355.031L145.703 326.252Z" fill="#455A64"/>
<path d="M144.342 355.495C144.28 355.495 144.264 354.799 144.264 353.56C144.28 352.151 144.295 350.402 144.326 348.312C144.403 343.714 144.496 337.677 144.605 331.005C144.729 324.24 144.914 318.125 145.131 313.697C145.239 311.484 145.348 309.688 145.441 308.45C145.549 307.211 145.626 306.53 145.673 306.53C145.735 306.53 145.75 307.227 145.75 308.465C145.735 309.874 145.719 311.623 145.688 313.713C145.611 318.311 145.518 324.348 145.41 331.02C145.286 337.785 145.1 343.9 144.883 348.328C144.775 350.541 144.667 352.337 144.574 353.576C144.481 354.829 144.388 355.511 144.342 355.495Z" fill="#263238"/>
<path d="M189.313 371.084C189.313 371.084 198.895 371.61 204.855 375.326C210.8 379.056 220.352 384.831 224.284 391.998C226.095 395.296 220.94 395.992 218.386 394.073C215.847 392.153 211.946 388.562 210.011 388.113C208.075 387.664 208.075 387.664 208.075 387.664C208.075 387.664 211.961 396.317 213.974 399.352C215.986 402.386 217.72 407.587 211.713 407.835C211.713 407.835 207.657 413.098 203.571 409.197C203.571 409.197 200.382 413.965 195.242 407.355C195.242 407.355 192.254 411.148 191 409.693C189.746 408.253 185.66 405.946 184.468 401.209C183.275 396.472 178.26 384.97 178.26 384.97L189.313 371.084Z" fill="#FFBF9D"/>
<path d="M404.199 238.043C405.268 238.059 449.233 233.43 449.233 233.43C449.233 233.43 452.948 215.55 452.762 210.906C452.561 206.262 449.434 175.533 449.434 175.533L465.89 167.746C465.89 167.746 487.888 241.929 483.073 248.106C478.259 254.267 469.249 259.778 468.475 259.809C467.701 259.84 425.888 278.37 396.8 268.742C367.696 259.128 404.199 238.043 404.199 238.043Z" fill="#FFBF9D"/>
<path d="M365.684 278.092C372.154 284.516 383.301 289.842 401.893 285.213C438.69 276.033 466.246 268.246 477.222 262.302C488.182 256.342 483.909 230.133 484.838 228.941C487.625 225.349 484.575 217.64 480.612 216.433C469.357 213.027 449.774 214.374 448.784 215.395C443.009 221.464 448.273 228.833 448.273 228.833L399.772 235.18C399.772 235.18 391.335 234.607 381.954 236.325" fill="#455A64"/>
<path d="M381.953 236.325C381.953 236.325 382.34 236.217 383.114 236.078C383.888 235.923 385.034 235.737 386.551 235.551C389.57 235.18 394.044 234.762 399.787 234.994H399.756C411.336 233.446 428.07 231.201 448.241 228.492L448.009 229.034C446.508 226.743 445.563 223.972 445.78 221.061C445.888 219.622 446.399 218.182 447.173 216.943C447.529 216.293 448.04 215.751 448.505 215.179C448.659 215.055 448.938 214.9 449.139 214.838L449.697 214.699C450.068 214.606 450.424 214.575 450.796 214.498C456.616 213.754 462.654 213.723 468.877 214.11C471.989 214.327 475.147 214.699 478.289 215.411C479.079 215.597 479.853 215.813 480.642 216.015C481.463 216.278 482.237 216.727 482.856 217.315C484.126 218.461 484.977 219.962 485.596 221.526C486.185 223.105 486.463 224.839 486.231 226.572C486.061 227.424 485.813 228.306 485.256 229.034C485.116 229.189 485.132 229.607 485.116 230.009L485.132 231.248C485.256 234.576 485.395 237.966 485.318 241.387C485.178 246.248 484.745 251.156 483.011 255.66C482.144 257.89 480.875 260.057 478.971 261.59C478.042 262.395 476.943 262.89 475.921 263.416C474.884 263.958 473.815 264.392 472.763 264.871C468.537 266.683 464.264 268.169 460.084 269.547C455.889 270.94 451.756 272.194 447.715 273.37C431.538 278.076 416.816 281.776 404.462 284.857C401.382 285.646 398.394 286.297 395.545 286.715C392.681 287.055 389.972 287.287 387.418 287.148C382.325 287.009 378.006 285.832 374.739 284.393C371.458 282.937 369.213 281.265 367.773 280.058C366.333 278.85 365.699 278.092 365.699 278.092C365.745 278.045 366.411 278.773 367.882 279.934C369.337 281.095 371.612 282.705 374.863 284.114C378.114 285.492 382.387 286.606 387.418 286.699C389.941 286.808 392.62 286.56 395.453 286.204C398.285 285.77 401.211 285.12 404.307 284.3C416.645 281.157 431.337 277.395 447.483 272.658C451.523 271.466 455.641 270.197 459.821 268.804C464.001 267.41 468.242 265.924 472.438 264.128C473.475 263.649 474.543 263.231 475.549 262.689C476.587 262.162 477.624 261.698 478.46 260.955C480.209 259.546 481.416 257.503 482.252 255.351C483.924 251.001 484.358 246.155 484.497 241.341C484.59 237.951 484.435 234.591 484.311 231.248L484.296 229.978C484.296 229.761 484.311 229.545 484.327 229.312C484.358 229.189 484.342 229.096 484.389 228.925C484.42 228.833 484.466 228.74 484.513 228.662L484.59 228.538C485.054 227.935 485.271 227.176 485.426 226.418C485.627 224.87 485.38 223.26 484.822 221.773C484.249 220.303 483.444 218.909 482.299 217.872C481.742 217.346 481.091 216.974 480.379 216.742C479.605 216.541 478.847 216.324 478.088 216.138C475.007 215.442 471.88 215.07 468.8 214.838C462.638 214.436 456.586 214.451 450.873 215.179C450.533 215.241 450.161 215.272 449.836 215.364L449.341 215.488C449.201 215.55 449.139 215.55 449.016 215.628C448.582 216.169 448.087 216.665 447.762 217.269C447.034 218.43 446.57 219.73 446.461 221.077C446.244 223.755 447.158 226.433 448.536 228.585L448.845 229.049L448.303 229.111C428.117 231.696 411.367 233.833 399.772 235.319H399.756H399.741C394.059 235.025 389.57 235.381 386.551 235.69C385.034 235.845 383.888 236 383.114 236.124C382.356 236.294 381.953 236.325 381.953 236.325Z" fill="#263238"/>
<path d="M545.243 1.77804L591.004 83.9802L563.96 99.0429L518.199 16.8407C517.27 15.1688 517.874 13.0634 519.546 12.1346L540.537 0.44671C542.194 -0.497608 544.315 0.106136 545.243 1.77804Z" fill="#A7A6A6"/>
<path d="M500.986 45.712L534.331 105.607C535.678 108.037 534.811 111.087 532.38 112.433L514.113 122.604C511.683 123.951 508.633 123.084 507.286 120.654L473.941 60.7591C472.594 58.3287 473.461 55.279 475.891 53.9322L494.159 43.7614C496.589 42.4146 499.639 43.2815 500.986 45.712Z" fill="#A7A6A6"/>
<path d="M503.362 57.2271L524.009 94.3181L566.024 70.9306L545.377 33.8396L503.362 57.2271Z" fill="#A7A6A6"/>
<path d="M629.859 50.5222L631.546 53.5719C636.531 62.5197 633.311 73.8051 624.363 78.7744L250.722 286.757L231 251.321L604.656 43.3392C613.588 38.3699 624.889 41.5744 629.859 50.5222Z" fill="#A7A6A6"/>
<path d="M599.07 46.3931C599.178 46.5943 525.847 87.618 435.316 138.007C344.739 188.412 271.252 229.111 271.144 228.925C271.035 228.724 344.352 187.716 434.913 137.295C525.46 86.9059 598.962 46.1918 599.07 46.3931Z" fill="#A7A6A6"/>
<path d="M99.3088 355.31C126.849 404.786 184.948 424.988 229.083 400.436C273.218 375.883 286.655 315.85 259.115 266.358C231.575 216.866 173.477 196.68 129.341 221.232C85.2215 245.8 71.7688 305.818 99.3088 355.31ZM235.213 279.656C254.518 314.332 245.09 356.393 214.175 373.608C183.245 390.822 142.531 376.657 123.242 341.996C103.938 307.32 113.365 265.259 144.28 248.044C175.195 230.83 215.909 244.995 235.213 279.656Z" fill="#A7A6A6"/>
<path d="M313.049 205.07L333.437 241.697C336.146 246.573 334.397 252.703 329.536 255.413L327.88 256.341C323.003 259.05 316.873 257.301 314.164 252.44L293.776 215.813C291.067 210.937 292.816 204.806 297.677 202.097L299.333 201.168C304.194 198.444 310.34 200.193 313.049 205.07Z" fill="#A7A6A6"/>
<path d="M352.216 183.273L372.604 219.9C375.313 224.777 373.563 230.907 368.703 233.616L367.046 234.545C362.17 237.254 356.039 235.505 353.33 230.644L332.942 194.017C330.233 189.14 331.982 183.01 336.843 180.301L338.5 179.372C343.361 176.647 349.507 178.397 352.216 183.273Z" fill="#A7A6A6"/>
<path d="M312.631 204.435C312.832 204.327 317.554 212.64 323.204 222.996C328.855 233.353 333.267 241.836 333.066 241.944C332.864 242.053 328.143 233.74 322.492 223.383C316.842 213.027 312.43 204.543 312.631 204.435Z" fill="#A7A6A6"/>
<path d="M294.659 217.284C294.86 217.176 299.473 225.102 304.969 234.994C310.48 244.886 314.783 252.982 314.582 253.091C314.381 253.199 309.768 245.273 304.257 235.381C298.776 225.504 294.473 217.392 294.659 217.284Z" fill="#A7A6A6"/>
<path d="M352.03 182.933C352.231 182.824 357.03 191.106 362.773 201.417C368.517 211.727 373.006 220.179 372.82 220.287C372.619 220.396 367.82 212.129 362.077 201.804C356.334 191.493 351.829 183.041 352.03 182.933Z" fill="#A7A6A6"/>
<path d="M333.128 194.357C333.329 194.249 338.036 202.469 343.655 212.717C349.275 222.965 353.671 231.356 353.47 231.464C353.269 231.572 348.562 223.352 342.943 213.104C337.323 202.856 332.927 194.465 333.128 194.357Z" fill="#A7A6A6"/>
<path d="M445.407 138.518C448.968 138.936 452.621 136.32 453.395 132.821C454.169 129.323 451.94 125.421 448.535 124.291C450.748 122.031 451.321 118.3 449.866 115.483C448.411 112.665 445.051 110.963 441.924 111.442C441.8 108.315 439.943 105.312 437.187 103.81C434.432 102.309 430.902 102.371 428.208 103.95C424.756 100.978 419.183 100.854 415.592 103.671C412.558 103.098 409.229 104.724 407.805 107.464C406.365 110.204 406.938 113.857 409.152 116.025" fill="#263238"/>
<path d="M413.998 110.9H415.608C431.785 110.947 445.222 123.409 446.46 139.54C447.622 154.54 448.721 171.136 448.597 179.17C448.334 195.827 431.676 198.366 431.676 198.366L433.023 218.382L392.588 217.005L389.229 144.4C387.789 127.124 396.659 111.86 413.998 110.9Z" fill="#FFBF9D"/>
<path d="M431.816 198.366C431.816 198.366 421.181 198.97 410.004 191.911C410.004 191.911 415.36 204.527 431.986 203.072L431.816 198.366Z" fill="#FF9A6C"/>
<path d="M437.329 155.19C437.376 156.444 436.338 157.512 435.023 157.59C433.707 157.651 432.623 156.692 432.577 155.438C432.53 154.184 433.567 153.116 434.868 153.038C436.184 152.976 437.283 153.936 437.329 155.19Z" fill="#263238"/>
<path d="M442.849 147.682C442.555 147.992 440.759 146.645 438.189 146.645C435.635 146.614 433.746 147.915 433.468 147.605C433.328 147.466 433.638 146.908 434.459 146.32C435.264 145.732 436.641 145.159 438.236 145.175C439.83 145.19 441.177 145.778 441.936 146.382C442.741 146.986 443.004 147.543 442.849 147.682Z" fill="#263238"/>
<path d="M414.227 154.091C414.273 155.345 413.236 156.413 411.92 156.491C410.604 156.553 409.521 155.593 409.474 154.339C409.428 153.085 410.465 152.017 411.781 151.939C413.081 151.877 414.18 152.837 414.227 154.091Z" fill="#263238"/>
<path d="M417.702 148.085C417.407 148.395 415.612 147.048 413.042 147.048C410.488 147.017 408.599 148.318 408.32 148.008C408.181 147.869 408.491 147.311 409.311 146.723C410.116 146.135 411.494 145.562 413.088 145.577C414.683 145.593 416.03 146.181 416.788 146.785C417.578 147.389 417.841 147.946 417.702 148.085Z" fill="#263238"/>
<path d="M426.924 167.111C426.908 166.971 428.503 166.693 431.088 166.368C431.738 166.306 432.357 166.182 432.466 165.733C432.621 165.268 432.357 164.556 432.032 163.798C431.429 162.219 430.778 160.547 430.113 158.813C427.45 151.723 425.53 145.887 425.809 145.778C426.103 145.67 428.487 151.336 431.15 158.442C431.785 160.191 432.404 161.863 432.992 163.457C433.24 164.2 433.658 165.052 433.317 166.027C433.147 166.522 432.652 166.863 432.234 166.987C431.816 167.111 431.444 167.126 431.119 167.142C428.549 167.235 426.939 167.25 426.924 167.111Z" fill="#263238"/>
<path d="M419.94 138.239C419.599 138.889 417.401 138.177 414.708 138.084C412.014 137.93 409.738 138.425 409.491 137.759C409.382 137.434 409.862 136.861 410.837 136.335C411.797 135.824 413.268 135.422 414.893 135.499C416.519 135.576 417.912 136.103 418.795 136.707C419.692 137.31 420.095 137.93 419.94 138.239Z" fill="#263238"/>
<path d="M443.022 137.124C442.48 137.697 440.375 137.093 437.836 137.062C435.297 136.954 433.145 137.434 432.65 136.83C432.433 136.536 432.774 135.948 433.718 135.406C434.647 134.864 436.195 134.415 437.944 134.462C439.693 134.508 441.195 135.05 442.077 135.638C442.96 136.242 443.254 136.846 443.022 137.124Z" fill="#263238"/>
<path d="M444.881 131.907C444.881 131.907 440.515 121.458 435.5 119.012C429.416 116.04 426.769 122.727 420.979 121.086C415.174 119.446 409.368 116.597 403.424 121.071C396.922 125.963 399.941 129.415 399.523 136.815C397.804 166.785 392.309 175.238 390.792 161.119C390.621 159.571 386.333 158.333 385.714 151.8C384.909 143.317 384.615 133.038 386.534 127.031C388.144 121.969 391.039 118.47 396.241 114.631C404.446 108.563 415.669 108.47 423.301 109.259C430.933 110.018 445.624 118.842 444.881 131.907Z" fill="#263238"/>
<path d="M391.86 160.655C391.767 158.085 389.554 156.042 386.984 156.29C383.872 156.568 380.42 158.333 380.606 164.758C380.931 176.151 392.309 173.473 392.309 173.148C392.325 172.9 392.046 165.408 391.86 160.655Z" fill="#FFBF9D"/>
<path d="M389.709 168.906C389.662 168.875 389.507 169.045 389.182 169.216C388.857 169.371 388.3 169.494 387.696 169.293C386.473 168.891 385.405 167.002 385.297 164.959C385.235 163.921 385.42 162.931 385.777 162.095C386.102 161.259 386.628 160.655 387.232 160.531C387.835 160.376 388.269 160.717 388.424 161.042C388.579 161.352 388.517 161.584 388.579 161.599C388.609 161.63 388.811 161.398 388.718 160.934C388.671 160.701 388.517 160.438 388.253 160.237C387.975 160.02 387.572 159.927 387.154 159.974C386.272 160.067 385.513 160.887 385.126 161.801C384.693 162.714 384.461 163.829 384.523 164.99C384.662 167.281 385.9 169.402 387.557 169.82C388.362 170.005 389.027 169.742 389.368 169.463C389.693 169.185 389.755 168.922 389.709 168.906Z" fill="#FF9A6C"/>
<path d="M392.154 138.58C393.625 139.601 395.189 140.639 396.969 140.824C398.749 141.01 400.793 139.988 401.102 138.224C401.241 137.434 401.056 136.505 401.567 135.902C402.186 135.174 403.331 135.406 404.291 135.514C407.604 135.871 411.474 132.233 412.341 129.013C413.177 130.282 415.035 130.669 416.304 129.849C417.589 129.028 418.053 128.564 419.06 127.418C420.066 126.273 421.475 125.251 422.976 125.468C423.812 125.591 424.602 126.087 425.453 126.025C426.955 125.901 427.682 124.152 427.915 122.666C428.147 121.179 428.333 119.446 429.602 118.641C430.779 117.898 432.296 118.331 433.673 118.548C435.051 118.749 436.831 118.439 437.187 117.093C437.373 116.38 437.079 115.637 436.677 115.018C434.912 112.216 431.042 110.962 427.977 112.201C426.877 108.439 423.363 105.498 419.462 105.064C415.561 104.646 411.505 106.751 409.616 110.204C407.217 108.005 403.718 107.092 400.545 107.804C397.371 108.516 394.616 110.854 393.377 113.857C390.606 113.114 387.448 114.182 385.683 116.442C383.919 118.703 383.655 122.031 385.049 124.539C383.005 125.7 381.24 127.728 381.194 130.096C381.148 132.449 383.439 134.802 385.714 134.199C384.786 136.025 385.529 138.518 387.309 139.555C389.089 140.592 391.613 139.988 392.758 138.286" fill="#263238"/>
<path d="M428.813 115.545C428.829 115.545 428.829 115.622 428.813 115.746C428.798 115.885 428.782 116.087 428.736 116.35C428.627 116.876 428.411 117.65 427.9 118.548C427.389 119.43 426.584 120.437 425.361 121.226C424.169 122.031 422.528 122.65 420.686 122.542L420.887 122.294C421.243 123.27 421.135 124.431 420.655 125.437C420.19 126.459 419.463 127.356 418.704 128.239C418.317 128.657 417.961 129.152 417.419 129.539C416.893 129.911 416.258 130.128 415.608 130.205C414.323 130.36 412.868 129.957 411.939 128.874L412.373 128.75C412.078 131.01 410.778 133.27 408.735 134.648C407.651 135.422 406.304 135.902 404.988 135.855C403.673 135.84 402.45 135.453 401.304 135.035L401.614 134.896C400.994 136.304 400.05 137.512 398.904 138.41C397.774 139.292 396.288 139.818 394.926 139.478C392.232 138.905 390.468 136.66 390.111 134.555L390.375 134.679C389.043 135.406 387.604 135.468 386.458 135.236C385.297 135.019 384.384 134.509 383.733 134.013C383.083 133.502 382.696 132.976 382.464 132.62C382.247 132.248 382.17 132.032 382.17 132.032C382.232 131.985 382.541 132.899 383.842 133.858C384.492 134.323 385.374 134.787 386.504 134.973C387.604 135.159 388.966 135.066 390.204 134.385L390.421 134.261L390.468 134.509C390.824 136.475 392.526 138.564 395.019 139.075C396.242 139.369 397.558 138.905 398.626 138.069C399.694 137.233 400.592 136.072 401.165 134.741L401.258 134.524L401.474 134.601C402.604 135.004 403.781 135.375 405.004 135.375C406.227 135.406 407.419 134.988 408.456 134.245C410.391 132.945 411.614 130.824 411.893 128.688L411.97 128.146L412.326 128.564C413.116 129.493 414.401 129.88 415.562 129.741C416.134 129.679 416.707 129.477 417.156 129.168C417.605 128.858 417.961 128.378 418.364 127.945C419.138 127.078 419.834 126.211 420.283 125.267C420.748 124.338 420.841 123.301 420.546 122.418L420.453 122.14L420.732 122.155C422.466 122.279 424.045 121.722 425.206 120.963C426.398 120.22 427.188 119.26 427.729 118.424C428.767 116.721 428.736 115.514 428.813 115.545Z" fill="#455A64"/>
<path d="M426.877 175.61C426.8 175.192 424.014 175.873 421.459 173.984C418.889 172.096 418.471 169.062 418.069 169.139C417.883 169.139 417.697 169.928 417.976 171.198C418.239 172.436 419.075 174.124 420.639 175.285C422.202 176.43 423.983 176.662 425.144 176.461C426.336 176.275 426.939 175.796 426.877 175.61Z" fill="#263238"/>
<path d="M512.739 608.728L523.73 646.176C523.73 646.176 565.497 647.569 568.206 654.303L496.345 678.236L476.809 620.586L512.739 608.728Z" fill="#455A64"/>
<path d="M500.495 650.479C499.226 651.315 498.792 653.203 499.582 654.504C500.371 655.804 502.291 656.268 503.56 655.448C504.845 654.627 505.434 652.383 504.505 651.175C503.576 649.968 501.3 649.55 500.248 650.649" fill="#E0E0E0"/>
<path d="M564.165 651.608C564.165 651.608 567.834 651.933 568.221 654.302L496.36 678.235L494.626 672.352L564.165 651.608Z" fill="#263238"/>
<path d="M524.777 645.432C524.886 645.789 523.183 646.532 521.836 648.234C520.443 649.906 520.056 651.718 519.684 651.687C519.344 651.733 519.158 649.457 520.83 647.414C522.486 645.371 524.746 645.092 524.777 645.432Z" fill="white"/>
<path d="M533.347 646.035C533.533 646.345 532.217 647.444 531.52 649.333C530.762 651.19 531.009 652.893 530.653 653.002C530.344 653.172 529.415 651.19 530.328 648.868C531.211 646.546 533.223 645.71 533.347 646.035Z" fill="white"/>
<path d="M540.641 653.637C540.347 653.822 539.279 652.228 539.542 649.999C539.79 647.77 541.183 646.469 541.431 646.701C541.725 646.918 540.997 648.311 540.812 650.138C540.579 651.965 540.982 653.482 540.641 653.637Z" fill="white"/>
<path d="M521.323 637.182C521.276 637.553 519.512 637.6 517.577 638.405C515.626 639.163 514.295 640.34 514.016 640.092C513.722 639.906 514.806 638.11 517.097 637.197C519.388 636.268 521.4 636.841 521.323 637.182Z" fill="white"/>
<path d="M345.031 609.068L329.38 644.828C329.38 644.828 360.481 672.74 358.221 679.628L287.784 651.779L309.875 595.058L345.031 609.068Z" fill="#455A64"/>
<path d="M308.807 633.155C307.29 632.985 305.742 634.146 305.525 635.648C305.293 637.149 306.469 638.729 307.971 638.93C309.473 639.116 311.377 637.784 311.439 636.267C311.5 634.75 310.03 632.97 308.513 633.14" fill="#E0E0E0"/>
<path d="M356.858 674.953C356.858 674.953 359.459 677.554 358.221 679.628L287.784 651.779L290.23 646.144L356.858 674.953Z" fill="#263238"/>
<path d="M330.666 644.921C330.511 645.261 328.73 644.735 326.61 645.168C324.473 645.556 323.003 646.701 322.739 646.438C322.445 646.252 323.777 644.394 326.362 643.915C328.947 643.404 330.867 644.627 330.666 644.921Z" fill="white"/>
<path d="M336.842 650.896C336.796 651.268 335.062 651.252 333.328 652.243C331.563 653.188 330.634 654.643 330.309 654.488C329.969 654.411 330.526 652.305 332.709 651.113C334.891 649.906 336.966 650.556 336.842 650.896Z" fill="white"/>
<path d="M337.539 661.392C337.198 661.346 337.399 659.442 339.025 657.894C340.635 656.346 342.554 656.253 342.585 656.593C342.663 656.949 341.223 657.553 339.907 658.838C338.576 660.077 337.895 661.501 337.539 661.392Z" fill="white"/>
<path d="M333.328 636.375C333.065 636.639 331.672 635.539 329.675 634.905C327.693 634.224 325.928 634.286 325.851 633.914C325.743 633.589 327.724 632.892 330.077 633.682C332.43 634.44 333.607 636.174 333.328 636.375Z" fill="white"/>
<path d="M371.395 412.619L346.719 512.716C346.719 512.716 302.212 587.643 294.673 625.137L335.387 641.144C335.387 641.144 365.002 568.926 373.686 555.675C378.47 548.384 383.517 542.749 387.093 539.157C390.328 535.906 392.681 531.881 393.842 527.454L412.527 456.042L371.395 412.619Z" fill="#263238"/>
<path d="M360.884 396.612C360.884 396.612 364.32 423.409 390.111 435.298L444.479 523.847C444.479 523.847 448.752 552.641 456.957 576.899C465.099 600.987 481.509 647.893 481.509 647.893L526.232 631.174L497.733 533.739L493.073 499.945L448.69 387.014L410.577 364.164L360.884 396.612Z" fill="#263238"/>
<path d="M360.884 396.612C360.884 396.612 361.147 396.41 361.704 396.054C362.277 395.683 363.098 395.126 364.166 394.413C366.364 392.958 369.615 390.822 373.826 388.035C382.324 382.462 394.724 374.304 410.453 363.979L410.577 363.901L410.7 363.979C421.816 370.62 434.618 378.283 448.845 386.781L448.922 386.828L448.953 386.921C461.369 418.455 476.524 456.94 493.413 499.821L493.429 499.867V499.914C494.9 510.596 496.494 522.02 498.104 533.708L498.089 533.646C505.798 559.979 514.034 588.123 522.517 617.149C523.879 621.824 525.242 626.468 526.588 631.097L526.697 631.453L526.341 631.577C511.108 637.274 496.169 642.847 481.617 648.28L481.23 648.42L481.091 648.033C473.335 625.57 465.873 603.944 458.783 583.432C457.003 578.308 455.254 573.23 453.799 568.153C452.328 563.075 451.028 558.028 449.851 553.059C447.498 543.089 445.609 533.352 444.123 523.909L444.17 524.033C421.924 487.715 403.409 457.482 389.91 435.422L390.003 435.499C382.619 432.031 376.968 427.279 372.928 422.511C368.856 417.743 366.302 413.021 364.584 409.12C362.865 405.188 361.983 402.03 361.472 399.894C361.209 398.825 361.07 398.005 360.977 397.463C360.899 396.906 360.884 396.612 360.884 396.612C360.884 396.612 360.946 396.89 361.054 397.432C361.162 397.974 361.317 398.794 361.611 399.847C362.153 401.968 363.067 405.111 364.816 409.012C366.565 412.897 369.135 417.572 373.206 422.294C377.262 427 382.882 431.706 390.22 435.112L390.281 435.143L390.312 435.189C403.873 457.218 422.466 487.406 444.789 523.661L444.82 523.723L444.835 523.801C446.321 533.213 448.241 542.935 450.594 552.889C451.786 557.858 453.086 562.889 454.557 567.951C456.012 573.014 457.762 578.06 459.542 583.2C466.647 603.712 474.125 625.338 481.896 647.785L481.385 647.537C495.937 642.104 510.876 636.515 526.109 630.818L525.861 631.314C524.514 626.7 523.152 622.041 521.789 617.365C513.306 588.339 505.07 560.196 497.377 533.863L497.361 533.832V533.801C495.751 522.129 494.188 510.688 492.717 500.007L492.732 500.1C475.905 457.187 460.811 418.687 448.442 387.138L448.566 387.277C434.37 378.732 421.583 371.038 410.484 364.366H410.716C394.972 374.583 382.541 382.648 374.042 388.175C369.785 390.93 366.519 393.036 364.29 394.475C363.19 395.187 362.354 395.714 361.766 396.085C361.193 396.441 360.884 396.612 360.884 396.612Z" fill="#455A64"/>
<path d="M384.77 205.317C384.77 205.317 371.735 215.349 365.404 226.557C357.818 239.963 356.998 259.871 356.766 290.77C356.549 319.363 360.822 327.289 359.165 338.064C355.945 359.102 353.53 429.725 353.53 429.725C353.53 429.725 395.282 413.671 403.44 406.581C411.598 399.491 411.598 399.491 411.598 399.491L463.907 416.783L453.349 352.507L446.104 272.395L436.832 229.901L435.206 213.228L390.39 195.1L384.77 205.317Z" fill="#455A64"/>
<path d="M433.643 212.299C434.184 212.392 432.358 216.061 429.122 221.448L428.998 221.665L428.751 221.572C424.199 219.807 418.208 217.594 411.645 215.21C404.245 212.516 397.557 210.008 392.774 208.057C390.374 207.082 388.455 206.262 387.139 205.658C385.823 205.054 385.111 204.698 385.126 204.652C385.142 204.605 385.9 204.853 387.263 205.364C388.749 205.921 390.684 206.649 392.99 207.516C397.975 209.342 404.601 211.757 411.939 214.451C418.502 216.85 424.493 219.126 428.998 220.999L428.627 221.123C431.955 215.813 433.952 212.33 433.643 212.299Z" fill="#263238"/>
<path d="M487.684 178.861C487.684 178.861 484.372 173.706 481.245 168.953C478.102 164.2 473.38 161.878 472.637 159.386C471.879 156.894 467.714 145.887 467.049 143.147C466.12 139.308 466.244 135.066 466.244 135.066C466.244 135.066 469.665 133.595 471.306 138.503C472.297 141.444 475.439 151.429 476.12 151.924C476.802 152.42 477.746 151.692 477.746 151.692C477.746 151.692 474.247 142.094 474.092 140.267C473.938 138.456 474.572 126.459 474.572 126.459C474.572 126.459 477.065 125.7 478.69 128.765C480.316 131.815 480.378 139.617 480.378 139.617L482.839 148.255L481.988 139.71L483.226 124.013C483.226 124.013 487.127 124.369 488.18 128.61C489.217 132.852 487.839 138.766 488.551 140.035C489.248 141.305 490.007 148.875 490.007 148.875C490.007 148.875 490.858 130.437 492.824 129.911C494.79 129.384 496.416 131.351 496.137 135.066C495.858 138.781 495.781 146.63 496.803 150.113C497.824 153.581 508.305 167.08 507.438 173.071C506.571 179.077 506.478 183.876 506.478 183.876H488.458L487.684 178.861Z" fill="#FFBF9D"/>
<path d="M424.709 225.272C425.716 225.659 468.612 236.263 468.612 236.263C468.612 236.263 478.195 220.72 479.588 216.293C480.981 211.865 488.505 181.895 488.505 181.895L506.633 180.177C506.633 180.177 502.051 257.425 495.425 261.574C488.799 265.738 478.458 267.843 477.715 267.611C476.972 267.379 431.366 270.552 407.278 251.589C383.19 232.625 424.709 225.272 424.709 225.272Z" fill="#FFBF9D"/>
<g opacity="0.3">
<path opacity="0.3" d="M393.966 266.156C393.966 266.156 400.127 273.958 411.505 276.466C422.883 278.974 447.111 283.401 447.111 283.401L445.919 271.528L393.207 265.893" fill="black"/>
</g>
<path d="M374.862 249.809C378.763 258.044 387.433 266.868 406.489 268.834C444.216 272.735 472.777 274.81 485.115 272.952C497.453 271.094 502.361 244.979 503.63 244.174C507.469 241.743 507.222 233.461 503.909 230.984C494.497 223.956 475.61 218.538 474.341 219.172C466.848 222.903 469.294 231.634 469.294 231.634L421.521 221.092C421.521 221.092 413.781 217.686 404.384 216.092" fill="#455A64"/>
<path d="M404.384 216.076C404.384 216.076 404.786 216.107 405.56 216.231C406.334 216.355 407.48 216.572 408.966 216.897C411.938 217.578 416.288 218.708 421.598 220.875L421.567 220.86C432.992 223.352 449.479 226.928 469.371 231.263L468.969 231.696C468.35 229.033 468.381 226.108 469.588 223.445C470.176 222.114 471.136 220.953 472.297 220.039C472.855 219.544 473.52 219.219 474.155 218.832C474.341 218.754 474.666 218.723 474.867 218.723L475.44 218.785C475.827 218.816 476.167 218.909 476.539 218.971C482.251 220.256 487.964 222.284 493.676 224.776C496.524 226.046 499.357 227.47 502.082 229.204C502.763 229.637 503.413 230.117 504.079 230.582C504.76 231.108 505.348 231.789 505.72 232.548C506.509 234.065 506.819 235.752 506.85 237.439C506.865 239.127 506.54 240.845 505.735 242.393C505.286 243.136 504.745 243.879 503.986 244.375C503.8 244.468 503.676 244.87 503.522 245.242L503.119 246.403C502.097 249.576 501.091 252.812 499.837 255.985C498.041 260.506 495.983 264.964 492.809 268.617C491.23 270.413 489.31 272.023 487.004 272.813C485.858 273.246 484.651 273.355 483.505 273.478C482.344 273.649 481.199 273.664 480.053 273.772C475.455 274.036 470.95 273.974 466.538 273.85C462.126 273.726 457.807 273.509 453.612 273.246C436.8 272.162 421.707 270.63 409.028 269.314C405.87 269.02 402.836 268.602 400.018 268.014C397.216 267.348 394.584 266.651 392.231 265.661C387.494 263.787 383.841 261.218 381.256 258.756C378.67 256.264 377.122 253.926 376.178 252.301C375.234 250.675 374.893 249.747 374.893 249.747C374.94 249.716 375.327 250.629 376.317 252.223C377.293 253.802 378.887 256.094 381.472 258.524C384.058 260.924 387.696 263.431 392.402 265.243C394.724 266.202 397.34 266.884 400.127 267.518C402.929 268.076 405.916 268.463 409.09 268.741C421.768 269.98 436.862 271.466 453.659 272.503C457.854 272.751 462.157 272.968 466.569 273.091C470.966 273.2 475.471 273.262 480.022 272.983C481.152 272.875 482.298 272.844 483.443 272.689C484.589 272.55 485.734 272.457 486.772 272.054C488.892 271.327 490.719 269.825 492.236 268.076C495.286 264.546 497.345 260.15 499.125 255.676C500.364 252.518 501.354 249.313 502.392 246.124L502.81 244.932C502.887 244.731 502.964 244.53 503.057 244.328C503.119 244.22 503.15 244.127 503.258 243.988C503.32 243.91 503.398 243.833 503.46 243.771L503.568 243.678C504.203 243.26 504.667 242.625 505.07 241.975C505.797 240.597 506.107 238.988 506.091 237.408C506.06 235.829 505.766 234.235 505.054 232.888C504.698 232.207 504.218 231.634 503.63 231.185C502.98 230.736 502.33 230.272 501.679 229.838C499.017 228.136 496.215 226.711 493.382 225.457C487.731 222.981 482.019 220.937 476.415 219.668C476.075 219.606 475.718 219.513 475.378 219.482L474.867 219.42C474.712 219.435 474.666 219.42 474.511 219.451C473.923 219.807 473.288 220.117 472.777 220.566C471.709 221.402 470.811 222.47 470.269 223.693C469.155 226.139 469.093 228.972 469.666 231.464L469.789 232.006L469.263 231.882C449.401 227.439 432.93 223.739 421.521 221.185H421.505L421.49 221.169C416.242 218.956 411.907 217.764 408.966 217.02C407.495 216.649 406.35 216.417 405.576 216.246C404.771 216.185 404.384 216.076 404.384 216.076Z" fill="#263238"/>
<path d="M485.115 246.573C485.068 246.666 483.861 246.233 482.034 245.226C480.207 244.22 477.808 242.579 475.517 240.365C473.226 238.136 471.507 235.799 470.439 234.018C469.371 232.238 468.891 231.031 468.984 230.984C469.216 230.845 471.569 235.443 476.09 239.793C480.532 244.174 485.239 246.341 485.115 246.573Z" fill="#263238"/>
<path d="M148.319 374.056C148.319 374.056 157.902 374.583 163.862 378.298C169.806 382.029 179.358 387.803 183.29 394.971C185.101 398.268 179.946 398.965 177.392 397.045C174.853 395.126 170.952 391.534 169.017 391.085C167.082 390.636 167.082 390.636 167.082 390.636C167.082 390.636 170.967 399.29 172.98 402.324C174.992 405.358 176.726 410.56 170.72 410.807C170.72 410.807 166.664 416.071 162.577 412.17C162.577 412.17 159.388 416.938 154.248 410.328C154.248 410.328 151.261 414.12 150.007 412.665C148.753 411.225 144.666 408.919 143.474 404.182C142.282 399.445 137.266 387.943 137.266 387.943L148.319 374.056Z" fill="#FFBF9D"/>
<path d="M66.6437 247.812C66.6437 247.812 59.1511 249.84 54.5843 256.868C50.8999 262.534 49.7698 272.426 50.8225 279.655C53.0517 295.043 60.1263 321.051 64.0894 337.739C65.4517 343.498 68.2692 353.808 76.5203 359.272L135.161 394.444L150.843 371.161L97.3727 327.583L86.7995 267.859L66.6437 247.812Z" fill="#455A64"/>
<path d="M56.5035 306.546C56.519 306.546 56.5809 306.747 56.6893 307.149C56.8131 307.598 56.9679 308.186 57.1692 308.96C57.5871 310.601 58.1909 312.954 58.9649 315.973C60.4975 322.119 62.7112 330.943 65.4513 341.903C66.8445 347.321 70.0645 352.895 75.1112 357.198C77.5881 359.412 80.6378 361.022 83.6875 362.895C86.7372 364.737 89.8952 366.641 93.1152 368.576C106.042 376.379 120.299 385.001 135.362 394.088L134.82 394.212C136.616 391.55 138.535 388.701 140.455 385.837C143.861 380.775 147.22 375.79 150.502 370.945L150.579 371.471C130.439 354.892 112.172 339.86 97.5736 327.831L97.4962 327.769L97.4652 327.677C93.9666 312.939 91.4278 300.895 89.8333 292.505C89.0283 288.309 88.471 285.043 88.1149 282.814C87.9601 281.73 87.8363 280.879 87.7434 280.275C87.666 279.702 87.6505 279.408 87.6505 279.408C87.6505 279.408 87.7279 279.702 87.8363 280.259C87.9446 280.863 88.0995 281.699 88.3007 282.783C88.7187 284.996 89.3224 288.263 90.1739 292.443C91.8767 300.802 94.5084 312.831 98.069 327.537L97.9606 327.367C112.59 339.349 130.903 354.334 151.075 370.868L151.353 371.1L151.152 371.409C147.886 376.255 144.526 381.24 141.121 386.317C139.186 389.181 137.266 392.03 135.47 394.692L135.253 395.017L134.928 394.816C119.881 385.698 105.624 377.06 92.7127 369.227C89.4927 367.276 86.3501 365.356 83.3005 363.514C80.2817 361.641 77.1856 359.985 74.6623 357.709C69.5382 353.297 66.2872 347.585 64.894 342.058C62.2623 331.082 60.126 322.212 58.6553 316.066C57.9432 313.032 57.3859 310.663 56.9989 309.022C56.8286 308.248 56.6893 307.645 56.5964 307.196C56.5344 306.762 56.488 306.561 56.5035 306.546Z" fill="#263238"/>
<path d="M57.4633 256.109C57.4478 256.063 57.8658 255.862 58.6553 255.614C59.4448 255.351 60.6059 255.057 62.092 254.84C65.0024 254.437 69.337 254.376 73.5322 256.388C77.6501 258.493 80.4675 261.682 82.0775 264.175C82.8825 265.429 83.3934 266.543 83.6411 267.333C83.9042 268.122 83.9507 268.587 83.9197 268.602C83.7804 268.649 83.316 266.853 81.6131 264.5C79.9412 262.162 77.1082 259.113 73.1762 257.116C69.1976 255.212 65.0179 255.165 62.1539 255.413C59.2436 255.676 57.5097 256.233 57.4633 256.109Z" fill="#263238"/>
</svg>
