<svg width="414" height="386" viewBox="0 0 414 386" fill="none" xmlns="http://www.w3.org/2000/svg">
<path d="M2.45945 221.528C-1.92055 201.742 -0.720554 180.822 8.24945 159.508C19.7994 132.051 44.6194 112.545 72.4194 101.162C112.829 84.6162 152.489 84.3085 185.339 51.8905C195.469 41.8921 203.969 30.4419 214.319 20.655C244.839 -8.22513 289.509 -4.71606 322.869 18.1842C392.459 65.9556 417.479 160.566 413.609 238.785C411.869 273.885 394.439 306.553 366.849 329.588C304.449 381.676 198.489 372.917 126.819 345.729C73.3794 325.454 15.0094 278.153 2.45945 221.528Z" fill="#A3AAFC"/>
<path opacity="0.7" d="M2.45945 221.528C-1.92055 201.742 -0.720554 180.822 8.24945 159.508C19.7994 132.051 44.6194 112.545 72.4194 101.162C112.829 84.6162 152.489 84.3085 185.339 51.8905C195.469 41.8921 203.969 30.4419 214.319 20.655C244.839 -8.22514 289.509 -4.71606 322.869 18.1842C392.459 65.9556 417.479 160.566 413.609 238.785C411.869 273.885 394.439 306.553 366.849 329.588C304.449 381.676 198.489 372.917 126.819 345.729C73.3794 325.454 15.0094 278.153 2.45945 221.528Z" fill="white"/>
<path d="M211.229 71.0991V76.8675" stroke="#263238" stroke-linecap="round" stroke-linejoin="round"/>
<path d="M211.229 83.0972V92.4226" stroke="#263238" stroke-linecap="round" stroke-linejoin="round" stroke-dasharray="6.47 6.47"/>
<path d="M211.229 95.5376V101.306" stroke="#263238" stroke-linecap="round" stroke-linejoin="round"/>
<path d="M306.939 168.709H300.939" stroke="#263238" stroke-linecap="round" stroke-linejoin="round"/>
<path d="M294.47 168.709H284.76" stroke="#263238" stroke-linecap="round" stroke-linejoin="round" stroke-dasharray="6.47 6.47"/>
<path d="M281.529 168.709H275.529" stroke="#263238" stroke-linecap="round" stroke-linejoin="round"/>
<path d="M146.939 168.709H140.939" stroke="#263238" stroke-linecap="round" stroke-linejoin="round"/>
<path d="M134.47 168.709H124.76" stroke="#263238" stroke-linecap="round" stroke-linejoin="round" stroke-dasharray="6.47 6.47"/>
<path d="M121.529 168.709H115.529" stroke="#263238" stroke-linecap="round" stroke-linejoin="round"/>
<path d="M376.569 188.264C376.569 187.245 377.129 186.668 378.149 186.668C379.169 186.668 379.729 187.254 379.729 188.264V191.571C379.729 192.59 379.169 193.167 378.149 193.167C377.129 193.167 376.569 192.58 376.569 191.571V188.264ZM377.609 191.638C377.609 192.09 377.819 192.263 378.149 192.263C378.479 192.263 378.689 192.09 378.689 191.638V188.206C378.689 187.754 378.479 187.581 378.149 187.581C377.819 187.581 377.609 187.754 377.609 188.206V191.638Z" fill="#263238"/>
<path d="M377.299 196.637C378.099 196.637 378.279 196.262 378.439 195.839H379.139V202.204H378.099V197.349H377.299V196.637Z" fill="#263238"/>
<path d="M376.569 206.453C376.569 205.434 377.129 204.857 378.149 204.857C379.169 204.857 379.729 205.443 379.729 206.453V209.76C379.729 210.779 379.169 211.356 378.149 211.356C377.129 211.356 376.569 210.769 376.569 209.76V206.453ZM377.609 209.827C377.609 210.279 377.819 210.452 378.149 210.452C378.479 210.452 378.689 210.279 378.689 209.827V206.395C378.689 205.943 378.479 205.77 378.149 205.77C377.819 205.77 377.609 205.943 377.609 206.395V209.827Z" fill="#263238"/>
<path d="M377.299 214.817C378.099 214.817 378.279 214.442 378.439 214.019H379.139V220.383H378.099V215.528H377.299V214.817Z" fill="#263238"/>
<path d="M376.569 224.643C376.569 223.623 377.129 223.047 378.149 223.047C379.169 223.047 379.729 223.623 379.729 224.643V227.95C379.729 228.969 379.169 229.546 378.149 229.546C377.129 229.546 376.569 228.959 376.569 227.95V224.643ZM377.609 228.017C377.609 228.469 377.819 228.642 378.149 228.642C378.479 228.642 378.689 228.469 378.689 228.017V224.585C378.689 224.133 378.479 223.96 378.149 223.96C377.819 223.96 377.609 224.133 377.609 224.585V228.017Z" fill="#263238"/>
<path d="M377.299 233.007C378.099 233.007 378.279 232.632 378.439 232.209H379.139V238.573H378.099V233.718H377.299V233.007Z" fill="#263238"/>
<path d="M376.569 242.832C376.569 241.813 377.129 241.236 378.149 241.236C379.169 241.236 379.729 241.823 379.729 242.832V246.139C379.729 247.158 379.169 247.735 378.149 247.735C377.129 247.735 376.569 247.149 376.569 246.139V242.832ZM377.609 246.206C377.609 246.658 377.819 246.831 378.149 246.831C378.479 246.831 378.689 246.658 378.689 246.206V242.774C378.689 242.322 378.479 242.149 378.149 242.149C377.819 242.149 377.609 242.322 377.609 242.774V246.206Z" fill="#263238"/>
<path d="M376.569 251.927C376.569 250.908 377.129 250.331 378.149 250.331C379.169 250.331 379.729 250.917 379.729 251.927V255.234C379.729 256.253 379.169 256.83 378.149 256.83C377.129 256.83 376.569 256.253 376.569 255.234V251.927ZM377.609 255.301C377.609 255.753 377.819 255.926 378.149 255.926C378.479 255.926 378.689 255.753 378.689 255.301V251.869C378.689 251.417 378.479 251.244 378.149 251.244C377.819 251.244 377.609 251.417 377.609 251.869V255.301Z" fill="#263238"/>
<path d="M376.569 261.021C376.569 260.002 377.129 259.426 378.149 259.426C379.169 259.426 379.729 260.002 379.729 261.021V264.329C379.729 265.348 379.169 265.925 378.149 265.925C377.129 265.925 376.569 265.338 376.569 264.329V261.021ZM377.609 264.386C377.609 264.838 377.819 265.011 378.149 265.011C378.479 265.011 378.689 264.838 378.689 264.386V260.954C378.689 260.502 378.479 260.329 378.149 260.329C377.819 260.329 377.609 260.502 377.609 260.954V264.386Z" fill="#263238"/>
<path d="M377.299 278.48C378.099 278.48 378.279 278.105 378.439 277.682H379.139V284.047H378.099V279.192H377.299V278.48Z" fill="#263238"/>
<path d="M377.299 287.575C378.099 287.575 378.279 287.2 378.439 286.777H379.139V293.141H378.099V288.286H377.299V287.575Z" fill="#263238"/>
<path d="M377.299 296.67C378.099 296.67 378.279 296.295 378.439 295.872H379.139V302.236H378.099V297.381H377.299V296.67Z" fill="#263238"/>
<path d="M376.569 306.486C376.569 305.466 377.129 304.89 378.149 304.89C379.169 304.89 379.729 305.476 379.729 306.486V309.793C379.729 310.812 379.169 311.389 378.149 311.389C377.129 311.389 376.569 310.802 376.569 309.793V306.486ZM377.609 309.86C377.609 310.312 377.819 310.485 378.149 310.485C378.479 310.485 378.689 310.312 378.689 309.86V306.428C378.689 305.976 378.479 305.803 378.149 305.803C377.819 305.803 377.609 305.976 377.609 306.428V309.86Z" fill="#263238"/>
<path d="M376.569 315.58C376.569 314.561 377.129 313.984 378.149 313.984C379.169 313.984 379.729 314.571 379.729 315.58V318.887C379.729 319.907 379.169 320.483 378.149 320.483C377.129 320.483 376.569 319.897 376.569 318.887V315.58ZM377.609 318.955C377.609 319.407 377.819 319.58 378.149 319.58C378.479 319.58 378.689 319.407 378.689 318.955V315.523C378.689 315.071 378.479 314.898 378.149 314.898C377.819 314.898 377.609 315.071 377.609 315.523V318.955Z" fill="#263238"/>
<path d="M377.299 323.954C378.099 323.954 378.279 323.579 378.439 323.156H379.139V329.52H378.099V324.665H377.299V323.954Z" fill="#263238"/>
<path d="M382.93 178.448C383.73 178.448 383.91 178.073 384.07 177.65H384.77V184.014H383.73V179.159H382.93V178.448Z" fill="#263238"/>
<path d="M382.93 187.543C383.73 187.543 383.91 187.168 384.07 186.745H384.77V193.109H383.73V188.254H382.93V187.543Z" fill="#263238"/>
<path d="M382.199 206.453C382.199 205.434 382.759 204.857 383.779 204.857C384.799 204.857 385.359 205.444 385.359 206.453V209.76C385.359 210.779 384.799 211.356 383.779 211.356C382.759 211.356 382.199 210.77 382.199 209.76V206.453ZM383.239 209.828C383.239 210.279 383.449 210.452 383.779 210.452C384.109 210.452 384.319 210.279 384.319 209.828V206.395C384.319 205.944 384.109 205.77 383.779 205.77C383.449 205.77 383.239 205.944 383.239 206.395V209.828Z" fill="#263238"/>
<path d="M382.93 233.007C383.73 233.007 383.91 232.632 384.07 232.209H384.77V238.573H383.73V233.718H382.93V233.007Z" fill="#263238"/>
<path d="M382.199 242.832C382.199 241.813 382.759 241.236 383.779 241.236C384.799 241.236 385.359 241.823 385.359 242.832V246.139C385.359 247.158 384.799 247.735 383.779 247.735C382.759 247.735 382.199 247.149 382.199 246.139V242.832ZM383.239 246.206C383.239 246.658 383.449 246.831 383.779 246.831C384.109 246.831 384.319 246.658 384.319 246.206V242.774C384.319 242.322 384.109 242.149 383.779 242.149C383.449 242.149 383.239 242.322 383.239 242.774V246.206Z" fill="#263238"/>
<path d="M382.93 251.196C383.73 251.196 383.91 250.821 384.07 250.398H384.77V256.763H383.73V251.908H382.93V251.196Z" fill="#263238"/>
<path d="M382.93 260.291C383.73 260.291 383.91 259.916 384.07 259.493H384.77V265.857H383.73V261.002H382.93V260.291Z" fill="#263238"/>
<path d="M382.93 269.386C383.73 269.386 383.91 269.011 384.07 268.588H384.77V274.952H383.73V270.097H382.93V269.386Z" fill="#263238"/>
<path d="M382.199 279.211C382.199 278.192 382.759 277.615 383.779 277.615C384.799 277.615 385.359 278.201 385.359 279.211V282.518C385.359 283.537 384.799 284.114 383.779 284.114C382.759 284.114 382.199 283.528 382.199 282.518V279.211ZM383.239 282.576C383.239 283.028 383.449 283.201 383.779 283.201C384.109 283.201 384.319 283.028 384.319 282.576V279.144C384.319 278.692 384.109 278.519 383.779 278.519C383.449 278.519 383.239 278.692 383.239 279.144V282.576Z" fill="#263238"/>
<path d="M382.199 288.296C382.199 287.277 382.759 286.7 383.779 286.7C384.799 286.7 385.359 287.287 385.359 288.296V291.603C385.359 292.622 384.799 293.199 383.779 293.199C382.759 293.199 382.199 292.622 382.199 291.603V288.296ZM383.239 291.671C383.239 292.122 383.449 292.295 383.779 292.295C384.109 292.295 384.319 292.122 384.319 291.671V288.238C384.319 287.787 384.109 287.614 383.779 287.614C383.449 287.614 383.239 287.787 383.239 288.238V291.671Z" fill="#263238"/>
<path d="M371.68 233.007C372.48 233.007 372.66 232.632 372.82 232.209H373.52V238.573H372.48V233.718H371.68V233.007Z" fill="#263238"/>
<path d="M370.949 242.832C370.949 241.813 371.509 241.236 372.529 241.236C373.549 241.236 374.109 241.823 374.109 242.832V246.139C374.109 247.158 373.549 247.735 372.529 247.735C371.509 247.735 370.949 247.149 370.949 246.139V242.832ZM371.989 246.206C371.989 246.658 372.199 246.831 372.529 246.831C372.859 246.831 373.069 246.658 373.069 246.206V242.774C373.069 242.322 372.859 242.149 372.529 242.149C372.199 242.149 371.989 242.322 371.989 242.774V246.206Z" fill="#263238"/>
<path d="M370.949 251.927C370.949 250.908 371.509 250.331 372.529 250.331C373.549 250.331 374.109 250.918 374.109 251.927V255.234C374.109 256.253 373.549 256.83 372.529 256.83C371.509 256.83 370.949 256.253 370.949 255.234V251.927ZM371.989 255.301C371.989 255.753 372.199 255.926 372.529 255.926C372.859 255.926 373.069 255.753 373.069 255.301V251.869C373.069 251.417 372.859 251.244 372.529 251.244C372.199 251.244 371.989 251.417 371.989 251.869V255.301Z" fill="#263238"/>
<path d="M371.68 260.291C372.48 260.291 372.66 259.916 372.82 259.493H373.52V265.857H372.48V261.002H371.68V260.291Z" fill="#263238"/>
<path d="M371.68 278.48C372.48 278.48 372.66 278.105 372.82 277.682H373.52V284.047H372.48V279.192H371.68V278.48Z" fill="#263238"/>
<path d="M371.68 287.575C372.48 287.575 372.66 287.2 372.82 286.777H373.52V293.141H372.48V288.286H371.68V287.575Z" fill="#263238"/>
<path d="M371.68 296.67C372.48 296.67 372.66 296.295 372.82 295.872H373.52V302.236H372.48V297.381H371.68V296.67Z" fill="#263238"/>
<path d="M365.329 206.453C365.329 205.434 365.889 204.857 366.909 204.857C367.929 204.857 368.489 205.444 368.489 206.453V209.76C368.489 210.779 367.929 211.356 366.909 211.356C365.889 211.356 365.329 210.77 365.329 209.76V206.453ZM366.369 209.828C366.369 210.279 366.579 210.452 366.909 210.452C367.239 210.452 367.449 210.279 367.449 209.828V206.395C367.449 205.944 367.239 205.77 366.909 205.77C366.579 205.77 366.369 205.944 366.369 206.395V209.828Z" fill="#263238"/>
<path d="M365.329 224.643C365.329 223.623 365.889 223.047 366.909 223.047C367.929 223.047 368.489 223.623 368.489 224.643V227.95C368.489 228.969 367.929 229.546 366.909 229.546C365.889 229.546 365.329 228.959 365.329 227.95V224.643ZM366.369 228.017C366.369 228.469 366.579 228.642 366.909 228.642C367.239 228.642 367.449 228.469 367.449 228.017V224.585C367.449 224.133 367.239 223.96 366.909 223.96C366.579 223.96 366.369 224.133 366.369 224.585V228.017Z" fill="#263238"/>
<path d="M366.06 251.196C366.86 251.196 367.04 250.821 367.2 250.398H367.9V256.763H366.86V251.908H366.06V251.196Z" fill="#263238"/>
<path d="M366.06 260.291C366.86 260.291 367.04 259.916 367.2 259.493H367.9V265.858H366.86V261.003H366.06V260.291Z" fill="#263238"/>
<path d="M366.06 287.575C366.86 287.575 367.04 287.2 367.2 286.777H367.9V293.141H366.86V288.286H366.06V287.575Z" fill="#263238"/>
<path d="M365.329 297.391C365.329 296.372 365.889 295.795 366.909 295.795C367.929 295.795 368.489 296.382 368.489 297.391V300.698C368.489 301.717 367.929 302.294 366.909 302.294C365.889 302.294 365.329 301.708 365.329 300.698V297.391ZM366.369 300.766C366.369 301.217 366.579 301.39 366.909 301.39C367.239 301.39 367.449 301.217 367.449 300.766V297.333C367.449 296.882 367.239 296.708 366.909 296.708C366.579 296.708 366.369 296.882 366.369 297.333V300.766Z" fill="#263238"/>
<path d="M366.06 305.765C366.86 305.765 367.04 305.39 367.2 304.967H367.9V311.331H366.86V306.476H366.06V305.765Z" fill="#263238"/>
<path d="M132.469 216.163C132.469 215.144 133.029 214.567 134.049 214.567C135.069 214.567 135.629 215.154 135.629 216.163V219.47C135.629 220.489 135.069 221.066 134.049 221.066C133.029 221.066 132.469 220.489 132.469 219.47V216.163ZM133.509 219.528C133.509 219.98 133.719 220.153 134.049 220.153C134.379 220.153 134.589 219.98 134.589 219.528V216.096C134.589 215.644 134.379 215.471 134.049 215.471C133.719 215.471 133.509 215.644 133.509 216.096V219.528Z" fill="#263238"/>
<path d="M132.469 225.258C132.469 224.239 133.029 223.662 134.049 223.662C135.069 223.662 135.629 224.248 135.629 225.258V228.565C135.629 229.584 135.069 230.161 134.049 230.161C133.029 230.161 132.469 229.574 132.469 228.565V225.258ZM133.509 228.623C133.509 229.074 133.719 229.248 134.049 229.248C134.379 229.248 134.589 229.074 134.589 228.623V225.19C134.589 224.739 134.379 224.566 134.049 224.566C133.719 224.566 133.509 224.739 133.509 225.19V228.623Z" fill="#263238"/>
<path d="M133.188 233.622C133.988 233.622 134.168 233.247 134.328 232.824H135.028V239.188H133.998V234.333H133.198V233.622H133.188Z" fill="#263238"/>
<path d="M132.469 243.438C132.469 242.419 133.029 241.842 134.049 241.842C135.069 241.842 135.629 242.428 135.629 243.438V246.745C135.629 247.764 135.069 248.341 134.049 248.341C133.029 248.341 132.469 247.754 132.469 246.745V243.438ZM133.509 246.812C133.509 247.264 133.719 247.437 134.049 247.437C134.379 247.437 134.589 247.264 134.589 246.812V243.38C134.589 242.928 134.379 242.755 134.049 242.755C133.719 242.755 133.509 242.928 133.509 243.38V246.812Z" fill="#263238"/>
<path d="M133.188 251.811C133.988 251.811 134.168 251.436 134.328 251.013H135.028V257.378H133.998V252.523H133.198V251.811H133.188Z" fill="#263238"/>
<path d="M132.469 261.627C132.469 260.608 133.029 260.031 134.049 260.031C135.069 260.031 135.629 260.618 135.629 261.627V264.934C135.629 265.953 135.069 266.53 134.049 266.53C133.029 266.53 132.469 265.944 132.469 264.934V261.627ZM133.509 265.002C133.509 265.453 133.719 265.627 134.049 265.627C134.379 265.627 134.589 265.453 134.589 265.002V261.569C134.589 261.118 134.379 260.945 134.049 260.945C133.719 260.945 133.509 261.118 133.509 261.569V265.002Z" fill="#263238"/>
<path d="M133.188 270.001C133.988 270.001 134.168 269.626 134.328 269.203H135.028V275.567H133.998V270.712H133.198V270.001H133.188Z" fill="#263238"/>
<path d="M132.469 279.817C132.469 278.798 133.029 278.221 134.049 278.221C135.069 278.221 135.629 278.807 135.629 279.817V283.124C135.629 284.143 135.069 284.72 134.049 284.72C133.029 284.72 132.469 284.133 132.469 283.124V279.817ZM133.509 283.191C133.509 283.643 133.719 283.816 134.049 283.816C134.379 283.816 134.589 283.643 134.589 283.191V279.759C134.589 279.307 134.379 279.134 134.049 279.134C133.719 279.134 133.509 279.307 133.509 279.759V283.191Z" fill="#263238"/>
<path d="M132.469 288.911C132.469 287.892 133.029 287.315 134.049 287.315C135.069 287.315 135.629 287.902 135.629 288.911V292.219C135.629 293.238 135.069 293.814 134.049 293.814C133.029 293.814 132.469 293.228 132.469 292.219V288.911ZM133.509 292.286C133.509 292.738 133.719 292.911 134.049 292.911C134.379 292.911 134.589 292.738 134.589 292.286V288.854C134.589 288.402 134.379 288.229 134.049 288.229C133.719 288.229 133.509 288.402 133.509 288.854V292.286Z" fill="#263238"/>
<path d="M132.469 298.006C132.469 296.987 133.029 296.41 134.049 296.41C135.069 296.41 135.629 296.987 135.629 298.006V301.313C135.629 302.332 135.069 302.909 134.049 302.909C133.029 302.909 132.469 302.323 132.469 301.313V298.006ZM133.509 301.381C133.509 301.832 133.719 302.005 134.049 302.005C134.379 302.005 134.589 301.832 134.589 301.381V297.948C134.589 297.497 134.379 297.323 134.049 297.323C133.719 297.323 133.509 297.497 133.509 297.948V301.381Z" fill="#263238"/>
<path d="M133.188 306.37C133.988 306.37 134.168 305.995 134.328 305.572H135.028V311.936H133.998V307.081H133.198V306.37H133.188Z" fill="#263238"/>
<path d="M133.188 315.465C133.988 315.465 134.168 315.09 134.328 314.667H135.028V321.031H133.998V316.176H133.198V315.465H133.188Z" fill="#263238"/>
<path d="M133.188 324.56C133.988 324.56 134.168 324.185 134.328 323.762H135.028V330.126H133.998V325.271H133.198V324.56H133.188Z" fill="#263238"/>
<path d="M133.188 333.654C133.988 333.654 134.168 333.279 134.328 332.856H135.028V339.221H133.998V334.366H133.198V333.654H133.188Z" fill="#263238"/>
<path d="M133.509 346.845C133.509 347.297 133.719 347.47 134.049 347.47C134.379 347.47 134.589 347.297 134.589 346.845V343.413C134.589 342.961 134.379 342.788 134.049 342.788C133.719 342.788 133.509 342.961 133.509 343.413V346.845Z" fill="#263238"/>
<path d="M138.819 251.811C139.619 251.811 139.799 251.436 139.959 251.013H140.659V257.378H139.619V252.523H138.819V251.811Z" fill="#263238"/>
<path d="M138.819 260.906C139.619 260.906 139.799 260.531 139.959 260.108H140.659V266.472H139.619V261.617H138.819V260.906Z" fill="#263238"/>
<path d="M138.089 279.817C138.089 278.798 138.649 278.221 139.669 278.221C140.689 278.221 141.249 278.807 141.249 279.817V283.124C141.249 284.143 140.689 284.72 139.669 284.72C138.649 284.72 138.089 284.133 138.089 283.124V279.817ZM139.129 283.191C139.129 283.643 139.339 283.816 139.669 283.816C139.999 283.816 140.209 283.643 140.209 283.191V279.759C140.209 279.307 139.999 279.134 139.669 279.134C139.339 279.134 139.129 279.307 139.129 279.759V283.191Z" fill="#263238"/>
<path d="M138.819 288.19C139.619 288.19 139.799 287.815 139.959 287.392H140.659V293.757H139.619V288.902H138.819V288.19Z" fill="#263238"/>
<path d="M138.089 298.006C138.089 296.987 138.649 296.41 139.669 296.41C140.689 296.41 141.249 296.987 141.249 298.006V301.313C141.249 302.332 140.689 302.909 139.669 302.909C138.649 302.909 138.089 302.323 138.089 301.313V298.006ZM139.129 301.381C139.129 301.832 139.339 302.005 139.669 302.005C139.999 302.005 140.209 301.832 140.209 301.381V297.948C140.209 297.497 139.999 297.323 139.669 297.323C139.339 297.323 139.129 297.497 139.129 297.948V301.381Z" fill="#263238"/>
<path d="M139.129 319.57C139.129 320.022 139.339 320.195 139.669 320.195C139.999 320.195 140.209 320.022 140.209 319.57V316.138C140.209 315.686 139.999 315.513 139.669 315.513C139.339 315.513 139.129 315.686 139.129 316.138V319.57Z" fill="#263238"/>
<path d="M138.819 324.559C139.619 324.559 139.799 324.184 139.959 323.761H140.659V330.126H139.619V325.271H138.819V324.559Z" fill="#263238"/>
<path d="M138.819 333.654C139.619 333.654 139.799 333.279 139.959 332.856H140.659V339.221H139.619V334.366H138.819V333.654Z" fill="#263238"/>
<path d="M138.089 361.669C138.089 360.65 138.649 360.073 139.669 360.073C140.689 360.073 141.249 360.66 141.249 361.669V364.976C141.249 365.995 140.689 366.572 139.669 366.572C138.649 366.572 138.089 365.986 138.089 364.976V361.669ZM139.129 365.034C139.129 365.486 139.339 365.659 139.669 365.659C139.999 365.659 140.209 365.486 140.209 365.034V361.602C140.209 361.15 139.999 360.977 139.669 360.977C139.339 360.977 139.129 361.15 139.129 361.602V365.034Z" fill="#263238"/>
<path d="M126.839 243.438C126.839 242.419 127.399 241.842 128.419 241.842C129.439 241.842 129.999 242.428 129.999 243.438V246.745C129.999 247.764 129.439 248.341 128.419 248.341C127.399 248.341 126.839 247.754 126.839 246.745V243.438ZM127.879 246.812C127.879 247.264 128.089 247.437 128.419 247.437C128.749 247.437 128.959 247.264 128.959 246.812V243.38C128.959 242.928 128.749 242.755 128.419 242.755C128.089 242.755 127.879 242.928 127.879 243.38V246.812Z" fill="#263238"/>
<path d="M127.569 251.811C128.369 251.811 128.549 251.436 128.709 251.013H129.409V257.378H128.369V252.523H127.569V251.811Z" fill="#263238"/>
<path d="M127.569 260.906C128.369 260.906 128.549 260.531 128.709 260.108H129.409V266.473H128.369V261.618H127.569V260.906Z" fill="#263238"/>
<path d="M126.839 270.722C126.839 269.703 127.399 269.126 128.419 269.126C129.439 269.126 129.999 269.712 129.999 270.722V274.029C129.999 275.048 129.439 275.625 128.419 275.625C127.399 275.625 126.839 275.039 126.839 274.029V270.722ZM127.879 274.096C127.879 274.548 128.089 274.721 128.419 274.721C128.749 274.721 128.959 274.548 128.959 274.096V270.664C128.959 270.212 128.749 270.039 128.419 270.039C128.089 270.039 127.879 270.212 127.879 270.664V274.096Z" fill="#263238"/>
<path d="M126.839 288.912C126.839 287.893 127.399 287.316 128.419 287.316C129.439 287.316 129.999 287.902 129.999 288.912V292.219C129.999 293.238 129.439 293.815 128.419 293.815C127.399 293.815 126.839 293.228 126.839 292.219V288.912ZM127.879 292.286C127.879 292.738 128.089 292.911 128.419 292.911C128.749 292.911 128.959 292.738 128.959 292.286V288.854C128.959 288.402 128.749 288.229 128.419 288.229C128.089 288.229 127.879 288.402 127.879 288.854V292.286Z" fill="#263238"/>
<path d="M126.839 298.006C126.839 296.987 127.399 296.41 128.419 296.41C129.439 296.41 129.999 296.987 129.999 298.006V301.313C129.999 302.333 129.439 302.909 128.419 302.909C127.399 302.909 126.839 302.323 126.839 301.313V298.006ZM127.879 301.381C127.879 301.833 128.089 302.006 128.419 302.006C128.749 302.006 128.959 301.833 128.959 301.381V297.949C128.959 297.497 128.749 297.324 128.419 297.324C128.089 297.324 127.879 297.497 127.879 297.949V301.381Z" fill="#263238"/>
<path d="M127.569 306.37C128.369 306.37 128.549 305.995 128.709 305.572H129.409V311.937H128.369V307.082H127.569V306.37Z" fill="#263238"/>
<path d="M126.839 316.196C126.839 315.176 127.399 314.6 128.419 314.6C129.439 314.6 129.999 315.186 129.999 316.196V319.503C129.999 320.522 129.439 321.099 128.419 321.099C127.399 321.099 126.839 320.522 126.839 319.503V316.196ZM127.879 319.57C127.879 320.022 128.089 320.195 128.419 320.195C128.749 320.195 128.959 320.022 128.959 319.57V316.138C128.959 315.686 128.749 315.513 128.419 315.513C128.089 315.513 127.879 315.686 127.879 316.138V319.57Z" fill="#263238"/>
<path d="M127.569 324.56C128.369 324.56 128.549 324.185 128.709 323.762H129.409V330.126H128.369V325.271H127.569V324.56Z" fill="#263238"/>
<path d="M121.219 225.258C121.219 224.239 121.779 223.662 122.799 223.662C123.819 223.662 124.379 224.248 124.379 225.258V228.565C124.379 229.584 123.819 230.161 122.799 230.161C121.779 230.161 121.219 229.584 121.219 228.565V225.258ZM122.259 228.623C122.259 229.074 122.469 229.248 122.799 229.248C123.129 229.248 123.339 229.074 123.339 228.623V225.19C123.339 224.739 123.129 224.566 122.799 224.566C122.469 224.566 122.259 224.739 122.259 225.19V228.623Z" fill="#263238"/>
<path d="M121.949 242.717C122.749 242.717 122.929 242.342 123.089 241.919H123.789V248.283H122.749V243.428H121.949V242.717Z" fill="#263238"/>
<path d="M121.949 260.906C122.749 260.906 122.929 260.531 123.089 260.108H123.789V266.472H122.749V261.617H121.949V260.906Z" fill="#263238"/>
<path d="M121.219 270.722C121.219 269.703 121.779 269.126 122.799 269.126C123.819 269.126 124.379 269.712 124.379 270.722V274.029C124.379 275.048 123.819 275.625 122.799 275.625C121.779 275.625 121.219 275.048 121.219 274.029V270.722ZM122.259 274.096C122.259 274.548 122.469 274.721 122.799 274.721C123.129 274.721 123.339 274.548 123.339 274.096V270.664C123.339 270.212 123.129 270.039 122.799 270.039C122.469 270.039 122.259 270.212 122.259 270.664V274.096Z" fill="#263238"/>
<path d="M121.949 297.285C122.749 297.285 122.929 296.91 123.089 296.487H123.789V302.842H122.749V297.987H121.949V297.285Z" fill="#263238"/>
<path d="M121.949 306.37C122.749 306.37 122.929 305.995 123.089 305.572H123.789V311.936H122.749V307.081H121.949V306.37Z" fill="#263238"/>
<path d="M121.949 315.465C122.749 315.465 122.929 315.09 123.089 314.667H123.789V321.031H122.749V316.176H121.949V315.465Z" fill="#263238"/>
<path d="M298.089 6.53218C298.089 5.51311 298.649 4.93628 299.669 4.93628C300.689 4.93628 301.249 5.52273 301.249 6.53218V9.83936C301.249 10.8584 300.689 11.4353 299.669 11.4353C298.649 11.4353 298.089 10.8488 298.089 9.83936V6.53218ZM299.129 9.90666C299.129 10.3585 299.339 10.5316 299.669 10.5316C299.999 10.5316 300.209 10.3585 300.209 9.90666V6.4745C300.209 6.02265 299.999 5.8496 299.669 5.8496C299.339 5.8496 299.129 6.02265 299.129 6.4745V9.90666Z" fill="#263238"/>
<path d="M298.089 15.6269C298.089 14.6078 298.649 14.031 299.669 14.031C300.689 14.031 301.249 14.6175 301.249 15.6269V18.9341C301.249 19.9532 300.689 20.53 299.669 20.53C298.649 20.53 298.089 19.9435 298.089 18.9341V15.6269ZM299.129 19.0014C299.129 19.4532 299.339 19.6263 299.669 19.6263C299.999 19.6263 300.209 19.4532 300.209 19.0014V15.5692C300.209 15.1174 299.999 14.9443 299.669 14.9443C299.339 14.9443 299.129 15.1174 299.129 15.5692V19.0014Z" fill="#263238"/>
<path d="M298.819 42.1803C299.619 42.1803 299.799 41.8053 299.959 41.3823H300.659V47.7467H299.619V42.8917H298.819V42.1803Z" fill="#263238"/>
<path d="M298.819 51.2752C299.619 51.2752 299.799 50.9003 299.959 50.4773H300.659V56.8417H299.619V51.9867H298.819V51.2752Z" fill="#263238"/>
<path d="M298.089 79.29C298.089 78.2709 298.649 77.6941 299.669 77.6941C300.689 77.6941 301.249 78.2805 301.249 79.29V82.5972C301.249 83.6163 300.689 84.1931 299.669 84.1931C298.649 84.1931 298.089 83.6163 298.089 82.5972V79.29ZM299.129 82.6549C299.129 83.1067 299.339 83.2798 299.669 83.2798C299.999 83.2798 300.209 83.1067 300.209 82.6549V79.2227C300.209 78.7709 299.999 78.5978 299.669 78.5978C299.339 78.5978 299.129 78.7709 299.129 79.2227V82.6549Z" fill="#263238"/>
<path d="M298.089 97.4699C298.089 96.4509 298.649 95.874 299.669 95.874C300.689 95.874 301.249 96.4605 301.249 97.4699V100.777C301.249 101.796 300.689 102.373 299.669 102.373C298.649 102.373 298.089 101.787 298.089 100.777V97.4699ZM299.129 100.844C299.129 101.296 299.339 101.469 299.669 101.469C299.999 101.469 300.209 101.296 300.209 100.844V97.4122C300.209 96.9604 299.999 96.7873 299.669 96.7873C299.339 96.7873 299.129 96.9604 299.129 97.4122V100.844Z" fill="#263238"/>
<path d="M281.219 24.7216C281.219 23.7026 281.779 23.1257 282.799 23.1257C283.819 23.1257 284.379 23.7122 284.379 24.7216V28.0288C284.379 29.0479 283.819 29.6247 282.799 29.6247C281.779 29.6247 281.219 29.0383 281.219 28.0288V24.7216ZM282.259 28.0961C282.259 28.548 282.469 28.721 282.799 28.721C283.129 28.721 283.339 28.548 283.339 28.0961V24.664C283.339 24.2121 283.129 24.0391 282.799 24.0391C282.469 24.0391 282.259 24.2121 282.259 24.664V28.0961Z" fill="#263238"/>
<path d="M281.219 33.8164C281.219 32.7973 281.779 32.2205 282.799 32.2205C283.819 32.2205 284.379 32.8069 284.379 33.8164V37.1235C284.379 38.1426 283.819 38.7194 282.799 38.7194C281.779 38.7194 281.219 38.133 281.219 37.1235V33.8164ZM282.259 37.1908C282.259 37.6427 282.469 37.8157 282.799 37.8157C283.129 37.8157 283.339 37.6427 283.339 37.1908V33.7491C283.339 33.2972 283.129 33.1242 282.799 33.1242C282.469 33.1242 282.259 33.2972 282.259 33.7491V37.1908Z" fill="#263238"/>
<path d="M281.219 42.9111C281.219 41.892 281.779 41.3152 282.799 41.3152C283.819 41.3152 284.379 41.9016 284.379 42.9111V46.2183C284.379 47.2373 283.819 47.8142 282.799 47.8142C281.779 47.8142 281.219 47.2373 281.219 46.2183V42.9111ZM282.259 46.2856C282.259 46.7374 282.469 46.9105 282.799 46.9105C283.129 46.9105 283.339 46.7374 283.339 46.2856V42.8534C283.339 42.4016 283.129 42.2285 282.799 42.2285C282.469 42.2285 282.259 42.4016 282.259 42.8534V46.2856Z" fill="#263238"/>
<path d="M281.949 51.275C282.749 51.275 282.929 50.9001 283.089 50.4771H283.789V56.8414H282.749V51.9864H281.949V51.275Z" fill="#263238"/>
<path d="M281.949 69.4647C282.749 69.4647 282.929 69.0898 283.089 68.6667H283.789V75.0311H282.749V70.1761H281.949V69.4647Z" fill="#263238"/>
<path d="M281.949 78.5594C282.749 78.5594 282.929 78.1845 283.089 77.7615H283.789V84.1259H282.749V79.2709H281.949V78.5594Z" fill="#263238"/>
<path d="M281.219 97.4697C281.219 96.4506 281.779 95.8738 282.799 95.8738C283.819 95.8738 284.379 96.4602 284.379 97.4697V100.777C284.379 101.796 283.819 102.373 282.799 102.373C281.779 102.373 281.219 101.786 281.219 100.777V97.4697ZM282.259 100.844C282.259 101.296 282.469 101.469 282.799 101.469C283.129 101.469 283.339 101.296 283.339 100.844V97.412C283.339 96.9601 283.129 96.7871 282.799 96.7871C282.469 96.7871 282.259 96.9601 282.259 97.412V100.844Z" fill="#263238"/>
<path d="M281.949 105.844C282.749 105.844 282.929 105.469 283.089 105.046H283.789V111.41H282.749V106.555H281.949V105.844Z" fill="#263238"/>
<path d="M292.469 6.53218C292.469 5.51311 293.029 4.93628 294.049 4.93628C295.069 4.93628 295.629 5.52273 295.629 6.53218V9.83936C295.629 10.8584 295.069 11.4353 294.049 11.4353C293.029 11.4353 292.469 10.8488 292.469 9.83936V6.53218ZM293.509 9.90666C293.509 10.3585 293.719 10.5316 294.049 10.5316C294.379 10.5316 294.589 10.3585 294.589 9.90666V6.4745C294.589 6.02265 294.379 5.8496 294.049 5.8496C293.719 5.8496 293.509 6.02265 293.509 6.4745V9.90666Z" fill="#263238"/>
<path d="M293.188 14.8963C293.988 14.8963 294.168 14.5214 294.328 14.0984H295.028V20.4628H293.998V15.6078H293.198V14.8963H293.188Z" fill="#263238"/>
<path d="M292.469 24.7216C292.469 23.7026 293.029 23.1257 294.049 23.1257C295.069 23.1257 295.629 23.7122 295.629 24.7216V28.0288C295.629 29.0479 295.069 29.6247 294.049 29.6247C293.029 29.6247 292.469 29.0383 292.469 28.0288V24.7216ZM293.509 28.0961C293.509 28.548 293.719 28.721 294.049 28.721C294.379 28.721 294.589 28.548 294.589 28.0961V24.664C294.589 24.2121 294.379 24.0391 294.049 24.0391C293.719 24.0391 293.509 24.2121 293.509 24.664V28.0961Z" fill="#263238"/>
<path d="M293.188 33.0858C293.988 33.0858 294.168 32.7109 294.328 32.2878H295.028V38.6522H293.998V33.7972H293.198V33.0858H293.188Z" fill="#263238"/>
<path d="M293.188 42.1803C293.988 42.1803 294.168 41.8053 294.328 41.3823H295.028V47.7467H293.998V42.8917H293.198V42.1803H293.188Z" fill="#263238"/>
<path d="M293.188 51.2752C293.988 51.2752 294.168 50.9003 294.328 50.4773H295.028V56.8417H293.998V51.9867H293.198V51.2752H293.188Z" fill="#263238"/>
<path d="M292.469 61.1005C292.469 60.0815 293.029 59.5046 294.049 59.5046C295.069 59.5046 295.629 60.0911 295.629 61.1005V64.4077C295.629 65.4268 295.069 66.0036 294.049 66.0036C293.029 66.0036 292.469 65.4172 292.469 64.4077V61.1005ZM293.509 64.4654C293.509 64.9173 293.719 65.0903 294.049 65.0903C294.379 65.0903 294.589 64.9173 294.589 64.4654V61.0332C294.589 60.5814 294.379 60.4083 294.049 60.4083C293.719 60.4083 293.509 60.5814 293.509 61.0332V64.4654Z" fill="#263238"/>
<path d="M292.469 70.1953C292.469 69.1762 293.029 68.5994 294.049 68.5994C295.069 68.5994 295.629 69.1762 295.629 70.1953V73.5024C295.629 74.5215 295.069 75.0984 294.049 75.0984C293.029 75.0984 292.469 74.5119 292.469 73.5024V70.1953ZM293.509 73.5601C293.509 74.012 293.719 74.185 294.049 74.185C294.379 74.185 294.589 74.012 294.589 73.5601V70.128C294.589 69.6761 294.379 69.5031 294.049 69.5031C293.719 69.5031 293.509 69.6761 293.509 70.128V73.5601Z" fill="#263238"/>
<path d="M287.569 14.8963C288.369 14.8963 288.549 14.5214 288.709 14.0984H289.409V20.4628H288.369V15.6078H287.569V14.8963Z" fill="#263238"/>
<path d="M286.839 24.7216C286.839 23.7026 287.399 23.1257 288.419 23.1257C289.439 23.1257 289.999 23.7122 289.999 24.7216V28.0288C289.999 29.0479 289.439 29.6247 288.419 29.6247C287.399 29.6247 286.839 29.0383 286.839 28.0288V24.7216ZM287.879 28.0961C287.879 28.548 288.089 28.721 288.419 28.721C288.749 28.721 288.959 28.548 288.959 28.0961V24.664C288.959 24.2121 288.749 24.0391 288.419 24.0391C288.089 24.0391 287.879 24.2121 287.879 24.664V28.0961Z" fill="#263238"/>
<path d="M286.839 33.8166C286.839 32.7975 287.399 32.2207 288.419 32.2207C289.439 32.2207 289.999 32.8072 289.999 33.8166V37.1238C289.999 38.1429 289.439 38.7197 288.419 38.7197C287.399 38.7197 286.839 38.1332 286.839 37.1238V33.8166ZM287.879 37.1911C287.879 37.6429 288.089 37.816 288.419 37.816C288.749 37.816 288.959 37.6429 288.959 37.1911V33.7493C288.959 33.2975 288.749 33.1244 288.419 33.1244C288.089 33.1244 287.879 33.2975 287.879 33.7493V37.1911Z" fill="#263238"/>
<path d="M287.569 42.1803C288.369 42.1803 288.549 41.8053 288.709 41.3823H289.409V47.7467H288.369V42.8917H287.569V42.1803Z" fill="#263238"/>
<path d="M287.569 60.37C288.369 60.37 288.549 59.995 288.709 59.572H289.409V65.9364H288.369V61.0814H287.569V60.37Z" fill="#263238"/>
<path d="M287.569 69.4647C288.369 69.4647 288.549 69.0898 288.709 68.6667H289.409V75.0311H288.369V70.1761H287.569V69.4647Z" fill="#263238"/>
<path d="M287.569 78.5594C288.369 78.5594 288.549 78.1845 288.709 77.7615H289.409V84.1259H288.369V79.2709H287.569V78.5594Z" fill="#263238"/>
<path d="M33.3496 107.228C33.3496 106.209 33.9096 105.632 34.9296 105.632C35.9496 105.632 36.5096 106.219 36.5096 107.228V110.535C36.5096 111.554 35.9496 112.131 34.9296 112.131C33.9096 112.131 33.3496 111.545 33.3496 110.535V107.228ZM34.3896 110.603C34.3896 111.055 34.5996 111.228 34.9296 111.228C35.2596 111.228 35.4696 111.055 35.4696 110.603V107.171C35.4696 106.719 35.2596 106.546 34.9296 106.546C34.5996 106.546 34.3896 106.719 34.3896 107.171V110.603Z" fill="#263238"/>
<path d="M33.3496 116.323C33.3496 115.304 33.9096 114.727 34.9296 114.727C35.9496 114.727 36.5096 115.313 36.5096 116.323V119.63C36.5096 120.649 35.9496 121.226 34.9296 121.226C33.9096 121.226 33.3496 120.64 33.3496 119.63V116.323ZM34.3896 119.697C34.3896 120.149 34.5996 120.322 34.9296 120.322C35.2596 120.322 35.4696 120.149 35.4696 119.697V116.265C35.4696 115.813 35.2596 115.64 34.9296 115.64C34.5996 115.64 34.3896 115.813 34.3896 116.265V119.697Z" fill="#263238"/>
<path d="M34.0801 124.687C34.8801 124.687 35.0601 124.312 35.2201 123.889H35.9201V130.254H34.8801V125.399H34.0801V124.687Z" fill="#263238"/>
<path d="M33.3496 134.512C33.3496 133.493 33.9096 132.917 34.9296 132.917C35.9496 132.917 36.5096 133.503 36.5096 134.512V137.82C36.5096 138.839 35.9496 139.415 34.9296 139.415C33.9096 139.415 33.3496 138.829 33.3496 137.82V134.512ZM34.3896 137.887C34.3896 138.339 34.5996 138.512 34.9296 138.512C35.2596 138.512 35.4696 138.339 35.4696 137.887V134.455C35.4696 134.003 35.2596 133.83 34.9296 133.83C34.5996 133.83 34.3896 134.003 34.3896 134.455V137.887Z" fill="#263238"/>
<path d="M34.0801 142.877C34.8801 142.877 35.0601 142.502 35.2201 142.079H35.9201V148.443H34.8801V143.588H34.0801V142.877Z" fill="#263238"/>
<path d="M33.3496 152.702C33.3496 151.683 33.9096 151.106 34.9296 151.106C35.9496 151.106 36.5096 151.693 36.5096 152.702V156.009C36.5096 157.028 35.9496 157.605 34.9296 157.605C33.9096 157.605 33.3496 157.028 33.3496 156.009V152.702ZM34.3896 156.067C34.3896 156.519 34.5996 156.692 34.9296 156.692C35.2596 156.692 35.4696 156.519 35.4696 156.067V152.635C35.4696 152.183 35.2596 152.01 34.9296 152.01C34.5996 152.01 34.3896 152.183 34.3896 152.635V156.067Z" fill="#263238"/>
<path d="M34.0801 161.066C34.8801 161.066 35.0601 160.691 35.2201 160.268H35.9201V166.632H34.8801V161.777H34.0801V161.066Z" fill="#263238"/>
<path d="M33.3496 170.882C33.3496 169.863 33.9096 169.286 34.9296 169.286C35.9496 169.286 36.5096 169.872 36.5096 170.882V174.189C36.5096 175.208 35.9496 175.785 34.9296 175.785C33.9096 175.785 33.3496 175.208 33.3496 174.189V170.882ZM34.3896 174.256C34.3896 174.708 34.5996 174.881 34.9296 174.881C35.2596 174.881 35.4696 174.708 35.4696 174.256V170.824C35.4696 170.372 35.2596 170.199 34.9296 170.199C34.5996 170.199 34.3896 170.372 34.3896 170.824V174.256Z" fill="#263238"/>
<path d="M33.3496 179.977C33.3496 178.957 33.9096 178.381 34.9296 178.381C35.9496 178.381 36.5096 178.957 36.5096 179.977V183.284C36.5096 184.303 35.9496 184.88 34.9296 184.88C33.9096 184.88 33.3496 184.293 33.3496 183.284V179.977ZM34.3896 183.351C34.3896 183.803 34.5996 183.976 34.9296 183.976C35.2596 183.976 35.4696 183.803 35.4696 183.351V179.919C35.4696 179.467 35.2596 179.294 34.9296 179.294C34.5996 179.294 34.3896 179.467 34.3896 179.919V183.351Z" fill="#263238"/>
<path d="M33.3496 189.071C33.3496 188.052 33.9096 187.475 34.9296 187.475C35.9496 187.475 36.5096 188.062 36.5096 189.071V192.378C36.5096 193.398 35.9496 193.974 34.9296 193.974C33.9096 193.974 33.3496 193.398 33.3496 192.378V189.071ZM34.3896 192.446C34.3896 192.898 34.5996 193.071 34.9296 193.071C35.2596 193.071 35.4696 192.898 35.4696 192.446V189.014C35.4696 188.562 35.2596 188.389 34.9296 188.389C34.5996 188.389 34.3896 188.562 34.3896 189.014V192.446Z" fill="#263238"/>
<path d="M34.0801 206.54C34.8801 206.54 35.0601 206.165 35.2201 205.742H35.9201V212.106H34.8801V207.251H34.0801V206.54Z" fill="#263238"/>
<path d="M39.71 142.877C40.51 142.877 40.69 142.502 40.85 142.079H41.55V148.443H40.51V143.588H39.71V142.877Z" fill="#263238"/>
<path d="M39.71 151.971C40.51 151.971 40.69 151.596 40.85 151.173H41.55V157.538H40.51V152.683H39.71V151.971Z" fill="#263238"/>
<path d="M38.9795 161.797C38.9795 160.778 39.5395 160.201 40.5595 160.201C41.5795 160.201 42.1395 160.778 42.1395 161.797V165.104C42.1395 166.123 41.5795 166.7 40.5595 166.7C39.5395 166.7 38.9795 166.113 38.9795 165.104V161.797ZM40.0195 165.161C40.0195 165.613 40.2295 165.786 40.5595 165.786C40.8895 165.786 41.0995 165.613 41.0995 165.161V161.729C41.0995 161.277 40.8895 161.104 40.5595 161.104C40.2295 161.104 40.0195 161.277 40.0195 161.729V165.161Z" fill="#263238"/>
<path d="M38.9795 170.882C38.9795 169.863 39.5395 169.286 40.5595 169.286C41.5795 169.286 42.1395 169.872 42.1395 170.882V174.189C42.1395 175.208 41.5795 175.785 40.5595 175.785C39.5395 175.785 38.9795 175.208 38.9795 174.189V170.882ZM40.0195 174.256C40.0195 174.708 40.2295 174.881 40.5595 174.881C40.8895 174.881 41.0995 174.708 41.0995 174.256V170.824C41.0995 170.372 40.8895 170.199 40.5595 170.199C40.2295 170.199 40.0195 170.372 40.0195 170.824V174.256Z" fill="#263238"/>
<path d="M39.71 179.255C40.51 179.255 40.69 178.881 40.85 178.458H41.55V184.822H40.51V179.967H39.71V179.255Z" fill="#263238"/>
<path d="M39.71 197.445C40.51 197.445 40.69 197.07 40.85 196.647H41.55V203.011H40.51V198.156H39.71V197.445Z" fill="#263238"/>
<path d="M27.7295 134.512C27.7295 133.493 28.2895 132.917 29.3095 132.917C30.3295 132.917 30.8895 133.503 30.8895 134.512V137.82C30.8895 138.839 30.3295 139.415 29.3095 139.415C28.2895 139.415 27.7295 138.829 27.7295 137.82V134.512ZM28.7695 137.887C28.7695 138.339 28.9795 138.512 29.3095 138.512C29.6395 138.512 29.8495 138.339 29.8495 137.887V134.455C29.8495 134.003 29.6395 133.83 29.3095 133.83C28.9795 133.83 28.7695 134.003 28.7695 134.455V137.887Z" fill="#263238"/>
<path d="M28.46 142.877C29.26 142.877 29.44 142.502 29.6 142.079H30.3V148.443H29.26V143.588H28.46V142.877Z" fill="#263238"/>
<path d="M28.46 151.971C29.26 151.971 29.44 151.596 29.6 151.173H30.3V157.538H29.26V152.683H28.46V151.971Z" fill="#263238"/>
<path d="M27.7295 161.797C27.7295 160.778 28.2895 160.201 29.3095 160.201C30.3295 160.201 30.8895 160.778 30.8895 161.797V165.104C30.8895 166.123 30.3295 166.7 29.3095 166.7C28.2895 166.7 27.7295 166.113 27.7295 165.104V161.797ZM28.7695 165.161C28.7695 165.613 28.9795 165.786 29.3095 165.786C29.6395 165.786 29.8495 165.613 29.8495 165.161V161.729C29.8495 161.277 29.6395 161.104 29.3095 161.104C28.9795 161.104 28.7695 161.277 28.7695 161.729V165.161Z" fill="#263238"/>
<path d="M28.46 170.161C29.26 170.161 29.44 169.786 29.6 169.363H30.3V175.727H29.26V170.872H28.46V170.161Z" fill="#263238"/>
<path d="M27.7295 179.977C27.7295 178.957 28.2895 178.381 29.3095 178.381C30.3295 178.381 30.8895 178.957 30.8895 179.977V183.284C30.8895 184.303 30.3295 184.88 29.3095 184.88C28.2895 184.88 27.7295 184.293 27.7295 183.284V179.977ZM28.7695 183.351C28.7695 183.803 28.9795 183.976 29.3095 183.976C29.6395 183.976 29.8495 183.803 29.8495 183.351V179.919C29.8495 179.467 29.6395 179.294 29.3095 179.294C28.9795 179.294 28.7695 179.467 28.7695 179.919V183.351Z" fill="#263238"/>
<path d="M22.1094 116.323C22.1094 115.304 22.6694 114.727 23.6894 114.727C24.7094 114.727 25.2694 115.313 25.2694 116.323V119.63C25.2694 120.649 24.7094 121.226 23.6894 121.226C22.6694 121.226 22.1094 120.64 22.1094 119.63V116.323ZM23.1494 119.697C23.1494 120.149 23.3594 120.322 23.6894 120.322C24.0194 120.322 24.2294 120.149 24.2294 119.697V116.265C24.2294 115.813 24.0194 115.64 23.6894 115.64C23.3594 115.64 23.1494 115.813 23.1494 116.265V119.697Z" fill="#263238"/>
<path d="M22.8291 133.782C23.6291 133.782 23.8091 133.407 23.9691 132.984H24.6691V139.348H23.6291V134.493H22.8291V133.782Z" fill="#263238"/>
<path d="M22.1094 143.607C22.1094 142.588 22.6694 142.011 23.6894 142.011C24.7094 142.011 25.2694 142.598 25.2694 143.607V146.915C25.2694 147.934 24.7094 148.51 23.6894 148.51C22.6694 148.51 22.1094 147.934 22.1094 146.915V143.607ZM23.1494 146.982C23.1494 147.434 23.3594 147.607 23.6894 147.607C24.0194 147.607 24.2294 147.434 24.2294 146.982V143.55C24.2294 143.098 24.0194 142.925 23.6894 142.925C23.3594 142.925 23.1494 143.098 23.1494 143.55V146.982Z" fill="#263238"/>
<path d="M22.1094 161.797C22.1094 160.778 22.6694 160.201 23.6894 160.201C24.7094 160.201 25.2694 160.787 25.2694 161.797V165.104C25.2694 166.123 24.7094 166.7 23.6894 166.7C22.6694 166.7 22.1094 166.113 22.1094 165.104V161.797ZM23.1494 165.161C23.1494 165.613 23.3594 165.786 23.6894 165.786C24.0194 165.786 24.2294 165.613 24.2294 165.161V161.729C24.2294 161.277 24.0194 161.104 23.6894 161.104C23.3594 161.104 23.1494 161.277 23.1494 161.729V165.161Z" fill="#263238"/>
<path d="M22.1094 170.891C22.1094 169.872 22.6694 169.295 23.6894 169.295C24.7094 169.295 25.2694 169.872 25.2694 170.891V174.198C25.2694 175.218 24.7094 175.794 23.6894 175.794C22.6694 175.794 22.1094 175.208 22.1094 174.198V170.891ZM23.1494 174.256C23.1494 174.708 23.3594 174.881 23.6894 174.881C24.0194 174.881 24.2294 174.708 24.2294 174.256V170.824C24.2294 170.372 24.0194 170.199 23.6894 170.199C23.3594 170.199 23.1494 170.372 23.1494 170.824V174.256Z" fill="#263238"/>
<path d="M22.1094 179.977C22.1094 178.957 22.6694 178.381 23.6894 178.381C24.7094 178.381 25.2694 178.967 25.2694 179.977V183.284C25.2694 184.303 24.7094 184.88 23.6894 184.88C22.6694 184.88 22.1094 184.293 22.1094 183.284V179.977ZM23.1494 183.351C23.1494 183.803 23.3594 183.976 23.6894 183.976C24.0194 183.976 24.2294 183.803 24.2294 183.351V179.919C24.2294 179.467 24.0194 179.294 23.6894 179.294C23.3594 179.294 23.1494 179.467 23.1494 179.919V183.351Z" fill="#263238"/>
<path d="M22.8291 206.54C23.6291 206.54 23.8091 206.165 23.9691 205.742H24.6691V212.106H23.6291V207.251H22.8291V206.54Z" fill="#263238"/>
<path d="M339.649 201.04C310.139 189.552 307.999 150.039 307.999 150.039H314.319V145.318C329.299 145.318 339.649 136.377 339.649 136.377C339.649 136.377 349.999 145.318 364.979 145.318V150.039H371.299C371.309 150.039 369.159 189.552 339.649 201.04Z" stroke="#263238" stroke-miterlimit="10" stroke-linecap="round" stroke-linejoin="round"/>
<path d="M339.659 195.82C320.319 187.11 314.719 164.075 313.179 154.125H318.959V149.154C328.429 148.126 335.769 144.174 339.669 141.598C343.569 144.174 350.899 148.126 360.379 149.154V154.125H366.149C364.569 164.075 358.919 187.129 339.659 195.82Z" stroke="#263238" stroke-miterlimit="10" stroke-linecap="round" stroke-linejoin="round"/>
<path d="M349.939 177.534H329.359C328.609 177.534 328.009 176.948 328.009 176.237V164.45C328.009 163.729 328.619 163.152 329.359 163.152H349.939C350.689 163.152 351.289 163.739 351.289 164.45V176.237C351.289 176.948 350.689 177.534 349.939 177.534Z" fill="#263238"/>
<path d="M340.068 151C335.268 150.77 331.278 154.461 331.278 159.037V159.874C331.278 160.182 331.538 160.441 331.868 160.441H333.988C334.308 160.441 334.578 160.191 334.578 159.874V159.211C334.578 156.615 336.608 154.336 339.308 154.163C342.268 153.971 344.738 156.23 344.738 159.037V159.874C344.738 160.182 344.998 160.441 345.328 160.441H347.448C347.768 160.441 348.038 160.191 348.038 159.874V159.268C348.018 154.942 344.568 151.212 340.068 151Z" fill="#263238"/>
<path d="M341.839 168.719C341.839 167.555 340.859 166.613 339.649 166.613C338.439 166.613 337.459 167.555 337.459 168.719C337.459 169.555 337.969 170.267 338.699 170.603L337.899 173.987H341.389L340.589 170.603C341.329 170.267 341.839 169.555 341.839 168.719Z" fill="white" stroke="#263238" stroke-miterlimit="10" stroke-linecap="round" stroke-linejoin="round"/>
<path d="M246.079 64.3696H175.409C173.579 64.3696 172.089 62.9371 172.089 61.1778V23.1933C172.089 21.4339 173.579 20.0015 175.409 20.0015H246.079C247.909 20.0015 249.399 21.4339 249.399 23.1933V61.1778C249.399 62.9467 247.909 64.3696 246.079 64.3696Z" stroke="#263238" stroke-miterlimit="10" stroke-linecap="round" stroke-linejoin="round"/>
<path d="M179.399 58.1686H201.549C202.189 58.1686 202.699 57.6783 202.699 57.063V27.308C202.699 26.6927 202.189 26.2024 201.549 26.2024H179.399C178.759 26.2024 178.249 26.6927 178.249 27.308V57.063C178.249 57.6783 178.759 58.1686 179.399 58.1686Z" stroke="#263238" stroke-miterlimit="10" stroke-linecap="round" stroke-linejoin="round"/>
<path d="M190.469 58.1685H179.349C178.739 58.1685 178.249 57.6974 178.249 57.111V49.7275C178.249 49.7275 184.489 49.4679 185.539 48.1893C186.589 46.9107 185.429 44.9206 185.429 44.9206C185.049 44.4687 184.959 41.2673 184.959 41.2673C184.959 41.2673 184.959 41.2673 184.589 41.1808C184.219 41.0943 183.729 38.4312 183.729 37.4314C183.729 36.4315 184.589 36.0662 184.589 36.0662C184.589 36.0662 183.649 29.5864 190.479 29.5864C197.309 29.5864 196.369 36.0662 196.369 36.0662C196.369 36.0662 197.229 36.4315 197.229 37.4314C197.229 38.4312 196.739 41.0846 196.369 41.1808C195.999 41.2673 195.999 41.2673 195.999 41.2673C195.999 41.2673 195.909 44.4687 195.529 44.9206C195.529 44.9206 194.369 46.9203 195.419 48.1893C196.469 49.4679 202.709 49.7275 202.709 49.7275V57.111C202.709 57.6974 202.219 58.1685 201.609 58.1685H190.469Z" fill="#263238"/>
<path d="M241.649 58.3225H226.459C225.819 58.3225 225.299 57.8225 225.299 57.2073C225.299 56.592 225.819 56.092 226.459 56.092H241.649C242.289 56.092 242.809 56.592 242.809 57.2073C242.799 57.8225 242.289 58.3225 241.649 58.3225Z" fill="#263238"/>
<path d="M241.649 28.279H210.159C209.519 28.279 208.999 27.7791 208.999 27.1638C208.999 26.5485 209.519 26.0486 210.159 26.0486H241.649C242.289 26.0486 242.809 26.5485 242.809 27.1638C242.799 27.7791 242.289 28.279 241.649 28.279Z" fill="#263238"/>
<path d="M228.219 35.7876H210.159C209.519 35.7876 208.999 35.2876 208.999 34.6723C208.999 34.0571 209.519 33.5571 210.159 33.5571H228.219C228.859 33.5571 229.379 34.0571 229.379 34.6723C229.379 35.2876 228.859 35.7876 228.219 35.7876Z" fill="#263238"/>
<path d="M222.469 43.2961H210.159C209.519 43.2961 208.999 42.7962 208.999 42.1809C208.999 41.5656 209.519 41.0657 210.159 41.0657H222.469C223.109 41.0657 223.629 41.5656 223.629 42.1809C223.629 42.8058 223.109 43.2961 222.469 43.2961Z" fill="#263238"/>
<path d="M228.219 50.8139H210.159C209.519 50.8139 208.999 50.314 208.999 49.6987C208.999 49.0834 209.519 48.5835 210.159 48.5835H228.219C228.859 48.5835 229.379 49.0834 229.379 49.6987C229.379 50.314 228.859 50.8139 228.219 50.8139Z" fill="#263238"/>
<path d="M99.4295 138.146V180.861L87.4795 192.359H55.7295V138.146H99.4295Z" stroke="#263238" stroke-miterlimit="10" stroke-linecap="round" stroke-linejoin="round"/>
<path d="M99.4295 180.861L87.4795 192.359V180.861H99.4295Z" fill="#263238" stroke="#263238" stroke-miterlimit="10" stroke-linecap="round" stroke-linejoin="round"/>
<path d="M66.3691 145.059H92.7591" stroke="#263238" stroke-miterlimit="10" stroke-linecap="round" stroke-linejoin="round"/>
<path d="M62.3994 149.837H92.7594" stroke="#263238" stroke-miterlimit="10" stroke-linecap="round" stroke-linejoin="round"/>
<path d="M62.3994 154.605H92.7594" stroke="#263238" stroke-miterlimit="10" stroke-linecap="round" stroke-linejoin="round"/>
<path d="M62.3994 159.383H92.7594" stroke="#263238" stroke-miterlimit="10" stroke-linecap="round" stroke-linejoin="round"/>
<path d="M62.3994 164.152H92.7594" stroke="#263238" stroke-miterlimit="10" stroke-linecap="round" stroke-linejoin="round"/>
<path d="M62.3994 168.93H92.7594" stroke="#263238" stroke-miterlimit="10" stroke-linecap="round" stroke-linejoin="round"/>
<path d="M62.3994 173.708H92.7594" stroke="#263238" stroke-miterlimit="10" stroke-linecap="round" stroke-linejoin="round"/>
<path d="M62.3994 178.477H88.7894" stroke="#263238" stroke-miterlimit="10" stroke-linecap="round" stroke-linejoin="round"/>
<path d="M101.519 145.059H106.619V187.773L94.6692 199.271H62.9092V194.214" stroke="#263238" stroke-miterlimit="10" stroke-linecap="round" stroke-linejoin="round"/>
<path d="M106.619 187.773L94.6689 199.271V187.773H106.619Z" fill="#263238" stroke="#263238" stroke-miterlimit="10" stroke-linecap="round" stroke-linejoin="round"/>
<path d="M263.249 228.978H158.249C155.909 228.978 154.009 227.152 154.009 224.902V112.516C154.009 110.266 155.909 108.439 158.249 108.439H263.249C265.589 108.439 267.489 110.266 267.489 112.516V224.902C267.489 227.152 265.589 228.978 263.249 228.978Z" fill="#6ED56C" stroke="#263238" stroke-miterlimit="10" stroke-linecap="round" stroke-linejoin="round"/>
<g opacity="0.5">
<g opacity="0.5">
<path opacity="0.5" d="M265.199 148.626H156.289" stroke="white" stroke-miterlimit="10" stroke-linecap="round" stroke-linejoin="round"/>
<path opacity="0.5" d="M265.199 162.008H156.289" stroke="white" stroke-miterlimit="10" stroke-linecap="round" stroke-linejoin="round"/>
<path opacity="0.5" d="M265.199 175.4H156.289" stroke="white" stroke-miterlimit="10" stroke-linecap="round" stroke-linejoin="round"/>
<path opacity="0.5" d="M265.199 188.792H156.289" stroke="white" stroke-miterlimit="10" stroke-linecap="round" stroke-linejoin="round"/>
<path opacity="0.5" d="M265.199 202.185H156.289" stroke="white" stroke-miterlimit="10" stroke-linecap="round" stroke-linejoin="round"/>
<path opacity="0.5" d="M265.199 215.577H156.289" stroke="white" stroke-miterlimit="10" stroke-linecap="round" stroke-linejoin="round"/>
<path opacity="0.5" d="M265.199 135.233H156.289" stroke="white" stroke-miterlimit="10" stroke-linecap="round" stroke-linejoin="round"/>
<path opacity="0.5" d="M265.199 121.841H156.289" stroke="white" stroke-miterlimit="10" stroke-linecap="round" stroke-linejoin="round"/>
</g>
<g opacity="0.5">
<path opacity="0.5" d="M239.179 226.825V110.593" stroke="white" stroke-miterlimit="10" stroke-linecap="round" stroke-linejoin="round"/>
<path opacity="0.5" d="M224.959 226.825V110.593" stroke="white" stroke-miterlimit="10" stroke-linecap="round" stroke-linejoin="round"/>
<path opacity="0.5" d="M210.749 226.825V110.593" stroke="white" stroke-miterlimit="10" stroke-linecap="round" stroke-linejoin="round"/>
<path opacity="0.5" d="M196.528 226.825V110.593" stroke="white" stroke-miterlimit="10" stroke-linecap="round" stroke-linejoin="round"/>
<path opacity="0.5" d="M182.318 226.825V110.593" stroke="white" stroke-miterlimit="10" stroke-linecap="round" stroke-linejoin="round"/>
<path opacity="0.5" d="M168.099 226.825V110.593" stroke="white" stroke-miterlimit="10" stroke-linecap="round" stroke-linejoin="round"/>
<path opacity="0.5" d="M253.389 226.825V110.593" stroke="white" stroke-miterlimit="10" stroke-linecap="round" stroke-linejoin="round"/>
</g>
</g>
<path d="M206.808 205.424C208.188 198.762 209.788 193.099 211.778 187.62C212.208 186.447 212.688 185.264 213.208 184.014C214.448 180.967 216.988 174.766 216.028 172.91C215.808 172.497 215.378 172.208 214.968 172.208C214.878 172.208 214.828 172.218 214.718 172.305C211.898 174.516 210.078 180.659 208.758 185.139L208.318 186.649C206.548 192.542 205.388 198.781 204.618 205.03" fill="#6ED56C"/>
<path d="M206.808 205.424C208.188 198.762 209.788 193.099 211.778 187.62C212.208 186.447 212.688 185.264 213.208 184.014C214.448 180.967 216.988 174.766 216.028 172.91C215.808 172.497 215.378 172.208 214.968 172.208C214.878 172.208 214.828 172.218 214.718 172.305C211.898 174.516 210.078 180.659 208.758 185.139L208.318 186.649C206.548 192.542 205.388 198.781 204.618 205.03" stroke="#263238" stroke-miterlimit="10" stroke-linecap="round" stroke-linejoin="round"/>
<path d="M210.948 205.694C212.278 199.445 213.778 194.09 215.678 188.927C216.078 187.812 216.548 186.639 217.058 185.408C219.028 180.573 221.488 174.583 219.718 171.151C218.798 169.382 216.938 168.248 214.968 168.248C213.908 168.248 212.938 168.574 212.098 169.238C208.278 172.237 206.338 178.794 204.788 184.053L204.348 185.553C202.578 191.427 201.388 197.618 200.618 203.79" fill="#6ED56C"/>
<path d="M210.948 205.694C212.278 199.445 213.778 194.09 215.678 188.927C216.078 187.812 216.548 186.639 217.058 185.408C219.028 180.573 221.488 174.583 219.718 171.151C218.798 169.382 216.938 168.248 214.968 168.248C213.908 168.248 212.938 168.574 212.098 169.238C208.278 172.237 206.338 178.794 204.788 184.053L204.348 185.553C202.578 191.427 201.388 197.618 200.618 203.79" stroke="#263238" stroke-miterlimit="10" stroke-linecap="round" stroke-linejoin="round"/>
<path d="M215.228 205.319C216.358 200.214 217.728 195.224 219.558 190.235C221.708 184.341 226.548 175.458 223.398 169.382C220.828 164.412 214.088 162.556 209.488 166.171C204.228 170.295 202.148 178.554 200.378 184.457C198.688 190.1 197.508 195.964 196.698 201.819" fill="#6ED56C"/>
<path d="M215.228 205.319C216.358 200.214 217.728 195.224 219.558 190.235C221.708 184.341 226.548 175.458 223.398 169.382C220.828 164.412 214.088 162.556 209.488 166.171C204.228 170.295 202.148 178.554 200.378 184.457C198.688 190.1 197.508 195.964 196.698 201.819" stroke="#263238" stroke-miterlimit="10" stroke-linecap="round" stroke-linejoin="round"/>
<path d="M219.729 204.127C220.799 199.56 222.009 195.484 223.449 191.542C223.799 190.561 224.259 189.465 224.729 188.292C227.299 182.015 230.489 174.189 227.089 167.613C224.799 163.181 220.039 160.326 214.969 160.326C211.999 160.326 209.209 161.287 206.899 163.094C201.059 167.671 198.739 175.564 196.869 181.89L196.439 183.361C194.899 188.475 193.779 193.763 192.969 199.06" fill="#6ED56C"/>
<path d="M219.729 204.127C220.799 199.56 222.009 195.484 223.449 191.542C223.799 190.561 224.259 189.465 224.729 188.292C227.299 182.015 230.489 174.189 227.089 167.613C224.799 163.181 220.039 160.326 214.969 160.326C211.999 160.326 209.209 161.287 206.899 163.094C201.059 167.671 198.739 175.564 196.869 181.89L196.439 183.361C194.899 188.475 193.779 193.763 192.969 199.06" stroke="#263238" stroke-miterlimit="10" stroke-linecap="round" stroke-linejoin="round"/>
<path d="M224.539 201.839C225.379 198.666 226.299 195.714 227.339 192.85C227.679 191.927 228.099 190.869 228.559 189.763C231.279 183.101 234.999 173.997 230.789 165.854C227.809 160.085 221.599 156.355 214.979 156.355C211.049 156.355 207.359 157.624 204.309 160.018C197.469 165.383 194.939 173.929 192.919 180.813L192.489 182.274C191.209 186.552 190.199 190.946 189.419 195.359" fill="#6ED56C"/>
<path d="M224.539 201.839C225.379 198.666 226.299 195.714 227.339 192.85C227.679 191.927 228.099 190.869 228.559 189.763C231.279 183.101 234.999 173.997 230.789 165.854C227.809 160.085 221.599 156.355 214.979 156.355C211.049 156.355 207.359 157.624 204.309 160.018C197.469 165.383 194.939 173.929 192.919 180.813L192.489 182.274C191.209 186.552 190.199 190.946 189.419 195.359" stroke="#263238" stroke-miterlimit="10" stroke-linecap="round" stroke-linejoin="round"/>
<path d="M229.499 197.974C230.449 191.619 235.729 184.082 236.249 175.266C236.729 167.19 233.959 162.018 232.009 159.422C231.039 158.134 230.869 156.47 231.429 154.98C232.309 152.615 233.059 148.654 231.299 143.588" fill="#6ED56C"/>
<path d="M229.499 197.974C230.449 191.619 235.729 184.082 236.249 175.266C236.729 167.19 233.959 162.018 232.009 159.422C231.039 158.134 230.869 156.47 231.429 154.98C232.309 152.615 233.059 148.654 231.299 143.588" stroke="#263238" stroke-miterlimit="10" stroke-linecap="round" stroke-linejoin="round"/>
<path d="M216.969 131.724C223.929 135.906 228.469 142.502 228.789 150.971C228.909 154.019 226.329 155.077 223.099 154.134C216.329 152.154 200.209 147.078 190.379 173.641C188.389 179.015 187.239 184.841 186.229 190.542" fill="#6ED56C"/>
<path d="M216.969 131.724C223.929 135.906 228.469 142.502 228.789 150.971C228.909 154.019 226.329 155.077 223.099 154.134C216.329 152.154 200.209 147.078 190.379 173.641C188.389 179.015 187.239 184.841 186.229 190.542" stroke="#263238" stroke-miterlimit="10" stroke-linecap="round" stroke-linejoin="round"/>
<path d="M203.128 132.157C204.798 132.176 210.178 132.157 215.618 134.974C222.218 138.377 226.378 146.405 224.248 148.453C221.898 150.712 217.518 145.241 204.128 150.52C197.678 153.058 193.118 158.22 190.008 164.094C188.588 166.767 187.448 169.565 186.468 172.42C185.218 176.064 184.218 179.832 183.398 183.62" fill="#6ED56C"/>
<path d="M203.128 132.157C204.798 132.176 210.178 132.157 215.618 134.974C222.218 138.377 226.378 146.405 224.248 148.453C221.898 150.712 217.518 145.241 204.128 150.52C197.678 153.058 193.118 158.22 190.008 164.094C188.588 166.767 187.448 169.565 186.468 172.42C185.218 176.064 184.218 179.832 183.398 183.62" stroke="#263238" stroke-miterlimit="10" stroke-linecap="round" stroke-linejoin="round"/>
<path d="M195.549 137.05C198.309 136.329 200.799 136.156 202.799 136.118C214.619 135.868 219.049 141.915 217.749 143.463C216.659 144.751 214.229 144.03 210.899 144.424C201.279 145.559 193.679 150.818 188.549 158.595C185.969 162.508 184.079 166.786 182.559 171.17C182.279 171.968 182.029 172.766 181.769 173.564" fill="#6ED56C"/>
<path d="M195.549 137.05C198.309 136.329 200.799 136.156 202.799 136.118C214.619 135.868 219.049 141.915 217.749 143.463C216.659 144.751 214.229 144.03 210.899 144.424C201.279 145.559 193.679 150.818 188.549 158.595C185.969 162.508 184.079 166.786 182.559 171.17C182.279 171.968 182.029 172.766 181.769 173.564" stroke="#263238" stroke-miterlimit="10" stroke-linecap="round" stroke-linejoin="round"/>
<path d="M189.968 143.588C195.288 139.598 200.258 139.069 203.938 139.137C205.438 139.165 209.138 139.608 209.638 140.963C210.298 142.751 204.288 140.319 195.568 145.914C184.398 153.077 183.038 159.864 183.038 159.864" fill="#6ED56C"/>
<path d="M189.968 143.588C195.288 139.598 200.258 139.069 203.938 139.137C205.438 139.165 209.138 139.608 209.638 140.963C210.298 142.751 204.288 140.319 195.568 145.914C184.398 153.077 183.038 159.864 183.038 159.864" stroke="#263238" stroke-miterlimit="10" stroke-linecap="round" stroke-linejoin="round"/>
<path d="M234.238 193.167C234.238 193.167 240.288 180.592 239.678 170.862C239.278 164.604 236.068 160.672 235.558 157.884C235.048 155.096 236.458 154.375 236.078 151.856" fill="#6ED56C"/>
<path d="M234.238 193.167C234.238 193.167 240.288 180.592 239.678 170.862C239.278 164.604 236.068 160.672 235.558 157.884C235.048 155.096 236.458 154.375 236.078 151.856" stroke="#263238" stroke-miterlimit="10" stroke-linecap="round" stroke-linejoin="round"/>
<path d="M161.648 133.945V116.179H180.118" fill="#6ED56C"/>
<path d="M161.648 133.945V116.179H180.118" stroke="#263238" stroke-miterlimit="10" stroke-linecap="round" stroke-linejoin="round"/>
<path d="M180.118 221.239H161.648V203.473" fill="#6ED56C"/>
<path d="M180.118 221.239H161.648V203.473" stroke="#263238" stroke-miterlimit="10" stroke-linecap="round" stroke-linejoin="round"/>
<path d="M259.848 133.945V116.179H241.368" fill="#6ED56C"/>
<path d="M259.848 133.945V116.179H241.368" stroke="#263238" stroke-miterlimit="10" stroke-linecap="round" stroke-linejoin="round"/>
<path d="M241.368 221.239H259.848V203.473" fill="#6ED56C"/>
<path d="M241.368 221.239H259.848V203.473" stroke="#263238" stroke-miterlimit="10" stroke-linecap="round" stroke-linejoin="round"/>
<path d="M338.348 384.598C333.528 377.667 328.468 370.322 324.308 364.255C324.298 364.246 324.288 364.236 324.288 364.226C318.978 356.487 315.158 350.844 315.158 350.844C313.128 341.701 310.238 338.105 307.348 330.597C304.468 323.089 306.838 316.397 308.038 307.091C309.218 297.785 307.348 289.132 306.338 283.258C305.318 277.384 306.508 271.827 306.338 270.52C306.168 269.212 300.388 262.358 298.178 257.301C297.188 255.032 295.768 252.926 294.078 251.148C292.018 248.956 289.578 247.264 287.138 246.36C285.888 245.899 284.738 245.629 283.688 245.495C280.988 245.12 278.798 245.543 276.608 245.543C273.548 245.543 267.108 240.486 262.858 239.678C262.068 239.534 261.278 239.419 260.468 239.361H260.438C256.928 239.044 253.248 239.4 249.108 239.678C245.038 239.938 240.218 236.256 236.378 235.083C236.358 235.073 236.338 235.064 236.308 235.054C235.358 234.775 234.458 234.641 233.658 234.775C229.578 235.429 221.938 236.083 221.938 236.083C221.938 236.083 221.258 231.026 220.918 224.162C220.858 222.97 220.768 221.825 220.658 220.701V220.672C220.268 216.442 219.628 212.654 219.528 209.193C219.498 208.289 219.498 207.395 219.558 206.53C219.888 201.646 219.738 197.81 219.578 190.35C219.568 190.09 219.568 189.83 219.558 189.561C219.508 187.225 219.528 184.995 219.408 182.976C219.408 182.966 219.398 182.966 219.398 182.966C219.118 178.082 217.988 174.477 212.938 173.718C208.518 173.064 205.458 175.189 203.598 182.207C201.728 189.234 200.368 188.734 199.868 199.021C199.348 209.308 196.978 215.846 197.318 221.066C197.648 226.286 196.468 236.41 196.468 236.41C194.438 235.429 192.558 236.246 192.208 237.064C191.858 237.881 190.358 245.879 189.158 251.6C188.098 256.676 183.298 261.367 181.518 264.867C181.498 264.896 181.488 264.925 181.478 264.953C181.278 265.357 181.118 265.751 181.018 266.126C179.998 269.712 180.508 277.394 180.508 287.19C180.508 296.977 177.958 307.11 180.508 313.638C181.018 314.936 181.788 316.138 182.758 317.291C186.668 321.935 193.838 325.944 200.378 333.385C208.528 342.691 214.298 349.556 219.738 352.661C223.628 354.872 225.338 356.67 226.048 359.054C226.058 359.073 226.058 359.083 226.058 359.083C226.338 360.025 226.458 361.063 226.508 362.246C226.578 364.323 227.748 365.918 229.738 368.562C231.748 371.235 234.578 374.984 237.908 381.397C240.088 385.579 237.5 375.792 241 384.598H338.348Z" fill="white"/>
<path opacity="0.4" d="M219.549 206.52C219.489 207.386 219.479 208.28 219.519 209.183C213.029 208.001 200.499 211.077 200.309 214.759C200.089 219.249 199.519 229.863 201.899 232.334C204.279 234.804 209.369 236.391 209.369 236.391C208.979 236.42 208.609 236.468 208.249 236.535C208.239 236.535 208.229 236.545 208.229 236.545C208.189 236.554 208.139 236.564 208.109 236.573C206.409 236.919 204.999 237.727 203.859 238.871L203.849 238.881C198.889 243.774 198.669 254.628 200.299 259.849C207.099 281.547 196.079 298.727 192.199 296.651C188.309 294.584 187.969 275.913 189.149 271.539C190.339 267.165 190.189 263.694 190.189 263.694C188.459 263.137 184.819 263.954 181.469 264.944C181.489 264.915 181.499 264.886 181.509 264.857C183.289 261.358 188.089 256.666 189.149 251.59C190.339 245.87 191.849 237.871 192.199 237.054C192.549 236.237 194.419 235.42 196.459 236.4C196.459 236.4 197.639 226.277 197.309 221.057C196.969 215.836 199.339 209.299 199.859 199.012C200.369 188.725 201.719 189.225 203.589 182.197C205.449 175.169 208.509 173.054 212.929 173.708C217.989 174.458 219.109 178.063 219.389 182.957C218.819 182.457 218.209 181.957 217.539 181.524C215.869 180.419 213.929 179.65 211.919 179.919C209.579 180.236 207.519 182.486 206.229 184.889V184.899C204.359 188.35 204.049 192.1 206.689 190.821C209.669 189.388 215.819 189.859 219.569 190.34C219.729 197.81 219.889 201.637 219.549 206.52Z" fill="#868EE0"/>
<path opacity="0.4" d="M226.488 362.227C226.448 361.044 226.328 360.006 226.038 359.064C226.038 359.064 226.038 359.054 226.028 359.035C225.318 356.651 223.608 354.853 219.718 352.642C214.288 349.537 208.508 342.682 200.358 333.366C193.828 325.925 186.648 321.916 182.738 317.272C187.658 319.839 194.338 318.522 196.448 322.57C199.508 328.425 213.888 337.289 213.888 337.289C227.928 350.681 226.488 362.227 226.488 362.227Z" fill="#868EE0"/>
<path opacity="0.4" d="M236.298 235.045C234.648 234.728 230.168 245.341 229.738 249.11C228.618 258.878 233.828 288.988 227.118 288.316C224.348 288.037 221.098 273.972 220.898 267.415C220.298 247.495 221.128 239.227 221.128 239.227C221.128 239.227 219.638 228.2 220.638 220.691C220.748 221.816 220.838 222.96 220.898 224.152C221.238 231.007 221.918 236.074 221.918 236.074C221.918 236.074 229.558 235.42 233.638 234.766C234.458 234.641 235.348 234.766 236.298 235.045Z" fill="#868EE0"/>
<path opacity="0.4" d="M260.439 239.361C256.829 239.679 253.189 243.072 250.239 243.688C246.619 244.428 239.989 236.602 236.379 235.083C240.229 236.256 245.039 239.938 249.109 239.679C253.239 239.4 256.919 239.044 260.439 239.361Z" fill="#868EE0"/>
<path opacity="0.4" d="M283.689 245.495C282.389 246.851 279.999 250.831 279.419 252.629C276.509 261.666 279.259 295.872 274.569 290.277C268.459 282.999 274.839 257.763 270.389 248.12C268.969 245.034 263.949 240.102 262.849 239.688C267.099 240.496 273.549 245.553 276.599 245.553C278.799 245.543 280.999 245.13 283.689 245.495Z" fill="#868EE0"/>
<path opacity="0.4" d="M324.289 364.236C319.529 359.074 314.549 354.171 311.279 352.315C303.339 347.825 301.059 343.172 300.379 335.414C299.699 327.646 301.739 327.828 304.119 320.166C306.499 312.494 302.079 303.015 302.419 305.063C302.749 307.111 299.019 321.31 296.259 322.002C293.499 322.695 292.569 313.138 292.219 305.342C291.879 297.545 296.299 261.223 295.059 254.128C294.859 252.984 294.519 252.004 294.059 251.158C295.739 252.936 297.169 255.032 298.159 257.311C300.369 262.368 306.139 269.232 306.319 270.53C306.489 271.837 305.299 277.384 306.319 283.268C307.329 289.142 309.199 297.795 308.019 307.101C306.829 316.407 304.449 323.098 307.329 330.607C310.219 338.115 313.109 341.711 315.139 350.854C315.159 350.844 318.979 356.487 324.289 364.236Z" fill="#868EE0"/>
<path opacity="0.4" d="M252.609 258.685C254.419 260.512 255.549 284.402 256.569 290.276C257.589 296.151 254.419 310.225 252.609 305.966C250.799 301.707 245.249 251.244 252.609 258.685Z" fill="#868EE0"/>
<path d="M239.5 385C236.5 377.549 239.789 385.022 237.889 381.378C234.559 374.965 231.729 371.216 229.719 368.543C227.739 365.899 226.559 364.313 226.489 362.227C226.449 361.044 226.329 360.006 226.039 359.064C226.039 359.064 226.039 359.054 226.029 359.035C225.319 356.651 223.609 354.853 219.719 352.642C214.289 349.537 208.509 342.682 200.359 333.366C193.829 325.925 186.649 321.916 182.739 317.272C181.769 316.119 180.999 314.907 180.489 313.619C177.939 307.091 180.489 296.968 180.489 287.171C180.489 277.375 179.969 269.703 180.999 266.107C181.099 265.732 181.269 265.338 181.459 264.934C181.479 264.906 181.489 264.877 181.499 264.848C183.279 261.348 188.079 256.657 189.139 251.581C190.329 245.86 191.839 237.862 192.189 237.045C192.539 236.227 194.409 235.41 196.449 236.391C196.449 236.391 197.629 226.267 197.299 221.047C196.959 215.827 199.329 209.289 199.849 199.002C200.359 188.716 201.709 189.215 203.579 182.188C205.439 175.16 208.499 173.045 212.919 173.699C217.979 174.449 219.099 178.054 219.379 182.947C219.379 182.947 219.389 182.947 219.389 182.957C219.509 184.976 219.479 187.206 219.539 189.542C219.549 189.812 219.549 190.081 219.559 190.331C219.719 197.801 219.879 201.627 219.539 206.511C219.479 207.376 219.469 208.27 219.509 209.174C219.609 212.635 220.249 216.423 220.639 220.653V220.682C220.749 221.807 220.839 222.951 220.899 224.143C221.239 230.997 221.919 236.064 221.919 236.064C221.919 236.064 229.559 235.41 233.639 234.756C234.449 234.622 235.339 234.756 236.289 235.035C236.319 235.045 236.339 235.054 236.359 235.064C240.209 236.237 245.019 239.919 249.089 239.66C253.229 239.39 256.909 239.035 260.419 239.342H260.449C261.259 239.41 262.049 239.515 262.839 239.66C267.089 240.467 273.539 245.524 276.589 245.524C278.779 245.524 280.979 245.101 283.669 245.476C284.729 245.62 285.869 245.88 287.119 246.341C289.559 247.245 291.999 248.937 294.059 251.129C295.739 252.907 297.169 255.003 298.159 257.282C300.369 262.339 306.139 269.203 306.319 270.501C306.489 271.808 305.299 277.356 306.319 283.239C307.329 289.113 309.199 297.766 308.019 307.072C306.829 316.378 304.449 323.07 307.329 330.578C310.219 338.087 313.109 341.682 315.139 350.825C315.139 350.825 318.969 356.468 324.269 364.207C324.269 364.217 324.279 364.227 324.289 364.236C327.979 369.61 332.369 376.004 336.679 382.214" stroke="#263238" stroke-miterlimit="10" stroke-linecap="round" stroke-linejoin="round"/>
<path d="M196.459 236.4C196.459 243.582 195.779 252.503 194.649 256.205C193.519 259.906 194.289 272.308 192.199 277.538" stroke="#263238" stroke-miterlimit="10" stroke-linecap="round" stroke-linejoin="round"/>
<path d="M200.309 242.063C200.309 242.063 205.519 236.4 209.369 236.4C213.219 236.4 217.069 238.794 221.139 239.227C225.219 239.659 229.459 236.766 233.369 236.073" stroke="#263238" stroke-miterlimit="10" stroke-linecap="round" stroke-linejoin="round"/>
<path d="M203.249 215.865C203.249 215.865 210.269 213.394 213.889 215.865" stroke="#263238" stroke-miterlimit="10" stroke-linecap="round" stroke-linejoin="round"/>
<path d="M208.568 212.673C208.568 212.673 210.718 212.116 213.888 213.587" stroke="#263238" stroke-miterlimit="10" stroke-linecap="round" stroke-linejoin="round"/>
<path d="M206.699 195.263C206.699 195.263 210.269 194.388 213.899 195.263" stroke="#263238" stroke-miterlimit="10" stroke-linecap="round" stroke-linejoin="round"/>
<path d="M181.519 264.857C181.519 264.857 186.049 262.742 187.859 262.521" stroke="#263238" stroke-miterlimit="10" stroke-linecap="round" stroke-linejoin="round"/>
<path d="M193.408 271.539C193.408 271.539 190.718 275.587 190.188 277.548" stroke="#263238" stroke-miterlimit="10" stroke-linecap="round" stroke-linejoin="round"/>
<path d="M206.699 177.631C206.699 177.631 205.619 185.947 206.699 186.687C207.779 187.427 216.159 188.119 216.839 186.687C217.519 185.255 217.649 179.159 217.649 179.159C217.649 179.159 212.629 170.882 206.699 177.631Z" stroke="#263238" stroke-miterlimit="10" stroke-linecap="round" stroke-linejoin="round"/>
<path d="M189.159 251.59C189.159 251.59 196.099 248.225 196.269 243.409C196.439 238.592 194.389 238.64 191.799 238.612" stroke="#263238" stroke-miterlimit="10" stroke-linecap="round" stroke-linejoin="round"/>
<path d="M297.438 262.521C297.668 270.135 295.398 292.344 295.178 295.612C294.948 298.881 295.178 307.226 295.178 307.226" stroke="#263238" stroke-miterlimit="10" stroke-linecap="round" stroke-linejoin="round"/>
<path d="M247.858 245.091C255.328 255.551 247.858 251.581 252.608 301.486" stroke="#263238" stroke-miterlimit="10" stroke-linecap="round" stroke-linejoin="round"/>
<path d="M315.159 350.844C315.159 350.844 308.539 345.893 307.409 343.066" stroke="#263238" stroke-miterlimit="10" stroke-linecap="round" stroke-linejoin="round"/>
<path d="M222.719 348.498C224.699 351.671 225.969 358.612 226.029 359.035C226.039 359.054 226.039 359.064 226.039 359.064" stroke="#263238" stroke-miterlimit="10" stroke-linecap="round" stroke-linejoin="round"/>
</svg>
