<svg width="642" height="281" viewBox="0 0 642 281" fill="none" xmlns="http://www.w3.org/2000/svg">
<path d="M584.275 237.246C584.275 237.246 559.998 209.305 550.84 181.365C541.682 153.425 546.032 156.63 546.032 156.63C546.032 156.63 558.395 183.774 567.791 196.878C577.178 209.992 593.9 229.224 593.9 229.224L584.275 237.246Z" fill="#455A64"/>
<path d="M589.111 160.989C588.323 159.624 586.244 160.33 586.473 161.886C587.957 171.704 591.153 194.726 591.025 209.672C590.86 229.077 591.034 236.577 591.034 236.577H601.135C601.135 236.577 599.34 196.466 597.059 184.231C595.466 175.66 592.068 166.136 589.111 160.989Z" fill="#455A64"/>
<path d="M594.614 233.317C594.614 233.317 600.97 219.947 602.93 203.152C603.763 196.009 602.279 186.356 600.072 173.471C599.001 167.235 598.763 162.482 598.799 159.194C598.827 156.703 602.105 155.897 603.323 158.068C604.541 160.247 608.076 167.674 608.964 172.336C611.41 185.056 614.184 191.411 612.06 203.481C609.944 215.551 602.114 234.132 602.114 234.132L594.614 233.317Z" fill="#455A64"/>
<path d="M603.717 234.132C603.717 234.132 630.366 176.85 632.216 168.361C634.066 159.863 640.348 140.283 641.081 141.391C641.823 142.499 642.931 152.848 638.123 164.67C633.324 176.493 612.811 235.881 612.811 235.881H603.708" fill="#455A64"/>
<path d="M591.702 231.568C591.693 231.586 591.437 231.403 590.951 231.055C590.475 230.698 589.761 230.194 588.891 229.48C587.114 228.088 584.623 225.963 581.729 223.161C575.914 217.575 568.67 208.957 562.397 198.344C556.106 187.73 551.875 177.354 549.201 169.753C547.864 165.953 546.884 162.839 546.252 160.668C545.922 159.588 545.703 158.745 545.547 158.168C545.391 157.591 545.318 157.289 545.336 157.289C545.355 157.28 545.464 157.573 545.657 158.141C545.858 158.755 546.124 159.579 546.463 160.604C547.159 162.747 548.193 165.833 549.585 169.616C552.351 177.162 556.628 187.482 562.892 198.051C569.146 208.619 576.299 217.236 582.022 222.868C584.87 225.707 587.315 227.859 589.046 229.306C589.898 230.048 590.594 230.579 591.043 230.964C591.473 231.339 591.711 231.55 591.702 231.568Z" fill="#263238"/>
<path d="M594.614 204.085C594.578 204.085 594.495 203.49 594.376 202.4C594.248 201.219 594.083 199.671 593.882 197.812C593.461 193.939 592.801 188.591 591.858 182.72C590.915 176.85 589.862 171.566 589.046 167.757C588.653 165.925 588.323 164.405 588.076 163.242C587.847 162.179 587.737 161.584 587.774 161.575C587.81 161.566 587.993 162.143 588.286 163.196C588.589 164.249 588.982 165.778 589.44 167.674C590.356 171.465 591.473 176.75 592.417 182.638C593.36 188.526 593.955 193.884 594.276 197.776C594.44 199.717 594.541 201.301 594.587 202.391C594.642 203.481 594.651 204.085 594.614 204.085Z" fill="#263238"/>
<path d="M600.86 157.61C600.878 157.601 600.988 157.857 601.171 158.333C601.373 158.874 601.638 159.579 601.968 160.458C602.325 161.383 602.728 162.518 603.113 163.865C603.507 165.211 604.019 166.722 604.404 168.453C604.615 169.313 604.834 170.211 605.063 171.145C605.283 172.079 605.448 173.077 605.65 174.094C606.089 176.127 606.355 178.334 606.675 180.651C607.197 185.294 607.481 190.431 607.316 195.834C607.096 201.228 606.446 206.338 605.595 210.936C605.109 213.225 604.679 215.405 604.102 217.401C603.827 218.399 603.598 219.379 603.305 220.304C603.012 221.22 602.728 222.099 602.453 222.941C601.941 224.636 601.327 226.11 600.833 227.42C600.347 228.738 599.862 229.846 599.45 230.735C599.056 231.586 598.745 232.273 598.497 232.795C598.278 233.262 598.149 233.51 598.131 233.5C598.113 233.491 598.204 233.235 598.397 232.749C598.607 232.218 598.891 231.513 599.248 230.643C599.633 229.737 600.091 228.619 600.539 227.301C600.997 225.982 601.593 224.498 602.078 222.804C602.334 221.962 602.609 221.082 602.893 220.167C603.168 219.251 603.388 218.271 603.653 217.273C604.212 215.276 604.615 213.106 605.091 210.826C605.915 206.247 606.547 201.164 606.758 195.807C606.922 190.44 606.657 185.33 606.172 180.706C605.86 178.398 605.613 176.209 605.201 174.176C605.008 173.16 604.862 172.171 604.651 171.237C604.432 170.303 604.23 169.405 604.029 168.544C603.671 166.823 603.186 165.302 602.82 163.956C602.463 162.601 602.087 161.456 601.776 160.522C601.483 159.625 601.254 158.91 601.08 158.361C600.915 157.885 600.842 157.619 600.86 157.61Z" fill="#263238"/>
<path d="M640.779 142.536C640.788 142.536 640.779 142.628 640.761 142.793C640.733 142.994 640.687 143.242 640.642 143.535C640.523 144.185 640.376 145.155 640.12 146.383C639.607 148.846 638.746 152.39 637.418 156.694C636.09 160.998 634.268 166.044 632.107 171.585C629.955 177.134 627.454 183.169 625.092 189.598C622.692 196.018 620.843 202.282 619.103 207.969C617.381 213.656 615.742 218.766 614.166 222.987C612.6 227.209 611.099 230.533 609.954 232.786C609.404 233.922 608.919 234.764 608.599 235.35C608.452 235.616 608.324 235.827 608.223 236.01C608.141 236.156 608.086 236.23 608.077 236.22C608.067 236.211 608.104 236.138 608.168 235.982C608.26 235.799 608.36 235.57 608.489 235.305C608.773 234.709 609.23 233.849 609.743 232.695C610.815 230.424 612.262 227.09 613.773 222.859C615.302 218.638 616.896 213.527 618.59 207.831C620.302 202.144 622.143 195.853 624.551 189.415C626.923 182.968 629.442 176.933 631.612 171.402C633.792 165.88 635.651 160.861 637.024 156.584C638.407 152.308 639.314 148.791 639.9 146.346C640.193 145.128 640.376 144.166 640.532 143.525C640.605 143.232 640.66 142.994 640.706 142.793C640.742 142.619 640.77 142.536 640.779 142.536Z" fill="#263238"/>
<path d="M558.597 129.88C556.921 128.213 554.128 129.953 554.824 132.224C555.529 134.523 556.6 137.49 558.176 140.833C561.839 148.617 572.599 176.557 577.645 191.906C582.682 207.245 589.779 235.872 589.779 235.872L600.539 234.123C600.539 234.123 590.695 187.089 581.079 170.138C573.341 156.529 565.612 136.849 558.597 129.88Z" fill="#455A64"/>
<path d="M580.576 201.503C580.612 201.494 580.805 201.952 581.134 202.794C581.455 203.637 581.885 204.873 582.371 206.402C583.36 209.47 584.578 213.756 585.796 218.518C587.014 223.28 588.03 227.621 588.735 230.762C589.056 232.246 589.33 233.5 589.541 234.489C589.724 235.368 589.798 235.863 589.761 235.872C589.724 235.881 589.569 235.405 589.321 234.535C589.056 233.555 588.726 232.319 588.332 230.854C587.508 227.621 586.427 223.362 585.228 218.655C584.01 213.902 582.856 209.607 581.968 206.512C581.546 205.056 581.189 203.829 580.905 202.849C580.658 201.997 580.539 201.512 580.576 201.503Z" fill="#263238"/>
<path d="M595.173 235.002C595.164 235.002 595.146 234.902 595.109 234.718C595.072 234.499 595.036 234.215 594.99 233.867C594.88 233.125 594.779 232.017 594.551 230.607C594.157 227.777 593.452 223.711 592.298 218.738C591.153 213.765 589.477 207.923 587.261 201.549C585.054 195.175 582.288 188.288 579.147 181.164C572.819 166.923 566.491 154.295 562.343 144.954C560.245 140.293 558.615 136.492 557.544 133.845C556.994 132.527 556.61 131.483 556.335 130.787C556.216 130.457 556.115 130.201 556.033 129.981C555.969 129.798 555.941 129.706 555.95 129.697C555.96 129.697 556.005 129.779 556.088 129.953C556.179 130.164 556.298 130.42 556.436 130.732C556.756 131.464 557.187 132.472 557.745 133.745C558.881 136.364 560.557 140.137 562.7 144.771C566.949 154.057 573.323 166.658 579.66 180.916C582.801 188.05 585.558 194.965 587.746 201.366C589.935 207.767 591.574 213.637 592.682 218.637C593.79 223.628 594.441 227.722 594.761 230.57C594.953 231.989 595.018 233.098 595.1 233.848C595.127 234.196 595.146 234.48 595.164 234.7C595.182 234.902 595.182 235.002 595.173 235.002Z" fill="#263238"/>
<path d="M600.53 234.132C600.494 234.141 600.366 233.491 600.164 232.328C599.953 231.064 599.67 229.398 599.331 227.383C598.589 223.216 597.453 217.474 595.833 211.229C594.221 204.974 592.407 199.406 591.006 195.413C590.32 193.49 589.752 191.897 589.321 190.688C588.918 189.571 588.717 188.948 588.754 188.939C588.79 188.92 589.065 189.516 589.532 190.615C589.999 191.704 590.64 193.298 591.391 195.285C592.884 199.25 594.77 204.818 596.391 211.091C598.021 217.364 599.093 223.134 599.734 227.328C600.036 229.425 600.274 231.129 600.393 232.31C600.512 233.473 600.567 234.123 600.53 234.132Z" fill="#263238"/>
<path d="M622.61 232.584H580.612V283.749H622.61V232.584Z" fill="#FF725E"/>
<g opacity="0.3">
<path opacity="0.3" d="M622.61 232.584H580.612V283.749H622.61V232.584Z" fill="black"/>
</g>
<path d="M609.212 232.584H571.958V283.749H609.212V232.584Z" fill="#FF725E"/>
<path d="M62.8697 215.437C55.7175 210.858 45.7996 210.767 38.8397 215.639C32.2278 220.263 28.876 228.67 29.1691 236.729C29.4621 244.788 33.3633 254.633 40.6712 258.873L62.1004 258.79C68.9413 253.753 73.5751 245.649 73.8957 237.16C74.2162 228.67 70.0219 220.025 62.8697 215.437Z" fill="#455A64"/>
<path d="M52.32 259.642C52.2742 259.642 52.2284 258.983 52.1826 257.801C52.146 256.483 52.1002 254.798 52.0361 252.774C51.9262 248.534 51.7613 242.673 51.4774 236.198C51.1935 229.724 50.8456 223.872 50.58 219.641C50.4609 217.626 50.3602 215.941 50.2778 214.622C50.2137 213.432 50.2045 212.782 50.2503 212.772C50.2961 212.772 50.3968 213.423 50.5433 214.595C50.6899 215.776 50.8639 217.489 51.0562 219.604C51.4408 223.835 51.8712 229.696 52.1551 236.171C52.439 242.645 52.5306 248.515 52.5123 252.764C52.5031 254.889 52.4756 256.611 52.439 257.792C52.4115 258.992 52.3657 259.642 52.32 259.642Z" fill="#263238"/>
<path d="M31.3305 234.898C31.3122 235.09 30.1491 235.145 28.7297 235.026C27.3102 234.907 26.1655 234.66 26.1838 234.477C26.2021 234.284 27.3652 234.229 28.7846 234.348C30.2041 234.467 31.3396 234.715 31.3305 234.898Z" fill="#263238"/>
<path d="M31.7242 227.672C31.6509 227.846 30.6436 227.572 29.4805 227.05C28.3175 226.537 27.4383 225.978 27.5116 225.804C27.5849 225.63 28.5922 225.905 29.7552 226.427C30.9274 226.94 31.8066 227.498 31.7242 227.672Z" fill="#263238"/>
<path d="M35.4513 222.306C35.3506 222.462 34.2242 221.93 33.052 220.96C31.8798 219.989 31.138 218.982 31.2754 218.853C31.4127 218.725 32.3468 219.494 33.4824 220.429C34.6179 221.372 35.552 222.141 35.4513 222.306Z" fill="#263238"/>
<path d="M39.1879 217.241C39.0139 217.315 38.4736 216.472 37.9791 215.355C37.4846 214.238 37.219 213.267 37.393 213.194C37.567 213.12 38.1073 213.963 38.6018 215.08C39.1055 216.197 39.3619 217.159 39.1879 217.241Z" fill="#263238"/>
<path d="M45.0581 213.642C44.8933 213.725 44.3072 212.818 43.9226 211.573C43.5288 210.327 43.5013 209.256 43.6845 209.219C43.8768 209.183 44.1973 210.163 44.5728 211.362C44.9482 212.571 45.2321 213.569 45.0581 213.642Z" fill="#263238"/>
<path d="M54.8568 209.595C55.0308 209.659 54.93 210.428 54.6095 211.307C54.2981 212.196 53.8952 212.855 53.7212 212.8C53.5472 212.736 53.6479 211.967 53.9685 211.088C54.2798 210.199 54.6828 209.531 54.8568 209.595Z" fill="#263238"/>
<path d="M62.1281 212.717C62.2563 212.855 61.7892 213.496 61.0841 214.146C60.3789 214.796 59.7104 215.208 59.5822 215.071C59.454 214.934 59.9211 214.293 60.6262 213.642C61.3222 212.992 61.9999 212.571 62.1281 212.717Z" fill="#263238"/>
<path d="M68.5203 216.848C68.6302 217.003 68.0532 217.571 67.2473 218.121C66.4414 218.67 65.6997 218.981 65.5898 218.826C65.4799 218.67 66.0477 218.102 66.8627 217.553C67.6777 217.003 68.4195 216.692 68.5203 216.848Z" fill="#263238"/>
<path d="M73.0624 223.002C73.1356 223.176 72.2382 223.725 71.0568 224.229C69.8755 224.733 68.8589 224.998 68.7857 224.824C68.7124 224.65 69.6099 224.101 70.7821 223.597C71.9726 223.093 72.9891 222.828 73.0624 223.002Z" fill="#263238"/>
<path d="M74.8481 229.723C74.8755 229.907 73.9598 230.181 72.815 230.319C71.6703 230.465 70.7179 230.419 70.6996 230.236C70.6721 230.053 71.5879 229.778 72.7326 229.641C73.8773 229.495 74.8297 229.531 74.8481 229.723Z" fill="#263238"/>
<path d="M75.7822 237.993C75.7089 238.167 74.7382 237.911 73.6118 237.425C72.4854 236.94 71.6428 236.4 71.7161 236.226C71.7894 236.052 72.7601 236.308 73.8865 236.793C75.0129 237.279 75.8554 237.819 75.7822 237.993Z" fill="#263238"/>
<path d="M74.9674 245.09C74.9033 245.264 73.6761 244.971 72.394 244.129C71.1028 243.295 70.3427 242.288 70.48 242.16C70.6174 242.022 71.5515 242.764 72.7695 243.552C73.9783 244.349 75.0315 244.907 74.9674 245.09Z" fill="#263238"/>
<path d="M71.2675 251.546C71.1576 251.693 70.1778 251.116 69.2437 250.109C68.3004 249.101 67.8059 248.085 67.9524 247.984C68.1081 247.874 68.8407 248.68 69.7382 249.651C70.6356 250.612 71.3866 251.4 71.2675 251.546Z" fill="#263238"/>
<path d="M36.1841 252.306C36.2757 252.471 35.2409 253.186 33.8947 253.882C32.5393 254.587 31.3763 255.017 31.2847 254.852C31.1931 254.687 32.2279 253.982 33.5741 253.277C34.9295 252.572 36.1017 252.142 36.1841 252.306Z" fill="#263238"/>
<path d="M32.9788 246.464C33.0612 246.638 32.237 247.178 31.1381 247.673C30.0483 248.167 29.0959 248.433 29.0135 248.259C28.9311 248.085 29.7553 247.544 30.8542 247.05C31.9531 246.555 32.9056 246.29 32.9788 246.464Z" fill="#263238"/>
<path d="M30.6252 241.29C30.6527 241.473 29.6362 241.775 28.3633 241.958C27.0903 242.141 26.028 242.132 26.0005 241.949C25.9731 241.766 26.9896 241.464 28.2625 241.281C29.5446 241.097 30.5977 241.097 30.6252 241.29Z" fill="#263238"/>
<path d="M38.3542 238.432C38.4092 238.606 37.4201 239.073 36.1014 239.22C34.7827 239.376 33.7204 239.138 33.7296 238.954C33.7387 238.762 34.7735 238.68 36.019 238.533C37.2736 238.405 38.2993 238.249 38.3542 238.432Z" fill="#263238"/>
<path d="M44.774 232.05C44.829 232.224 44.0414 232.626 42.9791 232.727C41.9168 232.837 41.0743 232.599 41.0926 232.416C41.1109 232.224 41.9259 232.15 42.915 232.05C43.904 231.949 44.7191 231.866 44.774 232.05Z" fill="#263238"/>
<path d="M46.0013 226.93C45.9372 227.113 45.0855 226.976 44.0964 226.637C43.1074 226.298 42.3565 225.877 42.4206 225.694C42.4847 225.52 43.3363 225.648 44.3254 225.987C45.3053 226.335 46.0562 226.756 46.0013 226.93Z" fill="#263238"/>
<path d="M48.3545 221.756C48.2263 221.884 47.6402 221.5 47.219 220.776C46.7977 220.053 46.7611 219.357 46.9351 219.302C47.1182 219.247 47.4387 219.787 47.8051 220.428C48.1805 221.078 48.4919 221.628 48.3545 221.756Z" fill="#263238"/>
<path d="M45.5158 242.938C45.5615 243.122 44.8198 243.46 43.8674 243.689C43.3179 243.827 42.8142 243.891 42.4845 243.891L42.3472 243.488C42.5944 243.442 42.7501 243.451 42.7867 243.524C42.8142 243.598 42.7226 243.726 42.5212 243.872L42.3838 243.47C42.6768 243.314 43.1531 243.149 43.7025 243.012C44.6641 242.801 45.47 242.755 45.5158 242.938Z" fill="#263238"/>
<path d="M46.8346 252.013C46.9078 252.187 45.9646 252.728 44.7374 253.204C43.5103 253.689 42.4571 253.937 42.3839 253.763C42.3106 253.589 43.2539 253.048 44.481 252.572C45.7173 252.087 46.7705 251.83 46.8346 252.013Z" fill="#263238"/>
<path d="M39.5908 247.984C39.6549 248.167 39.023 248.543 38.1896 248.817C37.3563 249.101 36.6328 249.184 36.5687 249.01C36.5046 248.827 37.1365 248.46 37.9698 248.176C38.8032 247.883 39.5266 247.801 39.5908 247.984Z" fill="#263238"/>
<path d="M40.14 229.522C40.0943 229.705 39.0045 229.595 37.7407 229.146C36.4769 228.698 35.5612 228.093 35.6436 227.928C35.726 227.754 36.7425 228.066 37.9697 228.496C39.1968 228.936 40.1858 229.329 40.14 229.522Z" fill="#263238"/>
<path d="M57.6864 227.507C57.7871 227.663 57.1735 228.258 56.3127 228.826C55.4519 229.394 54.6643 229.723 54.5636 229.568C54.4628 229.412 55.0764 228.817 55.9372 228.249C56.7981 227.69 57.5856 227.351 57.6864 227.507Z" fill="#263238"/>
<path d="M58.6389 236.619C58.6755 236.803 58.0345 237.096 57.192 237.27C56.3586 237.444 55.6535 237.434 55.6077 237.251C55.5711 237.068 56.2121 236.775 57.0546 236.601C57.8971 236.427 58.6023 236.436 58.6389 236.619Z" fill="#263238"/>
<path d="M59.7469 246.858C59.6645 247.032 58.7396 246.766 57.6681 246.272C56.5966 245.777 55.7999 245.237 55.8823 245.063C55.9647 244.889 56.8897 245.154 57.9611 245.649C59.0326 246.152 59.8293 246.693 59.7469 246.858Z" fill="#263238"/>
<path d="M57.4026 256.83C57.2561 256.949 56.6517 256.455 56.0564 255.731C55.4611 254.999 55.0948 254.312 55.2322 254.193C55.3787 254.074 55.9831 254.568 56.5784 255.292C57.1828 256.025 57.5491 256.711 57.4026 256.83Z" fill="#263238"/>
<path d="M56.9264 220.804C57.0454 220.95 56.6425 221.454 55.9557 221.793C55.2688 222.141 54.6278 222.159 54.582 221.976C54.527 221.793 55.0307 221.49 55.6443 221.179C56.267 220.877 56.8073 220.657 56.9264 220.804Z" fill="#263238"/>
<path d="M65.5256 229.989C65.5898 230.163 64.793 230.603 63.7032 230.749C62.6135 230.905 61.7343 230.694 61.7435 230.511C61.7526 230.319 62.5952 230.209 63.6117 230.072C64.619 229.934 65.4615 229.806 65.5256 229.989Z" fill="#263238"/>
<path d="M63.8132 221.747C63.8957 221.912 63.1081 222.48 61.9817 222.837C60.8553 223.194 59.8846 223.194 59.8571 223.011C59.8296 222.819 60.6996 222.526 61.7711 222.187C62.8425 221.839 63.7217 221.573 63.8132 221.747Z" fill="#263238"/>
<path d="M67.4028 242.764C67.4028 242.947 66.0474 243.066 64.4174 242.773C62.7873 242.48 61.5601 241.894 61.6242 241.72C61.6883 241.537 62.9613 241.821 64.5364 242.095C66.1115 242.389 67.4028 242.572 67.4028 242.764Z" fill="#263238"/>
<path d="M64.2068 254.742C64.0969 254.889 63.0987 254.303 62.1096 253.305C61.1114 252.306 60.5345 251.308 60.681 251.198C60.8367 251.079 61.6334 251.858 62.595 252.819C63.5474 253.79 64.3258 254.596 64.2068 254.742Z" fill="#263238"/>
<path d="M50.1589 211.994C50.2597 212.141 47.4299 213.285 44.1606 216.738C40.8913 220.108 37.5212 226.06 36.6879 233.249C36.2941 236.821 36.6329 240.282 37.1366 243.369C37.6677 246.455 38.382 249.202 39.0322 251.492C39.6916 253.781 40.296 255.613 40.699 256.876C41.1019 258.149 41.3217 258.854 41.2759 258.873C41.2301 258.891 40.9371 258.213 40.4517 256.968C39.9663 255.722 39.2978 253.909 38.5744 251.629C37.86 249.349 37.0999 246.601 36.523 243.478C35.9735 240.365 35.6072 236.848 36.0102 233.176C36.8618 225.822 40.3876 219.76 43.8126 216.408C45.5159 214.705 47.1186 213.569 48.2908 212.91C48.8585 212.553 49.3439 212.36 49.6644 212.195C49.9758 212.04 50.1406 211.976 50.1589 211.994Z" fill="#263238"/>
<path d="M59.4814 259.303C59.3349 259.23 61.0199 256.629 62.5584 251.958C64.1427 247.334 65.4523 240.493 64.3991 233.066C63.9046 229.357 62.8332 225.923 61.487 222.992C60.0858 220.098 58.2817 217.727 56.5235 216.069C54.7011 214.457 52.9061 213.532 51.6515 212.992C50.3877 212.461 49.6276 212.342 49.6368 212.287C49.6368 212.269 49.8291 212.278 50.1954 212.333C50.5526 212.397 51.0837 212.516 51.7431 212.754C53.0527 213.23 54.9025 214.1 56.8348 215.712C58.7122 217.388 60.5712 219.75 62.0548 222.727C63.4651 225.712 64.5731 229.201 65.0768 232.974C66.1483 240.548 64.738 247.489 63.0163 252.123C62.6317 253.305 62.128 254.321 61.7617 255.228C61.3221 256.107 60.9558 256.876 60.6261 257.481C59.9301 258.68 59.5272 259.33 59.4814 259.303Z" fill="#263238"/>
<path d="M32.979 257.691H70.6999L70.9288 265.237H32.979V257.691Z" fill="#FF725E"/>
<path d="M36.1841 261.464L38.3545 284.505H65.9285L68.1356 261.711L36.1841 261.464Z" fill="#FF725E"/>
<path d="M70.9286 265.329C70.9286 265.521 62.4393 265.668 51.9628 265.668C41.4863 265.668 32.9971 265.512 32.9971 265.329C32.9971 265.146 41.4863 264.99 51.9628 264.99C62.4393 264.99 70.9286 265.137 70.9286 265.329Z" fill="#263238"/>
<path d="M67.0916 272.344C67.1282 272.362 66.8718 272.893 66.2857 273.782C65.6904 274.661 64.7564 275.906 63.3644 277.234L63.1904 277.399L63.0164 277.216C61.2031 275.311 58.7031 272.976 55.626 270.75L56.0473 270.732C54.9942 271.657 53.8952 272.618 52.7688 273.608C51.4318 274.771 50.1314 275.906 48.8951 276.978L48.6845 277.161L48.4738 276.978C46.1294 275 43.9865 273.205 42.1733 271.684L42.5396 271.648C41.2392 273.232 40.1494 274.569 39.2794 275.622C38.4918 276.556 38.0431 277.051 37.9973 277.023C37.9607 276.996 38.3362 276.428 39.0505 275.448C39.8655 274.358 40.9003 272.976 42.1275 271.336L42.2832 271.126L42.4938 271.3C44.3345 272.793 46.5049 274.551 48.8859 276.483L48.4555 276.492C49.6918 275.412 50.9831 274.276 52.3109 273.104C53.4373 272.115 54.5454 271.162 55.5986 270.237L55.8 270.063L56.0107 270.219C59.1152 272.499 61.5969 274.917 63.3644 276.895L63.0164 276.886C65.8278 274.34 66.9909 272.261 67.0916 272.344Z" fill="#263238"/>
<path d="M517.616 304.625H118.41C111.038 304.625 105.067 298.655 105.067 291.283V36.3299C105.067 28.9579 111.038 22.9871 118.41 22.9871H517.616C524.988 22.9871 530.959 28.9579 530.959 36.3299V291.283C530.959 298.655 524.988 304.625 517.616 304.625Z" fill="#455A64"/>
<path d="M514.099 276.355H120.26C118.602 276.355 117.265 275.009 117.265 273.361V42.1818C117.265 40.5243 118.612 39.1873 120.26 39.1873H514.099C515.757 39.1873 517.094 40.5334 517.094 42.1818V273.352C517.094 275.009 515.748 276.355 514.099 276.355Z" fill="#EBEBEB"/>
<path d="M516.664 276.703H116.835L117.265 56.9167H516.664V276.703Z" fill="white"/>
<path d="M150.059 48.345C150.059 50.1124 148.631 51.5411 146.863 51.5411C145.096 51.5411 143.667 50.1124 143.667 48.345C143.667 46.5775 145.096 45.1489 146.863 45.1489C148.631 45.1489 150.059 46.5867 150.059 48.345Z" fill="#263238"/>
<path d="M130.7 48.345C130.7 50.1124 129.271 51.5411 127.504 51.5411C125.736 51.5411 124.308 50.1124 124.308 48.345C124.308 46.5775 125.736 45.1489 127.504 45.1489C129.271 45.1581 130.7 46.5867 130.7 48.345Z" fill="#263238"/>
<path d="M139.995 48.345C139.995 50.1124 138.567 51.5411 136.799 51.5411C135.032 51.5411 133.603 50.1124 133.603 48.345C133.603 46.5775 135.032 45.1489 136.799 45.1489C138.567 45.1581 139.995 46.5867 139.995 48.345Z" fill="#263238"/>
<path d="M517.094 255.476H116.835V276.704H517.094V255.476Z" fill="#263238"/>
<path d="M131.954 268.544V269.222H128.767V268.681L130.489 267.051C130.91 266.648 130.984 266.401 130.984 266.154C130.984 265.76 130.709 265.531 130.178 265.531C129.756 265.531 129.408 265.678 129.161 265.98L128.603 265.55C128.932 265.101 129.537 264.835 130.242 264.835C131.185 264.835 131.789 265.311 131.789 266.081C131.789 266.502 131.67 266.887 131.075 267.445L129.921 268.544H131.954Z" fill="white"/>
<path d="M132.394 266.401C132.394 266.09 132.623 265.888 132.898 265.888C133.172 265.888 133.401 266.09 133.401 266.401C133.401 266.694 133.172 266.914 132.898 266.914C132.623 266.914 132.394 266.694 132.394 266.401ZM132.394 268.755C132.394 268.443 132.623 268.242 132.898 268.242C133.172 268.242 133.401 268.443 133.401 268.755C133.401 269.048 133.172 269.267 132.898 269.267C132.623 269.267 132.394 269.048 132.394 268.755Z" fill="white"/>
<path d="M135.416 264.899V269.222H134.619V265.568H133.704V264.89H135.416V264.899Z" fill="white"/>
<path d="M140.132 268.242H139.363V269.222H138.585V268.242H136.213V267.683L138.347 264.899H139.198L137.193 267.564H138.612V266.694H139.363V267.564H140.132V268.242Z" fill="white"/>
<path d="M475.261 266.511H147.193V268.004H475.261V266.511Z" fill="white"/>
<path d="M249.467 264.899H146.946V268.892H249.467V264.899Z" fill="#FF725E"/>
<path d="M252.782 267.262C252.782 270.018 250.548 272.253 247.791 272.253C245.035 272.253 242.8 270.018 242.8 267.262C242.8 264.505 245.035 262.271 247.791 262.271C250.539 262.271 252.782 264.505 252.782 267.262Z" fill="#FF725E"/>
<path d="M483.522 267.216C483.522 268.077 482.826 268.617 481.938 268.617C480.756 268.617 480.069 267.857 480.069 266.465C480.069 264.982 480.93 264.167 482.185 264.167C482.615 264.167 483.027 264.258 483.32 264.441L483.027 265.046C482.789 264.89 482.505 264.835 482.203 264.835C481.388 264.835 480.875 265.339 480.875 266.328V266.337C481.132 266.035 481.553 265.888 482.029 265.888C482.89 265.888 483.522 266.401 483.522 267.216ZM482.743 267.253C482.743 266.804 482.405 266.52 481.883 266.52C481.361 266.52 481.003 266.831 481.003 267.262C481.003 267.665 481.324 267.994 481.901 267.994C482.395 267.985 482.743 267.701 482.743 267.253Z" fill="white"/>
<path d="M483.915 265.733C483.915 265.421 484.144 265.22 484.419 265.22C484.694 265.22 484.923 265.421 484.923 265.733C484.923 266.026 484.694 266.245 484.419 266.245C484.144 266.245 483.915 266.026 483.915 265.733ZM483.915 268.086C483.915 267.775 484.144 267.573 484.419 267.573C484.694 267.573 484.923 267.775 484.923 268.086C484.923 268.379 484.694 268.599 484.419 268.599C484.144 268.599 483.915 268.379 483.915 268.086Z" fill="white"/>
<path d="M485.445 266.392C485.445 264.972 486.223 264.167 487.249 264.167C488.284 264.167 489.062 264.972 489.062 266.392C489.062 267.811 488.284 268.617 487.249 268.617C486.223 268.617 485.445 267.811 485.445 266.392ZM488.247 266.392C488.247 265.348 487.844 264.863 487.249 264.863C486.663 264.863 486.251 265.348 486.251 266.392C486.251 267.436 486.663 267.921 487.249 267.921C487.844 267.921 488.247 267.436 488.247 266.392Z" fill="white"/>
<path d="M489.594 266.392C489.594 264.972 490.372 264.167 491.398 264.167C492.432 264.167 493.211 264.972 493.211 266.392C493.211 267.811 492.432 268.617 491.398 268.617C490.372 268.617 489.594 267.811 489.594 266.392ZM492.396 266.392C492.396 265.348 491.993 264.863 491.398 264.863C490.812 264.863 490.399 265.348 490.399 266.392C490.399 267.436 490.812 267.921 491.398 267.921C491.993 267.921 492.396 267.436 492.396 266.392Z" fill="white"/>
<path d="M500.198 266.126H498.696V261.813H503V263.306H500.198V266.126Z" fill="white"/>
<path d="M503.009 271.749H498.696V267.445H500.189V270.257H503.009V271.749Z" fill="white"/>
<path d="M509.869 271.749H505.564V270.256H508.376V267.436H509.869V271.749Z" fill="white"/>
<path d="M509.878 266.117H508.385V263.306H505.564V261.813H509.878V266.117Z" fill="white"/>
<path d="M171.663 69.9851H148.1L136.314 90.3886L148.1 110.801H171.663L183.449 90.3886L171.663 69.9851Z" fill="#EBEBEB"/>
<path d="M150.023 94.3815C148.97 93.2184 147.907 92.0371 147.138 90.6634C146.369 89.2897 145.911 87.6963 146.168 86.1395C146.314 85.2329 146.699 84.372 146.763 83.4562C146.845 82.1925 146.314 80.8737 146.763 79.6924C147.459 77.8425 149.95 77.5586 151.461 76.2857C152.633 75.2875 153.21 73.6757 154.501 72.8424C155.628 72.1097 157.084 72.1281 158.411 72.3204C159.739 72.5127 161.086 72.8424 162.413 72.6684C163.366 72.5402 164.254 72.1555 165.188 71.9266C166.122 71.6976 167.157 71.6335 167.981 72.1189C168.806 72.6043 169.273 73.7765 168.732 74.564C170.28 73.8497 172.24 75.0585 172.661 76.6978C173.082 78.3462 172.24 80.1228 170.93 81.2126C169.621 82.3024 167.926 82.806 166.26 83.1174C161.534 84.0057 156.397 83.502 152.322 80.947" fill="#263238"/>
<path d="M171.874 99.4271C171.718 96.5058 170.894 90.5166 170.097 85.1044C169.236 79.28 164.044 75.1041 158.174 75.4979L157.587 75.5345C151.324 76.3221 148.494 82.0823 149.455 88.3279L151.296 110.81H166.59C166.59 110.81 166.232 106.863 166.223 106.827C166.223 106.817 172.203 105.471 171.874 99.4271Z" fill="#FFBE9D"/>
<path d="M166.223 106.726C166.223 106.726 162.423 107.294 158.192 105.013C158.192 105.013 160.344 109.235 166.342 108.292L166.223 106.726Z" fill="#EB996E"/>
<path d="M168.146 90.2882C168.192 90.7461 167.844 91.1582 167.368 91.2131C166.892 91.2681 166.47 90.9476 166.425 90.4897C166.379 90.0318 166.727 89.6197 167.194 89.5647C167.679 89.5098 168.101 89.8303 168.146 90.2882Z" fill="#263238"/>
<path d="M168.989 88.1452C168.888 88.2642 168.202 87.8247 167.277 87.8888C166.352 87.9437 165.701 88.4657 165.592 88.3558C165.537 88.31 165.637 88.0994 165.912 87.8613C166.187 87.6232 166.672 87.3851 167.249 87.3485C167.826 87.3118 168.33 87.495 168.623 87.6965C168.934 87.8888 169.044 88.0902 168.989 88.1452Z" fill="#263238"/>
<path d="M159.373 90.9109C159.419 91.3688 159.071 91.7809 158.595 91.8358C158.119 91.8908 157.698 91.5703 157.652 91.1124C157.606 90.6545 157.954 90.2424 158.421 90.1875C158.906 90.1417 159.328 90.4622 159.373 90.9109Z" fill="#263238"/>
<path d="M159.868 88.9235C159.767 89.0425 159.08 88.603 158.155 88.6671C157.23 88.722 156.58 89.244 156.47 89.1341C156.415 89.0883 156.516 88.8777 156.8 88.6396C157.075 88.4015 157.56 88.1634 158.137 88.1268C158.714 88.0901 159.218 88.2733 159.511 88.4748C159.813 88.6762 159.923 88.8685 159.868 88.9235Z" fill="#263238"/>
<path d="M163.705 95.5903C163.696 95.5353 164.264 95.398 165.198 95.2148C165.436 95.1782 165.656 95.1141 165.683 94.9492C165.729 94.7752 165.61 94.528 165.482 94.2533C165.216 93.6946 164.95 93.1085 164.657 92.4949C163.513 89.9857 162.661 87.9252 162.762 87.8794C162.862 87.8336 163.879 89.83 165.024 92.3393C165.298 92.962 165.564 93.5481 165.82 94.1159C165.93 94.3815 166.104 94.6745 166.004 95.0408C165.949 95.224 165.784 95.3613 165.637 95.4163C165.491 95.4712 165.353 95.4804 165.234 95.4987C164.291 95.5994 163.714 95.6452 163.705 95.5903Z" fill="#263238"/>
<path d="M159.868 85.2695C159.794 85.526 158.86 85.471 157.78 85.6725C156.69 85.8556 155.838 86.2311 155.673 86.0205C155.6 85.9198 155.738 85.6725 156.076 85.3978C156.415 85.1322 156.956 84.8575 157.606 84.7476C158.256 84.6285 158.86 84.6926 159.272 84.83C159.685 84.9673 159.895 85.1505 159.868 85.2695Z" fill="#263238"/>
<path d="M168.467 85.48C168.321 85.6998 167.661 85.5258 166.892 85.5624C166.123 85.5807 165.482 85.8005 165.317 85.5899C165.244 85.4891 165.335 85.2693 165.601 85.0496C165.866 84.8298 166.324 84.6375 166.855 84.6191C167.386 84.6008 167.854 84.7565 168.137 84.958C168.43 85.1594 168.54 85.3701 168.467 85.48Z" fill="#263238"/>
<path d="M150.252 92.7603C150.142 92.7237 146.012 91.8079 146.424 95.938C146.836 100.059 151.305 98.722 151.296 98.603C151.287 98.4748 150.252 92.7603 150.252 92.7603Z" fill="#FFBE9D"/>
<path d="M149.464 97.2386C149.446 97.2294 149.4 97.2935 149.281 97.3668C149.171 97.4309 148.97 97.4858 148.741 97.4309C148.292 97.3118 147.852 96.6616 147.761 95.9199C147.715 95.5444 147.761 95.1781 147.861 94.8759C147.953 94.5645 148.136 94.3356 148.347 94.2715C148.557 94.1982 148.731 94.3172 148.786 94.4271C148.85 94.537 148.832 94.6194 148.86 94.6286C148.869 94.6378 148.942 94.5554 148.887 94.3814C148.86 94.2989 148.805 94.2073 148.695 94.1432C148.585 94.07 148.438 94.0425 148.283 94.0791C147.971 94.1341 147.706 94.4546 147.596 94.7935C147.468 95.1323 147.404 95.5444 147.458 95.9656C147.568 96.7898 148.072 97.5316 148.686 97.6415C148.979 97.6873 149.217 97.5774 149.336 97.4675C149.464 97.3393 149.482 97.2477 149.464 97.2386Z" fill="#EB996E"/>
<path d="M169.785 79.4542C169.501 81.0935 166.177 82.5954 163.411 82.5221C160.866 82.4488 159.611 81.1851 157.761 80.2876C156.589 79.7198 156.589 79.7198 155.005 79.9762C153.723 80.1869 153.054 81.6979 152.331 82.7785C153.704 85.7731 153.146 89.2531 152.569 92.4949C152.505 92.8521 152.422 93.2367 152.147 93.484C151.68 93.8961 150.929 93.6488 150.481 93.2275C149.748 92.559 149.418 91.57 149.18 90.6084C148.631 88.4197 148.429 86.1303 148.768 83.9049C149.116 81.6796 150.032 79.5092 151.561 77.8516C153.466 75.7728 156.241 74.5731 159.062 74.4266C161.873 74.2801 164.703 75.1501 167.056 76.6977C168.146 77.4212 169.172 78.3004 169.785 79.4542Z" fill="#263238"/>
<path d="M164.309 97.6783C163.604 97.3486 162.908 97.0281 162.203 96.6984C162.084 96.6435 161.956 96.5885 161.818 96.5977C161.672 96.616 161.553 96.7259 161.452 96.8449C160.966 97.431 160.838 98.3285 161.223 98.997C161.598 99.6655 162.487 100.014 163.192 99.7205C163.934 99.4091 164.3 98.5483 164.355 97.7424L164.309 97.6783Z" fill="#EB996E"/>
<path d="M163.265 99.8758C163.302 99.9125 162.826 100.215 162.029 99.9857C161.644 99.8667 161.205 99.5736 160.939 99.0974C160.664 98.6304 160.564 97.971 160.802 97.3757C160.912 97.0827 161.095 96.8171 161.315 96.6156C161.424 96.5149 161.534 96.4233 161.672 96.3501C161.809 96.2493 162.093 96.2402 162.221 96.3134C162.697 96.579 163.027 96.808 163.348 97.0186C163.961 97.4307 164.327 97.7054 164.291 97.7695C164.254 97.8245 163.833 97.6505 163.174 97.3116C162.789 97.1102 162.423 96.9179 162.047 96.7255C161.956 96.6981 161.965 96.6981 161.882 96.7439C161.8 96.7988 161.699 96.8721 161.626 96.9545C161.461 97.1193 161.324 97.3208 161.241 97.5497C161.058 98.0076 161.122 98.5113 161.324 98.8959C161.525 99.2806 161.837 99.537 162.148 99.6744C162.789 99.9399 163.256 99.7934 163.265 99.8758Z" fill="#263238"/>
<path d="M162.606 90.3885C162.56 90.3885 162.569 90.0039 162.377 89.3628C162.193 88.7309 161.754 87.806 160.801 87.1009C159.876 86.3957 158.365 86.0019 156.909 86.5514C155.462 87.0551 154.217 88.5936 154.235 90.3885C154.217 92.1834 155.462 93.7219 156.909 94.2256C158.365 94.7751 159.876 94.3813 160.801 93.6762C161.754 92.971 162.203 92.0461 162.377 91.4142C162.569 90.7731 162.56 90.3885 162.606 90.3885C162.624 90.3885 162.633 90.4801 162.642 90.6632C162.651 90.8464 162.633 91.1211 162.56 91.46C162.422 92.1376 162.01 93.145 161.003 93.9417C160.032 94.7384 158.375 95.2147 156.754 94.6377C155.142 94.1066 153.732 92.3941 153.75 90.3885C153.732 88.383 155.142 86.6705 156.754 86.1393C158.384 85.5532 160.032 86.0294 161.003 86.8353C162.01 87.632 162.422 88.6485 162.56 89.317C162.633 89.6559 162.651 89.9306 162.642 90.1138C162.633 90.2969 162.624 90.3885 162.606 90.3885Z" fill="#263238"/>
<path d="M172.89 89.9856C172.844 89.9856 172.844 89.6101 172.67 88.9874C172.496 88.3738 172.066 87.4763 171.132 86.7895C170.234 86.1027 168.76 85.7272 167.34 86.2583C165.93 86.7437 164.721 88.2456 164.74 89.9947C164.721 91.7438 165.939 93.2366 167.34 93.7311C168.76 94.2622 170.234 93.8868 171.132 93.1999C172.066 92.5131 172.496 91.6156 172.67 91.0021C172.853 90.361 172.844 89.9856 172.89 89.9856C172.908 89.9856 172.917 90.0771 172.927 90.2603C172.936 90.4343 172.917 90.6999 172.853 91.0387C172.725 91.6981 172.322 92.6779 171.342 93.4655C170.399 94.2439 168.787 94.711 167.194 94.1432C165.619 93.6212 164.245 91.9545 164.263 89.9947C164.245 88.0349 165.619 86.3682 167.194 85.8462C168.778 85.2785 170.39 85.7455 171.342 86.5239C172.322 87.3023 172.725 88.2914 172.853 88.9507C172.927 89.2804 172.936 89.546 172.927 89.7291C172.917 89.894 172.908 89.9856 172.89 89.9856Z" fill="#263238"/>
<path d="M164.501 89.0334C164.41 89.125 163.998 88.8594 163.448 88.8777C162.899 88.8777 162.505 89.1616 162.404 89.07C162.276 89.0059 162.661 88.4106 163.439 88.3923C164.217 88.3923 164.62 88.9693 164.501 89.0334Z" fill="#263238"/>
<path d="M154.254 89.7749C154.336 89.8848 153.53 90.6083 152.468 91.405C151.406 92.2018 150.472 92.7604 150.398 92.6505C150.316 92.5406 151.122 91.8171 152.184 91.0204C153.246 90.2328 154.171 89.6742 154.254 89.7749Z" fill="#263238"/>
<path d="M239.247 90.1871C239.247 90.3153 228.652 90.4252 215.583 90.4252C202.515 90.4252 191.92 90.3153 191.92 90.1871C191.92 90.0589 202.515 89.949 215.583 89.949C228.661 89.949 239.247 90.0497 239.247 90.1871Z" fill="#263238"/>
<path d="M217.369 95.1321C217.369 95.2603 211.747 95.3702 204.805 95.3702C197.863 95.3702 192.24 95.2603 192.24 95.1321C192.24 95.0039 197.863 94.894 204.805 94.894C211.737 94.894 217.369 95.0039 217.369 95.1321Z" fill="#263238"/>
<path d="M381.018 126.772C381.018 126.772 393.592 132.899 398.015 148.723C402.438 164.548 415.955 205.758 415.955 205.758C415.955 205.758 423.685 214.851 424.518 221.582C425.342 228.313 423.694 244.605 421.203 247.646C418.721 250.686 415.177 250.182 415.177 250.182L382.639 247.096L369.828 161.306L381.018 126.772Z" fill="#4F4494"/>
<path d="M273.424 125.27C273.424 125.27 250.163 132.569 244.366 138.915L263.414 227.535L263.112 255.494H373.408C373.408 254.111 374.398 162.661 374.398 162.661L381.019 126.772L341.814 119.867L334.085 113.795L290.466 116.002L283.836 122.633L273.424 125.27Z" fill="#4F4494"/>
<g opacity="0.3">
<path opacity="0.3" d="M282.261 202.15C281.922 201.399 281.437 200.584 280.631 200.419C279.303 200.144 278.415 201.719 277.966 202.992C274.385 213.139 269.642 222.471 263.478 231.281L263.195 244.889C269.623 239.477 275.961 233.68 280.063 226.345C284.157 219.018 285.723 209.815 282.261 202.15Z" fill="black"/>
</g>
<path d="M244.366 138.924C244.366 138.924 236.701 149.373 233.514 156.196C230.327 163.018 203.953 220.31 202.369 226.225C200.775 232.141 196.682 250.777 208.733 255.1H233.514L258.387 204.796L259.66 146.415L244.366 138.924Z" fill="#4F4494"/>
<path d="M235.108 218.762C235.071 218.799 234.558 218.277 233.413 217.627C232.278 216.986 230.501 216.244 228.212 215.74C227.067 215.493 225.794 215.291 224.42 215.209C223.047 215.127 221.572 215.145 220.071 215.493C217.067 216.161 214.081 218.066 211.728 220.731C209.338 223.396 207.872 226.546 207.002 229.513C206.123 232.49 205.748 235.283 205.51 237.618C205.281 239.962 205.189 241.867 205.107 243.186C205.07 243.8 205.033 244.303 205.015 244.706C204.988 245.054 204.969 245.237 204.951 245.237C204.933 245.237 204.924 245.054 204.924 244.706C204.924 244.303 204.924 243.8 204.933 243.186C204.96 241.867 204.997 239.953 205.18 237.591C205.372 235.237 205.72 232.416 206.581 229.385C207.433 226.372 208.926 223.14 211.371 220.411C213.779 217.682 216.856 215.731 219.979 215.062C221.536 214.714 223.056 214.705 224.448 214.815C225.84 214.916 227.131 215.136 228.285 215.41C230.602 215.96 232.379 216.757 233.505 217.462C234.064 217.819 234.476 218.139 234.732 218.378C234.989 218.616 235.117 218.753 235.108 218.762Z" fill="#263238"/>
<path d="M223.349 208.743C223.349 208.707 223.642 208.661 224.182 208.606C224.723 208.542 225.51 208.523 226.481 208.578C227.452 208.624 228.605 208.789 229.86 209.082C231.106 209.393 232.461 209.851 233.807 210.483C235.144 211.133 236.353 211.894 237.379 212.672C238.395 213.469 239.247 214.256 239.897 214.989C240.547 215.712 241.033 216.335 241.316 216.793C241.61 217.251 241.765 217.507 241.738 217.526C241.664 217.581 240.996 216.582 239.65 215.218C238.981 214.531 238.12 213.78 237.113 213.029C236.087 212.287 234.906 211.555 233.596 210.923C232.278 210.3 230.968 209.851 229.75 209.522C228.523 209.21 227.406 209.018 226.453 208.936C224.558 208.734 223.358 208.835 223.349 208.743Z" fill="#263238"/>
<path d="M245.758 205.987C245.749 206.023 245.346 205.987 244.613 205.895C243.881 205.804 242.818 205.694 241.509 205.593C238.89 205.392 235.245 205.346 231.252 205.822C227.269 206.307 223.734 207.214 221.234 208.02C219.979 208.423 218.972 208.78 218.285 209.045C217.598 209.302 217.204 209.43 217.195 209.403C217.186 209.375 217.543 209.183 218.221 208.871C218.889 208.551 219.878 208.148 221.133 207.699C223.624 206.802 227.177 205.831 231.206 205.346C235.227 204.87 238.917 204.97 241.546 205.254C242.864 205.392 243.927 205.556 244.65 205.703C245.364 205.859 245.767 205.959 245.758 205.987Z" fill="#263238"/>
<path d="M316.346 157.038C316.337 157.047 316.255 156.947 316.09 156.736C315.916 156.498 315.687 156.196 315.412 155.829C314.808 154.987 313.965 153.824 312.921 152.377C310.778 149.355 307.802 145.152 304.286 140.197L304.67 140.142C303.333 144.062 301.859 148.393 300.311 152.945L300.21 153.229L299.963 153.064C299.798 152.963 299.624 152.844 299.45 152.734C297.399 151.434 295.586 149.868 294.056 148.174C292.527 146.47 291.254 144.657 290.201 142.844C288.095 139.208 286.822 135.627 285.961 132.596C285.1 129.556 284.651 127.028 284.358 125.297C284.212 124.464 284.102 123.805 284.01 123.301C283.964 123.072 283.919 122.907 283.891 122.788C283.845 122.687 283.827 122.623 283.836 122.623C283.937 122.578 284.203 123.539 284.541 125.27C284.899 126.992 285.393 129.501 286.291 132.514C287.188 135.518 288.479 139.062 290.586 142.633C291.639 144.419 292.893 146.196 294.404 147.871C295.925 149.529 297.701 151.067 299.707 152.34C299.881 152.45 300.055 152.56 300.21 152.661L299.862 152.789C301.428 148.238 302.912 143.915 304.258 140.005L304.396 139.593L304.643 139.95C308.095 144.941 311.026 149.181 313.132 152.23C314.139 153.705 314.936 154.895 315.522 155.756C315.779 156.141 315.98 156.452 316.145 156.699C316.291 156.91 316.356 157.029 316.346 157.038Z" fill="#263238"/>
<g opacity="0.3">
<path opacity="0.3" d="M345.065 199.338C344.039 209.586 346.301 220.135 351.439 229.055C356.567 237.984 364.095 245.933 373.463 250.21C373.766 241.116 373.326 230.401 373.628 221.308L345.065 199.338Z" fill="black"/>
</g>
<path d="M344.03 187.369C344.03 187.369 340.028 188.477 343.032 196.692C346.036 204.897 347.034 204.403 349.04 212.086C351.045 219.76 353.38 226.775 356.888 231.116C360.395 235.457 373.418 244.303 373.418 244.303L385.103 233.286C385.103 233.286 383.18 225.072 383.638 219.495C384.096 213.917 385.268 200.227 385.103 197.891C384.938 195.556 382.429 189.878 382.429 189.878V185.995L376.421 167.506C376.421 167.506 373.079 166.004 371.916 171.343L369.91 165.674C369.91 165.674 366.742 165.171 365.908 171.682C365.075 178.193 366.577 187.204 366.577 187.204L364.91 198.551L362.41 206.225L360.24 206.555C360.24 206.555 356.97 205.666 355.185 199.512C353.371 193.377 348.536 186.032 344.03 187.369Z" fill="#FFBE9D"/>
<path d="M381.174 216.399C381.165 216.399 381.147 216.253 381.119 215.978C381.101 215.657 381.074 215.254 381.037 214.751C380.973 213.634 380.89 212.086 380.79 210.154C380.607 206.17 380.359 200.62 380.066 194.146L380.121 194.283C379.581 193.642 378.628 193.45 377.759 193.67C376.87 193.88 376.083 194.43 375.588 195.254C374.572 196.893 374.507 199.036 374.196 201.106C373.564 205.785 372.96 210.236 372.41 214.302C372.136 216.326 371.843 218.258 371.44 220.044C371.055 221.83 370.515 223.46 369.993 224.916C369.48 226.372 369.022 227.691 368.738 228.881C368.454 230.072 368.335 231.116 368.363 231.977C368.399 233.698 368.903 234.577 368.821 234.596C368.802 234.605 368.711 234.385 368.537 233.955C368.399 233.515 368.207 232.856 368.17 231.986C368.115 231.116 368.207 230.035 368.473 228.826C368.738 227.617 369.178 226.28 369.672 224.815C370.176 223.35 370.689 221.747 371.055 219.971C371.43 218.203 371.705 216.28 371.971 214.256C372.511 210.19 373.097 205.74 373.72 201.06C373.866 200.016 373.976 198.99 374.16 197.955C374.343 196.93 374.627 195.904 375.194 195.025C375.725 194.127 376.66 193.468 377.649 193.239C378.628 192.992 379.792 193.212 380.46 194.018L380.506 194.082V194.155C380.726 200.629 380.918 206.179 381.055 210.172C381.101 212.104 381.147 213.652 381.174 214.778C381.184 215.282 381.184 215.685 381.184 216.005C381.202 216.253 381.193 216.399 381.174 216.399Z" fill="#EB996E"/>
<path d="M374.791 195.364C374.764 195.373 374.581 195.007 374.297 194.32C374.022 193.633 373.656 192.616 373.317 191.325C372.978 190.043 372.658 188.477 372.474 186.728C372.383 185.849 372.319 184.915 372.429 183.944C372.529 182.973 372.813 181.948 373.436 181.087C373.967 180.336 374.718 179.731 375.57 179.484L375.753 179.429L375.844 179.594C377.539 182.579 379.004 185.217 380.039 187.113C380.515 188.001 380.909 188.743 381.238 189.356C381.513 189.887 381.65 190.18 381.623 190.199C381.595 190.217 381.412 189.942 381.092 189.439C380.735 188.853 380.295 188.129 379.773 187.268C378.665 185.409 377.145 182.808 375.432 179.832L375.707 179.942C374.974 180.162 374.306 180.684 373.83 181.371C373.271 182.158 372.996 183.092 372.896 184.008C372.795 184.933 372.841 185.84 372.923 186.7C373.079 188.431 373.353 189.979 373.656 191.261C373.949 192.543 374.26 193.569 374.48 194.274C374.691 194.961 374.819 195.355 374.791 195.364Z" fill="#EB996E"/>
<path d="M371.998 196.866C371.961 196.866 371.925 196.49 371.888 195.803C371.861 195.016 371.815 194.045 371.769 192.9C371.687 190.446 371.613 187.058 371.558 183.312C371.531 179.567 371.384 176.169 371.705 173.706C371.861 172.479 372.108 171.499 372.328 170.848C372.547 170.189 372.731 169.859 372.758 169.869C372.841 169.896 372.245 171.316 372.035 173.751C371.806 176.178 371.998 179.567 372.025 183.312C372.08 187.058 372.099 190.446 372.099 192.9C372.09 194.045 372.071 195.016 372.062 195.813C372.053 196.49 372.025 196.866 371.998 196.866Z" fill="#EB996E"/>
<path d="M362.117 227.645C362.053 227.59 362.776 226.729 363.683 225.163C364.141 224.385 364.608 223.414 365.038 222.315C365.45 221.198 365.826 219.943 366.082 218.597C366.32 217.242 366.403 215.941 366.403 214.751C366.385 213.56 366.284 212.489 366.128 211.61C365.826 209.833 365.441 208.771 365.524 208.743C365.551 208.734 365.67 208.99 365.853 209.467C366.046 209.943 366.256 210.657 366.458 211.545C366.659 212.443 366.797 213.533 366.842 214.742C366.87 215.96 366.787 217.297 366.549 218.679C366.293 220.062 365.899 221.344 365.45 222.471C364.983 223.588 364.471 224.568 363.967 225.337C363.472 226.106 363.024 226.702 362.676 227.077C362.337 227.471 362.144 227.672 362.117 227.645Z" fill="#EB996E"/>
<path d="M382.63 221.903L392.768 225.42C392.768 225.42 402.448 220.41 409.124 225.42C415.8 230.429 421.597 243.625 419.765 248.964C419.765 248.964 415.159 254.651 411.651 255.485C408.144 256.318 394.517 253.021 388.849 251.822C383.162 250.622 373.399 244.276 373.399 244.276L382.63 221.903Z" fill="#FFBE9D"/>
<path d="M383.876 236.849C383.839 236.849 383.803 236.528 383.766 235.951C383.729 235.264 383.674 234.449 383.619 233.506C383.509 231.436 383.372 228.579 383.326 225.411C383.281 222.242 383.372 219.376 383.564 217.306C383.656 216.271 383.766 215.438 383.867 214.861C383.967 214.284 384.041 213.972 384.077 213.982C384.151 213.991 383.995 215.264 383.894 217.324C383.793 219.385 383.757 222.242 383.803 225.401C383.857 228.497 383.912 231.299 383.949 233.497C383.958 234.532 383.958 235.374 383.94 235.951C383.931 236.528 383.903 236.849 383.876 236.849Z" fill="#EB996E"/>
<path d="M417.311 225.026C417.238 225.099 416.194 223.652 413.941 221.986C411.715 220.319 408.107 218.542 403.84 218.304C399.563 218.075 395.781 219.44 393.391 220.85C390.964 222.26 389.773 223.579 389.709 223.497C389.691 223.478 389.975 223.139 390.543 222.59C391.11 222.041 392.008 221.308 393.217 220.557C395.607 219.046 399.472 217.59 403.867 217.828C408.263 218.075 411.944 219.953 414.151 221.711C415.269 222.59 416.084 223.423 416.587 224.028C417.091 224.641 417.329 225.017 417.311 225.026Z" fill="#263238"/>
<path d="M416.011 216.573C415.946 216.674 414.591 215.3 411.789 214.247C409.032 213.166 404.756 212.672 400.369 213.908C398.18 214.522 396.175 215.392 394.462 216.363C392.75 217.342 391.321 218.414 390.186 219.385C389.05 220.355 388.18 221.207 387.585 221.793C386.99 222.388 386.66 222.709 386.632 222.691C386.614 222.672 386.898 222.306 387.457 221.665C388.015 221.033 388.849 220.145 389.975 219.128C391.092 218.112 392.521 216.994 394.252 215.978C395.983 214.971 398.016 214.064 400.25 213.441C404.747 212.177 409.133 212.745 411.917 213.927C413.327 214.503 414.371 215.172 415.04 215.685C415.388 215.932 415.617 216.17 415.782 216.317C415.937 216.472 416.02 216.564 416.011 216.573Z" fill="#263238"/>
<path d="M416.093 209.247C416.065 209.339 414.298 208.798 411.349 208.405C409.875 208.194 408.107 208.075 406.147 208.075C404.188 208.102 402.036 208.267 399.801 208.643C397.576 209.046 395.497 209.632 393.638 210.273C391.797 210.941 390.176 211.656 388.867 212.361C386.238 213.744 384.755 214.852 384.7 214.778C384.682 214.751 385.039 214.467 385.716 213.963C386.046 213.707 386.467 213.414 386.971 213.103C387.475 212.791 388.043 212.407 388.702 212.068C390.002 211.326 391.632 210.575 393.482 209.87C395.35 209.201 397.457 208.597 399.71 208.185C401.971 207.8 404.151 207.645 406.138 207.645C408.125 207.672 409.911 207.828 411.386 208.084C412.127 208.176 412.787 208.35 413.373 208.469C413.959 208.588 414.454 208.725 414.847 208.844C415.662 209.064 416.102 209.211 416.093 209.247Z" fill="#263238"/>
<path d="M338.398 119.565C338.398 119.565 338.865 120.444 339.103 122.257C339.351 124.061 339.314 126.772 338.719 130.124C338.417 131.799 338.014 133.64 337.409 135.609C336.777 137.578 335.825 139.593 334.744 141.699C332.565 145.912 329.808 150.5 326.631 155.399L326.255 155.976V155.289C326.246 152.056 326.246 148.659 326.237 145.124L326.594 145.298C323.865 147.496 320.999 149.813 318.041 152.203L318.114 152.093C316.136 158.375 314.826 165.372 314.313 172.652C313.48 183.797 314.148 194.457 314.68 204.128C315.128 213.807 315.421 222.535 315.724 229.852C316.017 237.178 316.282 243.094 316.502 247.188C316.621 249.211 316.713 250.796 316.777 251.895C316.813 252.417 316.841 252.82 316.859 253.122C316.878 253.396 316.868 253.543 316.868 253.543C316.868 253.543 316.841 253.406 316.804 253.131C316.777 252.838 316.731 252.426 316.676 251.913C316.575 250.841 316.447 249.248 316.31 247.206C316.035 243.112 315.714 237.196 315.385 229.87C315.055 222.544 314.67 213.826 314.231 204.155C313.681 194.494 312.995 183.807 313.828 172.625C314.35 165.317 315.66 158.284 317.665 151.965L317.683 151.901L317.738 151.855C320.696 149.474 323.572 147.166 326.301 144.968L326.658 144.684V145.142C326.649 148.668 326.649 152.066 326.64 155.308L326.264 155.198C332.556 145.445 337.675 136.964 338.462 130.105C339.094 126.781 339.168 124.098 338.957 122.294C338.865 121.387 338.691 120.719 338.581 120.261C338.462 119.803 338.398 119.565 338.398 119.565Z" fill="#263238"/>
<path d="M321.978 237.7L321.649 237.691C320.321 237.728 319.139 238.937 319.139 240.264C319.139 241.592 320.312 242.81 321.63 242.856C322.958 242.902 324.213 241.766 324.295 240.448C324.387 239.12 323.297 237.829 321.978 237.7Z" fill="white"/>
<path d="M321.978 202.406L321.649 202.397C320.321 202.434 319.139 203.642 319.139 204.97C319.139 206.298 320.312 207.516 321.63 207.562C322.958 207.608 324.213 206.472 324.295 205.153C324.387 203.826 323.297 202.534 321.978 202.406Z" fill="white"/>
<path d="M321.63 170.83C322.958 170.876 324.213 169.74 324.295 168.421C324.387 167.103 323.288 165.811 321.969 165.683L321.64 165.674C320.312 165.711 319.13 166.92 319.13 168.247C319.14 169.566 320.312 170.784 321.63 170.83Z" fill="white"/>
<path d="M282.096 78.2083C278.882 74.6551 275.649 71.0561 273.305 66.8801C270.96 62.7042 269.568 57.8231 270.347 53.0977C270.795 50.332 271.977 47.7038 272.16 44.9106C272.416 41.0644 270.795 37.0441 272.16 33.4451C274.294 27.8131 281.876 26.9431 286.474 23.051C290.054 20.0198 291.794 15.1021 295.741 12.547C299.184 10.3217 303.608 10.3675 307.665 10.9444C311.721 11.5214 315.806 12.547 319.872 11.9976C322.766 11.6038 325.495 10.4408 328.334 9.7356C331.173 9.03045 334.332 8.8473 336.86 10.3125C339.387 11.7778 340.807 15.3676 339.149 17.7761C343.856 15.6057 349.836 19.278 351.127 24.2965C352.419 29.3149 349.836 34.7455 345.843 38.0515C341.851 41.3666 336.695 42.9051 331.603 43.8667C317.18 46.5865 301.538 45.048 289.111 37.2456" fill="#263238"/>
<path d="M332.794 126.699C332.088 121.241 331.511 116.689 331.475 116.121C331.475 116.121 349.717 112.019 348.71 93.575C348.224 84.6644 345.724 66.3764 343.279 49.8649C340.651 32.1354 324.817 19.4061 306.932 20.5966L305.155 20.7157C286.052 23.115 277.426 40.6888 280.356 59.7095L290.659 123.512C290.659 123.512 295.054 137.624 304.469 140.069L316.337 157.029L318.297 149.73L327.143 142.029C327.143 142.029 329.176 139.831 331.502 135.536C333.435 132.019 333.032 128.411 332.794 126.699Z" fill="#FFBE9D"/>
<path d="M331.493 115.847C331.493 115.847 319.908 117.578 307.005 110.627C307.005 110.627 313.571 123.512 331.85 120.618L331.493 115.847Z" fill="#EB996E"/>
<path d="M337.363 65.7171C337.51 67.0999 336.447 68.3637 335 68.5468C333.553 68.7208 332.271 67.7409 332.125 66.3581C331.987 64.9753 333.041 63.7024 334.478 63.5284C335.934 63.3452 337.217 64.3251 337.363 65.7171Z" fill="#263238"/>
<path d="M339.937 59.1783C339.635 59.5446 337.537 58.1985 334.708 58.3999C331.878 58.5556 329.891 60.1491 329.561 59.8285C329.396 59.682 329.689 59.041 330.55 58.3267C331.402 57.6124 332.876 56.8706 334.644 56.7607C336.411 56.6508 337.94 57.2003 338.838 57.8138C339.744 58.4091 340.083 59.0135 339.937 59.1783Z" fill="#263238"/>
<path d="M310.604 67.6311C310.751 69.014 309.689 70.2777 308.242 70.4609C306.795 70.6349 305.513 69.655 305.366 68.2722C305.229 66.8894 306.282 65.6164 307.72 65.4424C309.176 65.2593 310.458 66.2392 310.604 67.6311Z" fill="#263238"/>
<path d="M312.124 61.5687C311.822 61.935 309.725 60.5888 306.895 60.7903C304.066 60.946 302.078 62.5394 301.749 62.2189C301.584 62.0724 301.877 61.4314 302.738 60.717C303.58 60.0027 305.064 59.261 306.822 59.1511C308.59 59.0412 310.119 59.5906 311.016 60.2042C311.941 60.7995 312.28 61.4039 312.124 61.5687Z" fill="#263238"/>
<path d="M323.81 81.8898C323.782 81.7341 325.522 81.3037 328.352 80.7543C329.066 80.6352 329.744 80.4429 329.836 79.9392C329.973 79.4081 329.616 78.648 329.213 77.8238C328.416 76.1204 327.583 74.3347 326.704 72.4573C323.205 64.8106 320.623 58.51 320.934 58.3726C321.246 58.2353 324.332 64.316 327.821 71.9628C328.664 73.8493 329.469 75.6442 330.239 77.3659C330.568 78.1718 331.1 79.0692 330.806 80.1773C330.651 80.7268 330.147 81.1572 329.689 81.3129C329.231 81.4869 328.828 81.5235 328.471 81.5693C325.614 81.9173 323.837 82.0455 323.81 81.8898Z" fill="#263238"/>
<path d="M312.115 50.4143C311.886 51.2019 309.038 51.0279 305.741 51.6506C302.435 52.2092 299.816 53.3631 299.331 52.6946C299.111 52.3741 299.532 51.6231 300.567 50.7989C301.593 49.9839 303.26 49.1597 305.238 48.8025C307.216 48.4545 309.066 48.6469 310.311 49.059C311.556 49.4802 312.207 50.048 312.115 50.4143Z" fill="#263238"/>
<path d="M338.343 51.0462C337.885 51.7239 335.889 51.1836 333.544 51.3118C331.191 51.3576 329.24 52.0353 328.737 51.3942C328.517 51.0829 328.782 50.4143 329.616 49.7458C330.431 49.0865 331.832 48.4912 333.444 48.4271C335.055 48.3722 336.493 48.8575 337.354 49.4619C338.224 50.0755 338.545 50.7165 338.343 51.0462Z" fill="#263238"/>
<path d="M282.783 73.2629C282.463 73.1438 269.871 70.3598 271.116 82.9426C272.362 95.5163 285.988 91.4227 285.979 91.0564C285.961 90.6901 282.783 73.2629 282.783 73.2629Z" fill="#FFBE9D"/>
<path d="M280.402 86.9265C280.347 86.8898 280.201 87.1005 279.843 87.3111C279.495 87.5126 278.891 87.6866 278.213 87.5034C276.84 87.1462 275.512 85.1499 275.228 82.8879C275.081 81.7432 275.219 80.6351 275.53 79.6918C275.823 78.7302 276.354 78.0343 277.014 77.8511C277.664 77.6313 278.177 77.9885 278.369 78.3273C278.571 78.6661 278.516 78.9226 278.589 78.9317C278.625 78.9592 278.836 78.6936 278.69 78.1808C278.616 77.9335 278.433 77.6496 278.113 77.439C277.783 77.2192 277.334 77.146 276.867 77.2375C275.906 77.4024 275.118 78.3822 274.77 79.4171C274.367 80.4611 274.193 81.7157 274.358 82.9978C274.688 85.5253 276.217 87.769 278.094 88.1078C279.001 88.2543 279.715 87.9155 280.063 87.5767C280.402 87.2287 280.448 86.9448 280.402 86.9265Z" fill="#EB996E"/>
<path d="M342.363 32.6848C341.503 37.6941 331.347 42.273 322.931 42.0349C315.174 41.806 311.337 37.9597 305.696 35.2215C302.124 33.4907 302.124 33.4907 297.289 34.2783C293.369 34.9193 291.345 39.5348 289.138 42.8408C293.324 51.9711 291.629 62.585 289.862 72.4754C289.67 73.5651 289.422 74.7465 288.589 75.4791C287.179 76.7246 284.88 75.9828 283.497 74.7099C281.272 72.6677 280.255 69.6456 279.532 66.7243C277.874 60.0574 277.233 53.07 278.286 46.275C279.34 39.4799 282.151 32.8863 286.794 27.8129C292.591 21.4757 301.071 17.8217 309.652 17.3822C318.233 16.9426 326.85 19.5983 334.03 24.3054C337.363 26.4758 340.477 29.1682 342.363 32.6848Z" fill="#263238"/>
<path d="M325.66 88.2544C323.526 87.2562 321.383 86.258 319.249 85.2689C318.883 85.0949 318.489 84.921 318.086 84.9759C317.628 85.04 317.271 85.3788 316.978 85.7268C315.495 87.5309 315.119 90.2416 316.264 92.2747C317.418 94.3077 320.119 95.3791 322.281 94.4817C324.552 93.5384 325.66 90.901 325.834 88.4467L325.66 88.2544Z" fill="#EB996E"/>
<path d="M322.482 94.9395C322.5 94.9945 322.189 95.1776 321.548 95.315C320.916 95.434 319.927 95.489 318.791 95.1135C317.665 94.7563 316.392 93.8772 315.604 92.4669C314.808 91.0932 314.515 89.1609 315.211 87.4118C315.54 86.5418 316.062 85.7726 316.694 85.1681C317.015 84.8659 317.354 84.6095 317.738 84.3806C317.94 84.2707 318.187 84.1608 318.48 84.1425C318.764 84.1242 319.02 84.1974 319.222 84.289C319.643 84.4722 319.909 84.6736 320.22 84.8568C320.522 85.0399 320.806 85.2231 321.09 85.3971C321.639 85.7451 322.161 86.0656 322.647 86.377C324.552 87.5858 325.687 88.3825 325.623 88.5016C325.559 88.6115 324.295 88.0162 322.308 86.9631C321.804 86.6883 321.264 86.3953 320.687 86.0839C320.394 85.9191 320.092 85.7542 319.79 85.5894C319.487 85.4246 319.148 85.2139 318.883 85.1132C318.59 85.0125 318.462 85.0216 318.178 85.1773C317.894 85.3513 317.592 85.5894 317.335 85.8458C316.804 86.3678 316.374 87.018 316.09 87.7598C315.504 89.2342 315.714 90.8368 316.365 92.0548C317.006 93.2819 318.04 94.0878 319.011 94.4908C319.991 94.9029 320.888 94.9578 321.493 94.9578C322.116 94.9303 322.464 94.8662 322.482 94.9395Z" fill="#263238"/>
<path d="M320.467 66.0285C320.394 66.0377 320.477 64.8563 319.964 62.8416C319.46 60.8727 318.141 57.9697 315.174 55.7169C313.7 54.6179 311.85 53.693 309.716 53.3175C307.601 52.9604 305.201 53.0245 302.93 53.8945C301.785 54.2974 300.677 54.8927 299.67 55.6528C298.644 56.3945 297.71 57.3195 296.941 58.3909C295.357 60.5064 294.459 63.2171 294.432 66.0102C294.459 68.8033 295.348 71.5232 296.941 73.6386C297.71 74.7101 298.644 75.635 299.67 76.386C300.687 77.1461 301.785 77.7505 302.93 78.1443C305.201 79.0142 307.601 79.0784 309.716 78.7212C311.85 78.3457 313.7 77.4208 315.174 76.3219C318.141 74.0782 319.46 71.1752 319.964 69.1971C320.477 67.2007 320.385 66.0285 320.467 66.0285C320.477 66.0285 320.477 66.1018 320.477 66.2391C320.477 66.4131 320.467 66.6146 320.467 66.8619C320.467 67.1366 320.449 67.4755 320.385 67.8784C320.33 68.2813 320.284 68.7392 320.138 69.2521C319.927 70.2777 319.46 71.4957 318.718 72.7961C317.967 74.0874 316.878 75.4427 315.376 76.5966C313.883 77.7413 311.987 78.712 309.789 79.115C307.61 79.4996 305.137 79.4447 302.784 78.5655C301.593 78.1626 300.448 77.5399 299.395 76.7523C298.333 75.983 297.362 75.0306 296.566 73.9225C294.917 71.7338 293.983 68.9224 293.956 66.0194C293.983 63.1164 294.917 60.3049 296.566 58.1162C297.362 57.0081 298.333 56.0557 299.395 55.2864C300.448 54.508 301.593 53.8853 302.784 53.4824C305.137 52.5941 307.61 52.5391 309.789 52.9329C311.987 53.3358 313.883 54.3157 315.376 55.4513C316.878 56.6052 317.967 57.9605 318.718 59.2518C319.46 60.5522 319.927 61.7702 320.138 62.7958C320.284 63.2995 320.33 63.7665 320.385 64.1695C320.449 64.5724 320.467 64.9113 320.467 65.186C320.467 65.4333 320.477 65.6439 320.477 65.8087C320.477 65.9553 320.467 66.0285 320.467 66.0285Z" fill="#263238"/>
<path d="M351.823 64.8012C351.75 64.8103 351.833 63.6565 351.329 61.6967C350.834 59.7736 349.552 56.9438 346.658 54.7642C345.23 53.6928 343.426 52.7862 341.347 52.429C339.286 52.081 336.951 52.1451 334.735 52.9968C333.618 53.3814 332.546 53.9675 331.557 54.7093C330.559 55.4328 329.652 56.3394 328.901 57.3834C327.354 59.4439 326.484 62.0813 326.456 64.8103C326.484 67.5394 327.354 70.1768 328.892 72.2373C329.643 73.2813 330.55 74.1787 331.548 74.9114C332.537 75.6531 333.609 76.2393 334.726 76.6239C336.942 77.4664 339.268 77.5396 341.338 77.1825C343.417 76.8162 345.221 75.9096 346.649 74.8473C349.543 72.6586 350.825 69.838 351.311 67.9148C351.833 65.9367 351.75 64.792 351.823 64.8012C351.842 64.8012 351.842 65.0851 351.833 65.6162C351.833 65.8818 351.823 66.2206 351.759 66.6053C351.704 66.999 351.659 67.4478 351.521 67.9423C351.072 69.9021 349.818 72.8234 346.878 75.1037C345.422 76.2209 343.572 77.1733 341.429 77.558C339.305 77.9334 336.896 77.8785 334.598 77.0177C333.444 76.6239 332.326 76.0195 331.301 75.2502C330.266 74.4993 329.323 73.5743 328.544 72.4937C326.933 70.3599 326.026 67.6218 326.008 64.792C326.035 61.9623 326.942 59.2241 328.553 57.0903C329.332 56.0097 330.275 55.0756 331.31 54.3338C332.336 53.5737 333.453 52.9693 334.607 52.5755C336.905 51.7147 339.314 51.6598 341.438 52.0352C343.581 52.429 345.431 53.3814 346.887 54.4895C349.827 56.7698 351.082 59.682 351.53 61.6509C351.668 62.1454 351.723 62.5941 351.768 62.9879C351.833 63.3726 351.851 63.7114 351.842 63.977C351.842 64.5173 351.842 64.8012 351.823 64.8012Z" fill="#263238"/>
<path d="M326.237 61.8983C326.182 61.9533 325.879 61.6968 325.33 61.4313C324.78 61.1657 323.956 60.9093 323.022 60.9276C322.097 60.9368 321.273 61.2298 320.733 61.5137C320.183 61.7976 319.899 62.0632 319.844 62.0174C319.799 61.9807 320.009 61.6144 320.559 61.2298C321.099 60.8452 321.978 60.4697 323.013 60.4514C324.039 60.4331 324.936 60.7719 325.495 61.1382C326.044 61.5137 326.273 61.8617 326.237 61.8983Z" fill="#263238"/>
<path d="M294.99 64.1694C295.073 64.2793 292.499 66.3306 289.248 68.7483C285.997 71.1751 283.305 73.0524 283.223 72.9517C283.14 72.8418 285.714 70.7996 288.965 68.3728C292.216 65.9368 294.917 64.0595 294.99 64.1694Z" fill="#263238"/>
<g opacity="0.3">
<path opacity="0.3" d="M284.157 123.768C282.884 136.195 287.609 149.319 297.573 156.846C298.351 157.441 299.34 158.018 300.256 157.689C300.897 157.46 301.309 156.846 301.648 156.251C304.487 151.333 305.439 145.903 304.624 140.28C303.049 144.437 301.694 148.513 300.1 152.863C291.41 147.597 285.997 136.388 284.157 123.768Z" fill="black"/>
</g>
<path opacity="0.3" d="M317.903 152.029L325.22 149.355L326.429 161.727C326.429 161.727 334.323 147.34 337.592 140.774C340.862 134.208 339.177 122.623 339.177 122.623C339.177 122.623 340.349 132.715 332.436 145.582L326.466 155.289V145.124L317.903 152.029Z" fill="black"/>
<g opacity="0.3">
<path opacity="0.3" d="M232.809 214.907C229.549 213.368 225.794 213.158 222.214 213.579C218.431 214.018 214.631 215.181 211.664 217.572C208.697 219.962 206.691 223.735 207.058 227.526L207.424 227.581C209.979 220.676 215.052 215.648 221.6 215.035C228.148 214.43 234.531 217.343 239.027 222.141C238.588 218.551 236.069 216.445 232.809 214.907Z" fill="black"/>
</g>
<g opacity="0.3">
<path opacity="0.3" d="M417.787 221.967C415.333 219.32 411.889 217.718 408.336 217.095C402.1 216.005 395.405 217.947 390.708 222.196L392.099 221.06C395.644 218.982 399.728 217.754 403.84 217.873C407.942 217.993 412.054 219.513 415.031 222.342C417.769 224.952 419.408 228.469 420.974 231.903C421.588 228.35 420.232 224.614 417.787 221.967Z" fill="black"/>
</g>
<path d="M370.634 164.511C370.606 164.502 370.725 164.145 370.963 163.513C371.247 162.79 371.595 161.901 372.007 160.848C372.896 158.605 374.105 155.5 375.396 152.057C376.678 148.604 377.786 145.463 378.583 143.183C378.958 142.121 379.279 141.223 379.535 140.49C379.764 139.859 379.911 139.511 379.938 139.52C379.966 139.529 379.883 139.895 379.709 140.545C379.535 141.196 379.26 142.139 378.903 143.293C378.189 145.6 377.127 148.769 375.845 152.222C374.562 155.674 373.29 158.76 372.328 160.976C371.843 162.084 371.44 162.973 371.147 163.586C370.835 164.191 370.661 164.52 370.634 164.511Z" fill="#263238"/>
<path d="M255.181 165.409C255.053 165.436 254.055 161.077 252.956 155.674C251.857 150.271 251.07 145.875 251.198 145.848C251.326 145.82 252.324 150.179 253.423 155.582C254.522 160.986 255.31 165.381 255.181 165.409Z" fill="#263238"/>
<path d="M253.451 219.889C253.744 220.035 250.099 191.353 250.099 191.353C250.099 191.353 252.398 169.585 253.689 168.578L253.726 160.894C253.726 160.894 257.288 158.733 258.24 162.222C258.24 162.222 261.4 159.484 261.949 166.004C262.499 172.525 262.618 179.201 262.618 179.201L269.642 196.765L270.796 197.351C270.796 197.351 272.307 183.587 273.186 181.563C274.065 179.539 274.669 174.613 277.994 175.354C281.327 176.096 281.602 178.853 281.007 183.34C280.411 187.827 279.66 192.461 279.944 195.364C280.219 198.267 281.538 204.65 281.135 209.714C280.732 214.788 277.957 220.136 275.036 223.891C272.124 227.645 266.556 235.411 263.524 237.755C262.462 238.57 253.451 219.889 253.451 219.889Z" fill="#FFBE9D"/>
<path d="M256.995 196.545C256.958 196.545 256.967 196.106 257.013 195.318C257.077 194.439 257.151 193.322 257.242 191.985C257.453 189.173 257.782 185.29 258.176 181.005C258.378 178.871 258.57 176.829 258.744 174.97C258.836 174.045 258.891 173.175 258.771 172.378C258.662 171.581 258.35 170.894 257.892 170.4C256.967 169.392 255.768 169.136 255.026 169.145C254.248 169.136 253.845 169.347 253.826 169.301C253.817 169.283 253.918 169.237 254.11 169.154C254.312 169.081 254.614 168.99 255.017 168.962C255.804 168.907 257.086 169.109 258.14 170.18C258.662 170.711 259.028 171.48 259.156 172.323C259.303 173.175 259.248 174.081 259.174 175.015C259.01 176.884 258.826 178.917 258.643 181.059C258.249 185.345 257.865 189.219 257.572 192.021C257.416 193.349 257.288 194.466 257.187 195.336C257.105 196.115 257.031 196.545 256.995 196.545Z" fill="#EB996E"/>
<path d="M260.777 184.814C260.841 184.869 260.063 185.556 259.532 187.076C258.964 188.569 258.762 190.822 258.36 193.267C257.984 195.721 257.609 197.937 257.325 199.531C257.032 201.133 256.821 202.113 256.757 202.104C256.693 202.095 256.784 201.087 256.995 199.476C257.197 197.864 257.517 195.639 257.893 193.184C258.286 190.748 258.543 188.486 259.22 186.939C259.541 186.169 259.926 185.611 260.237 185.263C260.539 184.933 260.759 184.796 260.777 184.814Z" fill="#EB996E"/>
<path d="M258.195 161.837C258.231 161.828 258.314 162.149 258.442 162.744C258.57 163.33 258.726 164.182 258.9 165.244C259.248 167.359 259.632 170.299 259.88 173.568C260.118 176.838 260.173 179.805 260.136 181.948C260.118 183.019 260.09 183.889 260.045 184.485C260.008 185.08 259.971 185.409 259.935 185.409C259.861 185.409 259.852 184.082 259.797 181.948C259.742 179.805 259.642 176.856 259.404 173.605C259.165 170.354 258.836 167.414 258.57 165.29C258.305 163.165 258.121 161.856 258.195 161.837Z" fill="#EB996E"/>
<path d="M278.461 188.734C278.534 188.844 277.435 189.347 276.098 188.935C274.752 188.532 274.129 187.497 274.248 187.452C274.358 187.36 275.054 188.138 276.235 188.486C277.407 188.853 278.424 188.596 278.461 188.734Z" fill="#EB996E"/>
<path d="M253.845 216.317L235.282 224.12H224.219C224.219 224.12 213.285 227.535 211.6 237.783C209.915 248.04 209.677 253.315 214.484 254.578C219.292 255.842 232.873 255.989 239.604 253.754C246.335 251.52 263.964 237.288 263.964 237.288L265.667 226.995L253.845 216.317Z" fill="#FFBE9D"/>
<path d="M258.194 227.645C258.167 227.663 257.984 227.498 257.663 227.159C257.334 226.839 256.931 226.308 256.454 225.63C255.539 224.256 254.531 222.178 253.863 219.76C253.167 217.342 252.874 215.08 252.718 213.45C252.581 211.82 252.581 210.804 252.645 210.794C252.718 210.785 252.828 211.793 253.048 213.404C253.286 215.016 253.634 217.242 254.311 219.623C254.971 222.013 255.905 224.055 256.729 225.447C257.581 226.839 258.258 227.59 258.194 227.645Z" fill="#EB996E"/>
<path d="M266.272 230.905C266.171 230.869 267.004 229.458 267.325 226.922C267.48 225.667 267.462 224.138 267.105 222.498C266.748 220.859 265.969 219.174 264.834 217.599C263.707 216.015 262.434 214.641 261.372 213.313C260.292 211.985 259.431 210.694 258.863 209.522C258.295 208.35 258.03 207.315 257.929 206.591C257.837 205.868 257.874 205.465 257.901 205.465C257.993 205.447 257.965 207.104 259.165 209.366C259.751 210.493 260.63 211.738 261.711 213.029C262.792 214.33 264.074 215.703 265.228 217.315C266.391 218.918 267.206 220.694 267.544 222.389C267.892 224.083 267.865 225.667 267.664 226.949C267.462 228.24 267.105 229.239 266.812 229.898C266.674 230.228 266.537 230.475 266.436 230.64C266.345 230.832 266.29 230.914 266.272 230.905Z" fill="#EB996E"/>
<path d="M237.663 186.206C237.544 186.27 235.52 182.579 233.139 177.973C230.758 173.367 228.926 169.584 229.036 169.52C229.155 169.456 231.179 173.147 233.56 177.753C235.941 182.369 237.772 186.151 237.663 186.206Z" fill="white"/>
<path d="M267.682 152.799C267.563 152.744 268.817 149.676 270.475 145.939C272.142 142.203 273.588 139.218 273.707 139.272C273.827 139.327 272.572 142.395 270.914 146.132C269.248 149.859 267.801 152.844 267.682 152.799Z" fill="white"/>
<path d="M297.069 174.484C296.968 174.567 295.082 172.46 292.866 169.777C290.64 167.094 288.928 164.85 289.029 164.768C289.129 164.685 291.016 166.792 293.232 169.475C295.457 172.158 297.17 174.402 297.069 174.484Z" fill="white"/>
<path d="M290.311 204.311C290.201 204.238 291.62 202.095 293.479 199.531C295.338 196.966 296.932 194.952 297.032 195.034C297.142 195.107 295.723 197.25 293.864 199.815C292.005 202.37 290.421 204.384 290.311 204.311Z" fill="white"/>
<path d="M281.208 246.446C281.153 246.474 280.732 245.778 280.136 244.605C279.532 243.433 278.754 241.794 277.975 239.953C277.188 238.103 276.556 236.409 276.125 235.164C275.704 233.918 275.484 233.131 275.548 233.112C275.612 233.094 275.942 233.836 276.446 235.045C277.023 236.418 277.682 238.012 278.415 239.77C279.166 241.519 279.852 243.094 280.448 244.468C280.961 245.659 281.272 246.409 281.208 246.446Z" fill="white"/>
<path d="M307.069 228.533C307.042 228.661 304.551 228.286 301.511 227.7C298.461 227.114 296.016 226.528 296.043 226.399C296.071 226.271 298.562 226.647 301.602 227.233C304.643 227.819 307.097 228.405 307.069 228.533Z" fill="white"/>
<path d="M327.125 189.164C327.024 189.072 329.405 186.362 332.428 183.092C335.45 179.832 337.986 177.259 338.078 177.351C338.179 177.442 335.798 180.153 332.776 183.422C329.753 186.682 327.226 189.256 327.125 189.164Z" fill="white"/>
<path d="M347.309 241.666C347.208 241.748 344.25 238.323 340.697 234.01C337.144 229.696 334.35 226.134 334.451 226.052C334.552 225.969 337.51 229.394 341.063 233.707C344.616 238.021 347.409 241.583 347.309 241.666Z" fill="white"/>
<path d="M222.04 219.293C222.104 219.421 219.402 220.795 216.453 223.057C213.495 225.301 211.453 227.553 211.343 227.453C211.297 227.416 211.746 226.802 212.589 225.896C213.422 224.998 214.668 223.826 216.16 222.681C217.653 221.546 219.118 220.658 220.208 220.081C221.307 219.513 222.012 219.238 222.04 219.293Z" fill="white"/>
<path d="M229.585 199.054C229.695 199.128 228.734 200.767 227.433 202.717C226.133 204.668 224.997 206.188 224.887 206.115C224.778 206.042 225.739 204.402 227.04 202.452C228.34 200.501 229.476 198.981 229.585 199.054Z" fill="white"/>
<path d="M246.591 218.927C246.491 218.991 245.529 217.388 245.034 215.163C244.522 212.947 244.696 211.088 244.815 211.097C244.961 211.097 245.007 212.901 245.501 215.053C245.978 217.214 246.719 218.863 246.591 218.927Z" fill="white"/>
<path d="M249.11 155.811C249.128 155.94 247.553 156.278 245.584 156.553C243.615 156.837 242.004 156.956 241.985 156.819C241.967 156.691 243.542 156.352 245.511 156.077C247.48 155.802 249.092 155.674 249.11 155.811Z" fill="white"/>
<path d="M261.876 133.164C261.94 133.283 260.557 134.172 258.789 135.151C257.022 136.131 255.529 136.837 255.474 136.717C255.41 136.598 256.793 135.71 258.56 134.73C260.328 133.75 261.811 133.054 261.876 133.164Z" fill="white"/>
<path d="M297.783 142.734C297.683 142.817 296.098 140.912 294.249 138.485C292.399 136.058 290.988 134.034 291.098 133.952C291.199 133.87 292.783 135.774 294.633 138.201C296.474 140.619 297.884 142.652 297.783 142.734Z" fill="white"/>
<path d="M343.362 165.501C343.27 165.583 341.603 163.87 340.065 161.38C338.508 158.889 337.711 156.645 337.821 156.599C337.949 156.544 338.938 158.678 340.468 161.132C341.988 163.577 343.471 165.409 343.362 165.501Z" fill="white"/>
<path d="M360.762 171.233C360.881 171.288 360.038 173.413 358.875 175.968C357.712 178.532 356.677 180.565 356.549 180.51C356.43 180.455 357.273 178.33 358.436 175.775C359.599 173.211 360.643 171.178 360.762 171.233Z" fill="white"/>
<path d="M363.188 147.487C363.087 147.569 361.018 145.252 358.563 142.304C356.109 139.355 354.204 136.891 354.305 136.809C354.406 136.727 356.475 139.044 358.93 141.992C361.384 144.95 363.289 147.405 363.188 147.487Z" fill="white"/>
<path d="M336.622 128.201C336.493 128.21 336.301 126.223 336.21 123.759C336.109 121.305 336.145 119.309 336.274 119.299C336.402 119.29 336.594 121.277 336.686 123.741C336.777 126.195 336.75 128.192 336.622 128.201Z" fill="white"/>
<path d="M358.289 127.001C358.307 127.129 355.77 127.578 352.638 127.999C349.497 128.421 346.942 128.65 346.924 128.521C346.906 128.393 349.433 127.944 352.574 127.523C355.706 127.102 358.27 126.864 358.289 127.001Z" fill="white"/>
<path d="M392.411 152.066C392.292 152.121 390.772 149.218 389.004 145.582C387.246 141.947 385.909 138.943 386.028 138.888C386.147 138.833 387.667 141.736 389.435 145.372C391.193 149.007 392.53 152.002 392.411 152.066Z" fill="white"/>
<path d="M386.66 173.724C386.531 173.697 386.889 171.361 387.456 168.513C388.024 165.656 388.592 163.367 388.72 163.394C388.848 163.422 388.491 165.757 387.923 168.605C387.356 171.453 386.788 173.742 386.66 173.724Z" fill="white"/>
<path d="M402.484 190.794C402.356 190.84 401.147 187.69 399.765 183.761C398.391 179.832 397.374 176.609 397.503 176.563C397.631 176.517 398.84 179.667 400.222 183.596C401.596 187.534 402.613 190.748 402.484 190.794Z" fill="white"/>
<path d="M400.286 200.776C400.259 200.895 398.07 200.437 395.662 199.118C393.244 197.818 391.66 196.234 391.751 196.151C391.843 196.041 393.528 197.433 395.891 198.706C398.235 199.988 400.323 200.639 400.286 200.776Z" fill="white"/>
<path d="M420.562 223.552C420.442 223.607 419.71 222.215 418.922 220.447C418.135 218.68 417.594 217.205 417.713 217.15C417.833 217.095 418.565 218.487 419.353 220.255C420.14 222.022 420.681 223.497 420.562 223.552Z" fill="white"/>
<path d="M300.815 255.311C300.686 255.329 300.366 253.507 300.1 251.254C299.835 249.001 299.734 247.16 299.862 247.142C299.99 247.124 300.311 248.946 300.577 251.199C300.842 253.452 300.943 255.292 300.815 255.311Z" fill="white"/>
<path d="M363.023 253.736C362.895 253.708 363.161 251.932 363.619 249.77C364.077 247.609 364.553 245.878 364.681 245.906C364.809 245.933 364.544 247.71 364.086 249.871C363.628 252.032 363.152 253.763 363.023 253.736Z" fill="white"/>
<path d="M374.947 72.146L382.988 57.9698C379.425 52.1912 377.374 45.3962 377.374 38.1157C377.374 17.1719 394.352 0.193359 415.296 0.193359C436.24 0.193359 453.219 17.1719 453.219 38.1157C453.219 59.0596 436.24 76.0381 415.296 76.0381C406.551 76.0381 398.501 73.071 392.09 68.0983L392.1 68.1166L374.947 72.146Z" fill="#FAFAFA"/>
<path d="M374.947 72.146C375.762 71.9629 381.193 70.7174 392.127 68.2173L392.301 68.1807L392.191 68.0342L392.182 68.0159L392.017 68.1807C394.178 69.8566 396.77 71.505 399.82 72.8878C402.869 74.2432 406.367 75.3421 410.223 75.8549C412.146 76.1022 414.161 76.2579 416.23 76.1571C417.265 76.1022 418.318 76.0747 419.381 75.9831C420.434 75.8275 421.505 75.6626 422.586 75.4978C426.881 74.6461 431.267 73.016 435.37 70.4793C439.464 67.9426 443.255 64.5084 446.295 60.2867C449.327 56.065 451.625 51.0648 452.706 45.6343C453.768 40.2037 453.686 34.3885 452.257 28.7565C450.819 23.1428 448.136 17.6664 444.125 13.1608L442.577 11.4574C442.064 10.8805 441.46 10.4134 440.911 9.88229C440.334 9.38777 439.812 8.81999 439.189 8.38041L437.366 7.0159C436.78 6.53969 436.13 6.15507 435.48 5.77044C434.839 5.37666 434.198 4.99203 433.557 4.59825C432.879 4.26856 432.211 3.94804 431.542 3.61836C430.864 3.307 430.214 2.94069 429.509 2.71174C423.996 0.523035 418.126 -0.310325 412.503 0.101775C406.88 0.504717 401.505 2.11649 396.898 4.7173C392.274 7.29064 388.372 10.734 385.359 14.5711C382.337 18.4173 380.213 22.6482 378.894 26.87C377.584 31.11 377.227 35.3134 377.246 39.2055C377.356 43.1067 378.07 46.7057 379.105 49.856C380.139 53.0154 381.504 55.7353 382.905 58.0156V57.9057C377.823 67.0085 375.341 71.45 374.947 72.146C375.35 71.45 377.887 67.0452 383.088 58.0247L383.125 57.9698L383.088 57.9148C381.705 55.6346 380.368 52.9239 379.352 49.7827C378.345 46.6416 377.649 43.0792 377.557 39.2055C377.557 35.3409 377.923 31.1833 379.233 26.989C380.552 22.8131 382.667 18.628 385.662 14.8275C388.647 11.0362 392.512 7.63863 397.091 5.10193C401.651 2.53775 406.972 0.953449 412.521 0.559664C418.071 0.16588 423.877 0.990078 429.317 3.15131C430.013 3.3711 430.654 3.73742 431.322 4.04878C431.982 4.3693 432.65 4.68982 433.31 5.0195C433.941 5.40413 434.573 5.78876 435.205 6.17338C435.846 6.55801 436.487 6.93348 437.064 7.40968L438.859 8.75588C439.473 9.18629 439.986 9.74492 440.553 10.2394C441.094 10.7614 441.698 11.2285 442.202 11.7963L443.731 13.4813C447.696 17.932 450.343 23.3442 451.762 28.8847C453.173 34.4435 453.264 40.1945 452.22 45.561C451.158 50.9275 448.896 55.8818 445.902 60.0486C442.907 64.2337 439.161 67.6404 435.114 70.1496C431.066 72.6772 426.725 74.2981 422.476 75.1498C421.404 75.3146 420.342 75.4795 419.307 75.6352C418.254 75.7267 417.21 75.7542 416.194 75.8183C414.142 75.9282 412.146 75.7725 410.241 75.5344C406.413 75.0399 402.942 73.9593 399.911 72.6314C396.88 71.2761 394.297 69.6551 392.136 68.0067L391.431 67.4664L391.971 68.1716L391.98 68.1899L392.045 68.0067C381.174 70.635 375.762 71.9537 374.947 72.146Z" fill="#263238"/>
<path d="M425.535 36.5314C425.535 38.5736 427.192 40.2403 429.244 40.2403C431.295 40.2403 432.953 38.5828 432.953 36.5314C432.953 34.4892 431.295 32.8225 429.244 32.8225C427.192 32.8225 425.535 34.4801 425.535 36.5314Z" fill="#263238"/>
<path d="M410.708 36.5314C410.708 38.5736 412.366 40.2403 414.417 40.2403C416.468 40.2403 418.126 38.5828 418.126 36.5314C418.126 34.4892 416.468 32.8225 414.417 32.8225C412.366 32.8225 410.708 34.4801 410.708 36.5314Z" fill="#263238"/>
<path d="M395.909 34.6816C394.884 36.4582 395.497 38.7202 397.265 39.7458C399.041 40.7715 401.303 40.1579 402.329 38.3905C403.354 36.6139 402.741 34.3519 400.973 33.3262C399.206 32.3006 396.935 32.905 395.909 34.6816Z" fill="#263238"/>
</svg>
