<svg width="463" height="347" viewBox="0 0 463 347" fill="none" xmlns="http://www.w3.org/2000/svg">
<g clip-path="url(#clip0_2_831)">
<path d="M273.562 342.148C273.562 344.828 283.615 346.999 296.016 346.999C308.418 346.999 318.473 344.828 318.473 342.148C318.473 339.469 308.418 337.297 296.016 337.297C283.615 337.297 273.562 339.469 273.562 342.148Z" fill="#D2D4D5"/>
<path d="M285.467 311.155C285.467 311.155 279.815 345.71 305.622 346.968C331.428 348.226 325.365 311.155 325.365 311.155H285.467Z" fill="#E6E7E8"/>
<path d="M327.694 318.557C331.879 318.68 335.182 322.186 335.058 326.367C334.933 330.55 331.426 333.851 327.242 333.726C323.056 333.602 319.752 330.098 319.877 325.915C320.002 321.732 323.508 318.431 327.694 318.557L327.694 318.557ZM327.135 337.292C333.287 337.475 338.442 332.622 338.626 326.474C338.81 320.327 333.953 315.174 327.8 314.992C321.647 314.807 316.491 319.661 316.308 325.809C316.125 331.958 320.981 337.108 327.135 337.292H327.135Z" fill="#E6E7E8"/>
<path d="M285.467 311.155C285.467 312.56 294.398 313.7 305.417 313.7C316.435 313.7 325.365 312.56 325.365 311.155C325.365 309.751 316.435 308.612 305.417 308.612C294.399 308.612 285.467 309.751 285.467 311.155Z" fill="#333439"/>
<path d="M371.645 164.228C374.065 155.895 367.924 147.541 359.379 147.541H376.615C385.158 147.541 391.299 155.895 388.881 164.228L350.611 296.045H333.375L371.645 164.228H371.645Z" fill="#3D3130"/>
<path d="M371.646 164.228L333.376 296.045H198.688L239.097 156.864C240.701 151.336 245.693 147.541 251.363 147.541H359.38C367.924 147.541 374.066 155.895 371.646 164.228Z" fill="#D7745D"/>
<path d="M218.394 162.207C218.394 162.207 197.488 166.576 185.264 182.989C173.04 199.403 157.378 231.083 157.378 231.083L175.715 260.855L203.1 225.357L218.394 162.207Z" fill="white"/>
<path d="M203.1 225.358L198.43 211.482L185.184 248.579L203.1 225.358Z" fill="#3D3130"/>
<path d="M203.099 225.357C204.783 226.716 208.161 273.337 199.583 287.236H288.177L312.349 240.199L289.7 169.044C289.7 169.044 279.669 162.878 262.366 159.106L223.924 165.11L218.392 162.207L201.77 191.47L203.098 225.357H203.099Z" fill="white"/>
<path d="M201.77 191.47C201.77 191.47 189.05 213.802 203.548 238.799C218.045 263.796 221.158 205.004 221.158 205.004L201.77 191.469V191.47Z" fill="white"/>
<path d="M232.737 265.452H213.283C209.977 265.452 206.924 267.061 205.284 269.667L194.231 287.236H210.548L216.06 280.566C216.06 280.566 233.541 288.422 240.32 276.344L232.737 265.452Z" fill="#E8A789"/>
<path d="M296.472 250.078C287.797 234.341 267.479 198.297 267.479 198.297L288.761 168.506C288.761 168.506 301.693 171.863 311.216 190.19C319.877 206.856 341.806 244.976 339.543 271.945C339.145 276.71 335.791 280.761 331.168 281.997C301.785 289.849 237.379 287.235 237.379 287.235L230.097 262.422L296.472 250.078Z" fill="white"/>
<path d="M230.463 265.604L229.406 262.001L306.781 247.1L306.986 248.168L230.789 262.844L231.509 265.298L230.463 265.604Z" fill="#3D3130"/>
<path d="M275.526 212.598L285.095 251.884L296.472 250.078L275.526 212.598Z" fill="#3D3130"/>
<path d="M267.056 89.7772C267.056 89.7772 268.712 99.177 276.445 106.074C282.993 111.913 295.02 130.611 291.186 153.949L190.606 158.884C188.426 153.998 181.382 148.63 192.201 127.964C196.462 119.827 195.213 105.237 195.213 105.237L201.426 89.2955L241.186 83.7656L267.055 89.7772H267.056Z" fill="#3D3130"/>
<path d="M218.757 118.183C219.252 123.279 215.52 127.81 210.42 128.305C205.32 128.799 200.786 125.07 200.292 119.974C199.796 114.88 203.528 110.347 208.628 109.852C213.728 109.358 218.263 113.087 218.757 118.183Z" fill="#D08C72"/>
<path d="M249.85 126.447L252.868 159.298C253.63 166.864 247.909 166.044 240.868 167.024L231.905 168.271C229.469 168.61 227.212 166.743 226.899 164.132L224.103 140.804L249.85 126.447L249.85 126.447Z" fill="#E8A789"/>
<path d="M247.576 137.015L225.961 156.321L223.564 137.603L247.576 137.015Z" fill="#D08C72"/>
<path d="M200.974 99.7184L204.712 126.561C206.001 135.803 212.322 141.912 220.632 144.101C226.037 145.524 231.782 144.854 236.952 142.734L250.665 137.111L248.053 102.987L228.813 90.5574L200.974 99.7184Z" fill="#E8A789"/>
<path d="M218.785 129.006L215.725 128.941C215.293 128.931 214.948 128.579 214.947 128.147L214.932 122.343C214.932 121.905 215.286 121.547 215.725 121.546C216.165 121.545 216.522 121.901 216.523 122.34L216.535 127.367L218.818 127.416C219.258 127.426 219.606 127.789 219.596 128.228C219.588 128.667 219.224 129.014 218.785 129.005V129.006Z" fill="#3D3130"/>
<path d="M224.773 118.271C224.95 119.525 226.118 120.401 227.381 120.227C228.647 120.053 229.529 118.895 229.353 117.641C229.177 116.386 228.008 115.511 226.744 115.684C225.48 115.859 224.597 117.017 224.773 118.271V118.271Z" fill="#3D3130"/>
<path d="M208.357 119.308C208.506 120.363 209.487 121.099 210.551 120.952C211.615 120.805 212.357 119.831 212.209 118.777C212.061 117.722 211.078 116.986 210.015 117.131C208.952 117.279 208.209 118.253 208.357 119.308Z" fill="#3D3130"/>
<path d="M228.07 107.416C228.07 107.416 222.584 107.118 222.59 109.33C222.59 109.33 222.635 110.826 227.42 110.994C232.203 111.164 233.436 110.784 233.833 109.365C234.23 107.948 230.636 107.361 228.07 107.416H228.07Z" fill="#3D3130"/>
<path d="M207.445 109.512C207.445 109.512 211.047 108.221 212.065 109.947C212.065 109.947 212.726 111.124 209.543 112.179C206.361 113.232 205.345 113.174 204.419 112.143C203.493 111.115 205.67 109.963 207.445 109.512H207.445Z" fill="#3D3130"/>
<path d="M229.569 130.402C229.519 130.473 228.967 131.234 227.705 131.977C226.446 132.72 224.479 133.436 221.667 133.433C221.135 133.433 220.572 133.408 219.978 133.354C219.541 133.313 219.219 132.926 219.26 132.489C219.3 132.051 219.688 131.73 220.125 131.77C220.672 131.822 221.185 131.843 221.667 131.843C224.212 131.842 225.871 131.21 226.898 130.607C227.41 130.305 227.765 130.009 227.985 129.794C228.095 129.688 228.172 129.602 228.219 129.547L228.265 129.491L228.272 129.481L228.548 129.685L228.267 129.487L228.272 129.481L228.548 129.685L228.267 129.487C228.52 129.129 229.016 129.042 229.376 129.294C229.736 129.546 229.821 130.042 229.569 130.402L229.569 130.402Z" fill="#3D3130"/>
<path d="M258.863 109.078C258.507 110.815 227.73 103.079 225.516 82.9167C225.516 82.9167 264.176 83.2075 258.863 109.078Z" fill="#3D3130"/>
<path d="M267.056 89.7771C264.558 76.5909 253.644 62.7797 224.137 66.645C208.196 68.7329 189.472 85.1042 194.941 104.476C195.082 104.976 195.213 105.237 195.213 105.237C215.415 105.034 233.634 92.2459 233.634 92.2459L267.056 89.7771Z" fill="#3D3130"/>
<path d="M242.561 98.6233L245.488 118.205L258.479 101.391L242.561 98.6233Z" fill="#3D3130"/>
<path d="M263.058 114.839C263.566 120.071 259.734 124.723 254.498 125.232C249.264 125.739 244.607 121.91 244.099 116.678C243.591 111.448 247.423 106.796 252.659 106.287C257.894 105.78 262.551 109.609 263.059 114.839H263.058Z" fill="#E8A789"/>
<path d="M249.747 118.973C249.745 118.952 249.724 118.737 249.724 118.391C249.729 117.558 249.828 115.957 250.666 114.461C251.086 113.716 251.706 112.999 252.585 112.483C253.461 111.963 254.578 111.656 255.943 111.657C256.156 111.657 256.375 111.665 256.602 111.68C257.04 111.709 257.372 112.088 257.342 112.525C257.313 112.963 256.933 113.294 256.495 113.265C256.303 113.253 256.12 113.246 255.943 113.246C254.81 113.248 254.002 113.493 253.393 113.85C252.487 114.385 251.974 115.216 251.672 116.099C251.373 116.976 251.313 117.876 251.315 118.39C251.315 118.533 251.318 118.646 251.323 118.719L251.328 118.801L251.329 118.82C251.372 119.256 251.051 119.645 250.614 119.688C250.178 119.729 249.788 119.41 249.746 118.972L249.747 118.973Z" fill="#3D3130"/>
<path d="M245.064 155.333L266.199 159.941C266.199 159.941 259.121 175.888 235.58 175.888C216.968 175.888 214.936 163.146 214.936 163.146L228.53 156.83L245.064 155.333H245.064Z" fill="#E8A789"/>
<path d="M260.33 296.044H182.203V287.236H260.33C262.763 287.236 264.737 289.209 264.737 291.64C264.737 294.072 262.763 296.044 260.33 296.044Z" fill="#333439"/>
<path d="M192.486 296.045H80.3191C74.3565 296.045 69.1228 292.072 67.5252 286.333L48.4727 213.864C46.6888 207.456 50.3742 201.114 57.0304 201.114H160.756C164.737 201.114 168.216 203.795 169.228 207.642L192.486 296.045L192.486 296.045Z" fill="#3E4249"/>
<path d="M122.115 252.224C122.115 257.629 117.73 262.011 112.32 262.011C106.911 262.011 102.527 257.629 102.527 252.224C102.527 246.819 106.911 242.437 112.32 242.437C117.73 242.437 122.115 246.819 122.115 252.224Z" fill="white"/>
<path d="M408.849 295.189H-0.000152588V296.901H408.849V295.189Z" fill="white"/>
<path d="M463 295.189H428.047V296.901H463V295.189Z" fill="white"/>
<path d="M69.8725 116.88H142.008C143.482 116.88 144.678 115.685 144.678 114.211V92.5553C144.678 91.0812 143.482 89.8862 142.008 89.8862H69.8725C68.3972 89.8862 67.2005 91.0807 67.2005 92.5553V114.211C67.2005 115.685 68.3972 116.88 69.8725 116.88Z" fill="#F8A79F"/>
<path d="M131.86 98.9814H85.3616V100.028H131.86V98.9814Z" fill="white"/>
<path d="M131.86 105.456H111.041V106.502H131.86V105.456Z" fill="white"/>
<path d="M134.429 113.825V124.346L121.187 113.825H134.429Z" fill="#F8A79F"/>
<path d="M306.095 66.3393H359.685C364.889 66.3393 369.108 62.1236 369.108 56.9227V7.1401C369.108 3.19718 365.91 0.000976562 361.964 0.000976562H306.095C302.15 0.000976562 298.951 3.19718 298.951 7.1401V59.2002C298.951 63.1431 302.15 66.3393 306.095 66.3393H306.095Z" fill="#5F53A1"/>
<path d="M320.45 41.7823C320.735 42.0671 321.022 42.3519 321.307 42.6371C321.806 43.0651 322.235 43.5652 322.733 44.0628C323.447 44.7752 324.232 45.1325 325.302 45.1325C325.444 45.1325 325.514 45.1325 325.659 45.1325C327.799 44.9909 329.796 44.1348 331.223 43.422C335.289 41.4267 338.856 38.6461 341.852 35.0823C344.277 32.1589 345.918 29.3796 347.06 26.4566C347.773 24.7457 348.058 23.3912 347.915 22.0368C347.844 21.2527 347.559 20.5403 346.917 19.9703L344.492 17.5457C344.278 17.3317 343.92 17.0469 343.493 17.0469C343.065 17.0469 342.78 17.2609 342.494 17.5457C342.067 17.9737 341.638 18.4018 341.21 18.8294C340.996 19.0434 340.782 19.3287 340.497 19.5423L338.5 21.5375C338.286 21.7515 338.001 22.1796 338.001 22.5352C338.001 22.9632 338.286 23.32 338.5 23.5341C338.714 23.7481 338.927 23.9608 339.141 24.1761C339.784 24.8169 340.354 25.3869 340.925 25.9574L340.996 26.0286C341.71 26.741 341.567 27.3835 341.423 27.8111V27.8823C340.925 29.166 340.141 30.3056 339.07 31.7309C337.073 34.2267 334.933 36.1507 332.579 37.6472C332.294 37.8625 331.936 38.004 331.65 38.1464C331.366 38.2893 331.152 38.3605 330.937 38.5033L330.867 38.5753C330.154 38.9309 329.441 38.7881 328.869 38.2185L326.373 35.7231C326.159 35.5091 325.802 35.2239 325.373 35.2239C325.016 35.2239 324.66 35.5087 324.446 35.7231L320.451 39.7149C319.808 40.357 319.808 41.0699 320.451 41.7823H320.45ZM318.809 38.0752L322.806 34.0834C323.519 33.2994 324.445 32.8718 325.372 32.8718C326.3 32.8718 327.227 33.2994 327.941 34.0122L330.223 36.2936C330.366 36.2215 330.509 36.1503 330.652 36.0795C330.936 35.9363 331.152 35.8655 331.365 35.7227C333.506 34.3691 335.432 32.5865 337.286 30.3052C338.142 29.2368 338.784 28.2374 339.14 27.3831C338.568 26.8838 338.071 26.3142 337.571 25.8141C337.357 25.6018 337.142 25.3865 336.929 25.1738C336.145 24.3889 335.715 23.462 335.715 22.5352C335.715 21.6096 336.145 20.6827 336.929 19.8982L338.926 17.9025C339.14 17.6885 339.354 17.4745 339.568 17.1897C339.995 16.7621 340.496 16.2628 340.924 15.8352C341.637 15.1224 342.565 14.6943 343.491 14.6943C344.419 14.6943 345.275 15.0512 346.06 15.8352L348.557 18.3306C349.484 19.2575 350.054 20.4691 350.197 21.8223C350.341 23.9608 349.769 25.9574 349.27 27.2398C348.128 30.5188 346.345 33.4422 343.706 36.5784C340.496 40.3566 336.715 43.3495 332.293 45.4876C330.652 46.2725 328.369 47.1993 325.872 47.4134C325.728 47.4134 325.587 47.4134 325.372 47.4134C323.66 47.4134 322.234 46.7713 321.092 45.5601L321.021 45.488C320.665 45.0613 320.236 44.6332 319.736 44.2052C319.451 43.9204 319.094 43.5648 318.808 43.2783C317.311 41.7098 317.311 39.5713 318.808 38.0748L318.809 38.0752Z" fill="white"/>
<path d="M405.084 125.708C405.084 141.085 417.559 153.552 432.948 153.552C448.337 153.552 460.813 141.086 460.813 125.708C460.813 110.332 448.338 97.865 432.948 97.865C417.56 97.865 405.084 110.331 405.084 125.708Z" fill="#F8A79F"/>
<path d="M420.474 134.068V133.459H444.813V117.958H421.083V134.068H420.474V133.459V134.068H419.864V117.349C419.864 117.189 419.93 117.032 420.043 116.919C420.157 116.805 420.313 116.74 420.474 116.74H445.423C445.583 116.74 445.74 116.805 445.854 116.919C445.966 117.032 446.032 117.189 446.032 117.349V134.068C446.032 134.228 445.966 134.385 445.854 134.498C445.74 134.612 445.583 134.677 445.423 134.677H420.474C420.314 134.677 420.157 134.612 420.043 134.498C419.93 134.385 419.864 134.228 419.864 134.068H420.474Z" fill="white"/>
<path d="M445.8 117.827L433.326 127.651C433.104 127.825 432.792 127.825 432.571 127.651L420.097 117.827C419.833 117.62 419.788 117.237 419.996 116.972C420.205 116.708 420.588 116.663 420.852 116.871L432.949 126.397L445.045 116.871C445.309 116.663 445.692 116.708 445.902 116.972C446.11 117.237 446.064 117.62 445.8 117.827Z" fill="white"/>
<path d="M15.4074 159.821H106.757C108.138 159.821 109.258 158.703 109.258 157.322C109.258 155.943 108.138 154.823 106.757 154.823H15.4074C14.0261 154.823 12.9062 155.943 12.9062 157.322C12.9062 158.702 14.0257 159.821 15.4074 159.821Z" fill="#FEEDE2"/>
<path d="M205.052 30.7494H246.588C247.969 30.7494 249.089 29.6309 249.089 28.2502C249.089 26.87 247.969 25.751 246.588 25.751H205.052C203.67 25.751 202.551 26.8696 202.551 28.2502C202.551 29.6304 203.67 30.7494 205.052 30.7494Z" fill="#FEEDE2"/>
<path d="M433.402 199.837H460.637C461.943 199.837 463 200.895 463 202.199V202.475C463 203.779 461.943 204.835 460.637 204.835H433.402C432.097 204.835 431.039 203.779 431.039 202.475V202.199C431.039 200.895 432.097 199.837 433.402 199.837Z" fill="#FEEDE2"/>
<path d="M26.8641 78.8749H30.8312C31.8725 78.8749 32.7168 78.0313 32.7168 76.9907V73.2704C32.7168 72.2295 31.8725 71.3862 30.8312 71.3862H26.8641C25.8224 71.3862 24.9772 72.2299 24.9772 73.2704V76.9907C24.9772 78.0313 25.8224 78.8749 26.8641 78.8749Z" fill="#F8A79F"/>
<path d="M414.178 246.204H419.43C420.81 246.204 421.93 245.086 421.93 243.707V238.781C421.93 237.402 420.81 236.283 419.43 236.283H414.178C412.798 236.283 411.678 237.401 411.678 238.781V243.707C411.678 245.086 412.798 246.204 414.178 246.204Z" fill="#F8A79F"/>
<path d="M140.581 29.6941V30.3053H121.197C120.548 30.3061 120.013 30.8405 120.011 31.5144V41.0107C120.012 41.6858 120.548 42.219 121.197 42.2198H131.42L136.523 46.5895V42.5072L140.602 42.391H140.604C141.243 42.3789 141.765 41.8458 141.766 41.1806V31.5144C141.766 30.8405 141.229 30.3061 140.581 30.3053V29.0825C141.918 29.0837 142.988 30.1779 142.99 31.5144V41.1806C142.99 42.4982 141.948 43.5855 140.629 43.612H140.633L137.747 43.6953V49.2474L130.967 43.4422H121.197C119.859 43.4409 118.789 42.3468 118.787 41.0103V31.5139C118.789 30.1775 119.859 29.0833 121.197 29.082H140.58V29.6932L140.581 29.6941Z" fill="#FEEDE2"/>
<path d="M8.68425 201.06H9.29591C9.29591 202.539 9.88572 203.872 10.8399 204.839C11.7941 205.805 13.105 206.399 14.5571 206.399C16.0096 206.399 17.3201 205.805 18.2747 204.839C19.228 203.872 19.8174 202.539 19.8187 201.06C19.8174 199.582 19.2276 198.249 18.2747 197.282C17.3188 196.315 16.0096 195.721 14.5571 195.721C13.105 195.721 11.7941 196.315 10.8399 197.282C9.88529 198.249 9.29591 199.581 9.29591 201.06H8.07217C8.07861 197.443 10.9682 194.499 14.5571 194.498C18.1459 194.499 21.0347 197.443 21.042 201.06C21.0347 204.677 18.1459 207.62 14.5571 207.622C10.9682 207.621 8.07818 204.678 8.07217 201.06H8.68383H8.68425Z" fill="#FEEDE2"/>
<path d="M353.374 107.403H353.986C353.986 108.882 354.576 110.215 355.53 111.182C356.485 112.148 357.795 112.742 359.247 112.743C360.7 112.742 362.009 112.148 362.965 111.182C363.918 110.215 364.507 108.882 364.509 107.403C364.507 105.925 363.918 104.592 362.965 103.624C362.009 102.658 360.7 102.064 359.247 102.064C357.795 102.064 356.485 102.658 355.53 103.625C354.575 104.592 353.986 105.924 353.986 107.403H352.762C352.769 103.785 355.658 100.843 359.247 100.841C362.836 100.842 365.725 103.785 365.732 107.403C365.725 111.02 362.836 113.964 359.247 113.966C355.658 113.964 352.768 111.02 352.762 107.403H353.374H353.374Z" fill="#FEEDE2"/>
</g>
<defs>
<clipPath id="clip0_2_831">
<rect width="463" height="347" fill="white" transform="matrix(-1 0 0 1 463 0)"/>
</clipPath>
</defs>
</svg>
