<svg width="700" height="370" viewBox="0 0 700 370" fill="none" xmlns="http://www.w3.org/2000/svg">
<g clip-path="url(#clip0_32_485)">
<path d="M146.869 137.862C146.788 138.183 152.014 134.945 152.014 134.945L154.219 131.523C154.219 131.523 156.378 130.134 157.917 129.376C159.467 128.63 162.304 124.002 162.304 124.002L161.179 122.59C161.179 122.59 159.559 124.565 159.019 124.886C158.491 125.208 157.4 124.944 157.4 124.944C157.4 124.944 157.779 123.508 158.64 121.453C159.502 119.397 162.143 116.09 162.143 116.09L161.156 115.057C161.156 115.057 159.571 116.561 158.996 117.308C158.422 118.065 157.331 119.65 157.331 119.65C157.331 119.65 158.468 116.86 159.169 115.815C159.869 114.77 160.639 113.357 160.639 113.357L159.49 112.565C159.49 112.565 158.147 114.219 157.458 115.459C156.768 116.699 155.494 118.743 155.494 118.743C155.494 118.743 156.47 115.597 156.941 114.689C157.423 113.782 157.595 113.312 157.595 113.312L156.24 112.852C156.24 112.852 155.23 114.069 154.632 115.723C154.035 117.365 153.599 118.088 153.599 118.088C153.599 118.088 154.001 115.436 154.449 114.655C154.896 113.874 154.908 113.553 154.908 113.553L153.805 113.346C153.805 113.346 151.692 117.239 150.578 119.65C149.464 122.061 148.603 125.323 147.971 127.091C147.34 128.859 146.536 134.865 146.536 134.865L146.869 137.862Z" fill="#F5C5B3"/>
<path d="M179.428 160.965L152.668 156.36C152.668 156.36 151.945 150.022 152.381 142.65C152.852 134.647 153.84 132.419 153.84 132.419L146.662 131.42C146.662 131.42 145.249 137.724 144.227 142.26C141.976 152.307 139.909 161.723 141.632 163.813C144.135 166.856 166.393 173.056 174.007 178.763C178.589 182.208 178.325 171.196 179.428 160.965Z" fill="#F58220"/>
<path d="M217.362 237.027L216.006 246.282L218.797 252.62L220.841 249.853L221.312 244.686L224.333 245.145L225.814 243.285L225.688 239.404L225.194 228.863L217.362 237.027Z" fill="#FEC4AD"/>
<path d="M215.478 166.5C213.411 165.742 206.692 166.236 206.692 166.236C206.692 166.236 206.06 173.412 208.794 178.959C211.527 184.505 218.303 204.714 219.153 206.609C220.014 208.504 217.361 237.015 217.361 237.015L227.192 235.006C227.192 235.006 231.924 213.016 231.889 207.424C231.855 201.832 226.618 180.911 222.908 174.239C219.187 167.579 220.485 168.349 215.478 166.5Z" fill="#F58220"/>
<path d="M199.296 145.934C199.296 145.934 197.137 155.419 198.825 157.624C199.813 158.921 204.016 163.526 204.016 163.526C204.016 163.526 190.097 170.875 185.997 170.875C181.908 170.875 183.344 162.664 183.344 162.664C183.344 162.664 187.811 159.139 188.466 157.359C189.132 155.58 189.5 150.412 189.5 150.412L199.296 145.934Z" fill="#FEC4AD"/>
<path d="M200.916 146.29C200.916 146.29 200.755 142.834 203.649 142.926C205.498 142.983 205.636 144.671 204.2 146.853C203.592 147.771 203.534 149.85 202.776 150.516C201.858 151.331 201.1 150.079 200.824 149.505C200.365 148.564 200.916 146.29 200.916 146.29Z" fill="#F5C5B3"/>
<path d="M185.331 146.29C185.331 146.29 185.492 142.834 182.598 142.926C180.749 142.983 180.611 144.671 182.046 146.853C182.655 147.771 182.712 149.85 183.47 150.516C184.389 151.331 185.147 150.079 185.423 149.505C185.882 148.564 185.331 146.29 185.331 146.29Z" fill="#F5C5B3"/>
<path d="M203.856 137.839C203.787 138.964 203.557 139.687 203.27 141.352C203.201 141.754 203.121 142.214 203.052 142.742C202.455 146.887 201.697 152.525 201.364 153.363C200.824 154.753 197.861 157.015 196.46 157.842C195.059 158.668 191.521 158.496 190.109 157.669C188.708 156.843 185.526 154.753 184.987 153.363C184.654 152.502 183.873 146.703 183.264 142.501C183.195 142.018 183.126 141.605 183.069 141.238C182.782 139.595 182.563 138.952 182.494 137.839C182.276 134.336 186.215 129.25 193.175 129.25C201.398 129.238 204.074 134.336 203.856 137.839Z" fill="#F5C5B3"/>
<path d="M185.974 133.429C185.974 133.429 191.889 130.8 198.711 133.9L201.168 132.338C201.168 132.338 197.597 130.467 192.451 130.501C187.306 130.536 185.974 133.429 185.974 133.429Z" fill="#E8D4E5"/>
<path d="M203.27 141.352C203.201 141.754 203.121 142.214 203.052 142.742C202.454 146.887 201.696 152.525 201.363 153.363C200.824 154.753 197.861 157.015 196.459 157.842C195.058 158.668 191.521 158.496 190.108 157.669C188.707 156.843 185.526 154.753 184.986 153.363C184.653 152.502 183.872 146.703 183.264 142.501C183.195 142.018 183.126 141.605 183.068 141.238L183.631 140.388C183.631 140.388 184.653 146.393 186.227 148.265C187.789 150.125 188.099 150.217 188.099 150.217C188.099 150.217 189.81 149.792 191.303 149.425C191.395 149.402 191.475 149.379 191.556 149.356C192.796 149.057 194.071 149.057 195.299 149.39C195.368 149.402 195.437 149.425 195.506 149.448L195.736 149.517L198.171 150.217C198.171 150.217 198.733 150.125 200.307 148.265C201.88 146.393 202.627 140.388 202.627 140.388L203.27 141.352Z" fill="#7B2B1A"/>
<path d="M204.361 135.599C204.338 135.714 203.775 139.814 203.546 140.457C203.19 141.444 202.914 142.168 202.914 142.168L202.489 141.249C201.708 139.55 201.283 137.712 201.249 135.841L201.168 132.327L202.34 131.293C204.637 131.638 204.889 132.97 204.361 135.599Z" fill="#7B2B1A"/>
<path d="M186.112 132.511V132.522L185.549 136.139C185.285 137.816 184.722 139.423 183.872 140.893L183.827 140.973L183.195 142.076C183.195 142.076 183.011 141.433 182.747 140.526C182.552 139.86 182.081 136.438 181.966 135.956C181.932 135.806 181.897 135.657 181.874 135.519C181.38 132.947 181.863 131.879 184.137 131.535L186.112 132.511Z" fill="#7B2B1A"/>
<path d="M202.34 131.294L201.168 132.327L198.94 133.131C198.676 132.855 194.622 131.454 191.108 131.718C186.651 132.063 186.043 133.349 185.974 133.429L185.515 133.326L183.321 132.844L182.873 132.74C182.873 132.74 183.378 130.811 183.746 130.26C185.503 127.619 190.269 125.908 194.61 126.344C194.76 126.356 194.897 126.379 195.047 126.39C199.101 126.919 200.95 128.836 200.95 128.836L202.34 131.294Z" fill="#7B2B1A"/>
<path d="M213.193 356.229V364.91H196.505C196.505 364.91 197.137 361.764 205.05 360.317L206.21 356.229H213.193Z" fill="#133A50"/>
<path d="M187.811 356.229V364.91H171.124C171.124 364.91 171.756 361.764 179.669 360.317L180.829 356.229H187.811Z" fill="#133A50"/>
<path d="M210.39 226.991C210.39 226.991 212.722 254.951 212.802 277.756C212.883 300.561 214.238 358.216 214.238 358.216H205.027C205.027 358.216 195.529 302.846 192.072 288.182C188.615 273.519 179.646 227.266 179.646 227.266L210.39 226.991Z" fill="#133A50"/>
<path d="M190.361 257.018C190.361 257.018 188.638 291.765 188.294 298.609C187.949 305.453 188.294 358.181 188.294 358.181C188.294 358.181 179.657 358.411 179.657 358.181C179.657 357.952 171.515 302.019 170.47 285.163C169.413 268.306 170.033 248.314 168.632 245.983C167.231 243.652 172.411 227.094 172.411 227.094L184.63 230.355L190.361 257.018Z" fill="#133A50"/>
<path d="M186.594 159.507C186.594 159.507 182.77 168.188 188.524 169.141C197.677 170.668 200.468 158.956 200.468 158.956L210.563 164.157C210.563 164.157 210.379 226.991 214.341 246.167C216.649 257.305 178.302 252 172.686 242.114C167.817 233.559 181.885 162.458 181.885 162.458L186.594 159.507Z" fill="white"/>
<path d="M202.845 160.046C202.569 160.425 189.029 200.052 193.634 237.348C194.714 246.041 210.563 238.853 214.353 238.853C214.353 238.853 216.156 211.018 216.592 200.672C217.028 190.326 212.102 186.916 212.538 181.852C212.974 176.788 218.487 167.763 218.487 167.763L202.845 160.046Z" fill="#F58220"/>
<path d="M180.209 241.298C181.759 215.37 182.391 161.103 182.391 161.103L173.237 160.425C173.237 160.425 168.655 205.943 168.598 211.122C168.575 213.177 169.218 238.175 167.828 242.849C170.917 243.308 180.025 244.422 180.209 241.298Z" fill="#F58220"/>
<path d="M279.861 145.934C272.683 148.403 265.298 150.975 259.59 155.981C253.882 160.988 250.207 169.106 252.619 176.306C255.031 183.506 265.034 187.697 270.822 182.782C272.901 181.014 274.187 177.982 273.073 175.502C270.868 170.576 263.173 172.884 259.567 176.903C255.295 181.657 252.573 188.168 253.63 194.472C254.686 200.776 260.199 206.448 266.596 206.448C272.993 206.448 282.112 196.791 276.633 193.484C269.674 189.281 260.739 199.283 257.316 206.655C253.894 214.027 256.03 223.994 263.024 228.139C270.018 232.273 286.418 227.048 282.123 220.147C277.587 212.856 264.161 223.362 262.381 231.768C260.601 240.162 267.17 249.371 275.703 250.404C284.225 251.438 298.994 241.735 293.091 235.5C284.569 226.486 270.351 249.44 274.451 261.141C278.551 272.853 295.514 277.504 305.023 269.546C306.804 268.053 308.411 265.917 308.078 263.621C307.527 259.786 302.279 258.706 298.604 259.935C289.025 263.139 284.696 276.539 290.599 284.738C296.502 292.936 310.593 293.086 316.669 285.013C317.852 283.44 318.771 281.465 318.346 279.547C317.748 276.86 314.567 275.356 311.868 275.861C309.169 276.367 306.987 278.399 305.448 280.684C299.982 288.78 301.831 300.94 309.445 307.049C317.071 313.157 329.336 312.319 336.055 305.223C337.801 303.374 339.259 300.905 338.788 298.402C338.248 295.508 335.159 293.568 332.219 293.637C329.279 293.706 326.58 295.394 324.536 297.518C315.957 306.429 319.62 323.664 331.082 328.303C342.544 332.954 365.272 320.15 357.221 310.769C351.846 304.499 341.246 318.061 342.601 326.202C343.956 334.343 353.328 339.901 361.31 337.799C369.291 335.698 379.811 324.25 373.644 318.761C369.28 314.88 362.217 323.09 360.862 328.774C359.518 334.458 362.538 340.877 367.787 343.46C373.437 346.239 380.351 344.563 385.772 341.394C391.204 338.213 395.706 333.677 400.932 330.175C411.429 323.147 424.843 320.644 437.166 323.389" stroke="white" stroke-width="2" stroke-miterlimit="10"/>
<path d="M642.27 183.345C630.636 175.916 526.942 263.322 530.743 332.38C530.743 332.38 550.933 305.12 568.528 291.834C586.122 278.548 587.845 264.643 587.81 250.875C587.776 237.107 614.087 242.791 617.05 227.519C622.287 200.489 652.744 190.028 642.27 183.345Z" fill="#4FAE86"/>
<path d="M649.081 247.683C632.324 257.834 637.263 271.349 627.386 279.249C620.208 284.99 608.218 281.993 602.235 289.813C595.505 298.632 603.153 310.769 603.728 321.391C604.509 336.066 591.416 347.078 578.117 351.533C562.67 356.712 542.675 355.093 534.211 339.729C524.231 321.597 531.708 294.268 549.21 285.748C553.459 283.681 558.869 283.119 562.337 278.927C568.206 271.854 564.439 261.692 567.161 252.701C569.814 243.939 578.473 237.773 586.455 235.052C594.437 232.319 602.568 231.768 610.366 228.599C620.989 224.281 630.292 214.808 639.135 208.412C647.025 202.705 674.714 192.014 679.228 210.708C683.328 227.76 663.161 239.163 649.081 247.683Z" fill="#319188"/>
<path d="M650.815 220.423C650.815 220.423 582.343 254.825 527.711 365.852" stroke="#194459" stroke-miterlimit="10"/>
<path d="M692.16 272.279C692.16 272.279 604.118 271.291 530.95 355.207" stroke="white" stroke-miterlimit="10"/>
<path d="M648.506 311.539C640.111 314.891 637.837 329.038 628.799 330.841C622.229 332.15 615.212 326.328 608.792 329.348C601.557 332.747 602.832 342.955 599.869 349.891C595.78 359.468 583.641 362.189 573.408 360.673C561.522 358.916 548.762 351.372 547.97 338.856C547.028 324.089 560.568 309.173 574.867 309.472C578.335 309.54 582.102 310.953 585.72 309.426C591.83 306.854 592.519 299.172 597.147 294.349C601.66 289.652 609.344 288.561 615.499 289.434C621.655 290.307 627.225 292.603 633.392 293.132C641.799 293.855 650.941 290.87 658.819 289.698C665.848 288.653 694.548 289.205 684.717 304.235C677.907 314.627 659.681 307.06 648.506 311.539Z" fill="#4FAE86"/>
<path d="M666.606 297.679C666.606 297.679 605.451 302.88 534.326 355.563" stroke="#194459" stroke-miterlimit="10"/>
<path d="M467.325 363.417C467.325 363.417 481.244 339.051 483.507 336.548C497.816 320.702 516.812 320.529 536.141 324.525C541.734 325.685 556.549 333.459 561.912 332.391C566.104 331.553 571.123 315.649 584.514 316.487C597.905 317.326 598.72 333.229 598.72 333.229C598.72 333.229 607.127 314.754 620.518 316.453C633.909 318.164 633.909 330.634 623.872 339.889C623.872 339.889 645.222 333.482 665.94 343.403C686.658 353.324 676.77 366.334 676.77 366.334L467.325 363.417Z" fill="#319188"/>
<path d="M94.9009 183.345C106.535 175.916 210.23 263.322 206.428 332.38C206.428 332.38 186.238 305.12 168.644 291.834C151.049 278.548 149.327 264.643 149.361 250.875C149.395 237.107 123.084 242.791 120.121 227.519C114.873 200.489 84.4269 190.028 94.9009 183.345Z" fill="#4FAE86"/>
<path d="M88.079 247.683C104.835 257.834 99.8966 271.349 109.773 279.249C116.951 284.99 128.941 281.993 134.925 289.813C141.655 298.632 134.006 310.769 133.432 321.391C132.651 336.066 145.743 347.078 159.043 351.533C174.489 356.712 194.484 355.093 202.948 339.729C212.928 321.597 205.452 294.268 187.949 285.748C183.7 283.681 178.291 283.119 174.822 278.927C168.954 271.854 172.721 261.692 170.01 252.701C167.357 243.939 158.698 237.773 150.716 235.052C142.734 232.319 134.603 231.768 126.805 228.599C116.182 224.281 106.879 214.808 98.0361 208.412C90.1462 202.705 62.4567 192.014 57.9433 210.708C53.8433 227.76 74.0103 239.163 88.079 247.683Z" fill="#319188"/>
<path d="M86.3564 220.423C86.3564 220.423 154.828 254.825 209.46 365.852" stroke="#194459" stroke-miterlimit="10"/>
<path d="M45 272.279C45 272.279 133.041 271.291 206.21 355.207" stroke="white" stroke-miterlimit="10"/>
<path d="M88.6646 311.539C97.0599 314.891 99.3339 329.038 108.372 330.841C114.941 332.15 121.959 326.328 128.379 329.348C135.614 332.747 134.339 342.955 137.302 349.891C141.391 359.468 153.53 362.189 163.763 360.673C175.649 358.916 188.409 351.372 189.201 338.856C190.143 324.089 176.603 309.173 162.304 309.472C158.836 309.54 155.069 310.953 151.451 309.426C145.341 306.854 144.652 299.172 140.024 294.349C135.522 289.652 127.827 288.561 121.671 289.434C115.516 290.307 109.946 292.603 103.778 293.132C95.3717 293.855 86.2299 290.87 78.3514 289.698C71.3229 288.653 42.6227 289.205 52.4536 304.235C59.264 314.627 77.4786 307.06 88.6646 311.539Z" fill="#4FAE86"/>
<path d="M70.5649 297.679C70.5649 297.679 131.721 302.88 202.845 355.563" stroke="#194459" stroke-miterlimit="10"/>
<path d="M269.846 363.417C269.846 363.417 255.927 339.051 253.664 336.548C239.354 320.702 220.359 320.529 201.03 324.525C195.437 325.685 180.622 333.459 175.259 332.391C171.078 331.553 166.048 315.649 152.657 316.487C139.266 317.326 138.45 333.229 138.45 333.229C138.45 333.229 130.044 314.754 116.653 316.453C103.262 318.164 103.262 330.634 113.299 339.889C113.299 339.889 91.9492 333.482 71.2309 343.403C50.5126 353.324 60.4009 366.334 60.4009 366.334L269.846 363.417Z" fill="#319188"/>
<path d="M419.835 365.542H398.175C395.787 365.542 393.788 363.704 393.593 361.328L392.169 344.23H425.819L424.395 361.328C424.211 363.716 422.224 365.542 419.835 365.542Z" fill="#0F0359"/>
<path d="M547.717 365.542H526.057C523.668 365.542 521.67 363.704 521.474 361.328L520.05 344.23H553.7L552.276 361.328C552.092 363.716 550.106 365.542 547.717 365.542Z" fill="#0F0359"/>
<path d="M551.472 321.804H394.42L405.526 240.851C406.387 234.535 411.785 229.827 418.159 229.827H527.722C534.096 229.827 539.494 234.535 540.355 240.851L551.472 321.804Z" fill="#5B67EC"/>
<path d="M530.272 306.096H415.609L423.752 224.775C424.361 218.735 429.448 214.13 435.524 214.13H510.358C516.433 214.13 521.521 218.735 522.129 224.775L530.272 306.096Z" fill="#5B67EC"/>
<path d="M396.935 303.42L394.42 321.804H551.472L548.946 303.42H396.935Z" fill="#CFCFCF"/>
<path d="M568.47 353.209H377.423L380.96 311.711H564.932L568.47 353.209Z" fill="#5B67EC"/>
<path d="M491.989 294.003C508.163 283.474 512.738 261.829 502.208 245.657C491.677 229.486 470.028 224.911 453.854 235.44C437.68 245.969 433.105 267.614 443.635 283.786C454.166 299.958 475.815 304.532 491.989 294.003Z" fill="#CFCFCF"/>
<path d="M473.64 294.933C490.33 294.542 503.542 280.699 503.152 264.012C502.761 247.326 488.915 234.115 472.226 234.506C455.537 234.896 442.324 248.74 442.715 265.426C443.105 282.113 456.951 295.323 473.64 294.933Z" fill="white"/>
<path d="M481.393 289.583C480.348 289.583 479.337 289.17 478.614 288.435C478.43 288.251 478.269 288.056 478.131 287.826C477.982 287.608 477.867 287.39 477.764 287.149C477.672 286.919 477.592 286.667 477.546 286.426C477.5 286.173 477.465 285.909 477.465 285.656C477.465 284.623 477.89 283.612 478.625 282.889C479.533 281.982 480.888 281.557 482.163 281.81C482.415 281.867 482.656 281.936 482.886 282.039C483.127 282.143 483.357 282.269 483.575 282.395C483.782 282.544 483.989 282.705 484.172 282.889C484.896 283.612 485.332 284.623 485.332 285.656C485.332 285.909 485.298 286.173 485.252 286.426C485.194 286.667 485.114 286.919 485.034 287.149C484.93 287.39 484.804 287.608 484.678 287.826C484.528 288.056 484.368 288.251 484.184 288.435C484 288.619 483.805 288.768 483.587 288.917C483.368 289.067 483.15 289.181 482.898 289.273C482.668 289.377 482.415 289.457 482.174 289.503C481.898 289.56 481.634 289.583 481.393 289.583Z" fill="#B3B3B3"/>
<path d="M469.231 290.961C467.095 290.663 465.602 288.676 465.9 286.517C466.199 284.382 468.186 282.889 470.345 283.187C472.481 283.497 473.974 285.484 473.675 287.631C473.4 289.595 471.711 291.007 469.782 291.007C469.598 291.007 469.415 290.996 469.231 290.961ZM456.621 285.61C454.921 284.278 454.611 281.81 455.943 280.099C457.275 278.399 459.733 278.089 461.444 279.421C463.144 280.753 463.454 283.222 462.122 284.921C461.352 285.92 460.192 286.437 459.032 286.437C458.183 286.437 457.333 286.161 456.621 285.61ZM448.375 274.644C447.559 272.635 448.535 270.35 450.534 269.546C452.544 268.731 454.829 269.707 455.644 271.705C456.448 273.714 455.472 275.999 453.474 276.815C452.992 277.01 452.498 277.09 452.004 277.09C450.465 277.102 448.983 276.183 448.375 274.644ZM450.04 265.47C447.904 265.171 446.399 263.184 446.698 261.026C447.008 258.89 448.995 257.386 451.143 257.696C453.29 257.994 454.772 259.981 454.485 262.128C454.209 264.092 452.521 265.504 450.591 265.504C450.407 265.504 450.212 265.493 450.04 265.47ZM452.739 253.929C451.039 252.597 450.718 250.129 452.05 248.429C453.382 246.718 455.851 246.408 457.551 247.74C459.262 249.072 459.572 251.541 458.229 253.24C457.459 254.239 456.299 254.756 455.139 254.756C454.312 254.756 453.451 254.492 452.739 253.929ZM484.413 250.025C482.702 248.693 482.392 246.224 483.724 244.525C485.045 242.814 487.514 242.504 489.226 243.825C490.925 245.157 491.247 247.625 489.915 249.336C489.145 250.324 487.985 250.852 486.825 250.852C485.975 250.864 485.137 250.576 484.413 250.025ZM460.847 245.283C460.032 243.273 461.008 240.988 463.006 240.185C465.016 239.369 467.301 240.345 468.117 242.343C468.921 244.353 467.956 246.638 465.946 247.453C465.475 247.648 464.97 247.729 464.476 247.729C462.926 247.729 461.456 246.81 460.847 245.283ZM475.513 246.259C473.377 245.96 471.884 243.974 472.182 241.815C472.481 239.679 474.468 238.175 476.615 238.485C478.763 238.772 480.256 240.77 479.957 242.917C479.682 244.881 477.994 246.293 476.076 246.293C475.892 246.293 475.708 246.282 475.513 246.259Z" fill="#B3B3B3"/>
<path d="M493.877 260.222C493.624 260.222 493.36 260.187 493.119 260.142C492.866 260.084 492.614 260.015 492.384 259.923C492.154 259.82 491.925 259.694 491.706 259.567C491.477 259.418 491.293 259.257 491.098 259.074C490.374 258.35 489.949 257.34 489.949 256.306C489.949 256.042 489.972 255.79 490.03 255.537C490.076 255.296 490.156 255.043 490.259 254.814C490.363 254.584 490.466 254.343 490.615 254.125C490.765 253.906 490.914 253.711 491.098 253.527C491.293 253.344 491.477 253.183 491.706 253.045C491.913 252.896 492.143 252.781 492.384 252.678C492.614 252.586 492.866 252.505 493.119 252.46C494.382 252.207 495.737 252.62 496.645 253.527C496.84 253.711 496.989 253.906 497.139 254.125C497.288 254.343 497.403 254.572 497.495 254.814C497.598 255.055 497.678 255.296 497.724 255.537C497.782 255.79 497.805 256.054 497.805 256.306C497.805 257.34 497.38 258.35 496.656 259.074C495.921 259.797 494.911 260.222 493.877 260.222Z" fill="#B3B3B3"/>
<path d="M427.875 137.437C427.875 137.437 423.718 128.457 431.24 119.903C431.24 119.903 459.664 138.309 491.431 133.119C491.431 133.119 494.911 142.696 485.149 151.572C485.149 151.584 451.143 158.025 427.875 137.437Z" fill="#1E2A50"/>
<path d="M476.535 96.6845C456.081 79.4373 417.344 77.0145 368.304 84.9146C326.133 91.7009 283.192 107.628 268.847 130.122C262.324 140.365 266.757 168.819 266.757 168.819C305.598 171.242 319.828 137.85 319.828 137.85C319.828 137.85 317.232 128.377 325.937 124.186C356.395 109.534 403.608 104.527 421.168 108.856C430.551 111.164 431.251 119.914 431.251 119.914C431.251 119.914 455.243 147.151 491.362 132.66C491.351 132.66 485.815 104.516 476.535 96.6845Z" fill="#5B67EC"/>
<path d="M327.763 153.111C327.763 153.111 328.889 143.281 319.07 137.529C319.07 137.529 297.869 163.927 266.068 168.968C266.068 168.968 265.769 179.154 277.828 184.516C277.817 184.505 312.133 179.957 327.763 153.111Z" fill="#1E2A50"/>
<path opacity="0.7" d="M160.799 356.103V265.711C160.799 256.697 168.115 249.382 177.13 249.382H330.129C327.338 247.143 323.835 245.754 319.976 245.754H166.254C157.239 245.754 149.923 253.068 149.923 262.082V352.474C149.923 361.488 157.239 368.803 166.254 368.803H166.978C163.246 365.806 160.799 361.259 160.799 356.103Z" fill="url(#paint0_radial_32_485)"/>
<path d="M326.495 367.896H165.468C156.025 367.896 148.362 360.524 148.362 351.439V260.339C148.362 251.254 156.025 243.882 165.468 243.882H326.495C335.938 243.882 343.601 251.254 343.601 260.339V351.439C343.601 360.524 335.938 367.896 326.495 367.896Z" fill="#FFD71D"/>
<path d="M336.319 262.071C336.319 253.057 329.003 245.742 319.988 245.742H166.254C157.239 245.742 149.923 253.057 149.923 262.071L234.45 330.577C239.446 334.63 246.59 334.63 251.597 330.588L336.319 262.071Z" fill="#FFD71D"/>
<path opacity="0.7" d="M234.166 319.339L152.956 248.475H335.561L254.351 319.339C248.579 324.371 239.938 324.371 234.166 319.339Z" fill="#FFDD00"/>
<path d="M232.891 323.874L150.659 251.92H335.561L253.329 323.874C247.485 328.984 238.735 328.984 232.891 323.874Z" fill="url(#paint1_linear_32_485)"/>
<path d="M392.1 167.866C392.1 167.866 397.406 152.56 397.774 150.872C399.967 140.928 400.565 119.363 400.427 114.781C400.289 110.2 399.864 106.169 399.772 105.549C399.68 104.929 396.832 101.863 396.821 101.909C396.809 101.955 395.936 102.001 395.936 102.001L395.902 102.575L394.673 101.519L393.651 101.461L393.547 101.944L392.089 101.243L390.676 101.22C390.676 101.22 391.584 104.137 392.1 105.905C392.617 107.674 392.077 107.823 392.077 107.823C392.077 107.823 390.94 108.248 390.504 108.11C390.056 107.972 388.506 108.029 388.506 108.029C388.506 108.029 392.789 113.599 392.985 114.115C393.18 114.632 395.626 117.17 394.707 122.176C393.077 131.144 388.609 144.464 388.609 144.464C388.747 144.154 382.844 160.988 382.844 160.988L392.1 167.866Z" fill="#FEC4AD"/>
<path d="M389.241 188.122C390.883 175.238 397.475 160.196 397.475 160.196C397.475 160.196 387.403 158.198 384.796 154.615C384.796 154.615 381.328 163.089 379.329 167.315C377.124 171.988 374.023 177.064 377.917 179.831C381.684 182.507 388.678 192.611 389.241 188.122Z" fill="#F58220"/>
<path d="M350.629 357.205V365.484H366.547C366.547 365.484 365.949 362.487 358.404 361.098L357.29 357.194H350.629V357.205Z" fill="#133A50"/>
<path d="M374.839 357.205V365.484H390.757C390.757 365.484 390.159 362.487 382.614 361.098L381.5 357.194H374.839V357.205Z" fill="#133A50"/>
<path d="M353.305 233.927C353.305 233.927 351.077 257.064 350.996 278.824C350.916 300.584 349.618 359.112 349.618 359.112H358.404C358.404 359.112 367.465 302.754 370.761 288.768C374.057 274.782 382.614 234.191 382.614 234.191L353.305 233.927Z" fill="#133A50"/>
<path d="M366.811 157.164C366.811 157.164 366.237 161.597 365.778 163.847C365.307 166.098 364.916 167.292 364.583 167.981C363.825 169.508 359.151 174.147 359.151 174.147C359.151 174.147 373.713 181.841 377.997 181.841C382.281 181.841 380.776 173.252 380.776 173.252C380.776 173.252 376.102 169.566 375.413 167.694C374.713 165.834 374.334 160.425 374.334 160.425L366.811 157.164Z" fill="#FEC4AD"/>
<path d="M372.404 259.039C372.404 259.039 374.046 295.715 374.379 302.249C374.712 308.771 374.379 359.077 374.379 359.077C374.379 359.077 382.614 359.295 382.614 359.077C382.614 358.859 390.377 301.973 391.388 285.897C392.399 269.822 391.801 250.749 393.145 248.533C394.477 246.305 389.539 234.041 389.539 234.041L377.882 233.616L372.404 259.039Z" fill="#133A50"/>
<path d="M362.102 169.818C362.102 169.818 349.802 164.881 347.769 168.934C346.23 172 347.551 191.67 348.24 197.17C348.837 201.958 352.145 242.194 352.145 242.194C352.145 242.194 356.739 249.313 378.87 246.477C387.403 245.386 391.595 241.229 391.595 241.229C391.595 241.229 389.206 193.22 388.54 188.397C387.885 183.586 385.6 176.065 385.6 176.065L379.019 171.724C379.019 171.724 381.121 176.363 375.172 177.684C363.205 180.348 362.102 169.818 362.102 169.818Z" fill="#F58220"/>
<path d="M378.456 140.422C379.846 140.985 382.292 142.237 382.556 143.408C382.832 144.568 383.82 147.944 383.946 149.987C384.072 152.031 384.371 155.901 384.359 158.301C384.359 160.712 382.901 165.581 382.349 166.098C381.798 166.615 377.756 167.453 376.389 167.062C375.022 166.672 366.994 162.515 366.489 157.44C366.489 157.44 365.065 158.186 362.447 153.949C361.769 152.847 364.123 144.625 364.433 143.155C365.203 139.596 373.977 142.397 375.953 141.835C377.928 141.284 378.456 140.422 378.456 140.422Z" fill="#FEC4AD"/>
<path d="M382.556 143.408C382.556 143.408 376.401 147.255 374 147.461C371.6 147.657 368.074 150.952 368.143 151.986C368.212 153.008 367.132 153.708 367.132 153.708C367.132 153.708 365.639 151.331 364.411 151.572C361.987 152.066 363.411 155.051 364.721 155.706C366.03 156.361 367.316 156.774 367.316 156.774C367.316 156.774 367.534 158.198 367.431 159.335C367.328 160.471 366.409 162.332 366.409 162.332C366.409 162.332 363.572 156.361 361.023 154.121C354.97 148.816 359.357 138.964 365.318 137.115C367.73 136.369 374.333 135.875 377.561 137.311C381.867 139.251 382.556 143.408 382.556 143.408Z" fill="#133A50"/>
<path d="M369.671 151.825C369.762 152.066 370.394 152.112 370.509 152.158C370.762 152.273 370.647 152.307 371.761 154.006C372.576 155.258 373.943 155.66 376.504 154.799C378.456 154.144 378.181 152.468 378.318 151.664C378.456 150.86 378.628 150.734 378.939 150.676C379.249 150.619 379.421 150.699 379.823 151.4C380.225 152.1 380.409 153.926 382.453 153.616C383.865 153.409 384.233 153.019 384.417 151.905C384.589 150.918 384.635 149.942 384.578 149.207C384.52 148.472 384.509 148.024 384.13 147.978C383.67 147.932 383.062 148.058 382.453 148.162C381.236 148.38 380.363 148.403 379.697 148.874C379.042 149.356 379.111 149.643 378.766 149.712C378.41 149.781 378.353 149.471 377.572 149.253C376.791 149.023 373.541 149.597 372.323 149.815C371.106 150.033 369.429 150.481 369.464 150.941C369.487 151.205 369.567 151.549 369.671 151.825ZM380.19 150.022C380.248 149.425 380.294 149.494 381.798 149.149C383.303 148.805 383.464 148.874 383.762 149.115C384.061 149.356 384.29 150.297 384.13 151.538C384.049 152.204 383.911 153.065 382.683 153.283C381.362 153.513 381.052 152.858 380.673 151.94C380.305 151.009 380.167 150.24 380.19 150.022ZM371.416 150.998C371.623 150.665 373.656 150.389 375.195 150.206C376.722 150.022 377.239 149.953 377.503 150.493C377.595 150.688 377.733 151.469 377.698 152.456C377.664 153.444 377.469 154.316 375.08 154.741C373.392 155.04 372.576 154.581 371.887 153.317C371.267 152.227 371.221 151.319 371.416 150.998ZM366.305 152.514L369.671 151.825L370.807 150.16C370.807 150.16 369.521 150.343 367.385 150.814C366.374 151.044 365.364 151.767 365.364 151.767C365.364 151.767 365.846 152.008 366.305 152.514Z" fill="#0F0359"/>
<path d="M339.788 169.267C339.788 169.267 336.882 150.837 336.847 149.115C336.675 138.93 341.843 125.242 342.9 120.775C343.956 116.309 344.657 117.021 344.864 116.435C345.07 115.849 352.478 114.712 352.478 114.712C352.478 114.712 354.465 113.886 354.936 113.84C355.395 113.794 357.348 113.208 357.348 113.208L356.211 115.252C356.211 115.252 351.594 118.754 351.307 119.225C351.008 119.696 348.114 121.694 348.011 126.781C347.815 135.898 347.85 145.762 347.85 145.762C347.781 145.429 352.214 164.64 352.214 164.64L339.788 169.267Z" fill="#FEC4AD"/>
<path d="M348.24 197.17C345.105 188.283 337.95 164.433 337.95 164.433C337.95 164.433 348.596 161.757 351.605 158.496C351.605 158.496 355.2 169.164 356.693 173.585C358.347 178.476 360.828 183.885 356.636 186.181C352.582 188.409 349.745 201.442 348.24 197.17Z" fill="#F58220"/>
<path d="M554.148 212.064C556.916 214.636 558.869 213.774 563.015 227.979C565.668 237.05 575.338 282.832 575.338 282.832L569.561 285.335C561.751 263.449 561.763 263.472 552.633 245.719C548.211 237.119 546.35 228.622 546.35 228.622L529.479 227.611C518.925 223.271 522.543 207.884 522.543 207.884C522.543 207.884 551.381 209.491 554.148 212.064Z" fill="url(#paint2_linear_32_485)"/>
<path d="M490.225 198.456L505.454 188.708L520.189 200.144L538.541 206.069C538.541 206.069 538.507 206.092 538.438 206.127C545.822 208.688 554.24 212.419 556.825 214.831C559.592 217.403 565.036 221.054 560.649 235.19C557.847 244.215 545.604 289.962 545.604 289.962L539.402 288.86C539.402 288.86 541.607 262.358 543.812 242.527C544.88 232.916 545.248 230.229 545.248 230.229C545.248 230.229 504.282 234.696 491.086 227.726C481.841 222.846 490.225 205.84 490.225 198.456Z" fill="url(#paint3_linear_32_485)"/>
<path d="M546.029 286.644C546.029 286.644 545.845 288.309 543.181 289.055C540.517 289.802 538.702 287.597 538.702 287.597L538.116 293.04L546.638 299.045H553.712L549.888 294.797L546.029 286.644Z" fill="#133A50"/>
<path d="M574.43 279.1C574.43 279.1 575.682 281.431 573.374 282.958C571.065 284.485 568.665 282.935 568.665 282.935L569.756 288.298L589.877 282.005L574.43 279.1Z" fill="#133A50"/>
<path d="M551.266 143.592C551.231 143.879 547.912 139.607 547.912 139.607L547.143 136.105C547.143 136.105 545.788 134.291 544.742 133.2C543.697 132.109 542.767 127.413 542.767 127.413L544.134 126.586C544.134 126.586 544.869 128.722 545.213 129.146C545.558 129.571 546.534 129.686 546.534 129.686C546.534 129.686 546.66 128.389 546.58 126.425C546.488 124.462 545.34 120.913 545.34 120.913L546.477 120.362C546.477 120.362 547.326 122.085 547.568 122.888C547.809 123.692 548.222 125.334 548.222 125.334C548.222 125.334 548.142 122.682 547.878 121.602C547.614 120.523 547.418 119.122 547.418 119.122L548.613 118.812C548.613 118.812 549.21 120.592 549.405 121.82C549.6 123.049 550.025 125.139 550.025 125.139C550.025 125.139 550.186 122.234 550.071 121.338C549.956 120.443 549.945 120.006 549.945 120.006L551.208 120.041C551.208 120.041 551.668 121.361 551.656 122.9C551.645 124.439 551.783 125.173 551.783 125.173C551.783 125.173 552.265 122.854 552.139 122.073C552.012 121.292 552.093 121.017 552.093 121.017L553.069 121.177C553.069 121.177 553.62 125.036 553.792 127.378C553.965 129.709 553.689 132.672 553.666 134.325C553.643 135.979 553.597 137.265 553.597 137.265L551.266 143.592Z" fill="#FEC4AD"/>
<path d="M525.471 148.104C533.327 154.558 541.171 159.323 541.171 159.323C541.171 159.323 544.088 151.997 545.489 146.807C547.154 140.606 547.637 137.758 547.637 137.758L553.563 137.276C553.563 137.276 551.691 153.122 549.359 163.882C547.097 174.331 544.249 172.459 541.745 171.954C539.242 171.437 515.664 158.772 515.664 158.772L518.19 145.314C518.179 145.303 519.855 143.5 525.471 148.104Z" fill="#FEC4AD"/>
<path d="M500.55 110.051C501.813 109.327 507.9 108.833 511.713 111.176C519.006 115.666 515.503 127.964 515.043 130.8C514.584 133.636 517.203 138.734 517.157 142.122C517.111 145.509 516.307 146.726 513.78 150.011C513.034 150.987 512.838 152.629 512.838 152.629C512.838 152.629 510.048 148.449 509.45 142.627C508.853 136.805 507.613 138.16 504.707 131.776C501.802 125.38 501.664 115.757 501.664 115.757L500.55 110.051Z" fill="#471A16"/>
<path d="M506.625 114.219L500.561 110.05C500.561 110.05 495.381 109.362 492.372 113.966C489.363 118.571 488.318 125.242 487.641 130.26C486.963 135.278 485.195 144.694 485.321 148.437C485.447 152.181 489.984 152.686 489.984 152.686L505.224 146.095C505.224 146.095 503.421 138.08 505.086 129.548C506.728 121.005 506.625 114.219 506.625 114.219Z" fill="#471A16"/>
<path d="M511.69 115.493C512.012 117.388 513.482 122.957 513.619 126.528C513.769 130.1 513.344 135.99 510.978 137.609C508.612 139.228 504.168 137.942 500.917 136.587C497.667 135.244 496.875 132.959 496.243 130.869C495.612 128.768 495.83 123.21 496.576 119.214C497.323 115.218 499.849 113.622 502.789 113.071C505.729 112.519 511.69 115.493 511.69 115.493Z" fill="#FEC4AD"/>
<path d="M498.402 128.779C498.402 128.779 499.229 137.655 497.369 141.835C496.082 144.717 490.857 145.946 490.857 145.946C490.857 145.946 490.662 153.926 495.899 161.643C501.136 169.348 517.524 172.207 517.524 172.207C517.524 172.207 520.728 165.765 522.417 158.554C524.105 151.343 519.534 145.774 519.534 145.774C519.534 145.774 515.101 144.327 512.976 143.523C507.82 141.582 508.417 133.372 508.417 133.372L498.402 128.779Z" fill="#FEC4AD"/>
<path d="M508.359 149.368C508.359 149.368 497.77 146.681 494.589 144.614L484.081 150.86C484.081 150.86 477.913 156.751 488.445 172.218C488.445 172.218 492.442 186.308 485.953 211.145C485.953 211.145 487.71 217.541 497.541 214.13C506.005 211.202 506.2 208.906 513.619 207.022C524.576 204.244 527.458 202.533 527.458 202.533C521.704 193.886 522.726 180.382 522.726 180.382C522.726 180.382 529.25 174.136 526.459 167.763C522.428 158.554 521.073 145.521 521.073 145.521L515.445 144.097C515.445 144.097 512.448 147.76 510.955 148.874C509.462 149.999 508.359 149.368 508.359 149.368Z" fill="#F58220"/>
<path d="M512.976 143.523C512.976 143.523 511.69 148.323 508.359 149.367C508.359 149.367 509.657 155.936 512.769 154.799C517.145 153.191 515.434 144.108 515.434 144.108L512.976 143.523Z" fill="white"/>
<path d="M493.314 143.798C493.314 143.798 495.393 153.834 500.94 154.65C506.487 155.465 508.359 149.356 508.359 149.356C508.359 149.356 496.599 145.911 495.451 142.306L493.314 143.798Z" fill="white"/>
<path d="M503.099 112.967C502.077 113.036 501.319 117.87 501.216 120.569C501.113 123.267 497.07 125.403 498.85 131.34C500.63 137.276 500.389 143.018 502.789 149.528C505.178 156.039 502.204 158.416 500.906 160.667C500.906 160.667 495.784 155.063 494.05 152.25C491.27 147.748 486.734 148.966 486.734 148.966C486.734 148.966 494.555 133.785 494.291 129.698C494.027 125.61 493.303 119.352 496.565 115.62C499.815 111.888 503.099 112.967 503.099 112.967Z" fill="#471A16"/>
<path d="M498.988 125.093C498.988 125.093 496.817 122.716 495.382 123.072C493.946 123.439 493.854 125.587 494.945 127.344C496.036 129.1 500.079 130.099 500.079 130.099L498.988 125.093Z" fill="#FEC4AD"/>
<path d="M503.926 120.454C505.902 120.638 507.016 120.351 510.094 120.006C514.033 119.57 515.698 120.58 515.698 120.58L514.205 114.035C514.205 114.035 509.6 111.475 506.35 111.497C502.204 111.52 498.574 113.117 500.63 114.449C502.801 115.884 503.926 120.454 503.926 120.454Z" fill="#471A16"/>
<path d="M492.993 158.186C492.292 166.408 489.869 189.821 489.869 189.821C497.345 196.367 507.934 207.241 507.934 207.241C507.934 207.241 504.925 213.177 503.628 212.178C493.326 204.129 481.543 199.352 480.704 193.748C479.326 184.539 478.844 161.367 482.243 153.834C484.862 148.024 493.739 149.471 492.993 158.186Z" fill="#FEC4AD"/>
<path d="M512.482 207.976C515.617 209.147 517.581 210.307 517.397 211.478C517.271 212.282 514.595 210.812 512.999 210.869C513.527 212.006 514.974 213.705 516.8 214.601C518.868 215.623 520.027 217.035 518.925 218.23C517.822 219.424 515.778 221.1 514.446 220.492C513.114 219.883 508.382 216.576 506.602 215.669C504.822 214.75 504.11 212.523 503.191 211.903C502.272 211.283 504.868 206.586 504.868 206.586C505.362 206.724 507.946 207.275 507.946 207.275C507.946 207.275 509.978 207.574 510.507 207.493C511.035 207.367 512.482 207.976 512.482 207.976Z" fill="#FEC4AD"/>
</g>
<defs>
<radialGradient id="paint0_radial_32_485" cx="0" cy="0" r="1" gradientUnits="userSpaceOnUse" gradientTransform="translate(169.6 289.878) scale(77.1562 77.1436)">
<stop stop-color="white"/>
<stop offset="1" stop-color="white" stop-opacity="0"/>
</radialGradient>
<linearGradient id="paint1_linear_32_485" x1="243.107" y1="251.911" x2="243.107" y2="327.703" gradientUnits="userSpaceOnUse">
<stop stop-color="#FFD71D"/>
<stop offset="1" stop-color="#FEB200"/>
</linearGradient>
<linearGradient id="paint2_linear_32_485" x1="575.346" y1="246.608" x2="521.951" y2="246.608" gradientUnits="userSpaceOnUse">
<stop stop-color="#343A44"/>
<stop offset="0.3009" stop-color="#232D3E"/>
<stop offset="0.6391" stop-color="#182439"/>
<stop offset="1" stop-color="#142138"/>
</linearGradient>
<linearGradient id="paint3_linear_32_485" x1="562.295" y1="239.328" x2="486.737" y2="239.328" gradientUnits="userSpaceOnUse">
<stop stop-color="#343A44"/>
<stop offset="0.3009" stop-color="#232D3E"/>
<stop offset="0.6391" stop-color="#182439"/>
<stop offset="1" stop-color="#142138"/>
</linearGradient>
<clipPath id="clip0_32_485">
<rect width="700" height="369.331" fill="white"/>
</clipPath>
</defs>
</svg>
