<svg xmlns="http://www.w3.org/2000/svg" fill="none" viewBox="56.46 28.68 287.04 319.32">
<path d="M76.1367 106.976C76.1367 106.976 58.1735 111.875 56.891 120.359C55.6085 128.843 75.9699 138.993 85.2407 135.519C94.5097 132.042 76.1367 106.976 76.1367 106.976Z" fill="#FE9F73"/>
<path d="M242.294 301.302C242.294 301.302 191.207 304.073 168.527 280.558C145.847 257.044 191.271 227.25 190.614 227.618C189.958 227.986 245.896 213.866 253.597 219.9C261.297 225.934 294.142 250.648 288.234 253.964C282.324 257.278 242.294 301.302 242.294 301.302Z" fill="#ED7163"/>
<path d="M69.278 73.1433C69.2566 73.0788 69.2377 73.0124 69.2188 72.9461C68.5721 70.7083 69.703 68.3405 71.8493 67.4324C71.9126 67.4042 71.9777 67.3785 72.0403 67.3546C72.0612 67.3466 72.0803 67.3362 72.1055 67.3289L168.872 33.0007C168.893 32.9928 168.916 32.9873 168.939 32.9818C169.003 32.9604 169.072 32.9396 169.136 32.9225C171.374 32.2753 173.744 33.4038 174.65 35.5473C174.678 35.6106 174.704 35.6757 174.728 35.7383C174.736 35.7592 174.746 35.7782 174.753 35.8034L246.091 236.973C246.833 239.066 245.737 241.362 243.645 242.103L145.767 276.826C143.675 277.566 141.379 276.475 140.637 274.381L69.2988 73.212C69.2897 73.1844 69.286 73.1641 69.278 73.1433Z" fill="white"/>
<path opacity="0.8" d="M178.525 45.8176L72.7769 82.5879L83.9568 114.754L189.705 77.9839L178.525 45.8176Z" fill="#A3AAFC"/>
<path opacity="0.3" d="M191.453 77.3784L83.9536 114.758L141.225 279.535L248.724 242.156L191.453 77.3784Z" fill="#A3AAFC"/>
<path d="M175.982 33.9604L166.145 31.3493L71.9464 65.0406L66.2553 75.2474C66.2553 75.2474 70.039 83.3797 70.602 83.3226C71.1651 83.2655 180.84 45.1333 180.84 45.1333L175.982 33.9604Z" fill="#FFA386"/>
<g opacity="0.5">
<g opacity="0.5">
<g opacity="0.5">
<g opacity="0.5">
<g opacity="0.5">
<path opacity="0.5" d="M167.454 42.0155C167.663 42.6069 168.195 42.9906 168.783 43.0379C168.993 43.0571 169.214 43.0297 169.426 42.9551C169.639 42.8804 169.822 42.7621 169.977 42.6156C170.404 42.2121 170.577 41.5726 170.366 40.983C170.083 40.1791 169.198 39.7601 168.394 40.0434C167.588 40.3286 167.169 41.2134 167.454 42.0155Z" fill="white"/>
</g>
</g>
</g>
</g>
<g opacity="0.5">
<g opacity="0.5">
<g opacity="0.5">
<g opacity="0.5">
<path opacity="0.5" d="M162.952 43.6131C163.16 44.2046 163.693 44.5882 164.28 44.6355C164.49 44.6548 164.711 44.6274 164.924 44.5527C165.136 44.478 165.323 44.3579 165.475 44.2132C165.902 43.8054 166.073 43.172 165.864 42.5806C165.581 41.7767 164.696 41.3577 163.892 41.6411C163.086 41.9263 162.664 42.8086 162.952 43.6131Z" fill="white"/>
</g>
</g>
</g>
</g>
<g opacity="0.5">
<g opacity="0.5">
<g opacity="0.5">
<g opacity="0.5">
<path opacity="0.5" d="M158.447 45.2122C158.656 45.8037 159.188 46.1873 159.776 46.2346C159.985 46.2539 160.207 46.2265 160.419 46.1518C160.632 46.0772 160.818 45.957 160.97 45.8123C161.397 45.4045 161.568 44.7711 161.359 44.1797C161.076 43.3758 160.191 42.9568 159.387 43.2402C158.583 43.5235 158.162 44.4059 158.447 45.2122Z" fill="white"/>
</g>
</g>
</g>
</g>
</g>
<path d="M70.08 75.4143C68.7966 71.7976 70.6896 67.8245 74.3068 66.5404L166.662 33.7767C170.279 32.4926 174.252 34.3847 175.535 38.0014L245.351 234.881C246.5 238.123 244.804 241.684 241.559 242.835L147.848 276.081C144.605 277.231 141.044 275.536 139.896 272.294L70.08 75.4143ZM65.5919 76.8822L136.126 275.789C138.242 281.758 144.794 284.878 150.766 282.76L243.507 249.861C249.472 247.744 252.599 241.192 250.482 235.221L179.947 36.3142C177.832 30.3453 171.277 27.2263 165.307 29.3428L72.567 62.2418C66.5966 64.3626 63.4742 70.9152 65.5919 76.8822Z" fill="#20111D"/>
<path d="M95.149 83.5448L101.402 101.532L99.6589 102.139L92.9196 82.748L95.8445 81.7327L110.829 94.8632L105.142 78.4988L106.885 77.8923L113.625 97.2831L111.711 97.9484L95.149 83.5448Z" fill="white"/>
<path d="M129.758 89.924L130.301 91.4845L118.776 95.492L112.036 76.1011L123.155 72.2369L123.698 73.7974L114.375 77.0386L116.733 83.8298L123.482 81.4833L124.025 83.0438L117.276 85.3903L120.029 93.3084L129.758 89.924Z" fill="white"/>
<path d="M147.414 85.5356L137.114 70.7022L138.234 88.7272L136.923 89.1832L124.728 71.689L126.471 71.0825L136.459 85.5244L135.311 68.0108L136.923 67.4489L146.871 81.9049L145.774 64.3723L147.533 63.7615L148.766 85.068L147.414 85.5356Z" fill="white"/>
<path d="M154.155 77.9888L155.493 76.8041C156.498 78.0036 157.522 78.7893 158.571 79.1661C159.618 79.5405 160.737 79.5239 161.926 79.1095C163.149 78.6848 164.014 77.9957 164.522 77.0447C165.03 76.0937 165.087 75.0538 164.695 73.9293C164.382 73.0289 163.88 72.3734 163.189 71.9625C162.498 71.5517 161.482 71.3112 160.145 71.2348C159.419 71.2028 158.467 71.1907 157.288 71.1986C156.109 71.2065 155.342 71.175 154.984 71.1016C153.859 70.8849 152.995 70.5389 152.39 70.0637C151.785 69.5885 151.325 68.9017 151.012 68.0014C150.452 66.3923 150.506 64.957 151.175 63.6894C151.843 62.4236 153.043 61.4912 154.772 60.8871C156.312 60.3522 157.712 60.2905 158.975 60.6983C160.239 61.106 161.404 62.0017 162.472 63.3836L161.119 64.3994C160.219 63.3597 159.292 62.6846 158.335 62.3693C157.378 62.0539 156.344 62.0915 155.234 62.4776C154.16 62.8516 153.396 63.4653 152.942 64.3187C152.488 65.1722 152.436 66.0967 152.783 67.0941C153.043 67.8464 153.48 68.4049 154.094 68.7696C154.706 69.1361 155.523 69.3218 156.544 69.3285C156.94 69.3393 157.51 69.3424 158.254 69.3377C160.385 69.3222 161.79 69.4059 162.472 69.5896C163.556 69.8597 164.413 70.2682 165.049 70.8159C165.685 71.3636 166.166 72.1039 166.492 73.041C167.081 74.7355 167.015 76.272 166.294 77.6507C165.574 79.0294 164.297 80.0342 162.471 80.6682C160.827 81.2386 159.335 81.3088 157.994 80.8746C156.644 80.4391 155.368 79.4769 154.155 77.9888Z" fill="white"/>
<path opacity="0.3" d="M141.279 102.424L90.1357 120.207L90.6759 121.761L141.819 103.978L141.279 102.424Z" fill="#A3AAFC"/>
<path opacity="0.3" d="M143.079 107.604L91.936 125.387L92.4761 126.941L143.619 109.157L143.079 107.604Z" fill="#A3AAFC"/>
<path opacity="0.3" d="M144.88 112.786L93.7373 130.57L94.2774 132.124L145.42 114.34L144.88 112.786Z" fill="#A3AAFC"/>
<path opacity="0.3" d="M146.68 117.967L95.5371 135.75L96.0772 137.304L147.22 119.52L146.68 117.967Z" fill="#A3AAFC"/>
<path opacity="0.3" d="M148.48 123.146L97.3374 140.93L97.8775 142.484L149.02 124.7L148.48 123.146Z" fill="#A3AAFC"/>
<path opacity="0.3" d="M150.28 128.326L99.1377 146.11L99.6778 147.664L150.821 129.88L150.28 128.326Z" fill="#A3AAFC"/>
<path opacity="0.3" d="M152.082 133.509L100.939 151.292L101.479 152.846L152.622 135.063L152.082 133.509Z" fill="#A3AAFC"/>
<path opacity="0.3" d="M153.885 138.688L102.742 156.471L103.282 158.025L154.425 140.242L153.885 138.688Z" fill="#A3AAFC"/>
<path opacity="0.3" d="M155.685 143.868L104.542 161.651L105.082 163.205L156.225 145.422L155.685 143.868Z" fill="#A3AAFC"/>
<path opacity="0.3" d="M157.486 149.051L106.343 166.834L106.883 168.388L158.026 150.605L157.486 149.051Z" fill="#A3AAFC"/>
<path opacity="0.3" d="M159.286 154.231L108.144 172.014L108.684 173.568L159.826 155.785L159.286 154.231Z" fill="#A3AAFC"/>
<path opacity="0.3" d="M208.12 143.058L109.943 177.196L110.483 178.75L208.66 144.612L208.12 143.058Z" fill="#A3AAFC"/>
<path opacity="0.3" d="M209.92 148.238L111.743 182.376L112.283 183.93L210.46 149.792L209.92 148.238Z" fill="#A3AAFC"/>
<path opacity="0.3" d="M212.318 155.137L180.354 166.252L180.894 167.806L212.859 156.691L212.318 155.137Z" fill="#A3AAFC"/>
<path opacity="0.3" d="M214.323 160.902L182.358 172.017L182.898 173.571L214.863 162.456L214.323 160.902Z" fill="#A3AAFC"/>
<path opacity="0.3" d="M216.326 166.67L184.361 177.785L184.901 179.339L216.866 168.224L216.326 166.67Z" fill="#A3AAFC"/>
<path opacity="0.3" d="M218.331 172.435L186.366 183.55L186.906 185.104L218.871 173.989L218.331 172.435Z" fill="#A3AAFC"/>
<path opacity="0.3" d="M220.333 178.204L188.368 189.319L188.908 190.873L220.873 179.758L220.333 178.204Z" fill="#A3AAFC"/>
<path opacity="0.3" d="M222.338 183.969L190.373 195.084L190.913 196.638L222.878 185.523L222.338 183.969Z" fill="#A3AAFC"/>
<path opacity="0.3" d="M224.344 189.737L192.379 200.852L192.919 202.406L224.884 191.291L224.344 189.737Z" fill="#A3AAFC"/>
<path opacity="0.3" d="M226.345 195.503L194.38 206.618L194.92 208.172L226.885 197.057L226.345 195.503Z" fill="#A3AAFC"/>
<path opacity="0.3" d="M228.35 201.27L130.321 235.357L130.861 236.911L228.89 202.824L228.35 201.27Z" fill="#A3AAFC"/>
<path opacity="0.3" d="M230.201 206.595L132.172 240.682L132.712 242.236L230.741 208.149L230.201 206.595Z" fill="#A3AAFC"/>
<path opacity="0.3" d="M232.053 211.923L134.024 246.01L134.564 247.564L232.593 213.477L232.053 211.923Z" fill="#A3AAFC"/>
<path opacity="0.3" d="M233.904 217.248L135.875 251.335L136.415 252.889L234.444 218.802L233.904 217.248Z" fill="#A3AAFC"/>
<path opacity="0.3" d="M235.755 222.577L137.726 256.663L138.266 258.217L236.295 224.131L235.755 222.577Z" fill="#A3AAFC"/>
<path opacity="0.3" d="M237.606 227.902L139.577 261.988L140.117 263.542L238.146 229.456L237.606 227.902Z" fill="#A3AAFC"/>
<path opacity="0.3" d="M188.312 86.0709L150.412 99.2495L168.845 152.284L206.745 139.105L188.312 86.0709Z" fill="#A3AAFC"/>
<path opacity="0.3" d="M174.679 168.251L114.295 189.247L128.209 229.279L188.592 208.282L174.679 168.251Z" fill="#A3AAFC"/>
<path d="M343.5 348L246.5 348L238.545 326.205L231.282 300.998L231.106 300.682L231.328 300.455L252.516 279.065C252.518 279.064 252.518 279.064 252.521 279.062L266.642 264.806C266.642 264.806 254.924 267.182 243.703 258.036C241.614 256.34 239.545 254.246 237.574 251.663C236.173 249.831 234.821 247.752 233.546 245.398L233.544 245.395C232.438 243.358 231.391 241.112 230.418 238.639C228.921 234.84 227.706 231.171 226.721 227.655C226.02 225.15 225.439 222.723 224.958 220.383C224.376 217.567 223.946 214.875 223.631 212.327C222.761 205.281 222.794 199.324 223.122 194.792C223.569 188.613 224.564 185.091 224.564 185.091C224.564 185.091 219.362 177.44 213.415 167.688C212.931 166.892 212.437 166.083 211.949 165.262C205.349 154.277 198.296 141.325 196.586 133.632C194.759 125.425 197.233 116.047 201.615 111.537C202.851 110.264 204.242 109.376 205.73 109.017C207.739 108.531 209.928 108.997 212.165 110.762C212.498 111.022 212.83 111.312 213.163 111.629C213.598 112.046 214.036 112.514 214.469 113.031C214.895 113.539 215.318 114.09 215.743 114.698C215.743 114.698 217.107 117.567 219.275 121.572C219.403 121.809 219.534 122.047 219.666 122.289C219.734 122.41 219.799 122.534 219.867 122.655C219.87 122.66 219.873 122.669 219.875 122.671C221.571 125.748 223.67 129.353 225.955 132.806C225.957 132.809 225.959 132.811 225.962 132.816C226.146 133.092 226.329 133.368 226.515 133.642C228.985 137.302 231.649 140.72 234.229 143.067C243.018 151.052 264.552 172.543 271.451 183.312C278.346 194.076 293.912 246.477 293.912 246.477L343.5 348Z" fill="#FE9F73"/>
<path d="M110.775 204.108L113.408 211.46C113.408 211.46 128.236 215.783 131.887 229.688C135.538 243.593 128.156 249.607 128.156 249.607C128.156 249.607 105.841 239.546 102.742 233.477C99.6389 227.408 93.8973 216.93 110.775 204.108Z" fill="#FE9F73"/>
<path d="M125.272 248.253C125.272 248.253 117.254 245.895 106.19 237.18C106.71 236.25 107.949 235.01 108.735 234.206C111.155 231.741 113.325 231.317 116.02 232.479L126.692 237.837C126.692 237.837 129.047 239.411 127.968 243.334C127.553 244.84 125.272 248.253 125.272 248.253Z" fill="#F78A5E"/>
<path d="M128.24 250.161L114.647 243.625C107.21 239.951 103.382 235.21 101.479 231.881C99.4039 228.247 99.1035 225.508 99.0914 225.395L100.013 225.299C100.024 225.406 101.287 235.996 115.052 242.793L128.069 249.051C131.186 245.986 131.92 241.765 131.926 241.722C131.952 241.592 134.138 230.293 128.104 222.341C122.04 214.348 110.405 211.193 110.289 211.161L110.526 210.263C111.014 210.392 122.584 213.527 128.846 221.779C135.135 230.072 132.936 241.411 132.841 241.889C132.813 242.067 132.023 246.648 128.475 249.947L128.24 250.161Z" fill="black"/>
<path d="M128.194 253.783L130.249 259.529C130.249 259.529 141.837 262.907 144.689 273.772C147.542 284.636 141.774 289.334 141.774 289.334C141.774 289.334 124.337 281.473 121.916 276.73C119.492 271.989 115.006 263.804 128.194 253.783Z" fill="#FE9F73"/>
<path d="M139.523 288.278C139.523 288.278 133.256 286.435 124.611 279.624C125.018 278.898 125.983 277.927 126.599 277.301C128.491 275.376 130.186 275.043 132.292 275.952L140.631 280.139C140.631 280.139 142.471 281.369 141.628 284.434C141.305 285.611 139.523 288.278 139.523 288.278Z" fill="#F78A5E"/>
<path d="M141.841 289.767L131.22 284.661C120.081 279.161 119.102 270.77 119.065 270.414L119.787 270.338C119.795 270.42 120.782 278.694 131.54 284.008L141.712 288.898C144.154 286.499 144.719 283.206 144.726 283.174C144.745 283.071 146.452 274.243 141.741 268.027C137.003 261.782 127.911 259.315 127.821 259.291L128.005 258.589C128.387 258.691 137.427 261.139 142.318 267.588C147.232 274.065 145.513 282.93 145.438 283.3C145.416 283.44 144.799 287.017 142.028 289.597L141.841 289.767Z" fill="black"/>
<path d="M242.956 257.464C242.956 257.464 258.567 270.494 252.737 279.352C246.907 288.21 276.179 274.981 275.728 274.172C275.274 273.361 281.309 238.61 275.774 240.118C270.24 241.629 251.895 244.475 250.498 250.043C249.1 255.616 242.956 257.464 242.956 257.464Z" fill="#FE9F73"/>
<path d="M94.9403 160.265L97.5732 167.618C97.5732 167.618 112.402 171.941 116.053 185.846C119.704 199.751 112.321 205.764 112.321 205.764C112.321 205.764 90.0061 195.704 86.9074 189.635C83.8087 183.566 78.0646 173.09 94.9403 160.265Z" fill="#FE9F73"/>
<path d="M109.437 204.411C109.437 204.411 101.42 202.053 90.356 193.337C90.876 192.408 92.1141 191.167 92.901 190.364C95.3201 187.899 97.4909 187.474 100.185 188.636L110.858 193.995C110.858 193.995 113.212 195.568 112.133 199.492C111.719 200.998 109.437 204.411 109.437 204.411Z" fill="#F78A5E"/>
<path d="M231.754 300.824L230.868 301.096L242.776 339.87L243.662 339.597L231.754 300.824Z" fill="black"/>
<path d="M234.135 301.031C216.811 302.607 197.331 297.965 186.56 292.983C177.023 288.573 171.641 284.362 171.587 284.321L172.162 283.592C172.215 283.633 177.518 287.78 186.951 292.142C197.613 297.072 216.9 301.67 234.051 300.109L234.135 301.031Z" fill="black"/>
<path d="M205.456 117.553C204.997 114.818 210.67 111.275 212.555 110.632C213.773 110.215 224.547 132.391 225.995 132.875C225.995 132.875 226.309 133.054 223.529 134.724C220.465 136.564 217.565 136.449 217.565 136.449C217.565 136.449 205.915 120.287 205.456 117.553Z" fill="#F78A5E"/>
<path d="M112.404 206.316L98.8127 199.783C91.3752 196.109 87.5478 191.367 85.6465 188.037C83.5717 184.403 83.2714 181.664 83.2592 181.551L84.1809 181.455C84.1918 181.562 85.4545 192.152 99.2202 198.949L112.237 205.206C115.055 202.454 116.089 197.901 116.095 197.854C116.117 197.75 118.301 186.448 112.27 178.495C106.206 170.501 94.5706 167.346 94.4547 167.314L94.6916 166.416C95.1795 166.545 106.75 169.68 113.012 177.932C119.301 186.226 117.102 197.565 117.007 198.042C116.961 198.257 115.85 203.178 112.639 206.102L112.404 206.316Z" fill="black"/>
<path d="M65.7135 132.193C65.2766 131.983 54.9872 126.962 56.6456 119.339C58.2891 111.804 74.6823 106.918 75.3807 106.714L75.6404 107.604C75.4777 107.653 59.0758 112.538 57.5533 119.538C56.0488 126.444 66.0142 131.308 66.1142 131.36L65.7135 132.193Z" fill="black"/>
<path d="M274.35 249.444C274.516 249.461 274.688 249.398 274.796 249.256C278.446 244.459 279.034 234.877 279.057 234.473C279.074 234.203 278.868 233.974 278.598 233.957C278.329 233.94 278.097 234.148 278.083 234.416C278.078 234.511 277.486 244.104 274.02 248.664C273.855 248.879 273.896 249.185 274.114 249.348C274.183 249.404 274.266 249.434 274.35 249.444Z" fill="#000100"/>
<path d="M268.014 251.788C268.144 251.802 268.279 251.767 268.386 251.675C272.985 247.778 275.627 238.549 275.738 238.159C275.811 237.898 275.659 237.628 275.402 237.556C275.143 237.481 274.871 237.635 274.799 237.892C274.772 237.985 272.126 247.224 267.757 250.926C267.55 251.101 267.525 251.411 267.702 251.616C267.781 251.717 267.896 251.773 268.014 251.788Z" fill="#000100"/>
<path d="M266.95 265.545C266.699 265.594 260.729 266.753 253.156 264.066C248.714 262.49 244.654 259.912 241.086 256.399C236.642 252.022 232.959 246.176 230.139 239.025C223.778 222.897 222.503 209.108 222.553 200.381C222.601 191.923 223.871 186.435 224.155 185.314C222.085 182.259 199.468 148.631 196.15 133.768C195.117 129.132 195.363 123.962 196.846 119.21C198.294 114.57 200.774 110.982 203.645 109.363C205.889 108.098 209.42 107.411 213.495 111.316C214.395 112.18 215.284 113.24 216.136 114.461L216.175 114.528C216.224 114.629 221.081 124.78 226.942 133.45C229.727 137.573 232.302 140.722 234.603 142.814C242.688 150.166 264.922 172.244 271.973 183.248C278.843 193.967 293.934 244.498 294.574 246.645L293.685 246.911C293.53 246.387 277.994 194.36 271.193 183.752C264.187 172.82 242.035 150.831 233.977 143.505C231.624 141.363 228.996 138.158 226.174 133.976C220.448 125.503 215.677 115.636 215.355 114.969C214.544 113.809 213.702 112.806 212.854 111.991C209.954 109.212 206.928 108.585 204.105 110.176C198.402 113.388 195.044 124.541 197.061 133.57C200.426 148.646 224.798 184.61 225.046 184.973L225.168 185.15L225.109 185.359C225.094 185.416 223.536 191.071 223.488 200.432C223.445 209.071 224.714 222.718 231.012 238.69C237.279 254.585 246.685 260.792 253.474 263.199C260.807 265.801 266.716 264.654 266.773 264.642L266.95 265.545Z" fill="black"/>
</svg>