<svg width="565" height="298" viewBox="0 0 565 298" fill="none" xmlns="http://www.w3.org/2000/svg">
<path d="M428.31 200.687H424.67V307.941H428.31V200.687Z" fill="#743064"/>
<path d="M283.873 241.463H276.234V251.993H283.873V241.463Z" fill="#303030"/>
<path d="M283.313 245.023H276.661V296.184H283.313V245.023Z" fill="#56585E"/>
<path d="M284.136 305.635H275.497V297.897V291.673H284.136V305.635Z" fill="#0A2126"/>
<path d="M288.414 192.227H256.754L248.055 138.379C246.493 128.705 253.962 119.934 263.761 119.934H281.408C291.206 119.934 298.676 128.708 297.111 138.379L288.414 192.227Z" fill="#004555"/>
<path d="M250.428 176.406L237.433 181.559L245.414 214.81L248.904 214.291L245.08 185.328L251.987 182.359L250.428 176.406Z" fill="#1E0C00"/>
<path d="M301.789 176.406L312.911 184.121L311.063 216.528L306.575 215.696L308.145 187.748L299.232 182.521L301.789 176.406Z" fill="#1E0C00"/>
<path d="M306.154 229.227H246.909V223.357H300.282C303.524 223.355 306.154 225.985 306.154 229.227Z" fill="#0089A9"/>
<path d="M289.831 92.5566C289.831 92.5566 288.575 106.608 292.44 110.473C296.305 114.338 296.857 114.234 298.196 113.862C298.196 113.862 297.305 116.241 294.845 116.398C294.678 116.409 294.506 116.409 294.324 116.398C291.466 116.224 294.546 118.555 296.037 119.076C297.526 119.598 293.058 120.193 289.929 119.449C288.001 118.99 267.969 119.238 264.848 116.467C262.904 114.74 271.416 106.086 271.814 101.727C272.849 90.3747 289.831 92.5566 289.831 92.5566Z" fill="#3C1047"/>
<path d="M345.13 91.085C345.13 91.085 343.262 95.0286 342.447 99.5596C341.631 104.088 342.867 112.122 345.13 115.484C347.392 118.845 347.62 120.103 349.668 120.103C351.713 120.103 359.894 116.506 360.623 108.178C361.354 99.8507 345.722 91.085 345.722 91.085H345.13Z" fill="#FD5E5A"/>
<path d="M443.345 176.974C443.345 176.974 438.09 174.572 436.468 172.952C434.845 171.33 429.719 167.105 427.125 167.105C424.531 167.105 411.553 172.917 413.371 173.582C415.185 174.248 425.179 171.264 425.179 171.264C425.179 171.264 413.5 176.066 415.578 176.974C417.653 177.883 424.012 175.418 424.012 175.418C424.012 175.418 420.767 176.974 420.767 178.141C420.767 179.311 425.525 176.974 428.272 176.974C431.018 176.974 438.285 181.515 438.285 181.515L443.345 176.974Z" fill="#FC7575"/>
<path d="M179.259 245.02H172.609V296.163H179.259V245.02Z" fill="#56585E"/>
<path d="M180.085 305.612H171.446V297.879V291.654H180.085V305.612Z" fill="#0A2126"/>
<path d="M180.179 241.463H171.593V251.99H180.179V241.463Z" fill="#303030"/>
<path d="M146.959 176.406L136.396 182.24L144.929 220.94L149.08 220.163L144.184 184.222L149.923 181.754L146.959 176.406Z" fill="#1E0C00"/>
<path d="M197.735 176.406L208.86 185.141L207.012 221.834L202.524 220.89L204.091 189.249L195.181 183.329L197.735 176.406Z" fill="#1E0C00"/>
<path d="M184.363 192.227H152.703L144.003 138.379C142.441 128.705 149.908 119.934 159.707 119.934H177.354C187.152 119.934 194.622 128.708 193.058 138.379L184.363 192.227Z" fill="#0089A9"/>
<path d="M200.437 234.936H141.192C141.192 231.694 143.819 229.066 147.064 229.066H194.565C197.81 229.064 200.437 231.694 200.437 234.936Z" fill="#0089A9"/>
<path d="M191.106 118.425L194.08 116.418C194.08 116.418 186.32 103.655 187.12 92.657C187.542 86.8528 178.025 78.2972 175.494 79.6185C175.342 79.5603 167.042 79.8033 166.306 98.7623L164.539 120.974L173.507 128.917C173.507 128.917 179.159 119.227 186.345 123.487C193.534 127.745 190.83 125.923 190.83 125.923C190.83 125.923 191.106 120.47 191.106 118.425Z" fill="#002B32"/>
<path d="M157.356 127.901C157.356 127.901 157.28 149.039 159.418 153.517C161.56 157.995 160.608 184.705 160.608 184.705L185.305 185.439C185.305 185.439 188.464 160.524 188.464 153.712C188.464 146.9 190.949 127.825 190.949 127.825C190.949 127.825 174.152 123.517 157.356 127.901Z" fill="#746C87"/>
<path d="M184.701 109.266C185.073 109.638 183.552 119.788 185.04 122.765C185.04 122.765 181.089 144.648 178.426 144.967C176.112 145.245 174.872 126.645 174.409 124.524C173.789 121.672 175.145 107.406 175.145 107.406L184.701 109.266Z" fill="#FC7575"/>
<path d="M184.68 113.713C181.147 116.91 177.618 115.402 174.94 111.395C175.001 109.375 175.279 107.522 175.284 107.406L184.834 109.266C184.989 109.418 184.824 111.319 184.68 113.713Z" fill="#FD5E5A"/>
<path d="M182.756 80.5699C182.756 80.5699 187.107 81.3976 187.624 85.1286C188.14 88.8571 188.866 91.9655 188.14 96.3142C187.416 100.665 184.827 106.464 180.579 107.398C176.332 108.33 171.88 101.286 171.88 97.4557C171.88 93.6234 170.326 87.2017 173.226 83.2656C176.127 79.327 182.756 80.5699 182.756 80.5699Z" fill="#FC7575"/>
<path d="M179.372 105.477C181.663 106.474 185.052 106.499 185.052 106.499C185.052 106.499 184.812 106.965 184.397 107.466C183.404 107.413 181.466 107.236 179.866 106.666C179.534 106.021 179.372 105.477 179.372 105.477Z" fill="white"/>
<path d="M179.984 106.948C181.584 107.517 183.523 107.694 184.515 107.747C182.895 109.681 181.176 109.213 179.984 106.948Z" fill="#2E0A29"/>
<path d="M184.07 80.4712C184.07 80.4712 188.421 81.2989 188.938 85.0299C189.406 88.4091 190.046 91.2796 189.624 95.0258C188.93 94.5474 187.948 94.0665 186.566 93.6108C182.724 92.3452 178.81 86.493 178.271 82.0785C178.195 78.3551 184.07 80.4712 184.07 80.4712Z" fill="#FD5E5A"/>
<path d="M185.002 101.511C184.888 100.321 184.81 99.1293 184.82 97.9294C185.083 99.4482 185.146 100.554 185.235 101.658C184.602 101.83 183.843 102.184 182.889 101.825C183.618 101.967 184.339 101.759 185.002 101.511Z" fill="#172866"/>
<path d="M181.427 97.4087C181.212 96.7227 180.624 96.0672 179.824 95.8545C178.402 95.4824 177.536 97.5302 176.562 97.51C177.26 97.8694 178.382 96.6721 179.149 96.3684C179.566 96.1988 179.936 96.3152 180.346 96.5101C180.748 96.7151 181.108 97.0366 181.427 97.4087Z" fill="#172866"/>
<path d="M179.404 96.842C179.404 97.2748 179.713 97.6241 180.095 97.6241C180.477 97.6241 180.786 97.2748 180.786 96.842C180.786 96.4091 180.477 96.0598 180.095 96.0598C179.713 96.0598 179.404 96.4091 179.404 96.842Z" fill="#172866"/>
<path d="M186.505 97.9817C186.751 97.3059 187.368 96.6781 188.173 96.5009C189.611 96.1947 190.386 98.2779 191.358 98.3007C190.644 98.6272 189.578 97.3818 188.824 97.0426C188.414 96.8553 188.039 96.954 187.621 97.1312C187.214 97.3211 186.842 97.6248 186.505 97.9817Z" fill="#172866"/>
<path d="M189.396 97.5307C189.375 97.961 189.051 98.2977 188.669 98.28C188.287 98.2623 187.996 97.8978 188.014 97.4675C188.034 97.0346 188.358 96.7005 188.74 96.7182C189.12 96.7359 189.413 97.1004 189.396 97.5307Z" fill="#172866"/>
<path d="M181.859 93.3271C182.013 93.2259 180.773 91.9805 179.287 91.8388C177.799 91.6996 176.192 93.3271 176.192 93.3271C176.192 93.3271 178.381 92.021 179.308 92.4412C180.231 92.8639 181.001 93.8815 181.859 93.3271Z" fill="#172866"/>
<path d="M179.771 100.812C179.582 101.382 178.539 101.546 177.443 101.179C176.347 100.812 175.615 100.055 175.805 99.4856C175.995 98.9161 177.035 98.7541 178.131 99.1186C179.227 99.4856 179.961 100.242 179.771 100.812Z" fill="#FD5E5A"/>
<path d="M190.839 100.729C190.922 101.271 190.211 101.828 189.252 101.975C188.293 102.122 187.45 101.8 187.366 101.258C187.283 100.717 187.994 100.16 188.953 100.013C189.913 99.8687 190.755 100.19 190.839 100.729Z" fill="#FD5E5A"/>
<path d="M162.549 196.69L157.896 198.88C157.896 198.88 152.621 204.719 151.455 215.037C150.285 225.351 164.3 230.414 164.3 230.414L191.938 228.467C191.938 228.467 202.157 200.467 185.193 197.098C168.905 193.863 162.549 196.69 162.549 196.69Z" fill="#001542"/>
<path d="M181.554 216.076C181.554 216.076 181.703 220.967 181.972 221.073C184.29 221.989 194.458 220.84 195.574 226.654C196.82 233.137 176.228 280.4 177.593 287.407C178.955 294.416 180.797 300.458 181.919 301.577C183.037 302.695 183.058 303.652 182.086 304.624C181.114 305.599 176.97 304.472 175.803 303.305C174.634 302.139 173.237 293.107 171.146 291.014C169.053 288.92 168.227 287.607 170.66 282.646C173.095 277.682 179.418 239.24 180.197 235.251C180.977 231.261 179.716 229.495 179.716 229.495L170.075 223.379L181.554 216.076Z" fill="#FF4747"/>
<path d="M184.723 210.51C184.723 210.51 181.124 208.078 173.923 210.51C166.722 212.943 161.854 218.977 161.077 221.8C160.297 224.622 157.085 279.413 152.805 288.366C148.522 297.319 148.264 297.838 146.381 299.719C144.5 301.6 145.358 306.244 146.381 307.27C147.406 308.295 155.334 306.206 156.242 303.09C157.151 299.977 159.098 292.71 159.877 290.503C160.657 288.298 166.144 267.438 171.381 257.558C176.616 247.682 178.327 225.88 178.327 224.063C178.327 222.248 187.515 221.562 187.515 221.562C187.515 221.562 189.462 211.591 184.723 210.51Z" fill="#FC7575"/>
<path d="M190.701 128.278C190.701 128.278 194.055 130.232 194.528 132.695C196.434 142.635 198.099 167.831 197.317 174.212C196.343 182.176 193.229 182.176 193.229 182.176L156.054 177.715L157.611 167.788C157.611 167.788 182.912 169.345 185.444 169.345C187.972 169.345 188.157 150.133 188.157 150.133L190.701 128.278Z" fill="#4D475B"/>
<path d="M154.557 128.372C154.557 128.372 145.723 128.296 143.777 139.585C141.83 150.875 142.997 182.194 147.085 182.194C151.173 182.194 173.764 169.089 176.872 169.089C176.042 168.905 175.406 168.236 175.257 167.401L174.184 161.387C174.184 161.387 156.622 161.582 153.509 164.695C153.509 164.695 156.817 152.434 156.817 147.956C156.817 143.478 160.004 128.372 154.557 128.372Z" fill="#998DB6"/>
<path d="M192.173 173.243C192.173 173.243 182.317 169.953 182.053 171.487C181.347 175.597 183.643 177.47 183.643 177.47C183.643 177.47 190.318 178.478 191.393 177.405C192.467 176.331 192.173 173.243 192.173 173.243Z" fill="#FC7575"/>
<path d="M298.469 174.326L297.962 190.21C297.962 190.21 305.487 191.638 307.563 190.84C308.715 190.397 308.932 182.485 308.57 173.337C304.627 173.005 302.187 172.992 298.469 174.326Z" fill="#FD5E5A"/>
<path d="M308.288 163.644C307.992 156.306 307.326 148.17 306.461 142.452C304.514 129.606 296.728 122.939 296.728 122.939L296.513 162.479L296.685 165.122C300.403 163.785 304.347 163.312 308.288 163.644Z" fill="#703C6A"/>
<path d="M260.055 122.823C260.055 128.012 260.948 153.914 262.502 162.188C264.059 170.466 251.649 184.856 251.649 191.842C251.649 198.828 260.731 208.948 260.731 208.948H291.092C291.092 208.948 300.435 191.948 297.061 183.97C293.687 175.991 289.017 181.96 291.35 170.539C293.687 159.118 293.912 143.475 292.616 132.573C291.317 121.673 285.422 118.357 275.3 118.357C265.185 118.36 260.055 117.633 260.055 122.823Z" fill="#47003F"/>
<path d="M290.017 203.124C290.017 203.124 275.71 198.745 268.866 205.589C262.022 212.434 262.898 225.055 262.898 225.055H293.259C293.259 225.055 303.121 211.168 290.017 203.124Z" fill="#060032"/>
<path d="M278.695 213.295C276.556 208.103 274.225 207.108 272.268 207.108C268.724 207.108 263.12 209.06 260.721 215.198C258.174 221.711 248.313 261.447 246.592 268.795C245.364 274.029 242.947 277.654 240.388 280.628C234.996 288.756 236.553 293.978 240.218 297.851C240.218 298.344 244.144 299.347 248.523 287.179C249.503 284.461 249.951 282.792 251.117 276.897C252.284 270.997 280.831 218.486 278.695 213.295Z" fill="#FD5E5A"/>
<path d="M296.615 216.785C296.729 211.105 293.231 209.913 290.459 209.414C286.974 208.786 282.405 212.791 278.641 218.686C274.877 224.581 266.233 264.934 264.512 272.282C263.284 277.517 260.867 281.142 258.308 284.116C252.917 292.244 254.476 297.549 258.138 301.422C258.138 301.916 262.064 302.835 266.443 290.667C267.423 287.948 267.871 286.28 269.038 280.385C270.205 274.49 296.501 222.399 296.615 216.785Z" fill="#FF7B7B"/>
<path d="M285.378 175.582L292.25 188.284C292.303 188.383 292.268 188.507 292.169 188.562C292.071 188.615 291.949 188.58 291.893 188.486L284.614 176.012C284.492 175.802 284.563 175.537 284.771 175.413C284.981 175.291 285.249 175.359 285.37 175.569C285.373 175.575 285.376 175.58 285.378 175.582Z" fill="#99CEDC"/>
<path d="M280.255 178.946C278.761 177.455 276.496 179.475 274.42 180.123C272.345 180.771 252.88 180.642 250.154 179.994C249.147 179.754 249.615 176.648 250.635 172.451C247.471 171.406 244.031 171.112 240.814 171.479C239.748 181.7 239.404 190.755 240.811 191.689C243.925 193.749 269.834 185.312 272.451 185.312C275.068 185.312 273.772 186.527 277.663 186.527C279.956 186.527 281.553 186.097 282.482 185.745C283.042 185.533 283.315 184.912 283.1 184.353C282.525 182.867 281.336 180.027 280.255 178.946Z" fill="#FC7575"/>
<path d="M250.415 173.988C250.523 173.497 250.645 172.983 250.774 172.451C247.61 171.406 244.17 171.112 240.953 171.479C240.819 172.76 240.697 174.023 240.589 175.256C242.517 174.886 247.289 174.031 250.415 173.988Z" fill="#FD5E5A"/>
<path d="M250.465 162.529C253.695 155.457 258.955 143.651 259.365 138.91C260.013 131.385 258.38 119.931 258.38 119.931C258.38 119.931 249.524 125.426 246.671 131.785C245.109 135.265 240.275 150.174 238.989 162.529C242.203 162.16 247.299 161.484 250.465 162.529Z" fill="#95508D"/>
<path d="M277.68 193.343H296.363C296.36 193.343 283.542 189.199 277.68 193.343Z" fill="#CEF2FA"/>
<path d="M318.742 193.438H300.829C300.829 193.438 307.732 191.992 312.387 191.992C317.046 191.995 318.742 193.438 318.742 193.438Z" fill="#5DB9F4"/>
<path d="M315.569 186.631C315.569 186.631 306.854 186.381 300.832 192.405C300.832 192.405 303.682 190.357 308.365 189.152C313.048 187.947 316.227 188.001 316.227 188.001L315.569 186.631Z" fill="#5DB9F4"/>
<path d="M276.165 193.678H296.068L277.241 193.24L276.165 193.678Z" fill="#00485C"/>
<path d="M317.874 160.699C316.485 151.645 317.621 141.047 317.621 141.047C317.621 141.047 320.041 138.936 323.281 139.801C326.521 140.664 328.242 141.201 327.923 140.277C327.607 139.353 323.402 137.888 323.402 137.888C323.402 137.888 327.46 137.842 329.53 138.903C331.598 139.966 332.082 137.913 326.311 136.888C320.54 135.865 322.428 135.311 323.397 134.977C324.367 134.645 330.118 136.144 331.644 135.058C333.054 134.05 323.845 133.04 321.134 133.359C332.935 130.01 329.249 128.558 318.079 132.392C314.872 133.491 311.994 138.283 311.926 138.396C311.637 138.776 308.478 153.399 308.304 164.557C311.349 163.187 315.065 162.466 317.874 160.699Z" fill="#FD5E5A"/>
<path d="M308.814 145.232C307.948 146.098 297.958 183.451 303.66 184.947C309.363 186.441 316.306 179.313 316.306 179.313L317.668 148.487L308.814 145.232Z" fill="#333A6A"/>
<path d="M407.734 141.101C408.906 138.449 413.806 137.76 415.378 137.256C416.95 136.753 418.398 133.606 419.446 133.272C420.494 132.938 420.175 136.452 418.59 137.365C417.006 138.279 419.036 139.661 420.266 139.674C421.499 139.686 425.976 139.347 427.004 137.029C428.029 134.71 429.935 133.328 430.193 134.138C430.454 134.948 427.827 138.471 427.827 138.471C427.827 138.471 432.074 134.594 432.38 135.55C432.686 136.507 428.811 139.294 428.811 139.294C428.811 139.294 431.423 138.092 432.18 138.54C432.94 138.988 425.974 143.291 424.597 143.731C423.222 144.172 417.785 143.881 415.095 143.605C413.968 143.488 413.404 149.029 411.483 156.271C410.501 154.507 405.719 152.976 404.335 151.523C406.641 146.577 407.268 142.147 407.734 141.101Z" fill="#FC7575"/>
<path d="M402.385 149.564L393.591 186.528C393.591 186.528 401.84 187.73 405.303 186.528C408.766 185.325 413.089 160.805 413.089 150.101L402.385 149.564Z" fill="#333A6A"/>
<path d="M481.739 230.914L463.411 234.461L451.765 229.833L463.411 217.767L481.739 230.914Z" fill="#47405C"/>
<path d="M487.194 132.221C487.194 132.221 484.217 134.015 480.638 142.72C477.059 151.423 477.072 169.448 473.569 171.095C470.501 172.538 445.959 175.538 439.889 176.264C439.031 176.366 438.266 176.852 437.808 177.583L434.642 182.64L451.12 183.18C451.12 183.18 469.845 192.517 474.634 189.331C479.423 186.144 493.319 159.793 495.122 152.007C496.921 144.221 487.194 132.221 487.194 132.221Z" fill="#5F557B"/>
<path d="M452.578 176.808C451.799 176.808 444.015 174.991 444.015 174.991L442.198 183.038L450.242 186.412L452.578 176.808Z" fill="#C3EDF4"/>
<path d="M60.0359 74.8582C60.0359 74.8582 62.3317 88.5901 69.5354 97.8368C74.9193 104.747 86.183 112.452 86.183 112.452L79.8044 119.443L62.2152 104.924L60.0359 74.8582Z" fill="#363A68"/>
<path d="M44.7261 58.9424H30.6198L31.0754 105.335L49.8036 106.598L44.7261 58.9424Z" fill="#260E0D"/>
<path d="M20.3082 238.163L12.8817 175.373L14.98 156.791H55.8511L56.1422 173.166L60.4325 236.966C60.4325 236.966 49.7712 290.089 49.9534 290.967H42.2358C42.251 290.775 44.4152 232.721 44.4152 232.721L35.5966 181.005L32.1466 235.287C32.1466 235.287 33.7134 284.219 33.7387 290.967H26.4742C26.4969 290.81 20.3082 238.163 20.3082 238.163Z" fill="#2F1954"/>
<path d="M15.14 159.231L15.4159 156.788H56.287L56.3249 158.927L47.7467 161.845C40.7531 164.225 33.3114 164.412 26.2291 162.392L15.14 159.231Z" fill="#0E0E0E"/>
<path d="M11.3604 71.5204C15.8051 66.5263 26.0893 58.5605 37.429 60.4842L49.275 65.7441L52.7579 91.3122L55.8763 140.016L13.6334 140.499L9.61638 93.0891C9.61638 93.0916 6.91561 76.5145 11.3604 71.5204Z" fill="#F1A97E"/>
<path d="M43.3024 45.1487C43.3024 45.1487 43.4239 55.1395 44.3782 60.2273C44.7478 62.1966 43.8466 64.2115 42.1735 64.9354C40.9408 65.4695 39.3082 65.7834 37.263 65.3936C31.9475 64.3811 31.7678 58.4074 31.7678 58.4074L33.5599 40.1875L43.3024 45.1487Z" fill="#FC7575"/>
<path d="M33.8713 40.1904L43.6113 45.1491C43.6113 45.1491 43.6568 48.8372 43.9049 52.8745C41.3636 52.9985 38.1692 51.5582 34.78 47.2096C34.2763 46.5641 33.8054 45.9237 33.3676 45.2883L33.8713 40.1904Z" fill="#FD5E5A"/>
<path d="M41.6961 14.5058C41.6961 14.5058 45.0297 17.3407 46.4725 22.0995C47.9127 26.8582 49.1757 30.3007 49.1757 30.3007L47.6444 31.3132C47.6444 31.3132 48.8644 37.9552 47.9152 40.2232C46.475 43.6656 40.3926 46.45 33.4976 38.7044C26.6052 30.9613 26.0179 24.127 27.1899 20.7858C28.3593 17.442 38.9928 12.7845 41.6961 14.5058Z" fill="#FC7575"/>
<path d="M30.7293 19.1833C30.7293 19.1833 33.792 16.3483 38.209 17.5633C42.6233 18.7783 44.1117 16.9052 43.2536 15.9433C43.2536 15.9433 47.1288 16.0446 48.5691 12.5008C50.0093 8.9571 49.6499 -1.77284 42.803 0.252156C35.9537 2.27715 37.3382 7.13713 37.3382 7.13713C37.3382 7.13713 35.1437 4.80839 33.0706 6.02338C30.9976 7.23838 31.2684 8.95962 31.2684 8.95962C31.2684 8.95962 29.3751 12.9084 26.7629 13.4146C24.1507 13.9209 24.419 19.7933 24.419 19.7933C24.419 19.7933 22.8877 21.0083 23.9685 25.2608C25.0493 29.5133 31.4178 36.1072 31.4178 38.1322C31.4178 38.1322 32.9795 35.4845 31.7165 31.3333C30.4559 27.182 30.4559 24.752 31.8076 24.752C33.1618 24.752 30.7293 19.1833 30.7293 19.1833Z" fill="#121841"/>
<path d="M34.1095 33.2412C34.1095 33.2412 33.6691 29.748 32.6895 29.748C31.7099 29.748 30.7962 30.1277 31.0341 32.1021C31.2695 34.0765 32.2845 36.2786 33.5679 35.3674C34.8512 34.4562 34.1095 33.2412 34.1095 33.2412Z" fill="#FC7575"/>
<path d="M20.2736 23.7162C20.3647 23.42 20.5925 23.1036 20.8735 22.9695C21.7898 22.5316 23.0148 23.4757 23.8223 24.1288L23.959 23.9465C23.4148 23.3162 22.8402 22.686 22.0328 22.2835C20.8456 21.7216 19.7876 22.2962 19.337 23.3643L20.2736 23.7162Z" fill="#121841"/>
<path d="M20.1272 28.6781C20.0386 28.1719 20.0412 27.5796 20.1576 27.0556C20.7423 24.4282 23.5924 24.6585 23.7291 24.5801V24.4181C23.6481 24.451 19.6109 23.5701 19.0312 27.8125C18.9806 28.1795 18.9553 28.4908 18.9857 28.9389L20.1272 28.6781Z" fill="#121841"/>
<path d="M46.25 27.2864C46.25 28.1471 46.5866 28.8432 47.0043 28.8432C47.4219 28.8432 47.7586 28.1471 47.7586 27.2864C47.7586 26.4258 47.4194 25.7297 47.0043 25.7297C46.5892 25.7297 46.25 26.4258 46.25 27.2864Z" fill="#2F499F"/>
<path d="M44.1224 25.2753C45.7955 23.7389 47.6028 24.7362 47.618 24.7463L47.9014 23.6275C47.8204 23.5794 45.8968 22.5112 44.0135 24.2401L44.1224 25.2753Z" fill="#2F499F"/>
<path d="M49.8479 61.1287L52.9967 155.66H72.5931L66.817 112.723L63.0278 86.6157C63.0278 86.6157 61.1901 69.0616 57.1985 65.9228C53.2068 62.7892 49.8479 61.1287 49.8479 61.1287Z" fill="#555DA2"/>
<path d="M33.6979 32.0858C33.6979 32.0858 33.1258 30.9012 32.6145 31.0708C32.1032 31.2404 31.9868 33.6172 32.8955 34.6196C33.8042 35.6195 34.5686 33.9767 33.6979 32.0858Z" fill="#FD5E5A"/>
<path d="M25.7953 60.4888L27.8582 155.537H6.87212C6.87212 155.537 6.0824 80.2046 8.40603 72.3274C10.7297 64.4527 25.7953 60.4888 25.7953 60.4888Z" fill="#555DA2"/>
<path d="M57.1294 64.22L48.1007 58.9424L51.0166 105.935L55.9676 79.2809L54.2186 78.0786L57.1294 64.22Z" fill="#777EB5"/>
<path d="M29.4655 105.492L28.696 58.9424L20.6544 62.5975L25.0333 78.0456L23.9222 78.9139L29.4655 105.492Z" fill="#777EB5"/>
<path d="M71.3153 127.749L100.406 105.502L69.5966 102.644L46.2971 127.749H71.3153Z" fill="#1E3340"/>
<path d="M52.4985 122.051C52.4985 122.051 49.337 122.773 48.1676 124.051C46.6768 125.681 43.1356 128.334 41.6498 128.334C40.1615 128.334 33.8285 128.967 33.8285 128.967L32.7654 136.087C32.7654 136.087 56.4016 130.559 57.5153 129.341C58.629 128.124 51.972 130.245 51.972 129.703C51.972 129.162 59.9908 128.551 59.5757 127.185C59.1631 125.818 52.177 129.025 51.5594 128.349C50.9393 127.671 59.9908 126.542 59.9908 125.094C59.9908 123.646 50.9823 127.185 50.9823 127.185C50.9823 127.185 50.8178 126.451 53.2553 125.276C55.6928 124.102 58.0569 123.155 57.5178 122.565C56.9787 121.975 50.7444 125.719 49.9217 124.82L52.4985 122.051Z" fill="#FC7575"/>
<path d="M12.8856 72.3781C12.8856 72.3781 16.3204 78.7947 15.6344 88.0414C14.9485 97.288 13.7791 111.463 15.7028 116.085C17.6265 120.707 31.715 116.085 31.715 116.085V127.025C31.715 127.025 11.2859 135.5 5.36795 132.728C-0.549962 129.954 0.0144859 106.069 0.0144859 94.3593C0.0170171 82.6473 9.11156 63.9769 12.8856 72.3781Z" fill="#777EB5"/>
<path d="M15.9681 72.8821C17.6615 76.6005 18.7777 82.1059 18.4234 87.8265C17.788 96.4327 15.7808 115.111 19.4511 117.951C22.9896 120.173 30.9882 117.958 34.7976 116.589C31.0591 117.601 20.4762 120.095 19.1017 116.419C17.9298 113.481 18.1197 106.375 18.2285 103.216C18.6537 89.5629 20.2939 84.746 17.4691 76.4157C17.0642 75.2007 16.5807 74.0034 15.9681 72.8821Z" fill="#EEF1F9"/>
<path d="M49.7041 41.818L49.4333 43.5367C46.0213 43.1494 44.3304 40.1904 44.3304 40.1904C46.3579 42.261 49.7041 41.818 49.7041 41.818Z" fill="#2B3278"/>
<path d="M86.0051 121.522C86.0051 121.522 86.4152 122.034 87.0683 123.606C87.6985 125.127 85.9419 126.691 85.5976 127.02C84.9395 127.648 83.7625 128.501 83.0285 128.929C82.2944 129.357 81.8211 129.574 81.1149 129.731C80.0746 129.964 77.7434 126.18 78.0648 125.818C78.28 125.575 78.5407 125.385 78.7837 125.461C79.0393 125.542 81.6262 127.605 81.6262 127.605C81.6262 127.605 79.2925 124.628 79.5582 123.745C79.824 122.859 80.3252 122.968 80.5277 123.193C80.7302 123.418 83.6992 126.213 83.6992 126.213C83.6992 126.213 81.6996 122.656 81.8717 122.079C82.0439 121.502 82.8538 121.097 83.7701 122.53C84.284 123.332 85.6356 124.641 85.6356 124.641C85.6356 124.641 84.5118 121.958 84.7699 121.092C85.0256 120.224 86.0051 121.522 86.0051 121.522Z" fill="#FC7575"/>
<path d="M335.06 239.142L345.858 311.999L360.293 309.698L357.947 238.636L335.06 239.142Z" fill="#403003"/>
<path d="M382.997 235.362C378.991 223.295 367.972 228.877 367.972 228.877C361.095 230.175 350.854 253.918 349.426 261.325C348.396 266.671 338.244 290.976 332.67 304.09C336.533 301.989 341.648 303.214 343.886 306.854C355.686 287.331 384.314 239.328 382.997 235.362Z" fill="#554004"/>
<path d="M368.616 233.797C368.616 233.797 386.717 228.573 380.844 240.928C379.705 243.317 327.548 246.906 327.548 242.537C327.548 238.169 330.856 233.8 330.856 233.8H368.616V233.797Z" fill="#403003"/>
<path d="M327.381 136.382C327.381 136.382 333.521 133.886 340.968 133.248C345.051 132.899 349.129 134.22 353.723 134.22C366.698 134.22 379.222 137.657 380.589 143.96C381.968 150.298 364.87 211.833 368.763 215.726C372.656 219.619 334.389 222.069 329.588 217.27C324.786 212.468 313.368 141.831 327.381 136.382Z" fill="#000945"/>
<path d="M349.717 118.369L345.832 131.463C345.832 131.463 355.992 135.473 362.803 131.463L360.662 116.941L349.717 118.369Z" fill="#F66D75"/>
<path d="M323.864 137.146C323.864 137.146 312.954 151.791 310.623 158.798C308.292 165.804 301.911 177.696 302.453 180.794C302.997 183.89 306.791 186.943 313.142 185.416C319.492 183.89 319.037 177.752 319.037 177.752L323.864 137.146Z" fill="#000945"/>
<path d="M391.959 145.232C391.959 145.232 405.648 182.98 402.937 185.691C400.226 188.402 391.225 185.691 391.225 185.691L381.333 166.393L391.959 145.232Z" fill="#000945"/>
<path d="M494.898 78.8692C494.898 78.8692 489.803 85.5618 489.036 90.1054C488.249 94.7781 487.294 102.25 487.294 102.25H489.367C489.367 102.25 491.096 106.396 491.096 109.163C491.096 111.927 495.473 110.201 498.006 110.201C500.54 110.201 506.185 108.011 508.374 100.063C510.564 92.1152 514.593 77.9479 494.898 78.8692Z" fill="#FC7575"/>
<path d="M503.119 125.73L500.026 128.034L498.925 132.251L503.35 130.223L503.119 125.73Z" fill="#98B0BF"/>
<path d="M508.819 105.003L516.536 122.742C516.536 122.742 501.734 127.637 502.483 126.888C503.232 126.139 501.529 113.065 501.529 113.065L508.819 105.003Z" fill="#FC7575"/>
<path d="M487.824 72.3146C487.588 72.712 483.587 80.8448 490.487 83.9507C497.384 87.059 499.098 82.5838 500.943 85.3479C502.786 88.112 499.346 92.5873 500.842 95.121L503.14 95.5615C503.14 95.5615 503.608 94.1997 504.53 94.1997C505.451 94.1997 505.712 101.178 507.192 101.178C508.676 101.178 511.556 95.2375 512.938 92.4708C514.32 89.7042 517.201 80.3766 511.9 77.9567C506.603 75.5368 504.299 77.3796 504.299 75.0761C504.299 72.7727 501.996 75.19 501.996 75.19C501.996 75.19 500.728 73.4612 501.535 71.5046C502.343 69.5454 495.891 68.8544 494.395 72.7727C492.894 76.6911 490.36 68.052 487.824 72.3146Z" fill="#2D1175"/>
<path d="M522.591 269.396H515.939V318.643H522.591V269.396Z" fill="#56585E"/>
<path d="M523.302 256.478H514.772V273.693H523.302V256.478Z" fill="#303030"/>
<path d="M402.007 272.874C402.007 272.874 395.796 279.103 393.72 281.179C391.645 283.255 380.062 284.325 382.368 286.629C384.671 288.932 390.622 291.909 393.338 291.909C396.057 291.909 406.437 289.583 406.437 289.583C406.437 289.583 407.622 279.182 409.032 277.769L402.007 272.874Z" fill="#47405C"/>
<path d="M442.653 206.613C433.829 206.613 402.939 257.227 402.939 257.227L406.034 260.083L414.332 266.254C415.741 264.844 448.057 224.828 448.057 224.828C448.057 224.828 460.599 229.946 470.2 229.946C479.803 229.946 491.302 210.098 491.302 210.098C490.186 208.979 451.477 206.613 442.653 206.613Z" fill="#5F557B"/>
<path d="M522.811 189.845C522.828 189.66 522.846 189.478 522.861 189.303C523.509 181.778 525.557 122.089 515.03 122.089C515.03 122.089 502.903 124.273 495.175 134.089C493.872 135.745 493.644 137.233 493.067 139.491C489.227 154.542 486.676 182.454 487.032 193.037C498.899 197.74 512.187 197.436 522.811 189.845Z" fill="#C3EDF4"/>
<path d="M513.734 115.752C512.696 115.752 502.088 125.981 502.088 125.981L501.174 131.861L517.769 124.111L513.734 115.752Z" fill="#CAEBFF"/>
<path d="M500.903 129.272L498.308 130.353L495.597 135.965L497.141 135.479L500.285 133.135L500.903 129.272Z" fill="#C33EA4"/>
<path d="M494.686 136.963C494.686 136.963 488.406 168.827 486.938 196.853L482.878 200.48C482.878 200.48 483.397 196.068 483.397 189.709C483.397 183.351 489.975 142.023 493.142 137.449L494.686 136.963Z" fill="#743064"/>
<path d="M513.799 122.089C513.799 122.089 510.628 122.661 506.497 124.531C505.338 129.227 498.835 140.083 495.939 151.661C493.775 160.315 488.728 171.597 487.893 178.793C487.176 184.985 486.007 190.295 485.602 193.93C484.622 202.701 480.626 217.605 480.626 217.605L518.386 212.444C518.386 212.444 520.98 196.829 521.631 189.303C522.279 181.778 524.324 122.089 513.799 122.089Z" fill="#7F71A4"/>
<path d="M512.86 219.347L505.509 218.512C502.672 218.19 500.632 215.626 500.953 212.789L502.568 198.573L520.198 200.575L518.586 214.791C518.259 217.628 515.697 219.669 512.86 219.347Z" fill="#998DB6"/>
<path d="M510.309 120.138L500.238 128.706L490.121 177.63C490.121 177.63 501.716 157.334 501.42 155.238C501.126 153.143 499.326 151.287 499.326 151.287C499.326 151.287 510.309 123.747 510.309 120.138Z" fill="#B2AAC8"/>
<path d="M518.243 117.177L514.836 119.566L513.571 124.578L521.597 121.546L518.243 117.177Z" fill="#B2AAC8"/>
<path d="M521.421 254.346H513.266C511.084 254.346 509.317 252.58 509.317 250.398V242.551H525.37V250.395C525.37 252.58 523.603 254.346 521.421 254.346Z" fill="#303030"/>
<path d="M526.705 196.859C526.705 196.859 489.668 196.605 488.496 199.19C487.324 201.774 489.076 232.038 489.076 232.038L493.485 231.245C493.485 231.245 491.66 205.579 494.394 202.845C497.128 200.111 527.092 204.255 527.482 203.868C527.871 203.475 526.705 196.859 526.705 196.859Z" fill="#1E0C00"/>
<path d="M487.817 198.325C485.846 200.404 488.202 222.873 488.544 225.701C488.822 212.989 488.433 202.35 489.063 199.553C491.113 198.292 506.566 197.766 519.1 196.789C514.845 196.523 490.754 195.647 487.817 198.325ZM489.073 199.497C489.073 199.492 489.075 199.487 489.075 199.482C489.081 199.48 489.078 199.485 489.073 199.497Z" fill="#B2AAC8"/>
<path d="M541.399 241.155H475.482C475.482 237.237 478.658 234.062 482.574 234.062H541.396V241.155H541.399Z" fill="#0A6980"/>
<path d="M545.723 139.937C545.723 139.937 530.151 147.409 530.151 172.22C530.151 197.032 539.236 215.889 539.236 215.889H551.952C551.952 215.889 535.604 180.923 543.129 166.011C550.654 151.097 563.371 142.792 545.723 139.937Z" fill="#0A6980"/>
<path d="M532.575 166.113C539.761 151.872 551.678 143.658 537.382 140.461C547.957 144.038 537.025 152.1 530.272 165.48C522.744 180.394 539.095 215.36 539.095 215.36V222.453H475.51C475.492 222.66 475.482 222.871 475.482 223.086H541.399V215.993C541.399 215.991 525.047 181.024 532.575 166.113Z" fill="#084F60"/>
<path d="M504.046 127.908C499.346 129.022 493.729 132.472 490.629 141.815C487.53 151.158 484.415 164.168 480.263 166.069C476.112 167.97 449.107 165.829 449.107 165.829L448.421 177.961C448.421 177.961 477.894 186.613 485.789 185.747C493.686 184.882 507.56 156.825 511.777 146.68C519.904 127.139 508.985 126.739 504.046 127.908Z" fill="#998DB6"/>
<path d="M504.21 127.999C490.939 132.056 491.489 145.91 485.644 160.16C484.713 162.332 482.926 166.109 480.688 166.957C480.187 166.949 477.354 169.498 449.271 165.922C458.679 166.132 477.924 166.797 480.42 165.193C484.176 162.611 487.441 148.866 490.38 141.045C491.544 137.939 493.212 134.949 495.579 132.58C497.943 130.218 500.983 128.555 504.21 127.999Z" fill="#D4C5F6"/>
<path d="M458.685 241.636C455.127 258.79 444 298.895 444 298.895L430.46 294.972C430.46 294.972 438.924 230.708 445.771 223.864C452.613 217.022 462.244 224.482 458.685 241.636Z" fill="#7F71A4"/>
<path d="M440.087 188.319C440.087 188.319 443.829 187.75 445.76 189.681C447.691 191.615 448.456 193.865 448.456 193.865L434.635 193.452C434.638 193.455 436.789 188.175 440.087 188.319Z" fill="#313B3D"/>
<path d="M434.561 193.195C434.561 193.195 436.712 187.918 440.01 188.062C440.01 188.062 443.752 187.492 445.683 189.424C446.022 189.763 446.326 190.115 446.597 190.459C446.252 189.877 445.842 189.267 445.359 188.684C443.428 186.353 440.982 186.925 439.686 187.039C436.396 187.33 434.237 193.238 434.237 193.238L434.561 193.195Z" fill="#C3EDF4"/>
<path d="M440.243 188.152C440.243 188.152 438.365 187.974 437.684 188.638C437.003 189.301 436.57 189.789 436.355 189.999C436.14 190.21 436.322 192.918 439.445 193.601C442.569 194.282 442.007 192.807 442.903 193.179C443.799 193.551 444.814 194.135 445.265 193.698C445.713 193.26 446.31 194.33 446.958 193.698C447.606 193.065 445.819 189.07 444.796 188.073C443.774 187.076 443.035 187.438 442.204 187.438C441.372 187.438 440.243 188.152 440.243 188.152Z" fill="#FC7575"/>
<path d="M452.745 202.899H449.105V310.152H452.745V202.899Z" fill="#743064"/>
<path d="M97.5052 202.102H93.8654V309.358H97.5052V202.102Z" fill="#743064"/>
<path d="M139.525 198.764H135.885V306.018H139.525V198.764Z" fill="#743064"/>
<path d="M394.399 193.783H81.0079V201.212H394.399V193.783Z" fill="url(#paint0_linear_53_523)"/>
<path d="M360.414 227.9H319.278L307.976 166.325C305.946 155.263 315.648 145.232 328.382 145.232H351.31C364.042 145.232 365.006 160.088 364.361 172.005L362.639 196.368L360.414 227.9Z" fill="#0089A9"/>
<path d="M312.242 171.602C310.212 160.541 319.914 150.51 332.646 150.51H355.576C358.248 150.51 360.403 151.165 362.134 152.309C360.22 148.092 356.899 145.232 351.313 145.232H328.386C315.654 145.232 305.949 155.263 307.979 166.325L319.281 227.9H322.574L312.242 171.602Z" fill="#339CB4"/>
<path d="M357.346 260.223H350.694V324.714H357.346V260.223Z" fill="#666E9E"/>
<path d="M358.081 253.153H349.495V259.699H358.081V253.153Z" fill="#303030"/>
<path d="M383.116 251.165H308.897C308.897 246.573 312.62 242.852 317.212 242.852H374.806C379.393 242.852 383.116 246.573 383.116 251.165Z" fill="#004555"/>
<path d="M344.764 129.557C344.764 129.557 356.703 134.306 362.239 129.922L363.902 133.759C363.902 133.759 362.001 137.08 354.334 137.665C346.664 138.25 342.908 132.815 342.908 132.815L344.764 129.557Z" fill="#333A6A"/>
<path d="M346.541 106.255C346.541 106.255 343.803 104.175 343.803 105.709C343.803 107.243 343.496 112.67 346.061 111.161C348.625 109.65 346.541 106.255 346.541 106.255Z" fill="#F66D75"/>
<path d="M349.434 86.8107C349.434 86.8107 344.258 85.1123 342.828 90.3823C341.398 95.6498 345.19 101.069 345.19 103.692C345.19 106.316 346.602 109.334 349.075 111.807C351.55 114.28 357.322 116.859 357.322 116.859C357.322 116.859 363.751 112.888 365.94 108.506C368.132 104.124 366.816 101.201 367.694 94.6272C368.57 88.0535 364.075 85.859 362.159 85.859C360.245 85.859 353.674 78.7158 349.434 86.8107Z" fill="#170053"/>
<path d="M397.615 214.103L375.764 207.532L375.364 213.212L390.075 216.508L386.488 236.294L390.665 236.611L397.615 214.103Z" fill="#1E0C00"/>
<path d="M286.972 119.835C286.972 118.235 285.719 117.734 284.157 117.387C278.839 116.2 271.99 115.988 272.486 117.838C273.132 120.248 278.242 123.561 281.712 123.561C285.182 123.561 286.823 120.719 286.823 120.719L286.972 119.835Z" fill="#4B2847"/>
<path d="M283.333 109.281L284.45 122.095C284.45 122.095 279.787 124.403 273.988 121.702L276.307 100.693L283.333 109.281Z" fill="#FC7575"/>
<path d="M284.057 109.488L284.537 114.998C284.013 114.978 283.477 114.834 282.928 114.538C278.47 112.135 277.812 105.526 277.734 101.762L284.057 109.488Z" fill="#FD5E5A"/>
<path d="M292.091 83.8861C292.091 83.8861 294.136 85.4909 294.594 88.3917C295.052 91.2925 293.116 94.5451 293.116 96.9903C293.116 99.4355 288.575 111.077 282.925 108.328C277.273 105.579 277.731 96.7195 277.731 94.7325C277.731 92.748 280.48 85.8731 283.842 84.2683C287.201 82.6635 292.091 83.8861 292.091 83.8861Z" fill="#FC7575"/>
<path d="M291.162 97.3299C291.162 97.3299 290.944 95.9579 290.106 94.9581C289.268 93.9583 286.952 93.814 286.952 93.814C286.952 93.814 289.142 94.3481 289.676 95.0366C290.207 95.7276 290.43 96.7198 290.43 96.7198L291.162 97.3299Z" fill="#510B5E"/>
<path d="M293.728 99.1234C293.728 99.1234 294.619 98.2906 295.57 98.1464C296.522 98.0021 297.363 99.2525 297.363 99.2525C297.363 99.2525 296.355 98.3666 295.72 98.4957C295.082 98.6248 294.409 99.1842 294.409 99.1842L293.728 99.1234Z" fill="#510B5E"/>
<path d="M285.281 107.672C286.992 108.394 287.771 109.125 290.024 109.022C288.293 109.634 286.265 108.933 285.281 107.672Z" fill="white"/>
<path d="M289.001 98.8527C288.841 99.407 288.393 99.7614 288.004 99.6475C287.614 99.5336 287.429 98.9919 287.591 98.4401C287.753 97.8858 288.198 97.5314 288.591 97.6453C288.978 97.7567 289.163 98.2984 289.001 98.8527Z" fill="#510B5E"/>
<path d="M285.24 98.2001C288.667 96.327 289.09 98.6026 289.912 99.0076C289.194 98.8329 288.624 97.8255 287.791 97.7875C287.11 97.7521 285.984 98.0381 285.24 98.2001Z" fill="#42004A"/>
<path d="M295.612 102.011C295.433 102.437 295.053 102.672 294.762 102.54C294.473 102.406 294.382 101.956 294.562 101.533C294.742 101.108 295.121 100.872 295.41 101.004C295.701 101.136 295.792 101.589 295.612 102.011Z" fill="#510B5E"/>
<path d="M293.038 101.773C295.516 99.4164 296.245 101.596 296.986 101.872C296.371 101.806 295.736 100.9 295.05 100.988C294.488 101.052 293.62 101.502 293.038 101.773Z" fill="#42004A"/>
<path d="M286.014 101.125C285.791 101.885 284.797 102.262 283.792 101.968C282.784 101.675 282.152 100.819 282.372 100.06C282.595 99.3004 283.589 98.9232 284.594 99.2168C285.602 99.513 286.237 100.369 286.014 101.125Z" fill="#FD5E5A"/>
<path d="M292.754 100.69C292.164 102.039 291.592 103.732 291.182 105.157C290.653 105.162 290.036 105.011 289.562 104.671C290.21 105.416 291.306 105.388 291.362 105.408C291.744 104.249 292.319 102.73 292.754 100.69Z" fill="#510B5E"/>
<path opacity="0.53" d="M294.554 83.8859C294.554 83.8859 296.599 85.4907 297.057 88.3915C297.515 91.2923 297.981 96.5447 295.579 96.9902C294.184 97.2484 289.357 89.2471 290.722 83.4404C292.828 83.4556 294.554 83.8859 294.554 83.8859Z" fill="#FD5E5A"/>
<path d="M272.154 118.165L270.742 124.434C272.357 126.971 280.651 139.997 282.841 143.502C284.2 145.674 285.762 130.985 286.638 120.164C280.573 122.075 277.189 123.037 272.154 118.165Z" fill="#95508D"/>
<path d="M506.403 96.2517C506.403 96.2517 506.291 100.798 507.385 100.798C508.481 100.798 510.883 98.2235 510.475 95.4847C510.07 92.7459 506.899 93.075 506.403 96.2517Z" fill="#FC7575"/>
<path d="M507.308 96.0418C507.308 96.0418 506.761 97.8491 507.581 98.6717C508.404 99.4944 509.986 97.5225 509.113 96.0418C508.239 94.561 507.48 94.9989 507.308 96.0418Z" fill="#FD5E5A"/>
<path d="M492.503 94.7046L492.326 95.8031C492.326 95.8031 494.252 95.5728 495.31 96.6283C496.365 97.6839 496.512 97.8054 496.512 97.8054C496.512 97.8054 495.95 95.3171 492.503 94.7046Z" fill="#2D1175"/>
<path d="M494.712 98.6605C494.712 99.2174 494.332 99.6679 493.864 99.6679C493.396 99.6679 493.016 99.2174 493.016 98.6605C493.016 98.1036 493.396 97.6531 493.864 97.6531C494.33 97.6556 494.712 98.1062 494.712 98.6605Z" fill="#2D1175"/>
<path d="M491.67 111.589C491.67 111.589 491.303 113.371 491.303 114.396C491.303 115.419 493.86 116.55 496.161 115.892C498.461 115.234 501.656 113.718 502.443 112.933C503.225 112.148 503.855 101.547 503.855 101.547L501.772 101.147C501.772 101.147 500.742 108.058 499.884 108.916C499.031 109.774 491.67 111.589 491.67 111.589Z" fill="#2D1175"/>
<path d="M493.094 110.942C493.75 110.942 494.413 110.8 494.942 110.481C495.203 110.316 495.413 110.096 495.552 109.848C495.706 109.605 495.747 109.309 495.782 109.028L495.787 108.993C495.81 108.81 495.977 108.684 496.157 108.707C496.337 108.729 496.468 108.896 496.443 109.076C496.443 109.091 496.438 109.111 496.433 109.127C496.332 109.484 496.21 109.843 495.957 110.129C495.722 110.418 495.418 110.635 495.091 110.772C494.433 111.03 493.742 111.048 493.094 110.942Z" fill="#2D1175"/>
<path d="M483.974 83.1614C483.923 83.5385 484.313 84.1992 484.536 84.508C485.746 86.0799 488.097 86.3026 489.672 86.5026C489.461 86.5153 487.363 86.9203 485.601 86.4165C483.695 85.9154 482.561 84.6624 482.235 83.3917L483.974 83.1614Z" fill="#2D1175"/>
<path d="M170.757 297.219C170.757 297.219 167.879 301.993 167.879 304.235C167.879 306.483 169.317 319.127 169.317 319.127L171.241 319.195C171.241 319.195 169.828 310.546 171.048 310.229C172.271 309.913 174.233 321.734 174.233 321.734L184.168 322.407C184.168 322.407 184.337 319.119 181.295 316.783C178.252 314.446 178.105 315.221 176.645 310.229C175.184 305.24 170.757 297.219 170.757 297.219Z" fill="#322554"/>
<path d="M168.786 227.247C168.786 227.247 168.554 230.591 169.548 231.583C170.541 232.576 175.34 231.943 175.34 229.414C175.34 226.885 170.27 225.764 168.786 227.247Z" fill="#FF4747"/>
<path d="M291.994 218.191C288.101 219.694 292.87 224.035 295.938 223.524C299.006 223.01 296.814 216.328 291.994 218.191Z" fill="#FF4747"/>
<path d="M276.921 215.886C276.921 215.886 275.227 214.243 271.722 214.717C268.213 215.19 274.22 221.148 276.989 220.49C279.756 219.83 276.921 215.886 276.921 215.886Z" fill="#FF4747"/>
<path d="M244.463 189.969C245.89 189.822 247.528 189.852 247.528 190.776C247.528 192.412 242.38 193.637 242.38 192.313C242.41 192.232 242.438 190.179 244.463 189.969Z" fill="#FF4747"/>
<path d="M160.269 168.01C160.269 168.01 159.748 163.092 159.146 162.434C158.543 161.773 153.255 155.212 152.6 155.931C151.942 156.65 156.516 161.831 156.516 161.831C156.516 161.831 151.112 156.756 150.818 157.91C150.527 159.065 155.784 163.92 155.784 163.92C155.784 163.92 150.251 159.708 150.251 160.611C150.251 160.611 155.432 166.041 155.612 166.236C155.789 166.431 156.265 169.159 156.265 169.159L160.269 168.01Z" fill="#FC7575"/>
<path d="M157.548 156.75C157.548 156.75 160.112 157.96 160.112 158.922C160.112 159.881 160.881 164.42 160.881 164.42L158.687 163.483L159.112 159.418C159.115 159.416 156.659 156.75 157.548 156.75Z" fill="#FC7575"/>
<path d="M173.706 76.691C170.535 77.053 165.513 76.2784 163.171 81.4548C161.789 84.3936 158.96 90.0585 158.96 100.128C158.96 115.128 144.489 121.77 144.489 121.77L150.832 124.835L154.619 121.77L152.034 127.28L162.435 128.318L162.878 121.132L165.027 129.303L169.887 128.318C169.887 128.318 167.971 103.768 167.76 94.4983C167.793 94.5388 167.814 94.5591 167.814 94.5591C167.814 94.5591 167.771 93.3643 167.768 91.8304C167.768 91.8279 167.768 91.8228 167.768 91.8203C167.793 91.3697 167.796 90.9065 167.778 90.4407C167.806 88.965 167.882 87.4134 168.074 86.3781C168.54 83.8418 169.472 82.5458 171.752 81.4574C174.03 80.3689 182.191 83.4672 182.191 83.4672C181.907 78.7439 176.875 76.3291 173.706 76.691Z" fill="#1B2B80"/>
<path d="M184.472 77.7221C188.459 78.603 189.664 84.7387 192.927 88.0015C196.189 91.2643 195.362 95.9774 193.807 99.0858C192.256 102.194 189.763 100.174 189.763 100.174C189.763 100.174 191.061 100.901 191.891 98.3087C192.722 95.7192 191.271 93.6993 186.869 92.2489C182.468 90.7985 178.274 81.6329 178.274 81.6329C178.162 79.8408 180.486 76.8438 184.472 77.7221Z" fill="#2F499F"/>
<path d="M189.763 101.148C191.274 102.028 193.408 98.3252 191.851 95.9079C190.72 94.0373 188.239 93.2501 186.26 92.4299C183.119 90.6277 180.102 85.6488 178.271 82.6062C179.598 86.236 182.407 91.2706 185.799 93.2779L186.617 93.6323C187.455 93.9715 190.006 94.6574 191.236 96.3179C192.228 97.6215 191.755 99.6465 191.097 100.603C190.816 101.016 190.302 101.34 189.763 101.148Z" fill="#023135"/>
<path d="M173.539 98.5034C173.539 98.5034 172.43 93.694 170.585 94.8559C168.74 96.0177 170.722 101.341 172.44 101.341C174.159 101.341 173.539 98.5034 173.539 98.5034Z" fill="#FC7575"/>
<path d="M171.964 96.1292C171.964 96.1292 174.687 100.501 172.819 100.02C170.949 99.5363 170.21 95.3167 171.964 96.1292Z" fill="#FD5E5A"/>
<path d="M295.999 84.3501C300.524 85.4892 302.304 89.9163 300.043 93.3233C299.659 93.8979 299.137 94.4422 298.451 94.4928V93.5157C298.704 93.5588 299.19 93.0297 299.345 92.8272C301.608 89.9492 300.21 85.7575 295.999 84.3501Z" fill="#560D68"/>
<path d="M291.662 80.5232C291.662 80.5232 294.842 80.5358 297.185 82.8772C299.527 85.2186 298.826 94.4602 297.185 95.8321C295.545 97.2041 301.359 98.5026 297.876 98.5026C294.396 98.5026 288.549 80.8472 291.662 80.5232Z" fill="#510B5E"/>
<path d="M288.657 84.3682C288.703 84.2112 286.87 79.2576 282.365 78.521C276.973 77.6401 270.602 81.6522 268.656 87.0943C266.709 92.5365 264.953 98.7406 259.625 100.29C254.296 101.836 253.325 109.683 254.985 114.609C256.645 119.535 261.743 118.277 261.743 118.277C261.743 118.277 258.622 115.556 259.453 114.725C259.453 114.725 261.832 119.337 264.523 118.421C267.213 117.505 268.302 116.009 268.302 116.009C268.302 116.009 263.659 115.297 266.714 112.721C268.843 110.926 269.924 109.283 272.445 106.248C274.857 103.345 273.592 95.5689 275.69 89.985C275.956 90.2077 276.361 90.4102 277.016 90.4786C279.867 90.7773 278.571 88.6941 281.284 85.5882C285.936 82.9608 288.343 84.3783 288.657 84.3682Z" fill="#510B5E"/>
<path d="M270.417 93.4404C271.151 95.5439 271.67 98.3004 271.578 100.452C271.229 107.322 263.939 103.738 261.917 103.879C260.672 103.93 259.608 105.077 260.064 106.626C260.429 107.901 261.256 108.286 261.687 108.8C262.337 109.592 261.998 110.511 261.239 110.883C259.735 111.638 257.882 109.931 257.277 111.967C256.819 113.382 257.26 115.077 258.383 116.179C257.105 115.237 256.465 113.478 256.814 111.845C257.181 110.169 258.34 110.248 259.943 110.367C260.932 110.433 261.294 109.954 261.213 109.651C261.15 109.053 259.773 108.825 259.178 106.894C258.707 105.512 259.241 104.021 260.525 103.292C263.866 101.361 271.318 108.309 270.999 98.0929C270.961 96.5336 270.723 94.9845 270.417 93.4404Z" fill="#560D68"/>
<path d="M280.658 94.6434C280.658 94.6434 280.769 91.9983 279.392 92.2236C278.015 92.4463 277.051 94.2536 277.719 96.0129C278.385 97.7721 280.843 96.9899 280.658 94.6434Z" fill="#FC7575"/>
<path d="M280.372 95.3073C280.372 95.3073 280.56 93.6873 279.955 93.538C279.35 93.3886 278.714 94.6543 278.846 95.4921C278.978 96.3325 280.281 96.2768 280.372 95.3073Z" fill="#FD5E5A"/>
<defs>
<linearGradient id="paint0_linear_53_523" x1="273.162" y1="240.29" x2="275.229" y2="197.572" gradientUnits="userSpaceOnUse">
<stop stop-color="#6A0352"/>
<stop offset="1" stop-color="#B8004C"/>
</linearGradient>
</defs>
</svg>
